G04 EAGLE Gerber X2 export*
%TF.Part,Single*%
%TF.FileFunction,Copper,L1,Top,Mixed*%
%TF.FilePolarity,Positive*%
%TF.GenerationSoftware,Autodesk,EAGLE,9.1.2*%
%TF.CreationDate,2018-09-19T13:29:08Z*%
G75*
%MOMM*%
%FSLAX34Y34*%
%LPD*%
%AMOC8*
5,1,8,0,0,1.08239X$1,22.5*%
G01*
%ADD10C,2.550000*%
%ADD11P,1.429621X8X112.500000*%
%ADD12C,1.320800*%
%ADD13C,1.651000*%
%ADD14P,1.429621X8X292.500000*%
%ADD15C,1.524000*%
%ADD16C,1.320800*%
%ADD17P,2.336880X8X292.500000*%
%ADD18R,3.251200X6.451600*%
%ADD19R,2.910000X6.450000*%
%ADD20C,1.778000*%
%ADD21C,1.508000*%
%ADD22C,2.247900*%
%ADD23C,1.206400*%
%ADD24C,1.500000*%
%ADD25C,0.600000*%
%ADD26C,2.000000*%
%ADD27R,1.206400X1.206400*%
%ADD28C,2.500000*%
%ADD29C,1.500000*%
%ADD30C,2.500000*%

G36*
X647984Y341526D02*
X647984Y341526D01*
X647993Y341525D01*
X648081Y341546D01*
X648171Y341564D01*
X648178Y341569D01*
X648186Y341571D01*
X648259Y341625D01*
X648335Y341677D01*
X648339Y341684D01*
X648346Y341689D01*
X648393Y341767D01*
X648442Y341844D01*
X648443Y341853D01*
X648448Y341860D01*
X648475Y342024D01*
X648475Y997976D01*
X648474Y997984D01*
X648475Y997993D01*
X648454Y998081D01*
X648436Y998171D01*
X648431Y998178D01*
X648429Y998186D01*
X648375Y998259D01*
X648323Y998335D01*
X648316Y998339D01*
X648311Y998346D01*
X648233Y998393D01*
X648156Y998442D01*
X648147Y998443D01*
X648140Y998448D01*
X647976Y998475D01*
X2024Y998475D01*
X2016Y998474D01*
X2007Y998475D01*
X1919Y998454D01*
X1829Y998436D01*
X1822Y998431D01*
X1814Y998429D01*
X1741Y998375D01*
X1665Y998323D01*
X1661Y998316D01*
X1654Y998311D01*
X1607Y998233D01*
X1558Y998156D01*
X1557Y998147D01*
X1552Y998140D01*
X1525Y997976D01*
X1525Y871460D01*
X1526Y871456D01*
X1525Y871452D01*
X1545Y871358D01*
X1564Y871265D01*
X1567Y871261D01*
X1568Y871257D01*
X1623Y871179D01*
X1677Y871101D01*
X1680Y871099D01*
X1683Y871095D01*
X1764Y871045D01*
X1844Y870994D01*
X1849Y870993D01*
X1852Y870991D01*
X1946Y870977D01*
X2041Y870961D01*
X2045Y870962D01*
X2049Y870961D01*
X2141Y870985D01*
X2234Y871007D01*
X2237Y871009D01*
X2241Y871010D01*
X2377Y871107D01*
X5360Y874090D01*
X9993Y876009D01*
X15007Y876009D01*
X19640Y874090D01*
X23186Y870544D01*
X24739Y866795D01*
X24741Y866791D01*
X24742Y866787D01*
X24797Y866708D01*
X24850Y866630D01*
X24853Y866628D01*
X24856Y866624D01*
X24937Y866574D01*
X25017Y866521D01*
X25021Y866521D01*
X25024Y866519D01*
X25118Y866503D01*
X25212Y866487D01*
X25216Y866488D01*
X25221Y866487D01*
X25312Y866510D01*
X25406Y866531D01*
X25410Y866534D01*
X25414Y866535D01*
X25490Y866592D01*
X25567Y866648D01*
X25569Y866651D01*
X25573Y866654D01*
X25661Y866795D01*
X27214Y870544D01*
X30760Y874090D01*
X35393Y876009D01*
X40407Y876009D01*
X45040Y874090D01*
X48586Y870544D01*
X50505Y865911D01*
X50505Y847689D01*
X48586Y843056D01*
X45040Y839510D01*
X40407Y837591D01*
X35393Y837591D01*
X30760Y839510D01*
X27214Y843056D01*
X25661Y846805D01*
X25659Y846809D01*
X25658Y846813D01*
X25603Y846891D01*
X25550Y846970D01*
X25547Y846972D01*
X25544Y846976D01*
X25463Y847026D01*
X25383Y847079D01*
X25379Y847079D01*
X25376Y847081D01*
X25282Y847097D01*
X25188Y847113D01*
X25183Y847112D01*
X25179Y847113D01*
X25088Y847090D01*
X24994Y847069D01*
X24990Y847066D01*
X24986Y847065D01*
X24910Y847008D01*
X24833Y846952D01*
X24831Y846949D01*
X24827Y846946D01*
X24739Y846805D01*
X23186Y843056D01*
X19640Y839510D01*
X15007Y837591D01*
X9993Y837591D01*
X5360Y839510D01*
X2377Y842493D01*
X2373Y842496D01*
X2371Y842499D01*
X2291Y842550D01*
X2211Y842603D01*
X2207Y842604D01*
X2204Y842606D01*
X2110Y842622D01*
X2016Y842639D01*
X2012Y842638D01*
X2007Y842639D01*
X1916Y842617D01*
X1822Y842597D01*
X1818Y842594D01*
X1814Y842593D01*
X1738Y842537D01*
X1659Y842481D01*
X1657Y842478D01*
X1654Y842475D01*
X1605Y842393D01*
X1555Y842312D01*
X1555Y842308D01*
X1552Y842304D01*
X1525Y842140D01*
X1525Y342024D01*
X1526Y342016D01*
X1525Y342007D01*
X1546Y341919D01*
X1564Y341829D01*
X1569Y341822D01*
X1571Y341814D01*
X1625Y341741D01*
X1677Y341665D01*
X1684Y341661D01*
X1689Y341654D01*
X1767Y341607D01*
X1844Y341558D01*
X1853Y341557D01*
X1860Y341552D01*
X2024Y341525D01*
X647976Y341525D01*
X647984Y341526D01*
G37*
%LPC*%
G36*
X22548Y348509D02*
X22548Y348509D01*
X17075Y350776D01*
X12886Y354965D01*
X10619Y360438D01*
X10619Y366362D01*
X12886Y371835D01*
X16798Y375747D01*
X16803Y375754D01*
X16810Y375759D01*
X16858Y375836D01*
X16908Y375913D01*
X16910Y375921D01*
X16914Y375928D01*
X16928Y376018D01*
X16944Y376108D01*
X16943Y376117D01*
X16944Y376125D01*
X16921Y376213D01*
X16902Y376302D01*
X16897Y376309D01*
X16895Y376317D01*
X16798Y376453D01*
X12886Y380365D01*
X10619Y385838D01*
X10619Y391762D01*
X12886Y397235D01*
X16798Y401147D01*
X16803Y401154D01*
X16810Y401159D01*
X16858Y401236D01*
X16908Y401313D01*
X16910Y401321D01*
X16914Y401328D01*
X16928Y401418D01*
X16944Y401508D01*
X16943Y401517D01*
X16944Y401525D01*
X16921Y401613D01*
X16902Y401702D01*
X16897Y401709D01*
X16895Y401717D01*
X16798Y401853D01*
X12886Y405765D01*
X10619Y411238D01*
X10619Y417162D01*
X12886Y422635D01*
X16798Y426547D01*
X16799Y426549D01*
X16801Y426549D01*
X16804Y426555D01*
X16810Y426559D01*
X16858Y426636D01*
X16908Y426713D01*
X16910Y426721D01*
X16914Y426728D01*
X16928Y426818D01*
X16944Y426908D01*
X16943Y426917D01*
X16944Y426925D01*
X16921Y427013D01*
X16902Y427102D01*
X16897Y427109D01*
X16895Y427117D01*
X16798Y427253D01*
X12886Y431165D01*
X10619Y436638D01*
X10619Y442562D01*
X12886Y448035D01*
X16798Y451947D01*
X16803Y451954D01*
X16810Y451959D01*
X16858Y452036D01*
X16908Y452113D01*
X16910Y452121D01*
X16914Y452128D01*
X16928Y452218D01*
X16944Y452308D01*
X16943Y452317D01*
X16944Y452325D01*
X16921Y452413D01*
X16902Y452502D01*
X16897Y452509D01*
X16895Y452517D01*
X16798Y452653D01*
X12886Y456565D01*
X10619Y462038D01*
X10619Y467962D01*
X12886Y473435D01*
X16798Y477347D01*
X16803Y477354D01*
X16810Y477359D01*
X16857Y477436D01*
X16908Y477513D01*
X16910Y477521D01*
X16914Y477528D01*
X16928Y477618D01*
X16944Y477708D01*
X16943Y477716D01*
X16944Y477725D01*
X16921Y477813D01*
X16902Y477902D01*
X16897Y477909D01*
X16895Y477917D01*
X16798Y478053D01*
X12886Y481965D01*
X10619Y487438D01*
X10619Y493362D01*
X12886Y498835D01*
X17075Y503024D01*
X20670Y504513D01*
X20740Y504560D01*
X20813Y504603D01*
X20822Y504615D01*
X20835Y504624D01*
X20881Y504695D01*
X20931Y504762D01*
X20935Y504778D01*
X20943Y504791D01*
X20958Y504874D01*
X20978Y504956D01*
X20975Y504971D01*
X20978Y504986D01*
X20959Y505069D01*
X20946Y505152D01*
X20937Y505165D01*
X20934Y505180D01*
X20884Y505249D01*
X20839Y505320D01*
X20825Y505330D01*
X20817Y505341D01*
X20779Y505364D01*
X20706Y505419D01*
X19519Y506024D01*
X18063Y507081D01*
X16791Y508353D01*
X15734Y509809D01*
X14917Y511412D01*
X14361Y513123D01*
X14095Y514801D01*
X33900Y514801D01*
X33908Y514802D01*
X33916Y514801D01*
X34005Y514822D01*
X34095Y514840D01*
X34102Y514845D01*
X34110Y514847D01*
X34183Y514901D01*
X34259Y514953D01*
X34263Y514960D01*
X34270Y514965D01*
X34316Y515043D01*
X34366Y515120D01*
X34367Y515129D01*
X34371Y515136D01*
X34399Y515300D01*
X34399Y516300D01*
X34397Y516308D01*
X34399Y516316D01*
X34378Y516405D01*
X34360Y516495D01*
X34355Y516502D01*
X34353Y516510D01*
X34299Y516583D01*
X34247Y516659D01*
X34240Y516663D01*
X34235Y516670D01*
X34157Y516716D01*
X34079Y516766D01*
X34071Y516767D01*
X34064Y516771D01*
X33900Y516799D01*
X14095Y516799D01*
X14361Y518477D01*
X14917Y520188D01*
X15734Y521791D01*
X16791Y523247D01*
X18063Y524519D01*
X19519Y525576D01*
X20706Y526181D01*
X20772Y526234D01*
X20841Y526282D01*
X20849Y526295D01*
X20861Y526305D01*
X20902Y526379D01*
X20946Y526450D01*
X20949Y526466D01*
X20956Y526480D01*
X20964Y526564D01*
X20978Y526647D01*
X20974Y526662D01*
X20976Y526677D01*
X20950Y526758D01*
X20930Y526840D01*
X20921Y526852D01*
X20916Y526867D01*
X20862Y526931D01*
X20811Y526999D01*
X20796Y527008D01*
X20787Y527019D01*
X20748Y527038D01*
X20670Y527087D01*
X17075Y528576D01*
X12886Y532765D01*
X10619Y538238D01*
X10619Y544162D01*
X12841Y549526D01*
X12842Y549530D01*
X12844Y549532D01*
X12844Y549535D01*
X12846Y549538D01*
X12861Y549630D01*
X12879Y549722D01*
X12878Y549728D01*
X12879Y549734D01*
X12857Y549825D01*
X12838Y549916D01*
X12834Y549921D01*
X12833Y549927D01*
X12779Y550001D01*
X12724Y550079D01*
X12719Y550083D01*
X12715Y550088D01*
X12635Y550135D01*
X12556Y550185D01*
X12550Y550186D01*
X12544Y550189D01*
X12380Y550217D01*
X7774Y550217D01*
X5569Y551130D01*
X3881Y552818D01*
X2967Y555024D01*
X2967Y569475D01*
X3881Y571681D01*
X5569Y573369D01*
X5691Y573419D01*
X5700Y573425D01*
X5710Y573428D01*
X5782Y573480D01*
X5856Y573530D01*
X5862Y573539D01*
X5870Y573545D01*
X5915Y573622D01*
X5964Y573697D01*
X5966Y573707D01*
X5972Y573716D01*
X5999Y573880D01*
X5999Y776790D01*
X7370Y780099D01*
X25920Y798649D01*
X25924Y798656D01*
X25931Y798660D01*
X25979Y798738D01*
X26029Y798814D01*
X26031Y798823D01*
X26035Y798830D01*
X26049Y798920D01*
X26066Y799010D01*
X26064Y799018D01*
X26065Y799026D01*
X26043Y799114D01*
X26023Y799204D01*
X26018Y799211D01*
X26016Y799219D01*
X25920Y799355D01*
X18395Y806879D01*
X18395Y817321D01*
X25779Y824705D01*
X36221Y824705D01*
X43605Y817321D01*
X43605Y816572D01*
X43606Y816567D01*
X43605Y816563D01*
X43625Y816470D01*
X43644Y816377D01*
X43647Y816373D01*
X43648Y816369D01*
X43703Y816291D01*
X43757Y816213D01*
X43760Y816210D01*
X43763Y816207D01*
X43844Y816157D01*
X43924Y816106D01*
X43929Y816105D01*
X43932Y816103D01*
X44026Y816088D01*
X44121Y816073D01*
X44125Y816074D01*
X44129Y816073D01*
X44221Y816097D01*
X44314Y816119D01*
X44317Y816121D01*
X44321Y816122D01*
X44457Y816219D01*
X53267Y825028D01*
X55869Y827630D01*
X59177Y829001D01*
X79168Y829001D01*
X79172Y829002D01*
X79177Y829001D01*
X79270Y829021D01*
X79363Y829040D01*
X79367Y829043D01*
X79371Y829044D01*
X79449Y829099D01*
X79527Y829153D01*
X79529Y829156D01*
X79533Y829159D01*
X79583Y829240D01*
X79634Y829320D01*
X79635Y829325D01*
X79637Y829328D01*
X79651Y829422D01*
X79667Y829517D01*
X79666Y829521D01*
X79667Y829525D01*
X79643Y829617D01*
X79621Y829710D01*
X79619Y829713D01*
X79618Y829717D01*
X79521Y829853D01*
X78395Y830979D01*
X78395Y841421D01*
X85779Y848805D01*
X96221Y848805D01*
X103605Y841421D01*
X103605Y830979D01*
X102479Y829853D01*
X102476Y829849D01*
X102473Y829847D01*
X102422Y829767D01*
X102369Y829687D01*
X102368Y829683D01*
X102366Y829680D01*
X102350Y829586D01*
X102333Y829492D01*
X102333Y829488D01*
X102333Y829483D01*
X102355Y829392D01*
X102375Y829298D01*
X102378Y829294D01*
X102379Y829290D01*
X102435Y829214D01*
X102491Y829135D01*
X102494Y829133D01*
X102497Y829130D01*
X102579Y829081D01*
X102660Y829031D01*
X102664Y829031D01*
X102668Y829028D01*
X102832Y829001D01*
X116065Y829001D01*
X116077Y829003D01*
X116090Y829001D01*
X116174Y829023D01*
X116260Y829040D01*
X116270Y829047D01*
X116282Y829051D01*
X116418Y829147D01*
X157821Y870550D01*
X157828Y870561D01*
X157838Y870568D01*
X157883Y870643D01*
X157931Y870716D01*
X157933Y870728D01*
X157940Y870739D01*
X157967Y870903D01*
X157967Y877226D01*
X158881Y879431D01*
X160569Y881119D01*
X162774Y882033D01*
X177226Y882033D01*
X179431Y881119D01*
X181119Y879431D01*
X182033Y877226D01*
X182033Y862774D01*
X181119Y860569D01*
X179431Y858881D01*
X177226Y857967D01*
X170903Y857967D01*
X170891Y857965D01*
X170878Y857967D01*
X170794Y857945D01*
X170708Y857928D01*
X170698Y857921D01*
X170686Y857917D01*
X170550Y857821D01*
X125099Y812370D01*
X121790Y810999D01*
X64902Y810999D01*
X64890Y810997D01*
X64878Y810999D01*
X64793Y810977D01*
X64708Y810960D01*
X64697Y810953D01*
X64685Y810949D01*
X64549Y810853D01*
X42562Y788866D01*
X41002Y788219D01*
X40990Y788211D01*
X40976Y788208D01*
X40840Y788111D01*
X24147Y771418D01*
X24140Y771407D01*
X24130Y771400D01*
X24085Y771325D01*
X24037Y771252D01*
X24035Y771240D01*
X24028Y771229D01*
X24001Y771065D01*
X24001Y747932D01*
X24002Y747928D01*
X24001Y747923D01*
X24021Y747830D01*
X24040Y747737D01*
X24043Y747733D01*
X24044Y747729D01*
X24099Y747651D01*
X24153Y747573D01*
X24156Y747571D01*
X24159Y747567D01*
X24240Y747517D01*
X24320Y747466D01*
X24325Y747465D01*
X24328Y747463D01*
X24422Y747449D01*
X24517Y747433D01*
X24521Y747434D01*
X24525Y747433D01*
X24617Y747457D01*
X24710Y747479D01*
X24713Y747481D01*
X24717Y747482D01*
X24853Y747579D01*
X25779Y748505D01*
X36221Y748505D01*
X43605Y741121D01*
X43605Y730679D01*
X36221Y723295D01*
X25779Y723295D01*
X24853Y724221D01*
X24849Y724224D01*
X24847Y724227D01*
X24767Y724278D01*
X24687Y724331D01*
X24683Y724332D01*
X24680Y724334D01*
X24586Y724350D01*
X24492Y724367D01*
X24488Y724367D01*
X24483Y724367D01*
X24392Y724345D01*
X24298Y724325D01*
X24294Y724322D01*
X24290Y724321D01*
X24214Y724265D01*
X24135Y724209D01*
X24133Y724206D01*
X24130Y724203D01*
X24081Y724121D01*
X24031Y724040D01*
X24031Y724036D01*
X24028Y724032D01*
X24001Y723868D01*
X24001Y683189D01*
X24002Y683185D01*
X24001Y683180D01*
X24021Y683087D01*
X24040Y682994D01*
X24043Y682990D01*
X24044Y682986D01*
X24099Y682908D01*
X24153Y682830D01*
X24156Y682828D01*
X24159Y682824D01*
X24240Y682774D01*
X24320Y682723D01*
X24325Y682722D01*
X24328Y682720D01*
X24422Y682706D01*
X24517Y682690D01*
X24521Y682691D01*
X24525Y682690D01*
X24617Y682714D01*
X24710Y682736D01*
X24713Y682738D01*
X24717Y682739D01*
X24853Y682836D01*
X26664Y684647D01*
X31671Y686721D01*
X45448Y686721D01*
X45452Y686722D01*
X45456Y686721D01*
X45550Y686741D01*
X45643Y686760D01*
X45647Y686763D01*
X45651Y686764D01*
X45729Y686819D01*
X45807Y686873D01*
X45809Y686876D01*
X45813Y686879D01*
X45863Y686960D01*
X45914Y687040D01*
X45915Y687045D01*
X45917Y687048D01*
X45931Y687142D01*
X45947Y687237D01*
X45946Y687241D01*
X45947Y687245D01*
X45923Y687337D01*
X45901Y687430D01*
X45899Y687433D01*
X45898Y687437D01*
X45801Y687573D01*
X42395Y690979D01*
X42395Y701421D01*
X49779Y708805D01*
X60221Y708805D01*
X62647Y706379D01*
X62651Y706376D01*
X62653Y706373D01*
X62733Y706322D01*
X62813Y706269D01*
X62817Y706268D01*
X62820Y706266D01*
X62914Y706250D01*
X63008Y706233D01*
X63012Y706233D01*
X63017Y706233D01*
X63108Y706255D01*
X63202Y706275D01*
X63206Y706278D01*
X63210Y706279D01*
X63286Y706335D01*
X63365Y706391D01*
X63367Y706394D01*
X63370Y706397D01*
X63419Y706479D01*
X63469Y706560D01*
X63469Y706564D01*
X63472Y706568D01*
X63499Y706732D01*
X63499Y738260D01*
X66316Y745059D01*
X89062Y767806D01*
X93670Y769714D01*
X93701Y769735D01*
X93799Y769793D01*
X99737Y774757D01*
X106281Y776808D01*
X113113Y776198D01*
X119191Y773021D01*
X123590Y767759D01*
X125641Y761214D01*
X125032Y754383D01*
X121854Y748305D01*
X116031Y743436D01*
X116008Y743407D01*
X115978Y743385D01*
X115935Y743315D01*
X115907Y743280D01*
X115902Y743263D01*
X115890Y743244D01*
X115226Y741642D01*
X100647Y727062D01*
X100640Y727052D01*
X100630Y727044D01*
X100585Y726970D01*
X100537Y726897D01*
X100535Y726884D01*
X100528Y726873D01*
X100501Y726709D01*
X100501Y590225D01*
X100504Y590211D01*
X100502Y590196D01*
X100539Y590034D01*
X101033Y588842D01*
X101033Y561158D01*
X100539Y559966D01*
X100536Y559951D01*
X100528Y559939D01*
X100501Y559775D01*
X100501Y504870D01*
X100503Y504858D01*
X100501Y504845D01*
X100523Y504761D01*
X100540Y504675D01*
X100547Y504665D01*
X100551Y504653D01*
X100647Y504517D01*
X107191Y497973D01*
X107195Y497971D01*
X107197Y497967D01*
X107277Y497916D01*
X107357Y497863D01*
X107361Y497862D01*
X107364Y497860D01*
X107458Y497844D01*
X107552Y497827D01*
X107556Y497828D01*
X107561Y497827D01*
X107652Y497849D01*
X107746Y497870D01*
X107750Y497872D01*
X107754Y497873D01*
X107830Y497929D01*
X107909Y497985D01*
X107911Y497988D01*
X107914Y497991D01*
X107963Y498073D01*
X108013Y498154D01*
X108013Y498158D01*
X108016Y498162D01*
X108043Y498326D01*
X108043Y516052D01*
X108957Y518257D01*
X110645Y519945D01*
X112850Y520859D01*
X147750Y520859D01*
X147798Y520839D01*
X147812Y520836D01*
X147825Y520828D01*
X147989Y520801D01*
X176694Y520801D01*
X178899Y519887D01*
X180587Y518199D01*
X181501Y515994D01*
X181501Y449106D01*
X180587Y446901D01*
X178899Y445213D01*
X176694Y444299D01*
X153607Y444299D01*
X153603Y444298D01*
X153599Y444299D01*
X153505Y444279D01*
X153412Y444260D01*
X153409Y444257D01*
X153405Y444256D01*
X153326Y444201D01*
X153248Y444147D01*
X153246Y444144D01*
X153243Y444141D01*
X153193Y444060D01*
X153141Y443980D01*
X153140Y443975D01*
X153138Y443972D01*
X153124Y443878D01*
X153108Y443783D01*
X153109Y443779D01*
X153108Y443775D01*
X153132Y443683D01*
X153154Y443590D01*
X153157Y443587D01*
X153158Y443583D01*
X153254Y443447D01*
X161765Y434936D01*
X161776Y434929D01*
X161783Y434919D01*
X161858Y434874D01*
X161931Y434826D01*
X161944Y434824D01*
X161954Y434817D01*
X162118Y434789D01*
X175343Y434789D01*
X175357Y434792D01*
X175372Y434790D01*
X175534Y434827D01*
X177265Y435544D01*
X182936Y435544D01*
X188176Y433374D01*
X192186Y429364D01*
X194270Y424331D01*
X194284Y424311D01*
X194291Y424288D01*
X194339Y424229D01*
X194382Y424166D01*
X194402Y424153D01*
X194417Y424134D01*
X194484Y424099D01*
X194548Y424058D01*
X194572Y424053D01*
X194593Y424042D01*
X194669Y424036D01*
X194744Y424023D01*
X194767Y424028D01*
X194791Y424026D01*
X194863Y424050D01*
X194938Y424067D01*
X194957Y424081D01*
X194980Y424089D01*
X195037Y424139D01*
X195099Y424184D01*
X195111Y424204D01*
X195129Y424220D01*
X195183Y424324D01*
X195202Y424354D01*
X195203Y424361D01*
X195206Y424368D01*
X195495Y425255D01*
X196266Y426770D01*
X197265Y428144D01*
X198467Y429346D01*
X199841Y430345D01*
X201356Y431116D01*
X202972Y431641D01*
X204576Y431895D01*
X204504Y421618D01*
X204506Y421610D01*
X204504Y421602D01*
X204525Y421513D01*
X204542Y421423D01*
X204547Y421416D01*
X204549Y421408D01*
X204603Y421334D01*
X204654Y421259D01*
X204661Y421254D01*
X204666Y421247D01*
X204744Y421200D01*
X204820Y421150D01*
X204829Y421149D01*
X204836Y421145D01*
X205000Y421116D01*
X205501Y421112D01*
X205501Y421110D01*
X205000Y421114D01*
X204991Y421112D01*
X204983Y421114D01*
X204894Y421093D01*
X204805Y421076D01*
X204798Y421071D01*
X204789Y421069D01*
X204715Y421015D01*
X204640Y420964D01*
X204635Y420957D01*
X204628Y420952D01*
X204581Y420874D01*
X204532Y420797D01*
X204530Y420789D01*
X204526Y420782D01*
X204497Y420618D01*
X204425Y410351D01*
X202972Y410581D01*
X201356Y411106D01*
X199841Y411878D01*
X198467Y412877D01*
X197265Y414078D01*
X196266Y415453D01*
X195495Y416967D01*
X195142Y418054D01*
X195130Y418075D01*
X195125Y418098D01*
X195081Y418161D01*
X195044Y418227D01*
X195025Y418241D01*
X195011Y418261D01*
X194947Y418302D01*
X194886Y418348D01*
X194863Y418354D01*
X194843Y418367D01*
X194768Y418379D01*
X194694Y418398D01*
X194670Y418394D01*
X194646Y418398D01*
X194573Y418380D01*
X194497Y418369D01*
X194477Y418356D01*
X194453Y418351D01*
X194392Y418305D01*
X194327Y418265D01*
X194313Y418246D01*
X194294Y418231D01*
X194232Y418132D01*
X194212Y418104D01*
X194210Y418097D01*
X194206Y418090D01*
X192186Y413213D01*
X188176Y409203D01*
X182936Y407033D01*
X177265Y407033D01*
X175534Y407750D01*
X175519Y407753D01*
X175507Y407760D01*
X175343Y407788D01*
X153634Y407788D01*
X148672Y409843D01*
X121455Y437061D01*
X119399Y442023D01*
X119399Y443842D01*
X119398Y443850D01*
X119399Y443859D01*
X119378Y443947D01*
X119360Y444037D01*
X119355Y444044D01*
X119353Y444052D01*
X119299Y444125D01*
X119247Y444201D01*
X119240Y444205D01*
X119235Y444212D01*
X119157Y444259D01*
X119080Y444308D01*
X119071Y444309D01*
X119064Y444314D01*
X118900Y444341D01*
X112850Y444341D01*
X110645Y445255D01*
X108957Y446943D01*
X108043Y449148D01*
X108043Y451000D01*
X108042Y451008D01*
X108043Y451017D01*
X108022Y451105D01*
X108004Y451195D01*
X107999Y451202D01*
X107997Y451210D01*
X107943Y451283D01*
X107891Y451359D01*
X107884Y451363D01*
X107879Y451370D01*
X107801Y451417D01*
X107724Y451466D01*
X107715Y451467D01*
X107708Y451472D01*
X107544Y451499D01*
X105320Y451499D01*
X98520Y454316D01*
X66316Y486520D01*
X63499Y493320D01*
X63499Y567987D01*
X63993Y569179D01*
X63996Y569194D01*
X64004Y569206D01*
X64031Y569370D01*
X64031Y580630D01*
X64028Y580644D01*
X64030Y580659D01*
X63993Y580821D01*
X63499Y582013D01*
X63499Y617705D01*
X63499Y617707D01*
X63499Y617709D01*
X63479Y617803D01*
X63460Y617900D01*
X63458Y617902D01*
X63458Y617904D01*
X63402Y617984D01*
X63347Y618064D01*
X63345Y618065D01*
X63344Y618067D01*
X63261Y618119D01*
X63180Y618171D01*
X63177Y618171D01*
X63176Y618172D01*
X63080Y618188D01*
X62983Y618204D01*
X62981Y618203D01*
X62979Y618204D01*
X62885Y618180D01*
X62790Y618158D01*
X62788Y618157D01*
X62786Y618156D01*
X62707Y618097D01*
X62630Y618040D01*
X62629Y618038D01*
X62627Y618037D01*
X62539Y617896D01*
X61167Y614584D01*
X57336Y610753D01*
X52329Y608679D01*
X31671Y608679D01*
X26664Y610753D01*
X24853Y612564D01*
X24849Y612567D01*
X24847Y612570D01*
X24767Y612621D01*
X24687Y612674D01*
X24683Y612675D01*
X24680Y612677D01*
X24586Y612693D01*
X24492Y612711D01*
X24488Y612710D01*
X24483Y612710D01*
X24392Y612688D01*
X24298Y612668D01*
X24294Y612665D01*
X24290Y612664D01*
X24214Y612608D01*
X24135Y612553D01*
X24133Y612549D01*
X24130Y612546D01*
X24081Y612465D01*
X24031Y612383D01*
X24031Y612379D01*
X24028Y612375D01*
X24001Y612211D01*
X24001Y600989D01*
X24005Y600966D01*
X24003Y600942D01*
X24023Y600877D01*
X24029Y600830D01*
X24035Y600819D01*
X24040Y600794D01*
X24054Y600774D01*
X24061Y600752D01*
X24108Y600694D01*
X24130Y600658D01*
X24137Y600653D01*
X24153Y600630D01*
X24173Y600617D01*
X24188Y600599D01*
X24256Y600564D01*
X24261Y600561D01*
X24289Y600540D01*
X24297Y600538D01*
X24320Y600523D01*
X24344Y600519D01*
X24365Y600508D01*
X24441Y600503D01*
X24449Y600501D01*
X24482Y600493D01*
X24490Y600494D01*
X24517Y600490D01*
X24539Y600495D01*
X24563Y600494D01*
X24636Y600518D01*
X24639Y600519D01*
X24679Y600525D01*
X24686Y600530D01*
X24710Y600536D01*
X24729Y600550D01*
X24751Y600557D01*
X24806Y600606D01*
X24847Y600632D01*
X24854Y600642D01*
X24870Y600654D01*
X24882Y600674D01*
X24900Y600690D01*
X24922Y600734D01*
X24946Y600765D01*
X25690Y602225D01*
X26630Y603519D01*
X27761Y604650D01*
X29055Y605590D01*
X30480Y606316D01*
X32001Y606811D01*
X33580Y607061D01*
X41001Y607061D01*
X41001Y597400D01*
X41002Y597392D01*
X41001Y597384D01*
X41022Y597295D01*
X41040Y597205D01*
X41045Y597198D01*
X41047Y597190D01*
X41101Y597117D01*
X41153Y597041D01*
X41160Y597037D01*
X41165Y597030D01*
X41243Y596984D01*
X41320Y596934D01*
X41329Y596933D01*
X41336Y596929D01*
X41500Y596901D01*
X42001Y596901D01*
X42001Y596899D01*
X41500Y596899D01*
X41492Y596897D01*
X41483Y596899D01*
X41395Y596878D01*
X41305Y596860D01*
X41298Y596855D01*
X41290Y596853D01*
X41217Y596799D01*
X41141Y596747D01*
X41137Y596740D01*
X41130Y596735D01*
X41083Y596657D01*
X41034Y596579D01*
X41033Y596571D01*
X41028Y596564D01*
X41001Y596400D01*
X41001Y586739D01*
X33580Y586739D01*
X32001Y586989D01*
X30480Y587484D01*
X29055Y588210D01*
X27761Y589150D01*
X26630Y590281D01*
X25690Y591575D01*
X24946Y593035D01*
X24911Y593078D01*
X24878Y593137D01*
X24860Y593151D01*
X24847Y593170D01*
X24829Y593182D01*
X24822Y593190D01*
X24780Y593213D01*
X24721Y593259D01*
X24699Y593265D01*
X24680Y593277D01*
X24655Y593281D01*
X24647Y593285D01*
X24608Y593289D01*
X24603Y593290D01*
X24529Y593310D01*
X24506Y593306D01*
X24483Y593310D01*
X24457Y593304D01*
X24450Y593305D01*
X24417Y593294D01*
X24409Y593292D01*
X24332Y593281D01*
X24312Y593269D01*
X24290Y593264D01*
X24267Y593247D01*
X24260Y593245D01*
X24232Y593221D01*
X24228Y593218D01*
X24162Y593178D01*
X24148Y593160D01*
X24130Y593146D01*
X24116Y593123D01*
X24108Y593116D01*
X24089Y593078D01*
X24045Y593017D01*
X24040Y592995D01*
X24028Y592975D01*
X24024Y592948D01*
X24019Y592939D01*
X24017Y592909D01*
X24008Y592856D01*
X24001Y592824D01*
X24002Y592817D01*
X24001Y592811D01*
X24001Y573880D01*
X24003Y573870D01*
X24001Y573860D01*
X24022Y573773D01*
X24040Y573686D01*
X24046Y573677D01*
X24049Y573667D01*
X24102Y573595D01*
X24153Y573522D01*
X24162Y573516D01*
X24168Y573508D01*
X24309Y573419D01*
X24431Y573369D01*
X26119Y571681D01*
X27033Y569475D01*
X27033Y556590D01*
X27034Y556582D01*
X27033Y556573D01*
X27054Y556485D01*
X27072Y556395D01*
X27077Y556388D01*
X27079Y556380D01*
X27133Y556307D01*
X27185Y556231D01*
X27192Y556227D01*
X27197Y556220D01*
X27275Y556173D01*
X27352Y556124D01*
X27361Y556123D01*
X27368Y556118D01*
X27532Y556091D01*
X46252Y556091D01*
X51725Y553824D01*
X55914Y549635D01*
X58181Y544162D01*
X58181Y538238D01*
X55914Y532765D01*
X51725Y528576D01*
X48130Y527087D01*
X48060Y527040D01*
X47987Y526997D01*
X47978Y526985D01*
X47965Y526976D01*
X47919Y526905D01*
X47869Y526838D01*
X47865Y526822D01*
X47857Y526809D01*
X47842Y526726D01*
X47822Y526644D01*
X47825Y526629D01*
X47822Y526614D01*
X47841Y526531D01*
X47854Y526448D01*
X47863Y526435D01*
X47866Y526420D01*
X47916Y526351D01*
X47961Y526280D01*
X47975Y526270D01*
X47983Y526259D01*
X48021Y526236D01*
X48094Y526181D01*
X49281Y525576D01*
X50737Y524519D01*
X52009Y523247D01*
X53066Y521791D01*
X53883Y520188D01*
X54439Y518477D01*
X54705Y516799D01*
X34900Y516799D01*
X34892Y516798D01*
X34884Y516799D01*
X34795Y516778D01*
X34705Y516760D01*
X34698Y516755D01*
X34690Y516753D01*
X34617Y516699D01*
X34541Y516647D01*
X34537Y516640D01*
X34530Y516635D01*
X34484Y516557D01*
X34434Y516480D01*
X34433Y516471D01*
X34429Y516464D01*
X34401Y516300D01*
X34401Y515300D01*
X34403Y515292D01*
X34401Y515283D01*
X34422Y515195D01*
X34440Y515105D01*
X34445Y515098D01*
X34447Y515090D01*
X34501Y515017D01*
X34553Y514941D01*
X34560Y514937D01*
X34565Y514930D01*
X34643Y514883D01*
X34721Y514834D01*
X34729Y514833D01*
X34736Y514828D01*
X34900Y514801D01*
X54705Y514801D01*
X54439Y513123D01*
X53883Y511412D01*
X53066Y509809D01*
X52009Y508353D01*
X50737Y507081D01*
X49281Y506024D01*
X48094Y505419D01*
X48028Y505366D01*
X47959Y505318D01*
X47951Y505305D01*
X47939Y505295D01*
X47898Y505221D01*
X47854Y505150D01*
X47851Y505134D01*
X47844Y505120D01*
X47836Y505036D01*
X47822Y504953D01*
X47826Y504938D01*
X47824Y504923D01*
X47850Y504842D01*
X47870Y504760D01*
X47879Y504748D01*
X47884Y504733D01*
X47938Y504669D01*
X47989Y504601D01*
X48004Y504592D01*
X48013Y504581D01*
X48052Y504562D01*
X48130Y504513D01*
X51725Y503024D01*
X55914Y498835D01*
X58181Y493362D01*
X58181Y487438D01*
X55914Y481965D01*
X52002Y478053D01*
X51997Y478046D01*
X51990Y478041D01*
X51942Y477964D01*
X51892Y477887D01*
X51890Y477879D01*
X51886Y477872D01*
X51872Y477782D01*
X51856Y477692D01*
X51857Y477683D01*
X51856Y477675D01*
X51879Y477587D01*
X51898Y477498D01*
X51903Y477491D01*
X51905Y477483D01*
X52002Y477347D01*
X55914Y473435D01*
X58181Y467962D01*
X58181Y462038D01*
X55914Y456565D01*
X52002Y452653D01*
X51997Y452646D01*
X51990Y452641D01*
X51943Y452564D01*
X51892Y452487D01*
X51890Y452479D01*
X51886Y452472D01*
X51872Y452382D01*
X51856Y452292D01*
X51857Y452284D01*
X51856Y452275D01*
X51879Y452187D01*
X51898Y452098D01*
X51903Y452091D01*
X51905Y452083D01*
X52002Y451947D01*
X55914Y448035D01*
X58181Y442562D01*
X58181Y436638D01*
X55914Y431165D01*
X52002Y427253D01*
X51997Y427246D01*
X51990Y427241D01*
X51943Y427164D01*
X51892Y427087D01*
X51890Y427079D01*
X51886Y427072D01*
X51872Y426982D01*
X51856Y426892D01*
X51857Y426884D01*
X51856Y426875D01*
X51879Y426787D01*
X51898Y426698D01*
X51903Y426691D01*
X51905Y426683D01*
X52002Y426547D01*
X55914Y422635D01*
X58181Y417162D01*
X58181Y411238D01*
X55914Y405765D01*
X52002Y401853D01*
X51997Y401846D01*
X51990Y401841D01*
X51943Y401764D01*
X51892Y401687D01*
X51890Y401679D01*
X51886Y401672D01*
X51872Y401582D01*
X51856Y401492D01*
X51857Y401484D01*
X51856Y401475D01*
X51879Y401387D01*
X51898Y401298D01*
X51903Y401291D01*
X51905Y401283D01*
X52002Y401147D01*
X55914Y397235D01*
X58181Y391762D01*
X58181Y385838D01*
X55914Y380365D01*
X52002Y376453D01*
X51997Y376446D01*
X51990Y376441D01*
X51943Y376364D01*
X51892Y376287D01*
X51890Y376279D01*
X51886Y376272D01*
X51872Y376182D01*
X51856Y376092D01*
X51857Y376084D01*
X51856Y376075D01*
X51879Y375987D01*
X51898Y375898D01*
X51903Y375891D01*
X51905Y375883D01*
X52002Y375747D01*
X55914Y371835D01*
X58181Y366362D01*
X58181Y360438D01*
X55914Y354965D01*
X51725Y350776D01*
X46252Y348509D01*
X22548Y348509D01*
G37*
%LPD*%
%LPC*%
G36*
X414871Y488679D02*
X414871Y488679D01*
X409864Y490753D01*
X406033Y494584D01*
X403959Y499591D01*
X403959Y505009D01*
X406033Y510016D01*
X409865Y513847D01*
X411534Y514539D01*
X411538Y514541D01*
X411542Y514542D01*
X411621Y514597D01*
X411699Y514650D01*
X411701Y514653D01*
X411705Y514656D01*
X411756Y514737D01*
X411808Y514817D01*
X411808Y514821D01*
X411811Y514824D01*
X411826Y514918D01*
X411842Y515012D01*
X411841Y515016D01*
X411842Y515021D01*
X411819Y515113D01*
X411798Y515206D01*
X411795Y515210D01*
X411794Y515214D01*
X411737Y515290D01*
X411681Y515367D01*
X411678Y515369D01*
X411675Y515373D01*
X411534Y515461D01*
X409864Y516153D01*
X406033Y519984D01*
X403959Y524991D01*
X403959Y530409D01*
X406033Y535416D01*
X409865Y539247D01*
X411119Y539767D01*
X411534Y539939D01*
X411538Y539941D01*
X411542Y539942D01*
X411621Y539997D01*
X411699Y540050D01*
X411701Y540053D01*
X411705Y540056D01*
X411756Y540137D01*
X411808Y540217D01*
X411808Y540221D01*
X411811Y540224D01*
X411826Y540318D01*
X411842Y540412D01*
X411841Y540416D01*
X411842Y540421D01*
X411819Y540513D01*
X411798Y540606D01*
X411795Y540610D01*
X411794Y540614D01*
X411737Y540690D01*
X411681Y540767D01*
X411678Y540769D01*
X411675Y540773D01*
X411534Y540861D01*
X409864Y541553D01*
X406033Y545384D01*
X403959Y550391D01*
X403959Y555809D01*
X405009Y558343D01*
X405010Y558349D01*
X405013Y558354D01*
X405029Y558447D01*
X405047Y558538D01*
X405045Y558544D01*
X405046Y558551D01*
X405025Y558641D01*
X405006Y558733D01*
X405002Y558738D01*
X405000Y558744D01*
X404946Y558819D01*
X404892Y558896D01*
X404886Y558899D01*
X404883Y558904D01*
X404803Y558951D01*
X404723Y559001D01*
X404717Y559002D01*
X404712Y559006D01*
X404547Y559033D01*
X400541Y559033D01*
X396118Y560865D01*
X392733Y564250D01*
X391357Y567572D01*
X391356Y567574D01*
X391356Y567576D01*
X391301Y567655D01*
X391246Y567737D01*
X391244Y567738D01*
X391243Y567740D01*
X391162Y567792D01*
X391079Y567845D01*
X391077Y567845D01*
X391076Y567847D01*
X390980Y567863D01*
X390884Y567880D01*
X390882Y567879D01*
X390879Y567880D01*
X390786Y567858D01*
X390690Y567835D01*
X390688Y567834D01*
X390686Y567834D01*
X390609Y567777D01*
X390529Y567719D01*
X390528Y567717D01*
X390526Y567716D01*
X390477Y567633D01*
X390426Y567549D01*
X390426Y567547D01*
X390424Y567545D01*
X390397Y567381D01*
X390397Y564308D01*
X390224Y563661D01*
X389889Y563082D01*
X389416Y562609D01*
X388837Y562274D01*
X388190Y562101D01*
X372599Y562101D01*
X372599Y596400D01*
X372597Y596408D01*
X372599Y596416D01*
X372578Y596505D01*
X372560Y596595D01*
X372555Y596602D01*
X372553Y596610D01*
X372499Y596683D01*
X372447Y596759D01*
X372440Y596763D01*
X372435Y596770D01*
X372357Y596816D01*
X372279Y596866D01*
X372271Y596867D01*
X372264Y596871D01*
X372100Y596899D01*
X371100Y596899D01*
X371092Y596897D01*
X371084Y596899D01*
X370995Y596878D01*
X370905Y596860D01*
X370898Y596855D01*
X370890Y596853D01*
X370817Y596799D01*
X370741Y596747D01*
X370737Y596740D01*
X370730Y596735D01*
X370684Y596657D01*
X370634Y596579D01*
X370633Y596571D01*
X370629Y596564D01*
X370601Y596400D01*
X370601Y562101D01*
X361352Y562101D01*
X361342Y562099D01*
X361332Y562101D01*
X361245Y562080D01*
X361157Y562062D01*
X361149Y562056D01*
X361139Y562053D01*
X361067Y562000D01*
X360993Y561949D01*
X360988Y561940D01*
X360979Y561934D01*
X360891Y561793D01*
X360687Y561301D01*
X358999Y559613D01*
X356794Y558699D01*
X325306Y558699D01*
X323101Y559613D01*
X321413Y561301D01*
X320499Y563506D01*
X320499Y630394D01*
X321413Y632599D01*
X323101Y634287D01*
X325306Y635201D01*
X346265Y635201D01*
X346269Y635202D01*
X346273Y635201D01*
X346367Y635221D01*
X346460Y635240D01*
X346463Y635243D01*
X346467Y635244D01*
X346545Y635299D01*
X346624Y635353D01*
X346626Y635356D01*
X346630Y635359D01*
X346679Y635440D01*
X346731Y635520D01*
X346732Y635525D01*
X346734Y635528D01*
X346748Y635622D01*
X346764Y635717D01*
X346763Y635721D01*
X346764Y635725D01*
X346740Y635817D01*
X346718Y635910D01*
X346715Y635913D01*
X346714Y635917D01*
X346618Y636053D01*
X342150Y640521D01*
X342139Y640528D01*
X342132Y640538D01*
X342057Y640583D01*
X341984Y640631D01*
X341972Y640633D01*
X341961Y640640D01*
X341797Y640667D01*
X340307Y640667D01*
X335884Y642499D01*
X332499Y645884D01*
X330667Y650307D01*
X330667Y655093D01*
X332499Y659516D01*
X335884Y662901D01*
X340307Y664733D01*
X345093Y664733D01*
X349516Y662901D01*
X352901Y659516D01*
X354733Y655093D01*
X354733Y653603D01*
X354735Y653591D01*
X354733Y653578D01*
X354755Y653494D01*
X354772Y653408D01*
X354779Y653398D01*
X354783Y653386D01*
X354879Y653250D01*
X358982Y649147D01*
X358993Y649140D01*
X359000Y649130D01*
X359075Y649085D01*
X359148Y649037D01*
X359160Y649035D01*
X359171Y649028D01*
X359335Y649001D01*
X391790Y649001D01*
X395099Y647630D01*
X405028Y637701D01*
X405520Y637209D01*
X405527Y637204D01*
X405532Y637197D01*
X405610Y637150D01*
X405686Y637099D01*
X405694Y637097D01*
X405701Y637093D01*
X405791Y637079D01*
X405881Y637063D01*
X405890Y637064D01*
X405898Y637063D01*
X405986Y637086D01*
X406076Y637105D01*
X406082Y637110D01*
X406091Y637112D01*
X406226Y637209D01*
X409865Y640847D01*
X411534Y641539D01*
X411538Y641541D01*
X411542Y641542D01*
X411621Y641597D01*
X411699Y641650D01*
X411701Y641653D01*
X411705Y641656D01*
X411756Y641737D01*
X411808Y641817D01*
X411808Y641821D01*
X411811Y641824D01*
X411826Y641918D01*
X411842Y642012D01*
X411841Y642016D01*
X411842Y642021D01*
X411819Y642113D01*
X411798Y642206D01*
X411795Y642210D01*
X411794Y642214D01*
X411737Y642290D01*
X411681Y642367D01*
X411678Y642369D01*
X411675Y642373D01*
X411534Y642461D01*
X409864Y643153D01*
X406033Y646984D01*
X403959Y651991D01*
X403959Y653196D01*
X403958Y653204D01*
X403959Y653213D01*
X403938Y653301D01*
X403920Y653391D01*
X403915Y653398D01*
X403913Y653406D01*
X403859Y653479D01*
X403807Y653555D01*
X403800Y653559D01*
X403795Y653566D01*
X403717Y653613D01*
X403640Y653662D01*
X403631Y653663D01*
X403624Y653668D01*
X403460Y653695D01*
X397579Y653695D01*
X390195Y661079D01*
X390195Y665969D01*
X390193Y665981D01*
X390195Y665994D01*
X390173Y666078D01*
X390156Y666164D01*
X390149Y666174D01*
X390145Y666186D01*
X390049Y666322D01*
X335518Y720853D01*
X335507Y720860D01*
X335500Y720870D01*
X335425Y720915D01*
X335352Y720963D01*
X335340Y720965D01*
X335329Y720972D01*
X335165Y720999D01*
X318210Y720999D01*
X314901Y722370D01*
X300972Y736299D01*
X300599Y736672D01*
X300587Y736680D01*
X300578Y736692D01*
X300437Y736780D01*
X299184Y737299D01*
X295799Y740684D01*
X293967Y745107D01*
X293967Y749917D01*
X293977Y749972D01*
X293996Y750066D01*
X293995Y750068D01*
X293996Y750070D01*
X293975Y750165D01*
X293955Y750260D01*
X293953Y750262D01*
X293953Y750264D01*
X293896Y750344D01*
X293841Y750423D01*
X293839Y750424D01*
X293838Y750426D01*
X293754Y750478D01*
X293672Y750529D01*
X293670Y750529D01*
X293668Y750530D01*
X293573Y750545D01*
X293476Y750560D01*
X293474Y750560D01*
X293472Y750560D01*
X293378Y750536D01*
X293283Y750513D01*
X293281Y750511D01*
X293279Y750511D01*
X293143Y750415D01*
X282159Y739430D01*
X282153Y739422D01*
X282145Y739415D01*
X282099Y739339D01*
X282050Y739265D01*
X282048Y739254D01*
X282042Y739245D01*
X282030Y739157D01*
X282013Y739069D01*
X282015Y739059D01*
X282014Y739048D01*
X282051Y738886D01*
X283581Y735193D01*
X283581Y729807D01*
X281519Y724830D01*
X279566Y722877D01*
X279564Y722873D01*
X279561Y722871D01*
X279510Y722791D01*
X279457Y722711D01*
X279456Y722707D01*
X279454Y722704D01*
X279438Y722610D01*
X279420Y722516D01*
X279421Y722512D01*
X279421Y722507D01*
X279442Y722416D01*
X279463Y722322D01*
X279466Y722318D01*
X279467Y722314D01*
X279523Y722238D01*
X279578Y722159D01*
X279582Y722157D01*
X279584Y722154D01*
X279666Y722105D01*
X279748Y722055D01*
X279752Y722055D01*
X279755Y722052D01*
X279919Y722025D01*
X300839Y722025D01*
X302025Y720839D01*
X302025Y649161D01*
X300839Y647975D01*
X119161Y647975D01*
X117975Y649161D01*
X117975Y720839D01*
X119161Y722025D01*
X180081Y722025D01*
X180085Y722026D01*
X180089Y722025D01*
X180182Y722045D01*
X180275Y722064D01*
X180279Y722067D01*
X180283Y722068D01*
X180361Y722123D01*
X180439Y722177D01*
X180442Y722180D01*
X180445Y722183D01*
X180495Y722264D01*
X180546Y722344D01*
X180547Y722349D01*
X180549Y722352D01*
X180564Y722446D01*
X180579Y722541D01*
X180579Y722545D01*
X180579Y722549D01*
X180556Y722641D01*
X180533Y722734D01*
X180531Y722737D01*
X180530Y722741D01*
X180434Y722877D01*
X178481Y724830D01*
X176419Y729807D01*
X176419Y735193D01*
X178481Y740170D01*
X182290Y743979D01*
X187267Y746041D01*
X207733Y746041D01*
X212710Y743979D01*
X215043Y741647D01*
X215053Y741640D01*
X215060Y741630D01*
X215135Y741585D01*
X215208Y741537D01*
X215221Y741535D01*
X215232Y741528D01*
X215396Y741501D01*
X244604Y741501D01*
X244617Y741503D01*
X244629Y741501D01*
X244714Y741523D01*
X244799Y741540D01*
X244810Y741547D01*
X244822Y741551D01*
X244957Y741647D01*
X247290Y743979D01*
X252267Y746041D01*
X263105Y746041D01*
X263117Y746043D01*
X263130Y746041D01*
X263214Y746063D01*
X263300Y746080D01*
X263310Y746087D01*
X263322Y746091D01*
X263458Y746187D01*
X314901Y797630D01*
X318210Y799001D01*
X339790Y799001D01*
X343099Y797630D01*
X345701Y795028D01*
X350743Y789986D01*
X350747Y789984D01*
X350749Y789980D01*
X350829Y789929D01*
X350909Y789876D01*
X350913Y789875D01*
X350916Y789873D01*
X351010Y789857D01*
X351104Y789840D01*
X351108Y789841D01*
X351113Y789840D01*
X351204Y789862D01*
X351298Y789883D01*
X351302Y789885D01*
X351306Y789886D01*
X351382Y789942D01*
X351461Y789998D01*
X351463Y790001D01*
X351466Y790004D01*
X351515Y790086D01*
X351565Y790167D01*
X351565Y790171D01*
X351568Y790175D01*
X351595Y790339D01*
X351595Y793847D01*
X353514Y798480D01*
X357060Y802026D01*
X359086Y802865D01*
X359091Y802869D01*
X359098Y802870D01*
X359174Y802924D01*
X359251Y802976D01*
X359254Y802981D01*
X359260Y802985D01*
X359308Y803064D01*
X359359Y803143D01*
X359361Y803149D01*
X359364Y803154D01*
X359378Y803246D01*
X359394Y803339D01*
X359393Y803345D01*
X359394Y803351D01*
X359371Y803441D01*
X359350Y803532D01*
X359346Y803538D01*
X359344Y803544D01*
X359248Y803679D01*
X355055Y807872D01*
X355055Y810661D01*
X363700Y810661D01*
X363708Y810662D01*
X363716Y810661D01*
X363805Y810682D01*
X363895Y810700D01*
X363902Y810705D01*
X363910Y810707D01*
X363983Y810761D01*
X364059Y810813D01*
X364063Y810820D01*
X364070Y810825D01*
X364116Y810903D01*
X364166Y810980D01*
X364167Y810989D01*
X364171Y810996D01*
X364199Y811160D01*
X364199Y811661D01*
X364201Y811661D01*
X364201Y811160D01*
X364203Y811152D01*
X364201Y811143D01*
X364222Y811055D01*
X364240Y810965D01*
X364245Y810958D01*
X364247Y810950D01*
X364301Y810877D01*
X364353Y810801D01*
X364360Y810797D01*
X364365Y810790D01*
X364443Y810743D01*
X364521Y810694D01*
X364529Y810693D01*
X364536Y810688D01*
X364700Y810661D01*
X373345Y810661D01*
X373345Y807872D01*
X369152Y803679D01*
X369151Y803678D01*
X369148Y803674D01*
X369143Y803670D01*
X369094Y803591D01*
X369042Y803513D01*
X369041Y803507D01*
X369038Y803502D01*
X369023Y803410D01*
X369006Y803318D01*
X369007Y803312D01*
X369006Y803306D01*
X369028Y803216D01*
X369049Y803124D01*
X369052Y803119D01*
X369054Y803113D01*
X369110Y803038D01*
X369164Y802962D01*
X369169Y802958D01*
X369173Y802953D01*
X369314Y802865D01*
X371340Y802026D01*
X374886Y798480D01*
X376805Y793847D01*
X376805Y788833D01*
X374886Y784200D01*
X371340Y780654D01*
X366707Y778735D01*
X361942Y778735D01*
X361936Y778734D01*
X361930Y778735D01*
X361839Y778714D01*
X361747Y778696D01*
X361742Y778692D01*
X361736Y778691D01*
X361661Y778636D01*
X361583Y778583D01*
X361580Y778578D01*
X361575Y778574D01*
X361527Y778494D01*
X361476Y778416D01*
X361475Y778409D01*
X361472Y778404D01*
X361459Y778312D01*
X361443Y778219D01*
X361445Y778213D01*
X361444Y778207D01*
X361481Y778045D01*
X362001Y776790D01*
X362001Y737006D01*
X362003Y736993D01*
X362001Y736981D01*
X362023Y736897D01*
X362040Y736811D01*
X362047Y736800D01*
X362051Y736788D01*
X362147Y736653D01*
X379653Y719147D01*
X379663Y719140D01*
X379671Y719130D01*
X379745Y719085D01*
X379818Y719037D01*
X379831Y719035D01*
X379842Y719028D01*
X380006Y719001D01*
X421777Y719001D01*
X421789Y719003D01*
X421802Y719001D01*
X421886Y719023D01*
X421972Y719040D01*
X421982Y719047D01*
X421995Y719051D01*
X422130Y719147D01*
X423184Y720201D01*
X427607Y722033D01*
X432393Y722033D01*
X436816Y720201D01*
X440201Y716816D01*
X442033Y712393D01*
X442033Y707607D01*
X440201Y703184D01*
X436816Y699799D01*
X432393Y697967D01*
X427607Y697967D01*
X423184Y699799D01*
X422130Y700853D01*
X422127Y700855D01*
X422127Y700856D01*
X422123Y700858D01*
X422120Y700860D01*
X422112Y700870D01*
X422037Y700914D01*
X421964Y700963D01*
X421952Y700965D01*
X421941Y700972D01*
X421777Y700999D01*
X382035Y700999D01*
X382031Y700998D01*
X382027Y700999D01*
X381933Y700979D01*
X381840Y700960D01*
X381837Y700957D01*
X381833Y700956D01*
X381755Y700901D01*
X381676Y700847D01*
X381674Y700844D01*
X381670Y700841D01*
X381621Y700760D01*
X381569Y700680D01*
X381568Y700675D01*
X381566Y700672D01*
X381552Y700578D01*
X381536Y700483D01*
X381537Y700479D01*
X381536Y700475D01*
X381560Y700383D01*
X381582Y700290D01*
X381585Y700287D01*
X381586Y700283D01*
X381682Y700147D01*
X402778Y679051D01*
X402789Y679044D01*
X402796Y679034D01*
X402871Y678989D01*
X402944Y678941D01*
X402956Y678939D01*
X402967Y678932D01*
X403131Y678905D01*
X408021Y678905D01*
X415405Y671521D01*
X415405Y668820D01*
X415406Y668812D01*
X415405Y668803D01*
X415426Y668715D01*
X415444Y668625D01*
X415449Y668618D01*
X415451Y668610D01*
X415505Y668537D01*
X415557Y668461D01*
X415564Y668457D01*
X415569Y668450D01*
X415647Y668403D01*
X415724Y668354D01*
X415733Y668353D01*
X415740Y668348D01*
X415904Y668321D01*
X435529Y668321D01*
X440536Y666247D01*
X444367Y662416D01*
X446441Y657409D01*
X446441Y651991D01*
X444367Y646984D01*
X440536Y643153D01*
X438866Y642461D01*
X438862Y642459D01*
X438858Y642458D01*
X438780Y642403D01*
X438701Y642350D01*
X438699Y642347D01*
X438695Y642344D01*
X438644Y642263D01*
X438592Y642183D01*
X438592Y642179D01*
X438589Y642176D01*
X438574Y642082D01*
X438558Y641988D01*
X438559Y641983D01*
X438558Y641979D01*
X438581Y641888D01*
X438602Y641794D01*
X438605Y641790D01*
X438606Y641786D01*
X438663Y641710D01*
X438719Y641633D01*
X438722Y641631D01*
X438725Y641627D01*
X438866Y641539D01*
X440535Y640847D01*
X444367Y637016D01*
X446441Y632009D01*
X446441Y626591D01*
X444367Y621584D01*
X440536Y617753D01*
X438866Y617061D01*
X438862Y617059D01*
X438858Y617058D01*
X438780Y617003D01*
X438701Y616950D01*
X438699Y616947D01*
X438695Y616944D01*
X438644Y616863D01*
X438592Y616783D01*
X438592Y616779D01*
X438589Y616776D01*
X438574Y616682D01*
X438558Y616588D01*
X438559Y616583D01*
X438558Y616579D01*
X438581Y616488D01*
X438602Y616394D01*
X438605Y616390D01*
X438606Y616386D01*
X438663Y616310D01*
X438719Y616233D01*
X438722Y616231D01*
X438725Y616227D01*
X438866Y616139D01*
X440535Y615447D01*
X444367Y611616D01*
X446441Y606609D01*
X446441Y601191D01*
X444367Y596184D01*
X440536Y592353D01*
X438866Y591661D01*
X438862Y591659D01*
X438858Y591658D01*
X438780Y591603D01*
X438701Y591550D01*
X438699Y591547D01*
X438695Y591544D01*
X438644Y591463D01*
X438592Y591383D01*
X438592Y591379D01*
X438589Y591376D01*
X438574Y591282D01*
X438558Y591188D01*
X438559Y591183D01*
X438558Y591179D01*
X438581Y591086D01*
X438602Y590994D01*
X438605Y590990D01*
X438606Y590986D01*
X438663Y590910D01*
X438719Y590833D01*
X438722Y590831D01*
X438725Y590827D01*
X438866Y590739D01*
X440535Y590047D01*
X444367Y586216D01*
X446441Y581209D01*
X446441Y575791D01*
X444367Y570784D01*
X440536Y566953D01*
X438866Y566261D01*
X438862Y566259D01*
X438858Y566258D01*
X438780Y566203D01*
X438701Y566150D01*
X438699Y566147D01*
X438695Y566144D01*
X438644Y566063D01*
X438592Y565983D01*
X438592Y565979D01*
X438589Y565976D01*
X438574Y565882D01*
X438558Y565788D01*
X438559Y565783D01*
X438558Y565779D01*
X438581Y565688D01*
X438602Y565594D01*
X438605Y565590D01*
X438606Y565586D01*
X438663Y565510D01*
X438719Y565433D01*
X438722Y565431D01*
X438725Y565427D01*
X438866Y565339D01*
X440535Y564647D01*
X444367Y560816D01*
X446441Y555809D01*
X446441Y550391D01*
X444367Y545384D01*
X440536Y541553D01*
X438866Y540861D01*
X438862Y540859D01*
X438858Y540858D01*
X438780Y540803D01*
X438701Y540750D01*
X438699Y540747D01*
X438695Y540744D01*
X438644Y540663D01*
X438592Y540583D01*
X438592Y540579D01*
X438589Y540576D01*
X438574Y540482D01*
X438558Y540388D01*
X438559Y540383D01*
X438558Y540379D01*
X438581Y540288D01*
X438602Y540194D01*
X438605Y540190D01*
X438606Y540186D01*
X438663Y540110D01*
X438719Y540033D01*
X438722Y540031D01*
X438725Y540027D01*
X438866Y539939D01*
X440535Y539247D01*
X444367Y535416D01*
X446441Y530409D01*
X446441Y524991D01*
X444367Y519984D01*
X440536Y516153D01*
X438866Y515461D01*
X438862Y515459D01*
X438858Y515458D01*
X438780Y515403D01*
X438701Y515350D01*
X438699Y515347D01*
X438695Y515344D01*
X438644Y515263D01*
X438592Y515183D01*
X438592Y515179D01*
X438589Y515176D01*
X438574Y515082D01*
X438558Y514988D01*
X438559Y514983D01*
X438558Y514979D01*
X438581Y514888D01*
X438602Y514794D01*
X438605Y514790D01*
X438606Y514786D01*
X438663Y514710D01*
X438719Y514633D01*
X438722Y514631D01*
X438725Y514627D01*
X438866Y514539D01*
X440535Y513847D01*
X444367Y510016D01*
X446441Y505009D01*
X446441Y499591D01*
X444367Y494584D01*
X440536Y490753D01*
X435529Y488679D01*
X414871Y488679D01*
G37*
%LPD*%
%LPC*%
G36*
X411999Y364639D02*
X411999Y364639D01*
X411999Y365140D01*
X411997Y365148D01*
X411999Y365156D01*
X411978Y365245D01*
X411960Y365335D01*
X411955Y365342D01*
X411953Y365350D01*
X411899Y365423D01*
X411847Y365499D01*
X411840Y365503D01*
X411835Y365510D01*
X411757Y365556D01*
X411679Y365606D01*
X411671Y365607D01*
X411664Y365611D01*
X411500Y365639D01*
X402855Y365639D01*
X402855Y368428D01*
X407048Y372621D01*
X407052Y372626D01*
X407057Y372630D01*
X407106Y372709D01*
X407158Y372787D01*
X407159Y372793D01*
X407162Y372798D01*
X407177Y372890D01*
X407194Y372982D01*
X407193Y372988D01*
X407194Y372994D01*
X407172Y373084D01*
X407151Y373176D01*
X407148Y373181D01*
X407146Y373187D01*
X407090Y373262D01*
X407036Y373338D01*
X407031Y373342D01*
X407027Y373347D01*
X406886Y373435D01*
X404860Y374274D01*
X401314Y377820D01*
X399395Y382453D01*
X399395Y387467D01*
X400365Y389809D01*
X400366Y389815D01*
X400370Y389820D01*
X400385Y389912D01*
X400403Y390004D01*
X400402Y390010D01*
X400403Y390017D01*
X400381Y390107D01*
X400362Y390199D01*
X400358Y390204D01*
X400357Y390210D01*
X400302Y390285D01*
X400248Y390362D01*
X400243Y390365D01*
X400239Y390370D01*
X400159Y390418D01*
X400080Y390467D01*
X400073Y390468D01*
X400068Y390472D01*
X399904Y390499D01*
X387320Y390499D01*
X380520Y393316D01*
X355916Y417920D01*
X353099Y424720D01*
X353099Y443800D01*
X353098Y443808D01*
X353099Y443817D01*
X353078Y443905D01*
X353060Y443995D01*
X353055Y444002D01*
X353053Y444010D01*
X352999Y444083D01*
X352947Y444159D01*
X352940Y444163D01*
X352935Y444170D01*
X352857Y444217D01*
X352780Y444266D01*
X352771Y444267D01*
X352764Y444272D01*
X352600Y444299D01*
X325706Y444299D01*
X323501Y445213D01*
X321813Y446901D01*
X320899Y449106D01*
X320899Y515994D01*
X321813Y518199D01*
X323501Y519887D01*
X325706Y520801D01*
X353911Y520801D01*
X353925Y520804D01*
X353940Y520802D01*
X354102Y520839D01*
X354150Y520859D01*
X389050Y520859D01*
X391255Y519945D01*
X392943Y518257D01*
X393857Y516052D01*
X393857Y449148D01*
X392943Y446943D01*
X391255Y445255D01*
X390409Y444904D01*
X390400Y444898D01*
X390390Y444896D01*
X390318Y444843D01*
X390244Y444793D01*
X390238Y444784D01*
X390230Y444778D01*
X390185Y444702D01*
X390136Y444626D01*
X390134Y444616D01*
X390128Y444607D01*
X390101Y444443D01*
X390101Y436270D01*
X390103Y436258D01*
X390101Y436245D01*
X390123Y436161D01*
X390140Y436075D01*
X390147Y436065D01*
X390151Y436053D01*
X390247Y435917D01*
X398517Y427647D01*
X398528Y427640D01*
X398535Y427630D01*
X398610Y427585D01*
X398683Y427537D01*
X398695Y427535D01*
X398706Y427528D01*
X398870Y427501D01*
X406048Y427501D01*
X406062Y427504D01*
X406077Y427502D01*
X406239Y427539D01*
X408320Y428401D01*
X410083Y428401D01*
X410102Y428405D01*
X410122Y428402D01*
X410257Y428436D01*
X410278Y428440D01*
X410280Y428442D01*
X410283Y428443D01*
X449300Y445513D01*
X449308Y445518D01*
X449317Y445521D01*
X449453Y445617D01*
X521353Y517517D01*
X521360Y517528D01*
X521370Y517535D01*
X521415Y517610D01*
X521463Y517683D01*
X521465Y517695D01*
X521472Y517706D01*
X521499Y517870D01*
X521499Y643680D01*
X524316Y650480D01*
X529520Y655684D01*
X536320Y658501D01*
X543680Y658501D01*
X550480Y655684D01*
X555684Y650480D01*
X558501Y643680D01*
X558501Y635585D01*
X558501Y635583D01*
X558501Y635581D01*
X558521Y635486D01*
X558540Y635390D01*
X558542Y635388D01*
X558542Y635386D01*
X558598Y635306D01*
X558653Y635226D01*
X558655Y635225D01*
X558656Y635223D01*
X558739Y635171D01*
X558820Y635119D01*
X558823Y635119D01*
X558824Y635118D01*
X558920Y635102D01*
X559017Y635086D01*
X559019Y635087D01*
X559021Y635086D01*
X559115Y635110D01*
X559210Y635132D01*
X559212Y635133D01*
X559214Y635134D01*
X559293Y635193D01*
X559370Y635250D01*
X559371Y635252D01*
X559373Y635253D01*
X559461Y635394D01*
X560133Y637016D01*
X563964Y640847D01*
X565634Y641539D01*
X565638Y641541D01*
X565642Y641542D01*
X565720Y641597D01*
X565799Y641650D01*
X565801Y641653D01*
X565805Y641656D01*
X565856Y641737D01*
X565908Y641817D01*
X565908Y641821D01*
X565911Y641824D01*
X565926Y641918D01*
X565942Y642012D01*
X565941Y642017D01*
X565942Y642021D01*
X565919Y642112D01*
X565898Y642206D01*
X565895Y642210D01*
X565894Y642214D01*
X565837Y642290D01*
X565781Y642367D01*
X565778Y642369D01*
X565775Y642373D01*
X565634Y642461D01*
X563965Y643153D01*
X560133Y646984D01*
X558059Y651991D01*
X558059Y657409D01*
X560133Y662416D01*
X563964Y666247D01*
X568971Y668321D01*
X589629Y668321D01*
X594636Y666247D01*
X598467Y662416D01*
X600541Y657409D01*
X600541Y651991D01*
X598467Y646984D01*
X594635Y643153D01*
X593139Y642533D01*
X592966Y642461D01*
X592962Y642459D01*
X592958Y642458D01*
X592879Y642403D01*
X592801Y642350D01*
X592799Y642347D01*
X592795Y642344D01*
X592744Y642263D01*
X592692Y642183D01*
X592692Y642179D01*
X592689Y642176D01*
X592674Y642082D01*
X592658Y641988D01*
X592659Y641984D01*
X592658Y641979D01*
X592681Y641887D01*
X592702Y641794D01*
X592705Y641790D01*
X592706Y641786D01*
X592763Y641710D01*
X592819Y641633D01*
X592822Y641631D01*
X592825Y641627D01*
X592966Y641539D01*
X594636Y640847D01*
X598467Y637016D01*
X600541Y632009D01*
X600541Y626591D01*
X598467Y621584D01*
X594636Y617753D01*
X589629Y615679D01*
X568971Y615679D01*
X563964Y617753D01*
X560133Y621584D01*
X559461Y623206D01*
X559460Y623208D01*
X559460Y623210D01*
X559405Y623290D01*
X559350Y623371D01*
X559348Y623372D01*
X559347Y623374D01*
X559266Y623426D01*
X559183Y623479D01*
X559181Y623480D01*
X559180Y623481D01*
X559084Y623497D01*
X558988Y623514D01*
X558986Y623514D01*
X558983Y623514D01*
X558890Y623492D01*
X558794Y623470D01*
X558792Y623468D01*
X558790Y623468D01*
X558713Y623412D01*
X558633Y623353D01*
X558632Y623351D01*
X558630Y623350D01*
X558581Y623267D01*
X558530Y623183D01*
X558530Y623181D01*
X558528Y623179D01*
X558501Y623015D01*
X558501Y584785D01*
X558501Y584783D01*
X558501Y584781D01*
X558521Y584687D01*
X558540Y584590D01*
X558542Y584588D01*
X558542Y584586D01*
X558598Y584506D01*
X558653Y584426D01*
X558655Y584425D01*
X558656Y584423D01*
X558739Y584371D01*
X558820Y584319D01*
X558823Y584319D01*
X558824Y584318D01*
X558920Y584302D01*
X559017Y584286D01*
X559019Y584287D01*
X559021Y584286D01*
X559115Y584310D01*
X559210Y584332D01*
X559212Y584333D01*
X559214Y584334D01*
X559293Y584393D01*
X559370Y584450D01*
X559371Y584452D01*
X559373Y584453D01*
X559461Y584594D01*
X560133Y586216D01*
X563964Y590047D01*
X568971Y592121D01*
X589629Y592121D01*
X594636Y590047D01*
X598467Y586216D01*
X600541Y581209D01*
X600541Y575791D01*
X598467Y570784D01*
X594636Y566953D01*
X592966Y566261D01*
X592962Y566259D01*
X592958Y566258D01*
X592880Y566203D01*
X592801Y566150D01*
X592799Y566147D01*
X592795Y566144D01*
X592744Y566063D01*
X592692Y565983D01*
X592692Y565979D01*
X592689Y565976D01*
X592674Y565882D01*
X592658Y565788D01*
X592659Y565784D01*
X592658Y565779D01*
X592681Y565688D01*
X592702Y565594D01*
X592705Y565590D01*
X592706Y565586D01*
X592762Y565511D01*
X592819Y565433D01*
X592822Y565431D01*
X592825Y565427D01*
X592966Y565339D01*
X594636Y564647D01*
X598467Y560816D01*
X600541Y555809D01*
X600541Y550391D01*
X598467Y545384D01*
X594636Y541553D01*
X592966Y540861D01*
X592962Y540859D01*
X592958Y540858D01*
X592880Y540803D01*
X592801Y540750D01*
X592799Y540747D01*
X592795Y540744D01*
X592744Y540663D01*
X592692Y540583D01*
X592692Y540579D01*
X592689Y540576D01*
X592674Y540482D01*
X592658Y540388D01*
X592659Y540383D01*
X592658Y540379D01*
X592681Y540288D01*
X592702Y540194D01*
X592705Y540190D01*
X592706Y540186D01*
X592763Y540110D01*
X592819Y540033D01*
X592822Y540031D01*
X592825Y540027D01*
X592966Y539939D01*
X594635Y539247D01*
X598467Y535416D01*
X600541Y530409D01*
X600541Y524991D01*
X598467Y519984D01*
X594635Y516153D01*
X592966Y515461D01*
X592962Y515459D01*
X592958Y515458D01*
X592879Y515403D01*
X592801Y515350D01*
X592799Y515347D01*
X592795Y515344D01*
X592744Y515263D01*
X592692Y515183D01*
X592692Y515179D01*
X592689Y515176D01*
X592674Y515082D01*
X592658Y514988D01*
X592659Y514984D01*
X592658Y514979D01*
X592681Y514887D01*
X592702Y514794D01*
X592705Y514790D01*
X592706Y514786D01*
X592763Y514710D01*
X592819Y514633D01*
X592822Y514631D01*
X592825Y514627D01*
X592966Y514539D01*
X594636Y513847D01*
X598467Y510016D01*
X600541Y505009D01*
X600541Y499591D01*
X598467Y494584D01*
X594636Y490753D01*
X589629Y488679D01*
X568971Y488679D01*
X563964Y490753D01*
X560133Y494584D01*
X558059Y499591D01*
X558059Y502744D01*
X558059Y502746D01*
X558059Y502748D01*
X558039Y502843D01*
X558020Y502939D01*
X558018Y502941D01*
X558018Y502943D01*
X557962Y503023D01*
X557907Y503103D01*
X557905Y503104D01*
X557904Y503106D01*
X557821Y503158D01*
X557740Y503210D01*
X557737Y503210D01*
X557736Y503212D01*
X557640Y503227D01*
X557543Y503243D01*
X557541Y503243D01*
X557539Y503243D01*
X557445Y503220D01*
X557350Y503197D01*
X557348Y503196D01*
X557346Y503195D01*
X557267Y503136D01*
X557190Y503079D01*
X557189Y503078D01*
X557187Y503076D01*
X557099Y502935D01*
X555684Y499520D01*
X473214Y417050D01*
X473211Y417046D01*
X473207Y417043D01*
X471495Y415262D01*
X470787Y414526D01*
X470700Y414487D01*
X470692Y414482D01*
X470683Y414479D01*
X470547Y414383D01*
X470480Y414316D01*
X467251Y412979D01*
X467248Y412976D01*
X467242Y412975D01*
X422700Y393487D01*
X422692Y393482D01*
X422683Y393479D01*
X422547Y393383D01*
X422480Y393316D01*
X422456Y393306D01*
X422451Y393302D01*
X422445Y393301D01*
X422369Y393247D01*
X422291Y393195D01*
X422288Y393190D01*
X422283Y393186D01*
X422234Y393106D01*
X422183Y393028D01*
X422182Y393022D01*
X422178Y393017D01*
X422164Y392924D01*
X422148Y392832D01*
X422149Y392826D01*
X422148Y392820D01*
X422171Y392730D01*
X422192Y392639D01*
X422196Y392633D01*
X422198Y392627D01*
X422294Y392492D01*
X422686Y392100D01*
X424605Y387467D01*
X424605Y382453D01*
X422686Y377820D01*
X419140Y374274D01*
X417114Y373435D01*
X417109Y373431D01*
X417102Y373430D01*
X417026Y373376D01*
X416949Y373324D01*
X416946Y373319D01*
X416940Y373315D01*
X416892Y373236D01*
X416841Y373157D01*
X416839Y373151D01*
X416836Y373146D01*
X416822Y373054D01*
X416806Y372961D01*
X416807Y372955D01*
X416806Y372949D01*
X416829Y372859D01*
X416850Y372768D01*
X416854Y372762D01*
X416856Y372756D01*
X416952Y372621D01*
X421145Y368428D01*
X421145Y365639D01*
X412500Y365639D01*
X412492Y365638D01*
X412484Y365639D01*
X412395Y365618D01*
X412305Y365600D01*
X412298Y365595D01*
X412290Y365593D01*
X412217Y365539D01*
X412141Y365487D01*
X412137Y365480D01*
X412130Y365475D01*
X412084Y365397D01*
X412034Y365320D01*
X412033Y365311D01*
X412029Y365304D01*
X412001Y365140D01*
X412001Y364639D01*
X411999Y364639D01*
G37*
%LPD*%
%LPC*%
G36*
X229161Y357975D02*
X229161Y357975D01*
X227975Y359161D01*
X227975Y430839D01*
X229161Y432025D01*
X320839Y432025D01*
X322025Y430839D01*
X322025Y359161D01*
X320839Y357975D01*
X229161Y357975D01*
G37*
%LPD*%
%LPC*%
G36*
X539053Y907713D02*
X539053Y907713D01*
X538937Y907829D01*
X538926Y907836D01*
X538919Y907846D01*
X538844Y907891D01*
X538771Y907939D01*
X538759Y907941D01*
X538748Y907948D01*
X538584Y907975D01*
X489161Y907975D01*
X487975Y909161D01*
X487975Y980839D01*
X489161Y982025D01*
X528584Y982025D01*
X528596Y982027D01*
X528609Y982025D01*
X528693Y982047D01*
X528779Y982064D01*
X528789Y982071D01*
X528801Y982075D01*
X528937Y982171D01*
X529053Y982287D01*
X560947Y982287D01*
X562287Y980947D01*
X562287Y909053D01*
X560947Y907713D01*
X539053Y907713D01*
G37*
%LPD*%
%LPC*%
G36*
X144806Y558699D02*
X144806Y558699D01*
X142601Y559613D01*
X140913Y561301D01*
X140709Y561793D01*
X140703Y561802D01*
X140701Y561812D01*
X140648Y561884D01*
X140598Y561958D01*
X140589Y561964D01*
X140583Y561972D01*
X140506Y562017D01*
X140431Y562066D01*
X140421Y562068D01*
X140412Y562074D01*
X140248Y562101D01*
X131299Y562101D01*
X131299Y596400D01*
X131297Y596408D01*
X131299Y596416D01*
X131278Y596505D01*
X131260Y596595D01*
X131255Y596602D01*
X131253Y596610D01*
X131199Y596683D01*
X131147Y596759D01*
X131140Y596763D01*
X131135Y596770D01*
X131057Y596816D01*
X130979Y596866D01*
X130971Y596867D01*
X130964Y596871D01*
X130800Y596899D01*
X130299Y596899D01*
X130299Y596901D01*
X130800Y596901D01*
X130808Y596903D01*
X130816Y596901D01*
X130905Y596922D01*
X130995Y596940D01*
X131002Y596945D01*
X131010Y596947D01*
X131083Y597001D01*
X131159Y597053D01*
X131163Y597060D01*
X131170Y597065D01*
X131216Y597143D01*
X131266Y597221D01*
X131267Y597229D01*
X131271Y597236D01*
X131299Y597400D01*
X131299Y631699D01*
X140206Y631699D01*
X140217Y631701D01*
X140227Y631699D01*
X140313Y631720D01*
X140401Y631738D01*
X140410Y631744D01*
X140420Y631747D01*
X140491Y631800D01*
X140565Y631851D01*
X140571Y631860D01*
X140579Y631866D01*
X140668Y632007D01*
X140913Y632599D01*
X142601Y634287D01*
X144806Y635201D01*
X176294Y635201D01*
X178499Y634287D01*
X180187Y632599D01*
X181101Y630394D01*
X181101Y563506D01*
X180187Y561301D01*
X178499Y559613D01*
X176294Y558699D01*
X144806Y558699D01*
G37*
%LPD*%
%LPC*%
G36*
X342689Y897295D02*
X342689Y897295D01*
X338056Y899214D01*
X334510Y902760D01*
X332591Y907393D01*
X332591Y912407D01*
X334510Y917040D01*
X338056Y920586D01*
X341805Y922139D01*
X341809Y922141D01*
X341813Y922142D01*
X341891Y922197D01*
X341970Y922250D01*
X341972Y922253D01*
X341976Y922256D01*
X342027Y922337D01*
X342079Y922417D01*
X342079Y922421D01*
X342082Y922424D01*
X342097Y922518D01*
X342113Y922612D01*
X342112Y922617D01*
X342113Y922621D01*
X342090Y922712D01*
X342069Y922806D01*
X342066Y922810D01*
X342065Y922814D01*
X342008Y922890D01*
X341952Y922967D01*
X341949Y922969D01*
X341946Y922973D01*
X341805Y923061D01*
X338056Y924614D01*
X334510Y928160D01*
X332591Y932793D01*
X332591Y937807D01*
X334510Y942440D01*
X338056Y945986D01*
X341805Y947539D01*
X341809Y947541D01*
X341813Y947542D01*
X341891Y947597D01*
X341970Y947650D01*
X341972Y947653D01*
X341976Y947656D01*
X342027Y947737D01*
X342079Y947817D01*
X342079Y947821D01*
X342082Y947824D01*
X342097Y947918D01*
X342113Y948012D01*
X342112Y948016D01*
X342113Y948021D01*
X342090Y948112D01*
X342069Y948206D01*
X342066Y948210D01*
X342065Y948214D01*
X342008Y948290D01*
X341952Y948367D01*
X341949Y948369D01*
X341946Y948373D01*
X341805Y948461D01*
X338056Y950014D01*
X334510Y953560D01*
X332591Y958193D01*
X332591Y963207D01*
X334510Y967840D01*
X338056Y971386D01*
X342689Y973305D01*
X360911Y973305D01*
X365544Y971386D01*
X369090Y967840D01*
X371009Y963207D01*
X371009Y958193D01*
X369090Y953560D01*
X365544Y950014D01*
X361795Y948461D01*
X361791Y948459D01*
X361787Y948458D01*
X361709Y948403D01*
X361630Y948350D01*
X361628Y948347D01*
X361624Y948344D01*
X361573Y948263D01*
X361521Y948183D01*
X361521Y948179D01*
X361518Y948176D01*
X361503Y948082D01*
X361487Y947988D01*
X361488Y947983D01*
X361487Y947979D01*
X361510Y947888D01*
X361531Y947794D01*
X361534Y947790D01*
X361535Y947786D01*
X361592Y947710D01*
X361648Y947633D01*
X361651Y947631D01*
X361654Y947627D01*
X361795Y947539D01*
X365544Y945986D01*
X369090Y942440D01*
X371009Y937807D01*
X371009Y932793D01*
X369090Y928160D01*
X365544Y924614D01*
X361795Y923061D01*
X361791Y923059D01*
X361787Y923058D01*
X361709Y923003D01*
X361630Y922950D01*
X361628Y922947D01*
X361624Y922944D01*
X361573Y922863D01*
X361521Y922783D01*
X361521Y922779D01*
X361518Y922776D01*
X361503Y922682D01*
X361487Y922588D01*
X361488Y922584D01*
X361487Y922579D01*
X361510Y922488D01*
X361531Y922394D01*
X361534Y922390D01*
X361535Y922386D01*
X361592Y922310D01*
X361648Y922233D01*
X361651Y922231D01*
X361654Y922227D01*
X361795Y922139D01*
X365544Y920586D01*
X369090Y917040D01*
X371009Y912407D01*
X371009Y907393D01*
X369090Y902760D01*
X365544Y899214D01*
X360911Y897295D01*
X342689Y897295D01*
G37*
%LPD*%
%LPC*%
G36*
X291889Y897295D02*
X291889Y897295D01*
X287256Y899214D01*
X283710Y902760D01*
X281791Y907393D01*
X281791Y912407D01*
X283710Y917040D01*
X287256Y920586D01*
X291005Y922139D01*
X291009Y922141D01*
X291013Y922142D01*
X291091Y922197D01*
X291170Y922250D01*
X291172Y922253D01*
X291176Y922256D01*
X291227Y922337D01*
X291279Y922417D01*
X291279Y922421D01*
X291282Y922424D01*
X291297Y922518D01*
X291313Y922612D01*
X291312Y922617D01*
X291313Y922621D01*
X291290Y922712D01*
X291269Y922806D01*
X291266Y922810D01*
X291265Y922814D01*
X291208Y922890D01*
X291152Y922967D01*
X291149Y922969D01*
X291146Y922973D01*
X291005Y923061D01*
X287256Y924614D01*
X283710Y928160D01*
X281791Y932793D01*
X281791Y937807D01*
X283710Y942440D01*
X287256Y945986D01*
X291005Y947539D01*
X291009Y947541D01*
X291013Y947542D01*
X291091Y947597D01*
X291170Y947650D01*
X291172Y947653D01*
X291176Y947656D01*
X291227Y947737D01*
X291279Y947817D01*
X291279Y947821D01*
X291282Y947824D01*
X291297Y947918D01*
X291313Y948012D01*
X291312Y948017D01*
X291313Y948021D01*
X291290Y948112D01*
X291269Y948206D01*
X291266Y948210D01*
X291265Y948214D01*
X291208Y948290D01*
X291152Y948367D01*
X291149Y948369D01*
X291146Y948373D01*
X291005Y948461D01*
X287256Y950014D01*
X283710Y953560D01*
X281791Y958193D01*
X281791Y963207D01*
X283710Y967840D01*
X287256Y971386D01*
X291889Y973305D01*
X310111Y973305D01*
X314744Y971386D01*
X318290Y967840D01*
X320209Y963207D01*
X320209Y958193D01*
X318290Y953560D01*
X314744Y950014D01*
X310995Y948461D01*
X310991Y948459D01*
X310987Y948458D01*
X310909Y948403D01*
X310830Y948350D01*
X310828Y948347D01*
X310824Y948344D01*
X310773Y948263D01*
X310721Y948183D01*
X310721Y948179D01*
X310718Y948176D01*
X310703Y948082D01*
X310687Y947988D01*
X310688Y947984D01*
X310687Y947979D01*
X310710Y947888D01*
X310731Y947794D01*
X310734Y947790D01*
X310735Y947786D01*
X310792Y947710D01*
X310848Y947633D01*
X310851Y947631D01*
X310854Y947627D01*
X310995Y947539D01*
X314744Y945986D01*
X318290Y942440D01*
X320209Y937807D01*
X320209Y932793D01*
X318290Y928160D01*
X314744Y924614D01*
X310995Y923061D01*
X310991Y923059D01*
X310987Y923058D01*
X310909Y923003D01*
X310830Y922950D01*
X310828Y922947D01*
X310824Y922944D01*
X310773Y922863D01*
X310721Y922783D01*
X310721Y922779D01*
X310718Y922776D01*
X310703Y922682D01*
X310687Y922588D01*
X310688Y922584D01*
X310687Y922579D01*
X310710Y922488D01*
X310731Y922394D01*
X310734Y922390D01*
X310735Y922386D01*
X310792Y922310D01*
X310848Y922233D01*
X310851Y922231D01*
X310854Y922227D01*
X310995Y922139D01*
X314744Y920586D01*
X318290Y917040D01*
X320209Y912407D01*
X320209Y907393D01*
X318290Y902760D01*
X314744Y899214D01*
X310111Y897295D01*
X291889Y897295D01*
G37*
%LPD*%
%LPC*%
G36*
X462774Y657967D02*
X462774Y657967D01*
X460569Y658881D01*
X458881Y660569D01*
X457967Y662774D01*
X457967Y677226D01*
X458539Y678605D01*
X458540Y678611D01*
X458543Y678616D01*
X458559Y678709D01*
X458577Y678800D01*
X458575Y678806D01*
X458576Y678813D01*
X458555Y678903D01*
X458535Y678995D01*
X458532Y679000D01*
X458530Y679006D01*
X458475Y679081D01*
X458422Y679158D01*
X458416Y679161D01*
X458412Y679166D01*
X458332Y679214D01*
X458253Y679263D01*
X458247Y679264D01*
X458241Y679268D01*
X458077Y679295D01*
X449779Y679295D01*
X442395Y686679D01*
X442395Y697121D01*
X449779Y704505D01*
X460221Y704505D01*
X467605Y697121D01*
X467605Y686679D01*
X463811Y682885D01*
X463808Y682881D01*
X463805Y682879D01*
X463754Y682799D01*
X463701Y682719D01*
X463700Y682715D01*
X463698Y682712D01*
X463682Y682618D01*
X463665Y682524D01*
X463665Y682520D01*
X463665Y682515D01*
X463687Y682424D01*
X463707Y682330D01*
X463710Y682326D01*
X463711Y682322D01*
X463767Y682246D01*
X463823Y682167D01*
X463826Y682165D01*
X463829Y682162D01*
X463911Y682113D01*
X463992Y682063D01*
X463996Y682063D01*
X464000Y682060D01*
X464164Y682033D01*
X469097Y682033D01*
X469109Y682035D01*
X469122Y682033D01*
X469206Y682055D01*
X469292Y682072D01*
X469302Y682079D01*
X469314Y682083D01*
X469450Y682179D01*
X474901Y687630D01*
X478210Y689001D01*
X521777Y689001D01*
X521789Y689003D01*
X521802Y689001D01*
X521886Y689023D01*
X521972Y689040D01*
X521982Y689047D01*
X521995Y689051D01*
X522130Y689147D01*
X523184Y690201D01*
X527607Y692033D01*
X532393Y692033D01*
X536816Y690201D01*
X540201Y686816D01*
X542033Y682393D01*
X542033Y677607D01*
X540201Y673184D01*
X536816Y669799D01*
X532393Y667967D01*
X527607Y667967D01*
X523184Y669799D01*
X522130Y670853D01*
X522120Y670860D01*
X522112Y670870D01*
X522037Y670915D01*
X521964Y670963D01*
X521952Y670965D01*
X521941Y670972D01*
X521777Y670999D01*
X483935Y670999D01*
X483923Y670997D01*
X483910Y670999D01*
X483826Y670977D01*
X483740Y670960D01*
X483730Y670953D01*
X483718Y670949D01*
X483582Y670853D01*
X482179Y669450D01*
X482172Y669439D01*
X482162Y669432D01*
X482117Y669357D01*
X482069Y669284D01*
X482067Y669272D01*
X482060Y669261D01*
X482033Y669097D01*
X482033Y662774D01*
X481119Y660569D01*
X479431Y658881D01*
X477226Y657967D01*
X462774Y657967D01*
G37*
%LPD*%
%LPC*%
G36*
X208270Y896999D02*
X208270Y896999D01*
X201379Y899854D01*
X196104Y905129D01*
X193249Y912020D01*
X193249Y944980D01*
X196104Y951871D01*
X201379Y957146D01*
X208270Y960001D01*
X215730Y960001D01*
X222621Y957146D01*
X227896Y951871D01*
X230751Y944980D01*
X230751Y912020D01*
X227896Y905129D01*
X222621Y899854D01*
X215730Y896999D01*
X208270Y896999D01*
G37*
%LPD*%
%LPC*%
G36*
X582020Y734949D02*
X582020Y734949D01*
X575129Y737804D01*
X569854Y743079D01*
X566999Y749970D01*
X566999Y757430D01*
X569854Y764321D01*
X575129Y769596D01*
X582020Y772451D01*
X614980Y772451D01*
X621871Y769596D01*
X627146Y764321D01*
X630001Y757430D01*
X630001Y749970D01*
X627146Y743079D01*
X621871Y737804D01*
X614980Y734949D01*
X582020Y734949D01*
G37*
%LPD*%
%LPC*%
G36*
X546470Y366999D02*
X546470Y366999D01*
X539579Y369854D01*
X534304Y375129D01*
X531449Y382020D01*
X531449Y414980D01*
X534304Y421871D01*
X539579Y427146D01*
X546470Y430001D01*
X553930Y430001D01*
X560821Y427146D01*
X566096Y421871D01*
X568951Y414980D01*
X568951Y382020D01*
X566096Y375129D01*
X560821Y369854D01*
X553930Y366999D01*
X546470Y366999D01*
G37*
%LPD*%
%LPC*%
G36*
X506870Y366999D02*
X506870Y366999D01*
X499979Y369854D01*
X494704Y375129D01*
X491849Y382020D01*
X491849Y414980D01*
X494704Y421871D01*
X499979Y427146D01*
X506870Y430001D01*
X514330Y430001D01*
X521221Y427146D01*
X526496Y421871D01*
X529351Y414980D01*
X529351Y382020D01*
X526496Y375129D01*
X521221Y369854D01*
X514330Y366999D01*
X506870Y366999D01*
G37*
%LPD*%
%LPC*%
G36*
X582020Y695349D02*
X582020Y695349D01*
X575129Y698204D01*
X569854Y703479D01*
X566999Y710370D01*
X566999Y717830D01*
X569854Y724721D01*
X575129Y729996D01*
X582020Y732851D01*
X614980Y732851D01*
X621871Y729996D01*
X627146Y724721D01*
X630001Y717830D01*
X630001Y710370D01*
X627146Y703479D01*
X621871Y698204D01*
X614980Y695349D01*
X582020Y695349D01*
G37*
%LPD*%
%LPC*%
G36*
X412020Y943549D02*
X412020Y943549D01*
X405129Y946404D01*
X399854Y951679D01*
X396999Y958570D01*
X396999Y966030D01*
X399854Y972921D01*
X405129Y978196D01*
X412020Y981051D01*
X444980Y981051D01*
X451871Y978196D01*
X457146Y972921D01*
X460001Y966030D01*
X460001Y958570D01*
X457146Y951679D01*
X451871Y946404D01*
X444980Y943549D01*
X412020Y943549D01*
G37*
%LPD*%
%LPC*%
G36*
X202887Y825802D02*
X202887Y825802D01*
X196809Y828979D01*
X192410Y834241D01*
X190359Y840786D01*
X190968Y847617D01*
X194146Y853695D01*
X216653Y872514D01*
X223197Y874565D01*
X230029Y873955D01*
X236107Y870778D01*
X240506Y865516D01*
X242557Y858971D01*
X241948Y852140D01*
X238770Y846062D01*
X216263Y827243D01*
X209719Y825192D01*
X202887Y825802D01*
G37*
%LPD*%
%LPC*%
G36*
X32110Y944441D02*
X32110Y944441D01*
X24921Y947419D01*
X19419Y952921D01*
X16441Y960110D01*
X16441Y967890D01*
X19419Y975079D01*
X24921Y980581D01*
X32110Y983559D01*
X39890Y983559D01*
X47079Y980581D01*
X52581Y975079D01*
X55559Y967890D01*
X55559Y960110D01*
X52581Y952921D01*
X47079Y947419D01*
X39890Y944441D01*
X32110Y944441D01*
G37*
%LPD*%
%LPC*%
G36*
X606110Y360441D02*
X606110Y360441D01*
X598921Y363419D01*
X593419Y368921D01*
X590441Y376110D01*
X590441Y383890D01*
X593419Y391079D01*
X598921Y396581D01*
X606110Y399559D01*
X613890Y399559D01*
X621079Y396581D01*
X626581Y391079D01*
X629559Y383890D01*
X629559Y376110D01*
X626581Y368921D01*
X621079Y363419D01*
X613890Y360441D01*
X606110Y360441D01*
G37*
%LPD*%
%LPC*%
G36*
X606110Y940441D02*
X606110Y940441D01*
X598921Y943419D01*
X593419Y948921D01*
X590441Y956110D01*
X590441Y963890D01*
X593419Y971079D01*
X598921Y976581D01*
X606110Y979559D01*
X613890Y979559D01*
X621079Y976581D01*
X626581Y971079D01*
X629559Y963890D01*
X629559Y956110D01*
X626581Y948921D01*
X621079Y943419D01*
X613890Y940441D01*
X606110Y940441D01*
G37*
%LPD*%
%LPC*%
G36*
X601673Y823465D02*
X601673Y823465D01*
X595044Y826211D01*
X589971Y831284D01*
X587225Y837913D01*
X587225Y845087D01*
X589971Y851716D01*
X595044Y856789D01*
X601673Y859535D01*
X608847Y859535D01*
X615476Y856789D01*
X620549Y851716D01*
X623295Y845087D01*
X623295Y837913D01*
X620549Y831284D01*
X615476Y826211D01*
X608847Y823465D01*
X601673Y823465D01*
G37*
%LPD*%
%LPC*%
G36*
X445071Y853279D02*
X445071Y853279D01*
X440064Y855353D01*
X436233Y859184D01*
X434159Y864191D01*
X434159Y869609D01*
X436233Y874616D01*
X440064Y878447D01*
X445071Y880521D01*
X465729Y880521D01*
X470736Y878447D01*
X474567Y874616D01*
X476641Y869609D01*
X476641Y864191D01*
X474567Y859184D01*
X470736Y855353D01*
X465729Y853279D01*
X445071Y853279D01*
G37*
%LPD*%
%LPC*%
G36*
X445071Y802479D02*
X445071Y802479D01*
X440064Y804553D01*
X436233Y808384D01*
X434159Y813391D01*
X434159Y818809D01*
X436233Y823816D01*
X440064Y827647D01*
X445071Y829721D01*
X465729Y829721D01*
X470736Y827647D01*
X474567Y823816D01*
X476641Y818809D01*
X476641Y813391D01*
X474567Y808384D01*
X470736Y804553D01*
X465729Y802479D01*
X445071Y802479D01*
G37*
%LPD*%
%LPC*%
G36*
X345671Y345679D02*
X345671Y345679D01*
X340664Y347753D01*
X336833Y351584D01*
X334759Y356591D01*
X334759Y362009D01*
X336833Y367016D01*
X340664Y370847D01*
X345671Y372921D01*
X366329Y372921D01*
X371336Y370847D01*
X375167Y367016D01*
X377241Y362009D01*
X377241Y356591D01*
X375167Y351584D01*
X371336Y347753D01*
X366329Y345679D01*
X345671Y345679D01*
G37*
%LPD*%
%LPC*%
G36*
X117243Y876592D02*
X117243Y876592D01*
X107404Y886431D01*
X107404Y900345D01*
X117243Y910184D01*
X131157Y910184D01*
X140996Y900345D01*
X140996Y886431D01*
X131157Y876592D01*
X117243Y876592D01*
G37*
%LPD*%
%LPC*%
G36*
X117243Y941616D02*
X117243Y941616D01*
X107404Y951455D01*
X107404Y965369D01*
X117243Y975208D01*
X131157Y975208D01*
X140996Y965369D01*
X140996Y951455D01*
X131157Y941616D01*
X117243Y941616D01*
G37*
%LPD*%
%LPC*%
G36*
X289789Y861395D02*
X289789Y861395D01*
X285156Y863314D01*
X281610Y866860D01*
X279691Y871493D01*
X279691Y876507D01*
X281610Y881140D01*
X285156Y884686D01*
X289789Y886605D01*
X308011Y886605D01*
X312644Y884686D01*
X316190Y881140D01*
X318109Y876507D01*
X318109Y871493D01*
X316190Y866860D01*
X312644Y863314D01*
X308011Y861395D01*
X289789Y861395D01*
G37*
%LPD*%
%LPC*%
G36*
X365989Y861395D02*
X365989Y861395D01*
X361356Y863314D01*
X357810Y866860D01*
X355891Y871493D01*
X355891Y876507D01*
X357810Y881140D01*
X361356Y884686D01*
X365989Y886605D01*
X384211Y886605D01*
X388844Y884686D01*
X392390Y881140D01*
X394309Y876507D01*
X394309Y871493D01*
X392390Y866860D01*
X388844Y863314D01*
X384211Y861395D01*
X365989Y861395D01*
G37*
%LPD*%
%LPC*%
G36*
X277799Y821099D02*
X277799Y821099D01*
X277799Y821600D01*
X277797Y821608D01*
X277799Y821616D01*
X277778Y821705D01*
X277760Y821795D01*
X277755Y821802D01*
X277753Y821810D01*
X277699Y821883D01*
X277647Y821959D01*
X277640Y821963D01*
X277635Y821970D01*
X277557Y822016D01*
X277479Y822066D01*
X277471Y822067D01*
X277464Y822071D01*
X277300Y822099D01*
X267028Y822099D01*
X267270Y823628D01*
X267795Y825244D01*
X268567Y826758D01*
X269565Y828133D01*
X270767Y829335D01*
X272142Y830333D01*
X273656Y831105D01*
X274644Y831426D01*
X274665Y831438D01*
X274688Y831443D01*
X274751Y831486D01*
X274817Y831524D01*
X274831Y831543D01*
X274851Y831556D01*
X274892Y831621D01*
X274938Y831681D01*
X274944Y831705D01*
X274957Y831725D01*
X274969Y831800D01*
X274988Y831874D01*
X274985Y831898D01*
X274988Y831921D01*
X274970Y831995D01*
X274959Y832070D01*
X274946Y832091D01*
X274941Y832114D01*
X274895Y832175D01*
X274855Y832240D01*
X274836Y832254D01*
X274822Y832273D01*
X274723Y832335D01*
X274694Y832356D01*
X274687Y832358D01*
X274681Y832362D01*
X269725Y834415D01*
X265715Y838425D01*
X263544Y843664D01*
X263544Y849336D01*
X265715Y854575D01*
X269725Y858585D01*
X274964Y860756D01*
X280636Y860756D01*
X285875Y858585D01*
X289885Y854575D01*
X292056Y849336D01*
X292056Y843664D01*
X289885Y838425D01*
X285875Y834415D01*
X280919Y832362D01*
X280900Y832348D01*
X280876Y832342D01*
X280818Y832293D01*
X280755Y832251D01*
X280741Y832230D01*
X280723Y832215D01*
X280688Y832148D01*
X280646Y832084D01*
X280642Y832060D01*
X280631Y832039D01*
X280625Y831963D01*
X280611Y831888D01*
X280617Y831865D01*
X280615Y831841D01*
X280639Y831769D01*
X280656Y831694D01*
X280670Y831675D01*
X280677Y831652D01*
X280728Y831595D01*
X280772Y831533D01*
X280793Y831521D01*
X280809Y831503D01*
X280912Y831449D01*
X280943Y831430D01*
X280949Y831429D01*
X280956Y831426D01*
X281944Y831105D01*
X283458Y830333D01*
X284833Y829335D01*
X286035Y828133D01*
X287033Y826758D01*
X287805Y825244D01*
X288330Y823628D01*
X288572Y822099D01*
X278300Y822099D01*
X278292Y822098D01*
X278284Y822099D01*
X278195Y822078D01*
X278105Y822060D01*
X278098Y822055D01*
X278090Y822053D01*
X278017Y821999D01*
X277941Y821947D01*
X277937Y821940D01*
X277930Y821935D01*
X277884Y821857D01*
X277834Y821780D01*
X277833Y821771D01*
X277829Y821764D01*
X277801Y821600D01*
X277801Y821099D01*
X277799Y821099D01*
G37*
%LPD*%
%LPC*%
G36*
X574864Y898544D02*
X574864Y898544D01*
X569625Y900715D01*
X565615Y904725D01*
X563444Y909964D01*
X563444Y915636D01*
X565615Y920875D01*
X569625Y924885D01*
X574864Y927056D01*
X580536Y927056D01*
X585775Y924885D01*
X589785Y920875D01*
X591838Y915919D01*
X591852Y915900D01*
X591858Y915877D01*
X591907Y915818D01*
X591949Y915755D01*
X591969Y915741D01*
X591985Y915723D01*
X592052Y915688D01*
X592116Y915646D01*
X592140Y915642D01*
X592161Y915631D01*
X592237Y915625D01*
X592312Y915611D01*
X592335Y915617D01*
X592359Y915615D01*
X592431Y915639D01*
X592506Y915656D01*
X592525Y915670D01*
X592548Y915677D01*
X592605Y915728D01*
X592667Y915772D01*
X592679Y915793D01*
X592697Y915809D01*
X592751Y915912D01*
X592770Y915943D01*
X592771Y915949D01*
X592774Y915956D01*
X593095Y916944D01*
X593867Y918458D01*
X594865Y919833D01*
X596067Y921035D01*
X597442Y922033D01*
X598956Y922805D01*
X600572Y923330D01*
X602101Y923572D01*
X602101Y913300D01*
X602102Y913292D01*
X602101Y913284D01*
X602122Y913195D01*
X602140Y913105D01*
X602145Y913098D01*
X602147Y913090D01*
X602201Y913017D01*
X602253Y912941D01*
X602260Y912937D01*
X602265Y912930D01*
X602343Y912884D01*
X602420Y912834D01*
X602429Y912833D01*
X602436Y912829D01*
X602600Y912801D01*
X603101Y912801D01*
X603101Y912799D01*
X602600Y912799D01*
X602592Y912797D01*
X602583Y912799D01*
X602495Y912778D01*
X602405Y912760D01*
X602398Y912755D01*
X602390Y912753D01*
X602317Y912699D01*
X602241Y912647D01*
X602237Y912640D01*
X602230Y912635D01*
X602183Y912557D01*
X602134Y912479D01*
X602133Y912471D01*
X602128Y912464D01*
X602101Y912300D01*
X602101Y902028D01*
X600572Y902270D01*
X598956Y902795D01*
X597442Y903567D01*
X596067Y904565D01*
X594865Y905767D01*
X593867Y907142D01*
X593095Y908656D01*
X592774Y909644D01*
X592762Y909665D01*
X592757Y909688D01*
X592714Y909751D01*
X592676Y909817D01*
X592657Y909831D01*
X592644Y909851D01*
X592579Y909892D01*
X592519Y909938D01*
X592495Y909944D01*
X592475Y909957D01*
X592400Y909969D01*
X592326Y909988D01*
X592302Y909984D01*
X592279Y909988D01*
X592205Y909970D01*
X592130Y909959D01*
X592109Y909946D01*
X592086Y909941D01*
X592025Y909895D01*
X591960Y909855D01*
X591946Y909836D01*
X591927Y909821D01*
X591865Y909723D01*
X591844Y909694D01*
X591842Y909687D01*
X591838Y909681D01*
X589785Y904725D01*
X585775Y900715D01*
X580536Y898544D01*
X574864Y898544D01*
G37*
%LPD*%
%LPC*%
G36*
X404364Y782644D02*
X404364Y782644D01*
X399125Y784815D01*
X395115Y788825D01*
X392944Y794064D01*
X392944Y799736D01*
X395115Y804975D01*
X399125Y808985D01*
X404081Y811038D01*
X404100Y811052D01*
X404123Y811058D01*
X404182Y811107D01*
X404245Y811149D01*
X404259Y811169D01*
X404277Y811185D01*
X404312Y811252D01*
X404354Y811316D01*
X404358Y811340D01*
X404369Y811361D01*
X404375Y811437D01*
X404389Y811512D01*
X404383Y811535D01*
X404385Y811559D01*
X404361Y811631D01*
X404344Y811706D01*
X404330Y811725D01*
X404323Y811748D01*
X404272Y811805D01*
X404228Y811867D01*
X404207Y811879D01*
X404191Y811897D01*
X404088Y811951D01*
X404057Y811970D01*
X404051Y811971D01*
X404044Y811974D01*
X403056Y812295D01*
X401542Y813067D01*
X400167Y814065D01*
X398965Y815267D01*
X397967Y816642D01*
X397195Y818156D01*
X396670Y819772D01*
X396428Y821301D01*
X406700Y821301D01*
X406708Y821302D01*
X406716Y821301D01*
X406805Y821322D01*
X406895Y821340D01*
X406902Y821345D01*
X406910Y821347D01*
X406983Y821401D01*
X407059Y821453D01*
X407063Y821460D01*
X407070Y821465D01*
X407116Y821543D01*
X407166Y821620D01*
X407167Y821629D01*
X407171Y821636D01*
X407199Y821800D01*
X407199Y822301D01*
X407201Y822301D01*
X407201Y821800D01*
X407202Y821793D01*
X407201Y821787D01*
X407201Y821785D01*
X407201Y821783D01*
X407222Y821695D01*
X407240Y821605D01*
X407245Y821598D01*
X407247Y821590D01*
X407301Y821517D01*
X407353Y821441D01*
X407360Y821437D01*
X407365Y821430D01*
X407443Y821383D01*
X407521Y821334D01*
X407529Y821333D01*
X407536Y821328D01*
X407700Y821301D01*
X417972Y821301D01*
X417730Y819772D01*
X417205Y818156D01*
X416433Y816642D01*
X415435Y815267D01*
X414233Y814065D01*
X412858Y813067D01*
X411344Y812295D01*
X410356Y811974D01*
X410335Y811962D01*
X410312Y811957D01*
X410249Y811914D01*
X410183Y811876D01*
X410169Y811857D01*
X410149Y811844D01*
X410108Y811779D01*
X410062Y811719D01*
X410056Y811695D01*
X410043Y811675D01*
X410031Y811600D01*
X410012Y811526D01*
X410016Y811502D01*
X410012Y811479D01*
X410030Y811405D01*
X410041Y811330D01*
X410054Y811309D01*
X410059Y811286D01*
X410105Y811225D01*
X410145Y811160D01*
X410164Y811146D01*
X410179Y811127D01*
X410277Y811065D01*
X410306Y811044D01*
X410313Y811042D01*
X410319Y811038D01*
X415275Y808985D01*
X419285Y804975D01*
X421456Y799736D01*
X421456Y794064D01*
X419285Y788825D01*
X415275Y784815D01*
X410036Y782644D01*
X404364Y782644D01*
G37*
%LPD*%
%LPC*%
G36*
X412999Y855839D02*
X412999Y855839D01*
X412999Y856340D01*
X412997Y856348D01*
X412999Y856356D01*
X412978Y856445D01*
X412960Y856535D01*
X412955Y856542D01*
X412953Y856550D01*
X412899Y856623D01*
X412847Y856699D01*
X412840Y856703D01*
X412835Y856710D01*
X412757Y856756D01*
X412679Y856806D01*
X412671Y856807D01*
X412664Y856811D01*
X412500Y856839D01*
X403855Y856839D01*
X403855Y859628D01*
X408048Y863821D01*
X408052Y863826D01*
X408057Y863830D01*
X408106Y863909D01*
X408158Y863987D01*
X408159Y863993D01*
X408162Y863998D01*
X408177Y864090D01*
X408194Y864182D01*
X408193Y864188D01*
X408194Y864194D01*
X408172Y864284D01*
X408151Y864376D01*
X408148Y864381D01*
X408146Y864387D01*
X408090Y864462D01*
X408036Y864538D01*
X408031Y864542D01*
X408027Y864547D01*
X407886Y864635D01*
X405860Y865474D01*
X402314Y869020D01*
X400395Y873653D01*
X400395Y878667D01*
X402314Y883300D01*
X405860Y886846D01*
X410493Y888765D01*
X415507Y888765D01*
X420140Y886846D01*
X423686Y883300D01*
X425605Y878667D01*
X425605Y873653D01*
X423686Y869020D01*
X420140Y865474D01*
X418114Y864635D01*
X418109Y864631D01*
X418102Y864630D01*
X418026Y864576D01*
X417949Y864524D01*
X417946Y864519D01*
X417940Y864515D01*
X417892Y864436D01*
X417841Y864357D01*
X417839Y864351D01*
X417836Y864346D01*
X417822Y864254D01*
X417806Y864161D01*
X417807Y864155D01*
X417806Y864149D01*
X417829Y864059D01*
X417850Y863968D01*
X417854Y863962D01*
X417856Y863956D01*
X417952Y863821D01*
X422145Y859628D01*
X422145Y856839D01*
X413500Y856839D01*
X413492Y856838D01*
X413484Y856839D01*
X413395Y856818D01*
X413305Y856800D01*
X413298Y856795D01*
X413290Y856793D01*
X413217Y856739D01*
X413141Y856687D01*
X413137Y856680D01*
X413130Y856675D01*
X413084Y856597D01*
X413034Y856520D01*
X413033Y856511D01*
X413029Y856504D01*
X413001Y856340D01*
X413001Y855839D01*
X412999Y855839D01*
G37*
%LPD*%
%LPC*%
G36*
X495493Y729035D02*
X495493Y729035D01*
X490860Y730954D01*
X487314Y734500D01*
X485395Y739133D01*
X485395Y744147D01*
X487314Y748780D01*
X490860Y752326D01*
X492886Y753165D01*
X492891Y753169D01*
X492898Y753170D01*
X492974Y753224D01*
X493051Y753276D01*
X493054Y753281D01*
X493060Y753285D01*
X493108Y753364D01*
X493159Y753443D01*
X493161Y753449D01*
X493164Y753454D01*
X493178Y753546D01*
X493194Y753639D01*
X493193Y753645D01*
X493194Y753651D01*
X493171Y753741D01*
X493150Y753832D01*
X493146Y753838D01*
X493145Y753844D01*
X493048Y753979D01*
X488855Y758172D01*
X488855Y760961D01*
X497500Y760961D01*
X497508Y760962D01*
X497516Y760961D01*
X497605Y760982D01*
X497695Y761000D01*
X497702Y761005D01*
X497710Y761007D01*
X497783Y761061D01*
X497859Y761113D01*
X497863Y761120D01*
X497870Y761125D01*
X497916Y761203D01*
X497966Y761280D01*
X497967Y761289D01*
X497971Y761296D01*
X497999Y761460D01*
X497999Y761961D01*
X498001Y761961D01*
X498001Y761460D01*
X498003Y761452D01*
X498001Y761443D01*
X498022Y761354D01*
X498040Y761265D01*
X498045Y761258D01*
X498047Y761250D01*
X498101Y761177D01*
X498153Y761101D01*
X498160Y761097D01*
X498165Y761090D01*
X498243Y761043D01*
X498321Y760994D01*
X498329Y760993D01*
X498336Y760988D01*
X498500Y760961D01*
X507145Y760961D01*
X507145Y758172D01*
X502952Y753979D01*
X502948Y753974D01*
X502943Y753970D01*
X502894Y753891D01*
X502842Y753813D01*
X502841Y753807D01*
X502838Y753802D01*
X502823Y753710D01*
X502806Y753618D01*
X502807Y753612D01*
X502806Y753606D01*
X502828Y753516D01*
X502849Y753424D01*
X502852Y753419D01*
X502854Y753413D01*
X502910Y753338D01*
X502964Y753262D01*
X502969Y753258D01*
X502973Y753253D01*
X503114Y753165D01*
X505140Y752326D01*
X508686Y748780D01*
X510605Y744147D01*
X510605Y739133D01*
X508686Y734500D01*
X505140Y730954D01*
X500507Y729035D01*
X495493Y729035D01*
G37*
%LPD*%
%LPC*%
G36*
X111503Y597899D02*
X111503Y597899D01*
X111503Y629492D01*
X111676Y630139D01*
X112011Y630718D01*
X112484Y631191D01*
X113063Y631526D01*
X113710Y631699D01*
X129301Y631699D01*
X129301Y597899D01*
X111503Y597899D01*
G37*
%LPD*%
%LPC*%
G36*
X113710Y562101D02*
X113710Y562101D01*
X113063Y562274D01*
X112484Y562609D01*
X112011Y563082D01*
X111676Y563661D01*
X111503Y564308D01*
X111503Y595901D01*
X129301Y595901D01*
X129301Y562101D01*
X113710Y562101D01*
G37*
%LPD*%
%LPC*%
G36*
X49779Y759795D02*
X49779Y759795D01*
X42395Y767179D01*
X42395Y777621D01*
X49779Y785005D01*
X60221Y785005D01*
X67605Y777621D01*
X67605Y767179D01*
X60221Y759795D01*
X49779Y759795D01*
G37*
%LPD*%
%LPC*%
G36*
X317579Y833295D02*
X317579Y833295D01*
X310195Y840679D01*
X310195Y851121D01*
X317579Y858505D01*
X328021Y858505D01*
X335405Y851121D01*
X335405Y840679D01*
X328021Y833295D01*
X317579Y833295D01*
G37*
%LPD*%
%LPC*%
G36*
X449779Y755495D02*
X449779Y755495D01*
X442395Y762879D01*
X442395Y773321D01*
X449779Y780705D01*
X460221Y780705D01*
X467605Y773321D01*
X467605Y762879D01*
X460221Y755495D01*
X449779Y755495D01*
G37*
%LPD*%
%LPC*%
G36*
X429499Y923699D02*
X429499Y923699D01*
X429499Y937991D01*
X442453Y937991D01*
X444831Y937614D01*
X447120Y936870D01*
X449264Y935778D01*
X451211Y934363D01*
X452913Y932661D01*
X454328Y930714D01*
X455420Y928570D01*
X456164Y926281D01*
X456541Y923903D01*
X456541Y923699D01*
X429499Y923699D01*
G37*
%LPD*%
%LPC*%
G36*
X252599Y929499D02*
X252599Y929499D01*
X252599Y956541D01*
X252803Y956541D01*
X255181Y956164D01*
X257470Y955420D01*
X259614Y954328D01*
X261561Y952913D01*
X263263Y951211D01*
X264678Y949264D01*
X265770Y947120D01*
X266514Y944831D01*
X266891Y942453D01*
X266891Y929499D01*
X252599Y929499D01*
G37*
%LPD*%
%LPC*%
G36*
X252599Y900459D02*
X252599Y900459D01*
X252599Y927501D01*
X266891Y927501D01*
X266891Y914547D01*
X266514Y912169D01*
X265770Y909880D01*
X264678Y907736D01*
X263263Y905789D01*
X261561Y904087D01*
X259614Y902672D01*
X257470Y901580D01*
X255181Y900836D01*
X252803Y900459D01*
X252599Y900459D01*
G37*
%LPD*%
%LPC*%
G36*
X400459Y923699D02*
X400459Y923699D01*
X400459Y923903D01*
X400836Y926281D01*
X401580Y928570D01*
X402672Y930714D01*
X404087Y932661D01*
X405789Y934363D01*
X407736Y935778D01*
X409880Y936870D01*
X412169Y937614D01*
X414547Y937991D01*
X427501Y937991D01*
X427501Y923699D01*
X400459Y923699D01*
G37*
%LPD*%
%LPC*%
G36*
X429499Y907409D02*
X429499Y907409D01*
X429499Y921701D01*
X456541Y921701D01*
X456541Y921497D01*
X456164Y919119D01*
X455420Y916830D01*
X454328Y914686D01*
X452913Y912739D01*
X451211Y911037D01*
X449264Y909622D01*
X447120Y908530D01*
X444831Y907786D01*
X442453Y907409D01*
X429499Y907409D01*
G37*
%LPD*%
%LPC*%
G36*
X236309Y929499D02*
X236309Y929499D01*
X236309Y942453D01*
X236686Y944831D01*
X237430Y947120D01*
X238522Y949264D01*
X239937Y951211D01*
X241639Y952913D01*
X243586Y954328D01*
X245730Y955420D01*
X248019Y956164D01*
X250397Y956541D01*
X250601Y956541D01*
X250601Y929499D01*
X236309Y929499D01*
G37*
%LPD*%
%LPC*%
G36*
X414547Y907409D02*
X414547Y907409D01*
X412169Y907786D01*
X409880Y908530D01*
X407736Y909622D01*
X405789Y911037D01*
X404087Y912739D01*
X402672Y914686D01*
X401580Y916830D01*
X400836Y919119D01*
X400459Y921497D01*
X400459Y921701D01*
X427501Y921701D01*
X427501Y907409D01*
X414547Y907409D01*
G37*
%LPD*%
%LPC*%
G36*
X250397Y900459D02*
X250397Y900459D01*
X248019Y900836D01*
X245730Y901580D01*
X243586Y902672D01*
X241639Y904087D01*
X239937Y905789D01*
X238522Y907736D01*
X237430Y909880D01*
X236686Y912169D01*
X236309Y914547D01*
X236309Y927501D01*
X250601Y927501D01*
X250601Y900459D01*
X250397Y900459D01*
G37*
%LPD*%
G36*
X343512Y738537D02*
X343512Y738537D01*
X343517Y738536D01*
X343608Y738558D01*
X343702Y738579D01*
X343706Y738581D01*
X343710Y738582D01*
X343786Y738638D01*
X343865Y738694D01*
X343867Y738697D01*
X343870Y738700D01*
X343919Y738782D01*
X343969Y738863D01*
X343969Y738867D01*
X343972Y738871D01*
X343999Y739035D01*
X343999Y771065D01*
X343997Y771077D01*
X343999Y771090D01*
X343977Y771174D01*
X343960Y771260D01*
X343953Y771270D01*
X343949Y771282D01*
X343853Y771418D01*
X334418Y780853D01*
X334407Y780860D01*
X334400Y780870D01*
X334325Y780915D01*
X334252Y780963D01*
X334240Y780965D01*
X334229Y780972D01*
X334065Y780999D01*
X330532Y780999D01*
X330528Y780998D01*
X330524Y780999D01*
X330430Y780979D01*
X330337Y780960D01*
X330333Y780957D01*
X330329Y780956D01*
X330251Y780901D01*
X330173Y780847D01*
X330171Y780844D01*
X330167Y780841D01*
X330117Y780760D01*
X330066Y780680D01*
X330065Y780675D01*
X330063Y780672D01*
X330049Y780578D01*
X330033Y780483D01*
X330034Y780479D01*
X330033Y780475D01*
X330057Y780382D01*
X330079Y780290D01*
X330081Y780287D01*
X330082Y780283D01*
X330179Y780147D01*
X335405Y774921D01*
X335405Y770031D01*
X335407Y770019D01*
X335405Y770006D01*
X335427Y769922D01*
X335444Y769836D01*
X335451Y769826D01*
X335455Y769814D01*
X335551Y769678D01*
X337630Y767598D01*
X339001Y764290D01*
X339001Y743035D01*
X339003Y743023D01*
X339001Y743010D01*
X339023Y742926D01*
X339040Y742840D01*
X339047Y742830D01*
X339051Y742818D01*
X339147Y742682D01*
X343147Y738682D01*
X343151Y738680D01*
X343153Y738676D01*
X343233Y738625D01*
X343313Y738572D01*
X343317Y738571D01*
X343320Y738569D01*
X343414Y738553D01*
X343508Y738536D01*
X343512Y738537D01*
G37*
%LPC*%
G36*
X456399Y842499D02*
X456399Y842499D01*
X456399Y851661D01*
X463820Y851661D01*
X465399Y851411D01*
X466920Y850916D01*
X468345Y850190D01*
X469639Y849250D01*
X470770Y848119D01*
X471710Y846825D01*
X472436Y845400D01*
X472931Y843879D01*
X473149Y842499D01*
X456399Y842499D01*
G37*
%LPD*%
%LPC*%
G36*
X42999Y597899D02*
X42999Y597899D01*
X42999Y607061D01*
X50420Y607061D01*
X51999Y606811D01*
X53520Y606316D01*
X54945Y605590D01*
X56239Y604650D01*
X57370Y603519D01*
X58310Y602225D01*
X59036Y600800D01*
X59531Y599279D01*
X59749Y597899D01*
X42999Y597899D01*
G37*
%LPD*%
%LPC*%
G36*
X580299Y604899D02*
X580299Y604899D01*
X580299Y614061D01*
X587720Y614061D01*
X589299Y613811D01*
X590820Y613316D01*
X592245Y612590D01*
X593539Y611650D01*
X594670Y610519D01*
X595610Y609225D01*
X596336Y607800D01*
X596831Y606279D01*
X597049Y604899D01*
X580299Y604899D01*
G37*
%LPD*%
%LPC*%
G36*
X580299Y477899D02*
X580299Y477899D01*
X580299Y487061D01*
X587720Y487061D01*
X589299Y486811D01*
X590820Y486316D01*
X592245Y485590D01*
X593539Y484650D01*
X594670Y483519D01*
X595610Y482225D01*
X596336Y480800D01*
X596831Y479279D01*
X597049Y477899D01*
X580299Y477899D01*
G37*
%LPD*%
%LPC*%
G36*
X426199Y477899D02*
X426199Y477899D01*
X426199Y487061D01*
X433620Y487061D01*
X435199Y486811D01*
X436720Y486316D01*
X438145Y485590D01*
X439439Y484650D01*
X440570Y483519D01*
X441510Y482225D01*
X442236Y480800D01*
X442731Y479279D01*
X442949Y477899D01*
X426199Y477899D01*
G37*
%LPD*%
%LPC*%
G36*
X356999Y385699D02*
X356999Y385699D01*
X356999Y394861D01*
X364420Y394861D01*
X365999Y394611D01*
X367520Y394116D01*
X368945Y393390D01*
X370239Y392450D01*
X371370Y391319D01*
X372310Y390025D01*
X373036Y388600D01*
X373531Y387079D01*
X373749Y385699D01*
X356999Y385699D01*
G37*
%LPD*%
%LPC*%
G36*
X407451Y477899D02*
X407451Y477899D01*
X407669Y479279D01*
X408164Y480800D01*
X408890Y482225D01*
X409830Y483519D01*
X410961Y484650D01*
X412255Y485590D01*
X413680Y486316D01*
X415201Y486811D01*
X416780Y487061D01*
X424201Y487061D01*
X424201Y477899D01*
X407451Y477899D01*
G37*
%LPD*%
%LPC*%
G36*
X561551Y604899D02*
X561551Y604899D01*
X561769Y606279D01*
X562264Y607800D01*
X562990Y609225D01*
X563930Y610519D01*
X565061Y611650D01*
X566355Y612590D01*
X567780Y613316D01*
X569301Y613811D01*
X570880Y614061D01*
X578301Y614061D01*
X578301Y604899D01*
X561551Y604899D01*
G37*
%LPD*%
%LPC*%
G36*
X561551Y477899D02*
X561551Y477899D01*
X561769Y479279D01*
X562264Y480800D01*
X562990Y482225D01*
X563930Y483519D01*
X565061Y484650D01*
X566355Y485590D01*
X567780Y486316D01*
X569301Y486811D01*
X570880Y487061D01*
X578301Y487061D01*
X578301Y477899D01*
X561551Y477899D01*
G37*
%LPD*%
%LPC*%
G36*
X338251Y385699D02*
X338251Y385699D01*
X338469Y387079D01*
X338964Y388600D01*
X339690Y390025D01*
X340630Y391319D01*
X341761Y392450D01*
X343055Y393390D01*
X344480Y394116D01*
X346001Y394611D01*
X347580Y394861D01*
X355001Y394861D01*
X355001Y385699D01*
X338251Y385699D01*
G37*
%LPD*%
%LPC*%
G36*
X437651Y842499D02*
X437651Y842499D01*
X437869Y843879D01*
X438364Y845400D01*
X439090Y846825D01*
X440030Y848119D01*
X441161Y849250D01*
X442455Y850190D01*
X443880Y850916D01*
X445401Y851411D01*
X446980Y851661D01*
X454401Y851661D01*
X454401Y842499D01*
X437651Y842499D01*
G37*
%LPD*%
%LPC*%
G36*
X456399Y831339D02*
X456399Y831339D01*
X456399Y840501D01*
X473149Y840501D01*
X472931Y839121D01*
X472436Y837600D01*
X471710Y836175D01*
X470770Y834881D01*
X469639Y833750D01*
X468345Y832810D01*
X466920Y832084D01*
X465399Y831589D01*
X463820Y831339D01*
X456399Y831339D01*
G37*
%LPD*%
%LPC*%
G36*
X580299Y466739D02*
X580299Y466739D01*
X580299Y475901D01*
X597049Y475901D01*
X596831Y474521D01*
X596336Y473000D01*
X595610Y471575D01*
X594670Y470281D01*
X593539Y469150D01*
X592245Y468210D01*
X590820Y467484D01*
X589299Y466989D01*
X587720Y466739D01*
X580299Y466739D01*
G37*
%LPD*%
%LPC*%
G36*
X426199Y466739D02*
X426199Y466739D01*
X426199Y475901D01*
X442949Y475901D01*
X442731Y474521D01*
X442236Y473000D01*
X441510Y471575D01*
X440570Y470281D01*
X439439Y469150D01*
X438145Y468210D01*
X436720Y467484D01*
X435199Y466989D01*
X433620Y466739D01*
X426199Y466739D01*
G37*
%LPD*%
%LPC*%
G36*
X356999Y374539D02*
X356999Y374539D01*
X356999Y383701D01*
X373749Y383701D01*
X373531Y382321D01*
X373036Y380800D01*
X372310Y379375D01*
X371370Y378081D01*
X370239Y376950D01*
X368945Y376010D01*
X367520Y375284D01*
X365999Y374789D01*
X364420Y374539D01*
X356999Y374539D01*
G37*
%LPD*%
%LPC*%
G36*
X42999Y586739D02*
X42999Y586739D01*
X42999Y595901D01*
X59749Y595901D01*
X59531Y594521D01*
X59036Y593000D01*
X58310Y591575D01*
X57370Y590281D01*
X56239Y589150D01*
X54945Y588210D01*
X53520Y587484D01*
X51999Y586989D01*
X50420Y586739D01*
X42999Y586739D01*
G37*
%LPD*%
%LPC*%
G36*
X580299Y593739D02*
X580299Y593739D01*
X580299Y602901D01*
X597049Y602901D01*
X596831Y601521D01*
X596336Y600000D01*
X595610Y598575D01*
X594670Y597281D01*
X593539Y596150D01*
X592245Y595210D01*
X590820Y594484D01*
X589299Y593989D01*
X587720Y593739D01*
X580299Y593739D01*
G37*
%LPD*%
%LPC*%
G36*
X446980Y831339D02*
X446980Y831339D01*
X445401Y831589D01*
X443880Y832084D01*
X442455Y832810D01*
X441161Y833750D01*
X440030Y834881D01*
X439090Y836175D01*
X438364Y837600D01*
X437869Y839121D01*
X437651Y840501D01*
X454401Y840501D01*
X454401Y831339D01*
X446980Y831339D01*
G37*
%LPD*%
%LPC*%
G36*
X570880Y593739D02*
X570880Y593739D01*
X569301Y593989D01*
X567780Y594484D01*
X566355Y595210D01*
X565061Y596150D01*
X563930Y597281D01*
X562990Y598575D01*
X562264Y600000D01*
X561769Y601521D01*
X561551Y602901D01*
X578301Y602901D01*
X578301Y593739D01*
X570880Y593739D01*
G37*
%LPD*%
%LPC*%
G36*
X570880Y466739D02*
X570880Y466739D01*
X569301Y466989D01*
X567780Y467484D01*
X566355Y468210D01*
X565061Y469150D01*
X563930Y470281D01*
X562990Y471575D01*
X562264Y473000D01*
X561769Y474521D01*
X561551Y475901D01*
X578301Y475901D01*
X578301Y466739D01*
X570880Y466739D01*
G37*
%LPD*%
%LPC*%
G36*
X416780Y466739D02*
X416780Y466739D01*
X415201Y466989D01*
X413680Y467484D01*
X412255Y468210D01*
X410961Y469150D01*
X409830Y470281D01*
X408890Y471575D01*
X408164Y473000D01*
X407669Y474521D01*
X407451Y475901D01*
X424201Y475901D01*
X424201Y466739D01*
X416780Y466739D01*
G37*
%LPD*%
%LPC*%
G36*
X347580Y374539D02*
X347580Y374539D01*
X346001Y374789D01*
X344480Y375284D01*
X343055Y376010D01*
X341761Y376950D01*
X340630Y378081D01*
X339690Y379375D01*
X338964Y380800D01*
X338469Y382321D01*
X338251Y383701D01*
X355001Y383701D01*
X355001Y374539D01*
X347580Y374539D01*
G37*
%LPD*%
%LPC*%
G36*
X263499Y778499D02*
X263499Y778499D01*
X263499Y787581D01*
X270833Y787581D01*
X272401Y787333D01*
X273910Y786842D01*
X275323Y786122D01*
X276607Y785189D01*
X277729Y784067D01*
X278662Y782783D01*
X279382Y781370D01*
X279873Y779861D01*
X280088Y778499D01*
X263499Y778499D01*
G37*
%LPD*%
%LPC*%
G36*
X198499Y778499D02*
X198499Y778499D01*
X198499Y787581D01*
X205833Y787581D01*
X207401Y787333D01*
X208910Y786842D01*
X210323Y786122D01*
X211607Y785189D01*
X212729Y784067D01*
X213662Y782783D01*
X214382Y781370D01*
X214873Y779861D01*
X215088Y778499D01*
X198499Y778499D01*
G37*
%LPD*%
%LPC*%
G36*
X179912Y778499D02*
X179912Y778499D01*
X180127Y779861D01*
X180618Y781370D01*
X181338Y782783D01*
X182271Y784067D01*
X183393Y785189D01*
X184677Y786122D01*
X186090Y786842D01*
X187599Y787333D01*
X189167Y787581D01*
X196501Y787581D01*
X196501Y778499D01*
X179912Y778499D01*
G37*
%LPD*%
%LPC*%
G36*
X244912Y778499D02*
X244912Y778499D01*
X245127Y779861D01*
X245618Y781370D01*
X246338Y782783D01*
X247271Y784067D01*
X248393Y785189D01*
X249677Y786122D01*
X251090Y786842D01*
X252599Y787333D01*
X254167Y787581D01*
X261501Y787581D01*
X261501Y778499D01*
X244912Y778499D01*
G37*
%LPD*%
%LPC*%
G36*
X198499Y767419D02*
X198499Y767419D01*
X198499Y776501D01*
X215088Y776501D01*
X214873Y775139D01*
X214382Y773630D01*
X213662Y772217D01*
X212729Y770933D01*
X211607Y769811D01*
X210323Y768878D01*
X208910Y768158D01*
X207401Y767667D01*
X205833Y767419D01*
X198499Y767419D01*
G37*
%LPD*%
%LPC*%
G36*
X263499Y767419D02*
X263499Y767419D01*
X263499Y776501D01*
X280088Y776501D01*
X279873Y775139D01*
X279382Y773630D01*
X278662Y772217D01*
X277729Y770933D01*
X276607Y769811D01*
X275323Y768878D01*
X273910Y768158D01*
X272401Y767667D01*
X270833Y767419D01*
X263499Y767419D01*
G37*
%LPD*%
%LPC*%
G36*
X254167Y767419D02*
X254167Y767419D01*
X252599Y767667D01*
X251090Y768158D01*
X249677Y768878D01*
X248393Y769811D01*
X247271Y770933D01*
X246338Y772217D01*
X245618Y773630D01*
X245127Y775139D01*
X244912Y776501D01*
X261501Y776501D01*
X261501Y767419D01*
X254167Y767419D01*
G37*
%LPD*%
%LPC*%
G36*
X189167Y767419D02*
X189167Y767419D01*
X187599Y767667D01*
X186090Y768158D01*
X184677Y768878D01*
X183393Y769811D01*
X182271Y770933D01*
X181338Y772217D01*
X180618Y773630D01*
X180127Y775139D01*
X179912Y776501D01*
X196501Y776501D01*
X196501Y767419D01*
X189167Y767419D01*
G37*
%LPD*%
G36*
X320512Y742437D02*
X320512Y742437D01*
X320517Y742436D01*
X320608Y742458D01*
X320702Y742479D01*
X320706Y742481D01*
X320710Y742482D01*
X320786Y742538D01*
X320865Y742594D01*
X320867Y742597D01*
X320870Y742600D01*
X320919Y742682D01*
X320969Y742763D01*
X320969Y742767D01*
X320972Y742771D01*
X320999Y742935D01*
X320999Y756596D01*
X320998Y756604D01*
X320999Y756613D01*
X320978Y756701D01*
X320960Y756791D01*
X320955Y756798D01*
X320953Y756806D01*
X320899Y756879D01*
X320847Y756955D01*
X320840Y756959D01*
X320835Y756966D01*
X320757Y757013D01*
X320680Y757062D01*
X320671Y757063D01*
X320664Y757068D01*
X320500Y757095D01*
X317579Y757095D01*
X310195Y764479D01*
X310195Y766261D01*
X310194Y766265D01*
X310195Y766269D01*
X310175Y766363D01*
X310156Y766456D01*
X310153Y766459D01*
X310152Y766463D01*
X310097Y766541D01*
X310043Y766620D01*
X310040Y766622D01*
X310037Y766626D01*
X309956Y766675D01*
X309876Y766727D01*
X309871Y766728D01*
X309868Y766730D01*
X309774Y766744D01*
X309679Y766760D01*
X309675Y766759D01*
X309671Y766760D01*
X309579Y766736D01*
X309486Y766714D01*
X309483Y766711D01*
X309479Y766710D01*
X309343Y766614D01*
X303085Y760357D01*
X303084Y760355D01*
X303082Y760353D01*
X303029Y760271D01*
X302976Y760191D01*
X302975Y760189D01*
X302974Y760187D01*
X302957Y760091D01*
X302939Y759995D01*
X302940Y759993D01*
X302939Y759991D01*
X302961Y759896D01*
X302982Y759801D01*
X302983Y759799D01*
X302984Y759797D01*
X303042Y759717D01*
X303097Y759639D01*
X303099Y759638D01*
X303100Y759636D01*
X303185Y759585D01*
X303267Y759535D01*
X303269Y759534D01*
X303271Y759533D01*
X303369Y759519D01*
X303463Y759505D01*
X303465Y759505D01*
X303468Y759505D01*
X303588Y759533D01*
X308393Y759533D01*
X312816Y757701D01*
X316201Y754316D01*
X318033Y749893D01*
X318033Y745105D01*
X318019Y745017D01*
X318002Y744929D01*
X318004Y744919D01*
X318003Y744909D01*
X318025Y744822D01*
X318043Y744735D01*
X318049Y744726D01*
X318052Y744716D01*
X318148Y744581D01*
X320147Y742582D01*
X320151Y742580D01*
X320153Y742576D01*
X320233Y742525D01*
X320313Y742472D01*
X320317Y742471D01*
X320320Y742469D01*
X320414Y742453D01*
X320508Y742436D01*
X320512Y742437D01*
G37*
%LPC*%
G36*
X64299Y857799D02*
X64299Y857799D01*
X64299Y872529D01*
X65967Y872197D01*
X67632Y871508D01*
X69129Y870507D01*
X70403Y869233D01*
X71404Y867736D01*
X72093Y866071D01*
X72445Y864305D01*
X72445Y857799D01*
X64299Y857799D01*
G37*
%LPD*%
%LPC*%
G36*
X64299Y855801D02*
X64299Y855801D01*
X72445Y855801D01*
X72445Y849295D01*
X72093Y847529D01*
X71404Y845864D01*
X70403Y844367D01*
X69129Y843093D01*
X67632Y842092D01*
X65967Y841403D01*
X64299Y841071D01*
X64299Y855801D01*
G37*
%LPD*%
%LPC*%
G36*
X54155Y857799D02*
X54155Y857799D01*
X54155Y864305D01*
X54507Y866071D01*
X55196Y867736D01*
X56197Y869233D01*
X57471Y870507D01*
X58968Y871508D01*
X60633Y872197D01*
X62301Y872529D01*
X62301Y857799D01*
X54155Y857799D01*
G37*
%LPD*%
%LPC*%
G36*
X60633Y841403D02*
X60633Y841403D01*
X58968Y842092D01*
X57471Y843093D01*
X56197Y844367D01*
X55196Y845864D01*
X54507Y847529D01*
X54155Y849295D01*
X54155Y855801D01*
X62301Y855801D01*
X62301Y841071D01*
X60633Y841403D01*
G37*
%LPD*%
%LPC*%
G36*
X206506Y422103D02*
X206506Y422103D01*
X206574Y431871D01*
X208028Y431641D01*
X209644Y431116D01*
X211158Y430345D01*
X212533Y429346D01*
X213734Y428144D01*
X214733Y426770D01*
X215505Y425255D01*
X216030Y423639D01*
X216284Y422035D01*
X206506Y422103D01*
G37*
%LPD*%
%LPC*%
G36*
X206492Y420105D02*
X206492Y420105D01*
X216260Y420037D01*
X216030Y418583D01*
X215505Y416967D01*
X214733Y415453D01*
X213734Y414078D01*
X212533Y412877D01*
X211158Y411878D01*
X209644Y411106D01*
X208028Y410581D01*
X206424Y410327D01*
X206492Y420105D01*
G37*
%LPD*%
%LPC*%
G36*
X604099Y913799D02*
X604099Y913799D01*
X604099Y923572D01*
X605628Y923330D01*
X607244Y922805D01*
X608758Y922033D01*
X610133Y921035D01*
X611335Y919833D01*
X612333Y918458D01*
X613105Y916944D01*
X613630Y915328D01*
X613872Y913799D01*
X604099Y913799D01*
G37*
%LPD*%
%LPC*%
G36*
X408199Y823299D02*
X408199Y823299D01*
X408199Y833072D01*
X409728Y832830D01*
X411344Y832305D01*
X412858Y831533D01*
X414233Y830535D01*
X415435Y829333D01*
X416433Y827958D01*
X417205Y826444D01*
X417730Y824828D01*
X417972Y823299D01*
X408199Y823299D01*
G37*
%LPD*%
%LPC*%
G36*
X278799Y820101D02*
X278799Y820101D01*
X288572Y820101D01*
X288330Y818572D01*
X287805Y816956D01*
X287033Y815442D01*
X286035Y814067D01*
X284833Y812865D01*
X283458Y811867D01*
X281944Y811095D01*
X280328Y810570D01*
X278799Y810328D01*
X278799Y820101D01*
G37*
%LPD*%
%LPC*%
G36*
X604099Y911801D02*
X604099Y911801D01*
X613872Y911801D01*
X613630Y910272D01*
X613105Y908656D01*
X612333Y907142D01*
X611335Y905767D01*
X610133Y904565D01*
X608758Y903567D01*
X607244Y902795D01*
X605628Y902270D01*
X604099Y902028D01*
X604099Y911801D01*
G37*
%LPD*%
%LPC*%
G36*
X396428Y823299D02*
X396428Y823299D01*
X396670Y824828D01*
X397195Y826444D01*
X397967Y827958D01*
X398965Y829333D01*
X400167Y830535D01*
X401542Y831533D01*
X403056Y832305D01*
X404672Y832830D01*
X406201Y833072D01*
X406201Y823299D01*
X396428Y823299D01*
G37*
%LPD*%
%LPC*%
G36*
X275272Y810570D02*
X275272Y810570D01*
X273656Y811095D01*
X272142Y811867D01*
X270767Y812865D01*
X269565Y814067D01*
X268567Y815442D01*
X267795Y816956D01*
X267270Y818572D01*
X267028Y820101D01*
X276801Y820101D01*
X276801Y810328D01*
X275272Y810570D01*
G37*
%LPD*%
G36*
X63014Y626396D02*
X63014Y626396D01*
X63017Y626396D01*
X63110Y626418D01*
X63206Y626440D01*
X63208Y626442D01*
X63210Y626442D01*
X63287Y626498D01*
X63367Y626557D01*
X63368Y626559D01*
X63370Y626560D01*
X63419Y626643D01*
X63470Y626727D01*
X63470Y626729D01*
X63472Y626731D01*
X63499Y626895D01*
X63499Y643105D01*
X63499Y643107D01*
X63499Y643109D01*
X63479Y643203D01*
X63460Y643300D01*
X63458Y643302D01*
X63458Y643304D01*
X63402Y643384D01*
X63347Y643464D01*
X63345Y643465D01*
X63344Y643467D01*
X63261Y643519D01*
X63180Y643571D01*
X63177Y643571D01*
X63176Y643572D01*
X63080Y643588D01*
X62983Y643604D01*
X62981Y643603D01*
X62979Y643604D01*
X62885Y643580D01*
X62790Y643558D01*
X62788Y643557D01*
X62786Y643556D01*
X62707Y643497D01*
X62630Y643440D01*
X62629Y643438D01*
X62627Y643437D01*
X62539Y643296D01*
X61167Y639984D01*
X57336Y636153D01*
X55666Y635461D01*
X55662Y635459D01*
X55658Y635458D01*
X55580Y635403D01*
X55501Y635350D01*
X55499Y635347D01*
X55495Y635344D01*
X55444Y635263D01*
X55392Y635183D01*
X55392Y635179D01*
X55389Y635176D01*
X55374Y635082D01*
X55358Y634988D01*
X55359Y634983D01*
X55358Y634979D01*
X55381Y634888D01*
X55402Y634794D01*
X55405Y634790D01*
X55406Y634786D01*
X55463Y634710D01*
X55519Y634633D01*
X55522Y634631D01*
X55525Y634627D01*
X55666Y634539D01*
X57335Y633847D01*
X61167Y630016D01*
X62539Y626704D01*
X62540Y626702D01*
X62540Y626700D01*
X62595Y626620D01*
X62650Y626539D01*
X62652Y626538D01*
X62653Y626536D01*
X62734Y626484D01*
X62817Y626431D01*
X62819Y626430D01*
X62820Y626429D01*
X62916Y626413D01*
X63012Y626396D01*
X63014Y626396D01*
G37*
G36*
X63014Y651796D02*
X63014Y651796D01*
X63017Y651796D01*
X63110Y651818D01*
X63206Y651840D01*
X63208Y651842D01*
X63210Y651842D01*
X63287Y651898D01*
X63367Y651957D01*
X63368Y651959D01*
X63370Y651960D01*
X63419Y652043D01*
X63470Y652127D01*
X63470Y652129D01*
X63472Y652131D01*
X63499Y652295D01*
X63499Y668505D01*
X63499Y668507D01*
X63499Y668509D01*
X63479Y668603D01*
X63460Y668700D01*
X63458Y668702D01*
X63458Y668704D01*
X63402Y668784D01*
X63347Y668864D01*
X63345Y668865D01*
X63344Y668867D01*
X63261Y668919D01*
X63180Y668971D01*
X63177Y668971D01*
X63176Y668972D01*
X63080Y668988D01*
X62983Y669004D01*
X62981Y669003D01*
X62979Y669004D01*
X62885Y668980D01*
X62790Y668958D01*
X62788Y668957D01*
X62786Y668956D01*
X62707Y668897D01*
X62630Y668840D01*
X62629Y668838D01*
X62627Y668837D01*
X62539Y668696D01*
X61167Y665384D01*
X57336Y661553D01*
X55666Y660861D01*
X55662Y660859D01*
X55658Y660858D01*
X55580Y660803D01*
X55501Y660750D01*
X55499Y660747D01*
X55495Y660744D01*
X55444Y660663D01*
X55392Y660583D01*
X55392Y660579D01*
X55389Y660576D01*
X55374Y660482D01*
X55358Y660388D01*
X55359Y660383D01*
X55358Y660379D01*
X55381Y660288D01*
X55402Y660194D01*
X55405Y660190D01*
X55406Y660186D01*
X55463Y660110D01*
X55519Y660033D01*
X55522Y660031D01*
X55525Y660027D01*
X55666Y659939D01*
X57335Y659247D01*
X61167Y655416D01*
X62539Y652104D01*
X62540Y652102D01*
X62540Y652100D01*
X62596Y652019D01*
X62650Y651939D01*
X62652Y651938D01*
X62653Y651936D01*
X62734Y651884D01*
X62817Y651831D01*
X62819Y651830D01*
X62820Y651829D01*
X62916Y651813D01*
X63012Y651796D01*
X63014Y651796D01*
G37*
%LPC*%
G36*
X403799Y743499D02*
X403799Y743499D01*
X403799Y751645D01*
X406588Y751645D01*
X411945Y746288D01*
X411945Y743499D01*
X403799Y743499D01*
G37*
%LPD*%
%LPC*%
G36*
X365199Y812659D02*
X365199Y812659D01*
X365199Y820805D01*
X367988Y820805D01*
X373345Y815448D01*
X373345Y812659D01*
X365199Y812659D01*
G37*
%LPD*%
%LPC*%
G36*
X91999Y862599D02*
X91999Y862599D01*
X91999Y870745D01*
X94788Y870745D01*
X100145Y865388D01*
X100145Y862599D01*
X91999Y862599D01*
G37*
%LPD*%
%LPC*%
G36*
X498999Y762959D02*
X498999Y762959D01*
X498999Y771105D01*
X501788Y771105D01*
X507145Y765748D01*
X507145Y762959D01*
X498999Y762959D01*
G37*
%LPD*%
%LPC*%
G36*
X81855Y862599D02*
X81855Y862599D01*
X81855Y865388D01*
X87212Y870745D01*
X90001Y870745D01*
X90001Y862599D01*
X81855Y862599D01*
G37*
%LPD*%
%LPC*%
G36*
X91999Y852455D02*
X91999Y852455D01*
X91999Y860601D01*
X100145Y860601D01*
X100145Y857812D01*
X94788Y852455D01*
X91999Y852455D01*
G37*
%LPD*%
%LPC*%
G36*
X355055Y812659D02*
X355055Y812659D01*
X355055Y815448D01*
X360412Y820805D01*
X363201Y820805D01*
X363201Y812659D01*
X355055Y812659D01*
G37*
%LPD*%
%LPC*%
G36*
X393655Y743499D02*
X393655Y743499D01*
X393655Y746288D01*
X399012Y751645D01*
X401801Y751645D01*
X401801Y743499D01*
X393655Y743499D01*
G37*
%LPD*%
%LPC*%
G36*
X488855Y762959D02*
X488855Y762959D01*
X488855Y765748D01*
X494212Y771105D01*
X497001Y771105D01*
X497001Y762959D01*
X488855Y762959D01*
G37*
%LPD*%
%LPC*%
G36*
X413999Y846695D02*
X413999Y846695D01*
X413999Y854841D01*
X422145Y854841D01*
X422145Y852052D01*
X416788Y846695D01*
X413999Y846695D01*
G37*
%LPD*%
%LPC*%
G36*
X412999Y355495D02*
X412999Y355495D01*
X412999Y363641D01*
X421145Y363641D01*
X421145Y360852D01*
X415788Y355495D01*
X412999Y355495D01*
G37*
%LPD*%
%LPC*%
G36*
X403799Y733355D02*
X403799Y733355D01*
X403799Y741501D01*
X411945Y741501D01*
X411945Y738712D01*
X406588Y733355D01*
X403799Y733355D01*
G37*
%LPD*%
%LPC*%
G36*
X409212Y846695D02*
X409212Y846695D01*
X403855Y852052D01*
X403855Y854841D01*
X412001Y854841D01*
X412001Y846695D01*
X409212Y846695D01*
G37*
%LPD*%
%LPC*%
G36*
X399012Y733355D02*
X399012Y733355D01*
X393655Y738712D01*
X393655Y741501D01*
X401801Y741501D01*
X401801Y733355D01*
X399012Y733355D01*
G37*
%LPD*%
%LPC*%
G36*
X408212Y355495D02*
X408212Y355495D01*
X402855Y360852D01*
X402855Y363641D01*
X411001Y363641D01*
X411001Y355495D01*
X408212Y355495D01*
G37*
%LPD*%
%LPC*%
G36*
X87212Y852455D02*
X87212Y852455D01*
X81855Y857812D01*
X81855Y860601D01*
X90001Y860601D01*
X90001Y852455D01*
X87212Y852455D01*
G37*
%LPD*%
G36*
X559019Y508087D02*
X559019Y508087D01*
X559021Y508086D01*
X559115Y508110D01*
X559210Y508132D01*
X559212Y508133D01*
X559214Y508134D01*
X559293Y508193D01*
X559370Y508250D01*
X559371Y508252D01*
X559373Y508253D01*
X559461Y508394D01*
X560133Y510016D01*
X563964Y513847D01*
X565634Y514539D01*
X565638Y514541D01*
X565642Y514542D01*
X565720Y514597D01*
X565799Y514650D01*
X565801Y514653D01*
X565805Y514656D01*
X565856Y514737D01*
X565908Y514817D01*
X565908Y514821D01*
X565911Y514824D01*
X565926Y514918D01*
X565942Y515012D01*
X565941Y515017D01*
X565942Y515021D01*
X565920Y515112D01*
X565898Y515206D01*
X565895Y515210D01*
X565894Y515214D01*
X565837Y515290D01*
X565781Y515367D01*
X565778Y515369D01*
X565775Y515373D01*
X565634Y515461D01*
X563965Y516153D01*
X560133Y519984D01*
X559461Y521606D01*
X559460Y521608D01*
X559460Y521610D01*
X559405Y521690D01*
X559350Y521771D01*
X559348Y521772D01*
X559347Y521774D01*
X559266Y521826D01*
X559183Y521879D01*
X559181Y521880D01*
X559180Y521881D01*
X559084Y521897D01*
X558988Y521914D01*
X558986Y521914D01*
X558983Y521914D01*
X558890Y521892D01*
X558794Y521870D01*
X558792Y521868D01*
X558790Y521868D01*
X558713Y521811D01*
X558633Y521753D01*
X558632Y521751D01*
X558630Y521750D01*
X558581Y521667D01*
X558530Y521583D01*
X558530Y521581D01*
X558528Y521579D01*
X558501Y521415D01*
X558501Y508585D01*
X558501Y508583D01*
X558501Y508581D01*
X558521Y508487D01*
X558540Y508390D01*
X558542Y508388D01*
X558542Y508386D01*
X558598Y508306D01*
X558653Y508226D01*
X558655Y508225D01*
X558656Y508223D01*
X558739Y508171D01*
X558820Y508119D01*
X558823Y508119D01*
X558824Y508118D01*
X558920Y508102D01*
X559017Y508086D01*
X559019Y508087D01*
G37*
G36*
X559019Y533487D02*
X559019Y533487D01*
X559021Y533486D01*
X559115Y533510D01*
X559210Y533532D01*
X559212Y533533D01*
X559214Y533534D01*
X559293Y533593D01*
X559370Y533650D01*
X559371Y533652D01*
X559373Y533653D01*
X559461Y533794D01*
X560133Y535416D01*
X563965Y539247D01*
X565219Y539767D01*
X565634Y539939D01*
X565638Y539941D01*
X565642Y539942D01*
X565721Y539997D01*
X565799Y540050D01*
X565801Y540053D01*
X565805Y540056D01*
X565856Y540137D01*
X565908Y540217D01*
X565908Y540221D01*
X565911Y540224D01*
X565926Y540318D01*
X565942Y540412D01*
X565941Y540416D01*
X565942Y540421D01*
X565919Y540513D01*
X565898Y540606D01*
X565895Y540610D01*
X565894Y540614D01*
X565837Y540690D01*
X565781Y540767D01*
X565778Y540769D01*
X565775Y540773D01*
X565634Y540861D01*
X563964Y541553D01*
X560133Y545384D01*
X559461Y547006D01*
X559460Y547008D01*
X559460Y547010D01*
X559405Y547090D01*
X559350Y547171D01*
X559348Y547172D01*
X559347Y547174D01*
X559266Y547226D01*
X559183Y547279D01*
X559181Y547280D01*
X559180Y547281D01*
X559084Y547297D01*
X558988Y547314D01*
X558986Y547314D01*
X558983Y547314D01*
X558890Y547292D01*
X558794Y547270D01*
X558792Y547268D01*
X558790Y547268D01*
X558713Y547212D01*
X558633Y547153D01*
X558632Y547151D01*
X558630Y547150D01*
X558581Y547067D01*
X558530Y546983D01*
X558530Y546981D01*
X558528Y546979D01*
X558501Y546815D01*
X558501Y533985D01*
X558501Y533983D01*
X558501Y533981D01*
X558521Y533887D01*
X558540Y533790D01*
X558542Y533788D01*
X558542Y533786D01*
X558598Y533706D01*
X558653Y533626D01*
X558655Y533625D01*
X558656Y533623D01*
X558739Y533571D01*
X558820Y533519D01*
X558823Y533519D01*
X558824Y533518D01*
X558920Y533502D01*
X559017Y533486D01*
X559019Y533487D01*
G37*
G36*
X559019Y558887D02*
X559019Y558887D01*
X559021Y558886D01*
X559115Y558910D01*
X559210Y558932D01*
X559212Y558933D01*
X559214Y558934D01*
X559293Y558993D01*
X559370Y559050D01*
X559371Y559052D01*
X559373Y559053D01*
X559461Y559194D01*
X560133Y560816D01*
X563964Y564647D01*
X565634Y565339D01*
X565638Y565341D01*
X565642Y565342D01*
X565720Y565397D01*
X565799Y565450D01*
X565801Y565453D01*
X565805Y565456D01*
X565856Y565537D01*
X565908Y565617D01*
X565908Y565621D01*
X565911Y565624D01*
X565926Y565718D01*
X565942Y565812D01*
X565941Y565817D01*
X565942Y565821D01*
X565919Y565912D01*
X565898Y566006D01*
X565895Y566010D01*
X565894Y566014D01*
X565837Y566090D01*
X565781Y566167D01*
X565778Y566169D01*
X565775Y566173D01*
X565634Y566261D01*
X563964Y566953D01*
X560133Y570784D01*
X559461Y572406D01*
X559460Y572408D01*
X559460Y572410D01*
X559405Y572490D01*
X559350Y572571D01*
X559348Y572572D01*
X559347Y572574D01*
X559266Y572626D01*
X559183Y572679D01*
X559181Y572680D01*
X559180Y572681D01*
X559084Y572697D01*
X558988Y572714D01*
X558986Y572714D01*
X558983Y572714D01*
X558890Y572692D01*
X558794Y572670D01*
X558792Y572668D01*
X558790Y572668D01*
X558713Y572612D01*
X558633Y572553D01*
X558632Y572551D01*
X558630Y572550D01*
X558581Y572467D01*
X558530Y572383D01*
X558530Y572381D01*
X558528Y572379D01*
X558501Y572215D01*
X558501Y559385D01*
X558501Y559383D01*
X558501Y559381D01*
X558521Y559287D01*
X558540Y559190D01*
X558542Y559188D01*
X558542Y559186D01*
X558598Y559106D01*
X558653Y559026D01*
X558655Y559025D01*
X558656Y559023D01*
X558739Y558971D01*
X558820Y558919D01*
X558823Y558919D01*
X558824Y558918D01*
X558920Y558902D01*
X559017Y558886D01*
X559019Y558887D01*
G37*
G36*
X245085Y722026D02*
X245085Y722026D01*
X245089Y722025D01*
X245182Y722045D01*
X245275Y722064D01*
X245279Y722067D01*
X245283Y722068D01*
X245360Y722123D01*
X245439Y722177D01*
X245442Y722180D01*
X245445Y722183D01*
X245495Y722264D01*
X245546Y722344D01*
X245547Y722349D01*
X245549Y722352D01*
X245564Y722446D01*
X245579Y722541D01*
X245579Y722545D01*
X245579Y722549D01*
X245556Y722641D01*
X245533Y722734D01*
X245531Y722737D01*
X245530Y722741D01*
X245434Y722877D01*
X244957Y723353D01*
X244947Y723360D01*
X244940Y723370D01*
X244865Y723415D01*
X244792Y723463D01*
X244779Y723465D01*
X244768Y723472D01*
X244604Y723499D01*
X215396Y723499D01*
X215383Y723497D01*
X215371Y723499D01*
X215286Y723477D01*
X215201Y723460D01*
X215190Y723453D01*
X215178Y723449D01*
X215043Y723353D01*
X214566Y722877D01*
X214564Y722874D01*
X214561Y722871D01*
X214509Y722790D01*
X214457Y722711D01*
X214456Y722707D01*
X214454Y722704D01*
X214438Y722610D01*
X214420Y722516D01*
X214421Y722512D01*
X214421Y722507D01*
X214442Y722416D01*
X214463Y722322D01*
X214466Y722318D01*
X214467Y722314D01*
X214523Y722238D01*
X214578Y722159D01*
X214582Y722157D01*
X214584Y722154D01*
X214666Y722105D01*
X214748Y722055D01*
X214752Y722055D01*
X214755Y722052D01*
X214919Y722025D01*
X245081Y722025D01*
X245085Y722026D01*
G37*
G36*
X63014Y677196D02*
X63014Y677196D01*
X63017Y677196D01*
X63110Y677218D01*
X63206Y677240D01*
X63208Y677242D01*
X63210Y677242D01*
X63287Y677298D01*
X63367Y677357D01*
X63368Y677359D01*
X63370Y677360D01*
X63419Y677443D01*
X63470Y677527D01*
X63470Y677529D01*
X63472Y677531D01*
X63499Y677695D01*
X63499Y685668D01*
X63498Y685672D01*
X63499Y685676D01*
X63479Y685770D01*
X63460Y685863D01*
X63457Y685867D01*
X63456Y685871D01*
X63401Y685949D01*
X63347Y686027D01*
X63344Y686029D01*
X63341Y686033D01*
X63260Y686083D01*
X63180Y686134D01*
X63175Y686135D01*
X63172Y686137D01*
X63078Y686151D01*
X62983Y686167D01*
X62979Y686166D01*
X62975Y686167D01*
X62883Y686143D01*
X62790Y686121D01*
X62787Y686119D01*
X62783Y686118D01*
X62647Y686021D01*
X60221Y683595D01*
X59593Y683595D01*
X59589Y683594D01*
X59584Y683595D01*
X59491Y683575D01*
X59398Y683556D01*
X59394Y683553D01*
X59390Y683552D01*
X59312Y683497D01*
X59234Y683443D01*
X59232Y683440D01*
X59228Y683437D01*
X59178Y683356D01*
X59127Y683276D01*
X59126Y683271D01*
X59124Y683268D01*
X59110Y683174D01*
X59094Y683079D01*
X59095Y683075D01*
X59094Y683071D01*
X59118Y682979D01*
X59140Y682886D01*
X59142Y682883D01*
X59143Y682879D01*
X59240Y682743D01*
X61167Y680816D01*
X62539Y677504D01*
X62540Y677502D01*
X62540Y677500D01*
X62595Y677420D01*
X62650Y677339D01*
X62652Y677338D01*
X62653Y677336D01*
X62734Y677284D01*
X62817Y677231D01*
X62819Y677230D01*
X62820Y677229D01*
X62916Y677213D01*
X63012Y677196D01*
X63014Y677196D01*
G37*
G36*
X24521Y657291D02*
X24521Y657291D01*
X24525Y657290D01*
X24617Y657314D01*
X24710Y657336D01*
X24713Y657338D01*
X24717Y657339D01*
X24853Y657436D01*
X26665Y659247D01*
X28334Y659939D01*
X28338Y659941D01*
X28342Y659942D01*
X28421Y659997D01*
X28499Y660050D01*
X28501Y660053D01*
X28505Y660056D01*
X28556Y660137D01*
X28608Y660217D01*
X28608Y660221D01*
X28611Y660224D01*
X28626Y660318D01*
X28642Y660412D01*
X28641Y660416D01*
X28642Y660421D01*
X28619Y660513D01*
X28598Y660606D01*
X28595Y660610D01*
X28594Y660614D01*
X28537Y660690D01*
X28481Y660767D01*
X28478Y660769D01*
X28475Y660773D01*
X28334Y660861D01*
X26664Y661553D01*
X24853Y663364D01*
X24849Y663367D01*
X24847Y663370D01*
X24767Y663421D01*
X24687Y663474D01*
X24683Y663475D01*
X24680Y663477D01*
X24586Y663493D01*
X24492Y663511D01*
X24488Y663510D01*
X24483Y663510D01*
X24392Y663488D01*
X24298Y663468D01*
X24294Y663465D01*
X24290Y663464D01*
X24214Y663408D01*
X24135Y663353D01*
X24133Y663349D01*
X24130Y663346D01*
X24081Y663265D01*
X24031Y663183D01*
X24031Y663179D01*
X24028Y663175D01*
X24001Y663011D01*
X24001Y657789D01*
X24002Y657785D01*
X24001Y657780D01*
X24021Y657687D01*
X24040Y657594D01*
X24043Y657590D01*
X24044Y657586D01*
X24099Y657508D01*
X24153Y657430D01*
X24156Y657428D01*
X24159Y657424D01*
X24240Y657374D01*
X24320Y657323D01*
X24325Y657322D01*
X24328Y657320D01*
X24422Y657306D01*
X24517Y657290D01*
X24521Y657291D01*
G37*
G36*
X409521Y615291D02*
X409521Y615291D01*
X409525Y615290D01*
X409618Y615314D01*
X409710Y615336D01*
X409713Y615338D01*
X409717Y615339D01*
X409853Y615436D01*
X409865Y615447D01*
X411534Y616139D01*
X411538Y616141D01*
X411542Y616142D01*
X411621Y616197D01*
X411699Y616250D01*
X411701Y616253D01*
X411705Y616256D01*
X411756Y616337D01*
X411808Y616417D01*
X411808Y616421D01*
X411811Y616424D01*
X411826Y616518D01*
X411842Y616612D01*
X411841Y616616D01*
X411842Y616621D01*
X411819Y616713D01*
X411798Y616806D01*
X411795Y616810D01*
X411794Y616814D01*
X411737Y616890D01*
X411681Y616967D01*
X411678Y616969D01*
X411675Y616973D01*
X411534Y617061D01*
X409865Y617753D01*
X409853Y617764D01*
X409849Y617767D01*
X409847Y617770D01*
X409767Y617821D01*
X409687Y617874D01*
X409683Y617875D01*
X409680Y617877D01*
X409586Y617893D01*
X409492Y617911D01*
X409488Y617910D01*
X409483Y617910D01*
X409391Y617888D01*
X409298Y617868D01*
X409294Y617865D01*
X409290Y617864D01*
X409214Y617808D01*
X409136Y617753D01*
X409133Y617749D01*
X409130Y617746D01*
X409081Y617665D01*
X409031Y617583D01*
X409031Y617579D01*
X409028Y617575D01*
X409001Y617411D01*
X409001Y615789D01*
X409002Y615784D01*
X409001Y615780D01*
X409021Y615688D01*
X409040Y615594D01*
X409043Y615590D01*
X409044Y615586D01*
X409099Y615509D01*
X409153Y615430D01*
X409156Y615428D01*
X409159Y615424D01*
X409240Y615374D01*
X409320Y615323D01*
X409325Y615322D01*
X409328Y615320D01*
X409422Y615306D01*
X409517Y615290D01*
X409521Y615291D01*
G37*
G36*
X409521Y589891D02*
X409521Y589891D01*
X409525Y589890D01*
X409618Y589914D01*
X409710Y589936D01*
X409713Y589938D01*
X409717Y589939D01*
X409853Y590036D01*
X409865Y590047D01*
X410211Y590191D01*
X411534Y590739D01*
X411538Y590741D01*
X411542Y590742D01*
X411621Y590797D01*
X411699Y590850D01*
X411701Y590853D01*
X411705Y590856D01*
X411756Y590937D01*
X411808Y591017D01*
X411808Y591021D01*
X411811Y591024D01*
X411826Y591118D01*
X411842Y591212D01*
X411841Y591216D01*
X411842Y591221D01*
X411819Y591313D01*
X411798Y591406D01*
X411795Y591410D01*
X411794Y591414D01*
X411737Y591490D01*
X411681Y591567D01*
X411678Y591569D01*
X411675Y591573D01*
X411534Y591661D01*
X409865Y592353D01*
X409853Y592364D01*
X409849Y592367D01*
X409847Y592370D01*
X409767Y592421D01*
X409687Y592474D01*
X409683Y592475D01*
X409680Y592477D01*
X409586Y592493D01*
X409492Y592511D01*
X409488Y592510D01*
X409483Y592510D01*
X409391Y592488D01*
X409298Y592468D01*
X409294Y592465D01*
X409290Y592464D01*
X409214Y592408D01*
X409136Y592353D01*
X409133Y592349D01*
X409130Y592346D01*
X409081Y592265D01*
X409031Y592183D01*
X409031Y592179D01*
X409028Y592175D01*
X409001Y592011D01*
X409001Y590389D01*
X409002Y590384D01*
X409001Y590380D01*
X409021Y590288D01*
X409040Y590194D01*
X409043Y590190D01*
X409044Y590186D01*
X409099Y590109D01*
X409153Y590030D01*
X409156Y590028D01*
X409159Y590024D01*
X409240Y589974D01*
X409320Y589923D01*
X409325Y589922D01*
X409328Y589920D01*
X409422Y589906D01*
X409517Y589890D01*
X409521Y589891D01*
G37*
G36*
X610010Y942477D02*
X610010Y942477D01*
X610021Y942477D01*
X610029Y942478D01*
X610048Y942477D01*
X610069Y942479D01*
X610119Y942495D01*
X610149Y942498D01*
X610164Y942506D01*
X610216Y942516D01*
X610236Y942530D01*
X610259Y942537D01*
X610317Y942586D01*
X610380Y942629D01*
X610393Y942650D01*
X610412Y942665D01*
X610446Y942733D01*
X610487Y942796D01*
X610491Y942821D01*
X610502Y942842D01*
X610507Y942918D01*
X610520Y942993D01*
X610514Y943016D01*
X610516Y943041D01*
X610491Y943113D01*
X610474Y943186D01*
X610459Y943206D01*
X610451Y943229D01*
X610401Y943285D01*
X610356Y943346D01*
X610335Y943359D01*
X610318Y943377D01*
X610250Y943409D01*
X610185Y943448D01*
X610158Y943452D01*
X610138Y943461D01*
X610079Y943465D01*
X610051Y943470D01*
X610048Y943471D01*
X610044Y943471D01*
X610021Y943475D01*
X609979Y943475D01*
X609963Y943472D01*
X609952Y943471D01*
X609940Y943467D01*
X609905Y943460D01*
X609830Y943452D01*
X609808Y943441D01*
X609784Y943436D01*
X609722Y943393D01*
X609656Y943356D01*
X609640Y943337D01*
X609620Y943323D01*
X609580Y943260D01*
X609533Y943200D01*
X609526Y943176D01*
X609513Y943156D01*
X609501Y943081D01*
X609481Y943008D01*
X609484Y942984D01*
X609480Y942959D01*
X609498Y942886D01*
X609508Y942811D01*
X609520Y942790D01*
X609526Y942766D01*
X609571Y942705D01*
X609610Y942640D01*
X609630Y942626D01*
X609644Y942606D01*
X609709Y942567D01*
X609770Y942523D01*
X609797Y942515D01*
X609815Y942504D01*
X609868Y942496D01*
X609882Y942489D01*
X609899Y942488D01*
X609931Y942479D01*
X609952Y942477D01*
X609967Y942479D01*
X609979Y942477D01*
X609988Y942477D01*
X610000Y942475D01*
X610010Y942477D01*
G37*
G36*
X610010Y362477D02*
X610010Y362477D01*
X610021Y362477D01*
X610029Y362478D01*
X610049Y362477D01*
X610069Y362479D01*
X610119Y362494D01*
X610149Y362498D01*
X610164Y362506D01*
X610216Y362516D01*
X610236Y362530D01*
X610259Y362537D01*
X610317Y362586D01*
X610380Y362629D01*
X610393Y362650D01*
X610412Y362665D01*
X610446Y362733D01*
X610487Y362796D01*
X610491Y362821D01*
X610502Y362843D01*
X610507Y362918D01*
X610520Y362993D01*
X610514Y363016D01*
X610516Y363041D01*
X610491Y363112D01*
X610474Y363186D01*
X610459Y363206D01*
X610451Y363229D01*
X610401Y363285D01*
X610356Y363346D01*
X610335Y363359D01*
X610318Y363377D01*
X610250Y363409D01*
X610185Y363448D01*
X610158Y363452D01*
X610138Y363461D01*
X610079Y363465D01*
X610051Y363470D01*
X610049Y363471D01*
X610045Y363471D01*
X610021Y363475D01*
X609979Y363475D01*
X609963Y363472D01*
X609952Y363471D01*
X609940Y363467D01*
X609905Y363460D01*
X609830Y363452D01*
X609808Y363441D01*
X609784Y363436D01*
X609722Y363393D01*
X609656Y363356D01*
X609641Y363337D01*
X609620Y363323D01*
X609580Y363260D01*
X609533Y363200D01*
X609527Y363176D01*
X609513Y363156D01*
X609501Y363081D01*
X609481Y363008D01*
X609484Y362984D01*
X609480Y362959D01*
X609498Y362886D01*
X609508Y362811D01*
X609521Y362790D01*
X609526Y362766D01*
X609571Y362705D01*
X609610Y362640D01*
X609630Y362626D01*
X609644Y362606D01*
X609709Y362567D01*
X609770Y362523D01*
X609797Y362515D01*
X609815Y362504D01*
X609868Y362496D01*
X609883Y362489D01*
X609900Y362488D01*
X609931Y362479D01*
X609951Y362477D01*
X609967Y362479D01*
X609979Y362477D01*
X609988Y362477D01*
X610000Y362475D01*
X610010Y362477D01*
G37*
G36*
X610037Y396528D02*
X610037Y396528D01*
X610048Y396529D01*
X610060Y396533D01*
X610095Y396540D01*
X610170Y396548D01*
X610192Y396559D01*
X610216Y396564D01*
X610278Y396607D01*
X610344Y396644D01*
X610359Y396663D01*
X610380Y396677D01*
X610420Y396741D01*
X610467Y396800D01*
X610473Y396824D01*
X610487Y396844D01*
X610499Y396919D01*
X610519Y396992D01*
X610516Y397016D01*
X610520Y397041D01*
X610502Y397114D01*
X610492Y397189D01*
X610479Y397210D01*
X610474Y397234D01*
X610429Y397295D01*
X610390Y397360D01*
X610370Y397374D01*
X610356Y397394D01*
X610291Y397433D01*
X610230Y397477D01*
X610203Y397485D01*
X610185Y397496D01*
X610132Y397504D01*
X610118Y397511D01*
X610100Y397512D01*
X610069Y397521D01*
X610049Y397523D01*
X610033Y397521D01*
X610021Y397523D01*
X609979Y397523D01*
X609971Y397522D01*
X609952Y397523D01*
X609931Y397521D01*
X609881Y397506D01*
X609851Y397502D01*
X609836Y397494D01*
X609784Y397484D01*
X609764Y397470D01*
X609741Y397463D01*
X609683Y397414D01*
X609620Y397371D01*
X609607Y397350D01*
X609588Y397335D01*
X609554Y397267D01*
X609513Y397204D01*
X609509Y397179D01*
X609498Y397158D01*
X609493Y397082D01*
X609480Y397007D01*
X609486Y396984D01*
X609484Y396959D01*
X609509Y396887D01*
X609526Y396814D01*
X609541Y396794D01*
X609549Y396771D01*
X609599Y396715D01*
X609644Y396654D01*
X609665Y396641D01*
X609682Y396623D01*
X609750Y396591D01*
X609815Y396552D01*
X609842Y396548D01*
X609862Y396539D01*
X609921Y396535D01*
X609949Y396530D01*
X609952Y396529D01*
X609955Y396529D01*
X609979Y396525D01*
X610021Y396525D01*
X610037Y396528D01*
G37*
G36*
X610037Y976528D02*
X610037Y976528D01*
X610049Y976529D01*
X610060Y976533D01*
X610095Y976540D01*
X610170Y976548D01*
X610192Y976559D01*
X610216Y976564D01*
X610278Y976607D01*
X610344Y976644D01*
X610359Y976663D01*
X610380Y976677D01*
X610420Y976741D01*
X610467Y976800D01*
X610473Y976824D01*
X610487Y976844D01*
X610499Y976919D01*
X610519Y976992D01*
X610516Y977016D01*
X610520Y977041D01*
X610502Y977114D01*
X610492Y977189D01*
X610479Y977210D01*
X610474Y977234D01*
X610429Y977295D01*
X610390Y977360D01*
X610370Y977374D01*
X610356Y977394D01*
X610291Y977433D01*
X610230Y977477D01*
X610203Y977485D01*
X610185Y977496D01*
X610132Y977504D01*
X610117Y977511D01*
X610100Y977512D01*
X610069Y977521D01*
X610049Y977523D01*
X610033Y977521D01*
X610021Y977523D01*
X609979Y977523D01*
X609971Y977522D01*
X609952Y977523D01*
X609931Y977521D01*
X609881Y977506D01*
X609851Y977502D01*
X609836Y977494D01*
X609784Y977484D01*
X609764Y977470D01*
X609741Y977463D01*
X609683Y977414D01*
X609620Y977371D01*
X609607Y977350D01*
X609588Y977335D01*
X609554Y977267D01*
X609513Y977204D01*
X609509Y977179D01*
X609498Y977157D01*
X609493Y977082D01*
X609480Y977007D01*
X609486Y976984D01*
X609484Y976959D01*
X609509Y976888D01*
X609526Y976814D01*
X609541Y976794D01*
X609549Y976771D01*
X609599Y976715D01*
X609644Y976654D01*
X609665Y976641D01*
X609682Y976623D01*
X609750Y976591D01*
X609815Y976552D01*
X609842Y976548D01*
X609862Y976539D01*
X609921Y976535D01*
X609949Y976530D01*
X609952Y976529D01*
X609955Y976529D01*
X609979Y976525D01*
X610021Y976525D01*
X610037Y976528D01*
G37*
G36*
X36010Y946477D02*
X36010Y946477D01*
X36021Y946477D01*
X36029Y946478D01*
X36049Y946477D01*
X36069Y946479D01*
X36119Y946494D01*
X36149Y946498D01*
X36164Y946506D01*
X36216Y946516D01*
X36236Y946530D01*
X36260Y946538D01*
X36317Y946586D01*
X36380Y946629D01*
X36393Y946650D01*
X36412Y946665D01*
X36446Y946733D01*
X36487Y946796D01*
X36491Y946821D01*
X36502Y946843D01*
X36507Y946918D01*
X36520Y946993D01*
X36514Y947016D01*
X36516Y947041D01*
X36491Y947113D01*
X36474Y947186D01*
X36459Y947206D01*
X36451Y947229D01*
X36401Y947285D01*
X36356Y947346D01*
X36335Y947359D01*
X36318Y947377D01*
X36250Y947409D01*
X36185Y947448D01*
X36158Y947452D01*
X36138Y947461D01*
X36079Y947465D01*
X36052Y947470D01*
X36049Y947471D01*
X36044Y947471D01*
X36021Y947475D01*
X35979Y947475D01*
X35963Y947472D01*
X35951Y947471D01*
X35939Y947467D01*
X35905Y947460D01*
X35830Y947452D01*
X35809Y947441D01*
X35784Y947436D01*
X35722Y947393D01*
X35656Y947357D01*
X35641Y947337D01*
X35620Y947323D01*
X35580Y947260D01*
X35533Y947200D01*
X35527Y947176D01*
X35513Y947156D01*
X35501Y947081D01*
X35481Y947008D01*
X35484Y946984D01*
X35480Y946959D01*
X35498Y946886D01*
X35508Y946811D01*
X35521Y946790D01*
X35526Y946766D01*
X35571Y946705D01*
X35610Y946640D01*
X35630Y946626D01*
X35644Y946606D01*
X35709Y946567D01*
X35770Y946523D01*
X35797Y946515D01*
X35815Y946504D01*
X35868Y946496D01*
X35883Y946489D01*
X35900Y946488D01*
X35931Y946479D01*
X35951Y946477D01*
X35967Y946479D01*
X35979Y946477D01*
X35988Y946477D01*
X36000Y946475D01*
X36010Y946477D01*
G37*
G36*
X36037Y980528D02*
X36037Y980528D01*
X36049Y980529D01*
X36061Y980533D01*
X36095Y980540D01*
X36170Y980548D01*
X36191Y980559D01*
X36216Y980564D01*
X36278Y980607D01*
X36344Y980644D01*
X36359Y980663D01*
X36380Y980677D01*
X36420Y980741D01*
X36467Y980800D01*
X36473Y980824D01*
X36487Y980844D01*
X36499Y980919D01*
X36519Y980992D01*
X36516Y981016D01*
X36520Y981041D01*
X36502Y981114D01*
X36492Y981189D01*
X36479Y981210D01*
X36474Y981234D01*
X36429Y981295D01*
X36390Y981360D01*
X36370Y981374D01*
X36356Y981394D01*
X36291Y981433D01*
X36230Y981477D01*
X36203Y981485D01*
X36185Y981496D01*
X36132Y981504D01*
X36117Y981511D01*
X36100Y981512D01*
X36069Y981521D01*
X36049Y981523D01*
X36033Y981521D01*
X36021Y981523D01*
X35979Y981523D01*
X35971Y981522D01*
X35951Y981523D01*
X35931Y981521D01*
X35881Y981506D01*
X35851Y981502D01*
X35836Y981494D01*
X35784Y981484D01*
X35764Y981470D01*
X35741Y981462D01*
X35683Y981414D01*
X35620Y981371D01*
X35607Y981350D01*
X35588Y981335D01*
X35554Y981267D01*
X35513Y981204D01*
X35509Y981179D01*
X35498Y981157D01*
X35493Y981082D01*
X35480Y981007D01*
X35486Y980984D01*
X35484Y980959D01*
X35509Y980887D01*
X35526Y980814D01*
X35541Y980794D01*
X35549Y980771D01*
X35599Y980715D01*
X35644Y980654D01*
X35665Y980641D01*
X35682Y980623D01*
X35750Y980591D01*
X35815Y980552D01*
X35842Y980548D01*
X35862Y980539D01*
X35921Y980535D01*
X35948Y980530D01*
X35951Y980529D01*
X35956Y980529D01*
X35979Y980525D01*
X36021Y980525D01*
X36037Y980528D01*
G37*
%LPC*%
G36*
X90999Y861599D02*
X90999Y861599D01*
X90999Y861601D01*
X91001Y861601D01*
X91001Y861599D01*
X90999Y861599D01*
G37*
%LPD*%
%LPC*%
G36*
X251599Y928499D02*
X251599Y928499D01*
X251599Y928501D01*
X251601Y928501D01*
X251601Y928499D01*
X251599Y928499D01*
G37*
%LPD*%
%LPC*%
G36*
X63299Y856799D02*
X63299Y856799D01*
X63299Y856801D01*
X63301Y856801D01*
X63301Y856799D01*
X63299Y856799D01*
G37*
%LPD*%
%LPC*%
G36*
X262499Y777499D02*
X262499Y777499D01*
X262499Y777501D01*
X262501Y777501D01*
X262501Y777499D01*
X262499Y777499D01*
G37*
%LPD*%
%LPC*%
G36*
X428499Y922699D02*
X428499Y922699D01*
X428499Y922701D01*
X428501Y922701D01*
X428501Y922699D01*
X428499Y922699D01*
G37*
%LPD*%
%LPC*%
G36*
X579299Y603899D02*
X579299Y603899D01*
X579299Y603901D01*
X579301Y603901D01*
X579301Y603899D01*
X579299Y603899D01*
G37*
%LPD*%
%LPC*%
G36*
X355999Y384699D02*
X355999Y384699D01*
X355999Y384701D01*
X356001Y384701D01*
X356001Y384699D01*
X355999Y384699D01*
G37*
%LPD*%
%LPC*%
G36*
X579299Y476899D02*
X579299Y476899D01*
X579299Y476901D01*
X579301Y476901D01*
X579301Y476899D01*
X579299Y476899D01*
G37*
%LPD*%
%LPC*%
G36*
X455399Y841499D02*
X455399Y841499D01*
X455399Y841501D01*
X455401Y841501D01*
X455401Y841499D01*
X455399Y841499D01*
G37*
%LPD*%
%LPC*%
G36*
X425199Y476899D02*
X425199Y476899D01*
X425199Y476901D01*
X425201Y476901D01*
X425201Y476899D01*
X425199Y476899D01*
G37*
%LPD*%
%LPC*%
G36*
X402799Y742499D02*
X402799Y742499D01*
X402799Y742501D01*
X402801Y742501D01*
X402801Y742499D01*
X402799Y742499D01*
G37*
%LPD*%
%LPC*%
G36*
X197499Y777499D02*
X197499Y777499D01*
X197499Y777501D01*
X197501Y777501D01*
X197501Y777499D01*
X197499Y777499D01*
G37*
%LPD*%
D10*
X441250Y922700D02*
X415750Y922700D01*
X415750Y962300D02*
X441250Y962300D01*
D11*
X364200Y811660D03*
D12*
X364200Y791340D03*
D13*
X277800Y846500D03*
X277800Y821100D03*
D11*
X498000Y761960D03*
D12*
X498000Y741640D03*
D13*
X577700Y912800D03*
X603100Y912800D03*
D14*
X412000Y364640D03*
D12*
X412000Y384960D03*
D13*
X407200Y796900D03*
X407200Y822300D03*
X180100Y421289D03*
X205500Y421111D03*
D10*
X251600Y915750D02*
X251600Y941250D01*
X212000Y941250D02*
X212000Y915750D01*
D15*
X447780Y866900D02*
X463020Y866900D01*
X463020Y841500D02*
X447780Y841500D01*
X447780Y816100D02*
X463020Y816100D01*
D11*
X91000Y836200D03*
X91000Y861600D03*
D10*
X585750Y714100D02*
X611250Y714100D01*
X611250Y753700D02*
X585750Y753700D01*
X550200Y411250D02*
X550200Y385750D01*
X510600Y385750D02*
X510600Y411250D01*
D16*
X12500Y850196D02*
X12500Y863404D01*
X63300Y863404D02*
X63300Y850196D01*
X37900Y850196D02*
X37900Y863404D01*
D14*
X322800Y845900D03*
X322800Y769700D03*
X402800Y742500D03*
X402800Y666300D03*
D11*
X55000Y696200D03*
X55000Y772400D03*
D16*
X345196Y935300D02*
X358404Y935300D01*
X358404Y960700D02*
X345196Y960700D01*
X345196Y909900D02*
X358404Y909900D01*
X307604Y960700D02*
X294396Y960700D01*
X294396Y935300D02*
X307604Y935300D01*
X307604Y909900D02*
X294396Y909900D01*
D17*
X124200Y958412D03*
X124200Y893388D03*
D15*
X417580Y476900D02*
X432820Y476900D01*
X432820Y502300D02*
X417580Y502300D01*
X417580Y527700D02*
X432820Y527700D01*
X432820Y553100D02*
X417580Y553100D01*
X417580Y578500D02*
X432820Y578500D01*
X432820Y603900D02*
X417580Y603900D01*
X417580Y629300D02*
X432820Y629300D01*
X432820Y654700D02*
X417580Y654700D01*
X571680Y654700D02*
X586920Y654700D01*
X586920Y629300D02*
X571680Y629300D01*
X571680Y603900D02*
X586920Y603900D01*
X586920Y578500D02*
X571680Y578500D01*
X571680Y553100D02*
X586920Y553100D01*
X586920Y527700D02*
X571680Y527700D01*
X571680Y502300D02*
X586920Y502300D01*
X586920Y476900D02*
X571680Y476900D01*
D18*
X130300Y596900D03*
X130300Y482600D03*
X371600Y482600D03*
X371600Y596900D03*
D19*
X160950Y482550D03*
X160550Y596950D03*
X341050Y596950D03*
X341450Y482550D03*
D20*
X43290Y465000D02*
X25510Y465000D01*
X25510Y439600D02*
X43290Y439600D01*
X43290Y490400D02*
X25510Y490400D01*
X25510Y515800D02*
X43290Y515800D01*
X43290Y541200D02*
X25510Y541200D01*
X25510Y414200D02*
X43290Y414200D01*
X43290Y388800D02*
X25510Y388800D01*
X25510Y363400D02*
X43290Y363400D01*
D15*
X49620Y596900D02*
X34380Y596900D01*
X34380Y622300D02*
X49620Y622300D01*
X49620Y647700D02*
X34380Y647700D01*
X34380Y673100D02*
X49620Y673100D01*
D11*
X455000Y691900D03*
X455000Y768100D03*
D21*
X270040Y732500D02*
X254960Y732500D01*
X205040Y732500D02*
X189960Y732500D01*
X254960Y777500D02*
X270040Y777500D01*
X205040Y777500D02*
X189960Y777500D01*
D15*
X348380Y384700D02*
X363620Y384700D01*
X363620Y359300D02*
X348380Y359300D01*
D14*
X413000Y855840D03*
D12*
X413000Y876160D03*
D14*
X31000Y812100D03*
X31000Y735900D03*
D16*
X292296Y874000D02*
X305504Y874000D01*
X368496Y874000D02*
X381704Y874000D01*
D22*
X108165Y759331D02*
X90919Y744912D01*
X207835Y842669D02*
X225081Y857088D01*
D23*
X58000Y575000D03*
X363515Y665244D03*
X210000Y760000D03*
X299000Y812000D03*
D24*
X371600Y596900D02*
X370000Y595300D01*
D25*
X579300Y476900D02*
X579300Y460700D01*
X580000Y460000D01*
X579300Y476900D02*
X599900Y476900D01*
X600000Y477000D01*
X579300Y476900D02*
X557900Y476900D01*
X557000Y476000D01*
X579300Y603900D02*
X599900Y603900D01*
X599917Y603902D01*
X599934Y603906D01*
X599950Y603913D01*
X599964Y603923D01*
X599977Y603936D01*
X599987Y603950D01*
X599994Y603966D01*
X599998Y603983D01*
X600000Y604000D01*
X579300Y603900D02*
X561500Y603900D01*
X561500Y604000D01*
X412000Y350000D02*
X410000Y350000D01*
X356000Y384700D02*
X356000Y400000D01*
X350000Y400000D01*
X356000Y384700D02*
X330000Y384700D01*
X330000Y390000D01*
X356000Y384700D02*
X380000Y384700D01*
X380000Y380000D01*
X205500Y421111D02*
X205500Y440000D01*
X200000Y440000D01*
X205500Y421111D02*
X205500Y400000D01*
X210000Y400000D01*
X205500Y421111D02*
X220000Y421111D01*
X220000Y420000D01*
X57000Y515800D02*
X34400Y515800D01*
X57000Y515800D02*
X57000Y516000D01*
X34400Y515800D02*
X10000Y515800D01*
X10000Y516000D01*
X42000Y581000D02*
X42000Y596900D01*
X42000Y581000D02*
X43000Y581000D01*
X42000Y596900D02*
X60000Y596900D01*
X60000Y597000D01*
X277800Y821100D02*
X290000Y821100D01*
X290000Y820000D01*
X277800Y821000D02*
X277800Y821100D01*
X277800Y821000D02*
X264000Y821000D01*
X251600Y928500D02*
X251600Y960000D01*
X252000Y960000D01*
X251600Y928500D02*
X251600Y928000D01*
X268000Y928000D01*
X251600Y928500D02*
X251000Y928500D01*
X251000Y894000D01*
X251600Y928500D02*
X235000Y928500D01*
X235000Y929000D01*
X428500Y922700D02*
X428500Y939534D01*
X428000Y939534D01*
X428500Y922700D02*
X428500Y902000D01*
X429000Y902000D01*
X428500Y922000D02*
X428500Y922700D01*
X428500Y922000D02*
X463000Y922000D01*
X428500Y922700D02*
X394000Y922700D01*
X394000Y923000D01*
X603100Y912800D02*
X616000Y912800D01*
X616000Y913000D01*
X603100Y912800D02*
X603100Y926000D01*
X604000Y926000D01*
X603100Y912800D02*
X603000Y912800D01*
X603000Y899000D01*
D26*
X130300Y596900D02*
X130298Y596841D01*
X130292Y596783D01*
X130283Y596724D01*
X130269Y596667D01*
X130252Y596611D01*
X130231Y596556D01*
X130207Y596502D01*
X130179Y596450D01*
X130148Y596400D01*
X130114Y596352D01*
X130077Y596307D01*
X130036Y596264D01*
X129993Y596223D01*
X129948Y596186D01*
X129900Y596152D01*
X129850Y596121D01*
X129798Y596093D01*
X129744Y596069D01*
X129689Y596048D01*
X129633Y596031D01*
X129576Y596017D01*
X129517Y596008D01*
X129459Y596002D01*
X129400Y596000D01*
X112000Y596000D01*
X130000Y596600D02*
X130002Y596634D01*
X130008Y596667D01*
X130017Y596699D01*
X130030Y596730D01*
X130046Y596760D01*
X130065Y596787D01*
X130088Y596812D01*
X130113Y596835D01*
X130140Y596854D01*
X130170Y596870D01*
X130201Y596883D01*
X130233Y596892D01*
X130266Y596898D01*
X130300Y596900D01*
X130000Y596600D02*
X130000Y562000D01*
X130300Y596900D02*
X130350Y596902D01*
X130400Y596907D01*
X130449Y596916D01*
X130497Y596928D01*
X130545Y596944D01*
X130591Y596963D01*
X130635Y596986D01*
X130678Y597011D01*
X130719Y597040D01*
X130758Y597071D01*
X130795Y597105D01*
X130829Y597142D01*
X130860Y597181D01*
X130889Y597222D01*
X130914Y597265D01*
X130937Y597309D01*
X130956Y597355D01*
X130972Y597403D01*
X130984Y597451D01*
X130993Y597500D01*
X130998Y597550D01*
X131000Y597600D01*
X131000Y636000D01*
X369700Y595000D02*
X369785Y595002D01*
X369870Y595008D01*
X369955Y595017D01*
X370039Y595031D01*
X370123Y595048D01*
X370205Y595068D01*
X370287Y595093D01*
X370368Y595121D01*
X370447Y595153D01*
X370524Y595188D01*
X370600Y595227D01*
X370675Y595269D01*
X370747Y595314D01*
X370817Y595363D01*
X370885Y595415D01*
X370950Y595469D01*
X371013Y595527D01*
X371073Y595587D01*
X371131Y595650D01*
X371185Y595715D01*
X371237Y595783D01*
X371286Y595853D01*
X371331Y595925D01*
X371373Y596000D01*
X371412Y596076D01*
X371447Y596153D01*
X371479Y596232D01*
X371507Y596313D01*
X371532Y596395D01*
X371552Y596477D01*
X371569Y596561D01*
X371583Y596645D01*
X371592Y596730D01*
X371598Y596815D01*
X371600Y596900D01*
X369700Y595000D02*
X301000Y595000D01*
X132200Y595000D02*
X132115Y595002D01*
X132030Y595008D01*
X131945Y595017D01*
X131861Y595031D01*
X131777Y595048D01*
X131695Y595068D01*
X131613Y595093D01*
X131532Y595121D01*
X131453Y595153D01*
X131376Y595188D01*
X131300Y595227D01*
X131225Y595269D01*
X131153Y595314D01*
X131083Y595363D01*
X131015Y595415D01*
X130950Y595469D01*
X130887Y595527D01*
X130827Y595587D01*
X130769Y595650D01*
X130715Y595715D01*
X130663Y595783D01*
X130614Y595853D01*
X130569Y595925D01*
X130527Y596000D01*
X130488Y596076D01*
X130453Y596153D01*
X130421Y596232D01*
X130393Y596313D01*
X130368Y596395D01*
X130348Y596477D01*
X130331Y596561D01*
X130317Y596645D01*
X130308Y596730D01*
X130302Y596815D01*
X130300Y596900D01*
X132200Y595000D02*
X197000Y595000D01*
D23*
X306000Y747500D03*
D25*
X339100Y730000D02*
X402800Y666300D01*
X339100Y730000D02*
X320000Y730000D01*
X306000Y744000D01*
X306000Y747500D01*
X322800Y769700D02*
X330000Y762500D01*
X330000Y739100D02*
X339100Y730000D01*
X330000Y739100D02*
X330000Y762500D01*
D27*
X470000Y670000D03*
D23*
X530000Y680000D03*
D25*
X480000Y680000D01*
X470000Y670000D01*
D23*
X342700Y652700D03*
X402934Y571066D03*
D25*
X355400Y640000D02*
X342700Y652700D01*
X355400Y640000D02*
X390000Y640000D01*
X400000Y630000D01*
X400000Y574000D02*
X402934Y571066D01*
X400000Y574000D02*
X400000Y630000D01*
D27*
X170000Y870000D03*
X15000Y562249D03*
D25*
X15000Y630000D01*
D23*
X22032Y630000D03*
D25*
X15000Y630000D01*
X15000Y775000D01*
X36496Y796496D02*
X37463Y796496D01*
X36496Y796496D02*
X15000Y775000D01*
X37463Y796496D02*
X60967Y820000D01*
X120000Y820000D01*
X170000Y870000D01*
D28*
X540000Y510000D02*
X460000Y430000D01*
X540000Y510000D02*
X540000Y640000D01*
D29*
X540000Y640000D03*
D30*
X460000Y430000D03*
D27*
X412000Y409000D03*
D28*
X460000Y430000D01*
X412000Y409900D02*
X412000Y409000D01*
X391000Y409000D01*
X390000Y410000D01*
X391000Y409000D02*
X371600Y428400D01*
X371600Y482600D01*
D23*
X430000Y710000D03*
D25*
X262500Y732500D02*
X197500Y732500D01*
X377035Y709035D02*
X378000Y710000D01*
X377035Y709035D02*
X353000Y733071D01*
X353000Y775000D01*
X338000Y790000D01*
X320000Y790000D01*
X378000Y710000D02*
X430000Y710000D01*
X320000Y790000D02*
X262500Y732500D01*
D28*
X99542Y752122D02*
X82000Y734580D01*
X82000Y585694D01*
X82532Y585162D01*
X82532Y564839D01*
X82000Y564307D01*
X82000Y497000D01*
X109000Y470000D01*
X127900Y470000D01*
D24*
X132900Y465000D02*
X132900Y444708D01*
X132900Y465000D02*
X127900Y470000D01*
X156319Y421289D02*
X180100Y421289D01*
X156319Y421289D02*
X132900Y444708D01*
M02*
