G04 EAGLE Gerber X2 export*
%TF.Part,Single*%
%TF.FileFunction,Copper,L1,Top,Mixed*%
%TF.FilePolarity,Positive*%
%TF.GenerationSoftware,Autodesk,EAGLE,9.1.2*%
%TF.CreationDate,2018-08-31T13:28:58Z*%
G75*
%MOMM*%
%FSLAX34Y34*%
%LPD*%
%AMOC8*
5,1,8,0,0,1.08239X$1,22.5*%
G01*
%ADD10C,2.550000*%
%ADD11P,1.429621X8X112.500000*%
%ADD12C,1.320800*%
%ADD13C,1.651000*%
%ADD14P,1.429621X8X292.500000*%
%ADD15C,1.524000*%
%ADD16C,1.320800*%
%ADD17P,1.429621X8X22.500000*%
%ADD18P,2.336880X8X292.500000*%
%ADD19R,1.200000X1.200000*%
%ADD20C,1.778000*%
%ADD21C,1.508000*%
%ADD22C,1.650000*%
%ADD23R,1.650000X1.650000*%
%ADD24P,1.429621X8X213.800000*%
%ADD25C,0.600000*%
%ADD26C,1.206400*%
%ADD27C,0.756400*%
%ADD28C,2.500000*%
%ADD29R,1.500000X1.500000*%
%ADD30C,2.500000*%
%ADD31R,1.206400X1.206400*%

G36*
X647984Y341526D02*
X647984Y341526D01*
X647993Y341525D01*
X648081Y341546D01*
X648171Y341564D01*
X648178Y341569D01*
X648186Y341571D01*
X648259Y341625D01*
X648335Y341677D01*
X648339Y341684D01*
X648346Y341689D01*
X648393Y341767D01*
X648442Y341844D01*
X648443Y341853D01*
X648448Y341860D01*
X648475Y342024D01*
X648475Y997976D01*
X648474Y997984D01*
X648475Y997993D01*
X648454Y998081D01*
X648436Y998171D01*
X648431Y998178D01*
X648429Y998186D01*
X648375Y998259D01*
X648323Y998335D01*
X648316Y998339D01*
X648311Y998346D01*
X648233Y998393D01*
X648156Y998442D01*
X648147Y998443D01*
X648140Y998448D01*
X647976Y998475D01*
X2024Y998475D01*
X2016Y998474D01*
X2007Y998475D01*
X1919Y998454D01*
X1829Y998436D01*
X1822Y998431D01*
X1814Y998429D01*
X1741Y998375D01*
X1665Y998323D01*
X1661Y998316D01*
X1654Y998311D01*
X1607Y998233D01*
X1558Y998156D01*
X1557Y998147D01*
X1552Y998140D01*
X1525Y997976D01*
X1525Y385324D01*
X1529Y385302D01*
X1527Y385281D01*
X1549Y385206D01*
X1564Y385129D01*
X1577Y385111D01*
X1583Y385090D01*
X1633Y385030D01*
X1677Y384965D01*
X1695Y384953D01*
X1709Y384936D01*
X1779Y384900D01*
X1844Y384858D01*
X1866Y384854D01*
X1886Y384844D01*
X1963Y384838D01*
X2041Y384825D01*
X2062Y384830D01*
X2084Y384828D01*
X2158Y384853D01*
X2234Y384871D01*
X2252Y384884D01*
X2272Y384891D01*
X2331Y384942D01*
X2394Y384989D01*
X2405Y385008D01*
X2422Y385022D01*
X2480Y385134D01*
X2496Y385160D01*
X2496Y385165D01*
X2499Y385170D01*
X2964Y386600D01*
X3690Y388025D01*
X4630Y389319D01*
X5761Y390450D01*
X7055Y391390D01*
X8480Y392116D01*
X10001Y392611D01*
X11580Y392861D01*
X19001Y392861D01*
X19001Y383200D01*
X19002Y383192D01*
X19001Y383184D01*
X19022Y383095D01*
X19040Y383005D01*
X19045Y382998D01*
X19047Y382990D01*
X19101Y382917D01*
X19153Y382841D01*
X19160Y382837D01*
X19165Y382830D01*
X19243Y382784D01*
X19320Y382734D01*
X19329Y382733D01*
X19336Y382729D01*
X19500Y382701D01*
X20001Y382701D01*
X20001Y382699D01*
X19500Y382699D01*
X19492Y382697D01*
X19483Y382699D01*
X19395Y382678D01*
X19305Y382660D01*
X19298Y382655D01*
X19290Y382653D01*
X19217Y382599D01*
X19141Y382547D01*
X19137Y382540D01*
X19130Y382535D01*
X19083Y382457D01*
X19034Y382379D01*
X19033Y382371D01*
X19028Y382364D01*
X19001Y382200D01*
X19001Y372539D01*
X11580Y372539D01*
X10001Y372789D01*
X8480Y373284D01*
X7055Y374010D01*
X5761Y374950D01*
X4630Y376081D01*
X3690Y377375D01*
X2964Y378800D01*
X2499Y380230D01*
X2488Y380249D01*
X2484Y380271D01*
X2439Y380335D01*
X2401Y380404D01*
X2384Y380417D01*
X2371Y380435D01*
X2305Y380477D01*
X2243Y380525D01*
X2222Y380530D01*
X2204Y380542D01*
X2127Y380555D01*
X2051Y380575D01*
X2029Y380571D01*
X2007Y380575D01*
X1931Y380557D01*
X1854Y380546D01*
X1835Y380534D01*
X1814Y380529D01*
X1751Y380483D01*
X1684Y380442D01*
X1672Y380424D01*
X1654Y380411D01*
X1614Y380344D01*
X1568Y380280D01*
X1564Y380259D01*
X1552Y380240D01*
X1531Y380116D01*
X1525Y380086D01*
X1526Y380081D01*
X1525Y380076D01*
X1525Y366913D01*
X1526Y366909D01*
X1525Y366904D01*
X1545Y366811D01*
X1564Y366718D01*
X1567Y366714D01*
X1568Y366710D01*
X1623Y366632D01*
X1677Y366554D01*
X1680Y366552D01*
X1683Y366548D01*
X1764Y366498D01*
X1844Y366447D01*
X1849Y366446D01*
X1852Y366444D01*
X1946Y366430D01*
X2041Y366414D01*
X2045Y366415D01*
X2049Y366414D01*
X2141Y366438D01*
X2234Y366460D01*
X2237Y366462D01*
X2241Y366463D01*
X2377Y366560D01*
X4664Y368847D01*
X9671Y370921D01*
X30329Y370921D01*
X35336Y368847D01*
X39167Y365016D01*
X41241Y360009D01*
X41241Y354591D01*
X39167Y349584D01*
X35336Y345753D01*
X30329Y343679D01*
X9671Y343679D01*
X4664Y345753D01*
X2377Y348040D01*
X2373Y348043D01*
X2371Y348046D01*
X2291Y348097D01*
X2211Y348150D01*
X2207Y348151D01*
X2204Y348153D01*
X2110Y348169D01*
X2016Y348187D01*
X2012Y348186D01*
X2007Y348186D01*
X1916Y348164D01*
X1822Y348144D01*
X1818Y348141D01*
X1814Y348140D01*
X1738Y348084D01*
X1659Y348029D01*
X1657Y348025D01*
X1654Y348022D01*
X1605Y347941D01*
X1555Y347859D01*
X1555Y347855D01*
X1552Y347851D01*
X1525Y347687D01*
X1525Y342024D01*
X1526Y342016D01*
X1525Y342007D01*
X1546Y341919D01*
X1564Y341829D01*
X1569Y341822D01*
X1571Y341814D01*
X1625Y341741D01*
X1677Y341665D01*
X1684Y341661D01*
X1689Y341654D01*
X1767Y341607D01*
X1844Y341558D01*
X1853Y341557D01*
X1860Y341552D01*
X2024Y341525D01*
X647976Y341525D01*
X647984Y341526D01*
G37*
%LPC*%
G36*
X229161Y357975D02*
X229161Y357975D01*
X227975Y359161D01*
X227975Y419330D01*
X227975Y419332D01*
X227975Y419334D01*
X227955Y419428D01*
X227936Y419525D01*
X227934Y419527D01*
X227934Y419529D01*
X227879Y419608D01*
X227823Y419689D01*
X227821Y419690D01*
X227820Y419692D01*
X227738Y419743D01*
X227656Y419796D01*
X227653Y419796D01*
X227652Y419797D01*
X227555Y419813D01*
X227459Y419829D01*
X227457Y419829D01*
X227455Y419829D01*
X227361Y419806D01*
X227266Y419783D01*
X227264Y419782D01*
X227262Y419781D01*
X227184Y419722D01*
X227106Y419665D01*
X227105Y419663D01*
X227103Y419662D01*
X227015Y419521D01*
X226973Y419420D01*
X221768Y414216D01*
X218849Y413006D01*
X218844Y413003D01*
X218838Y413001D01*
X218762Y412947D01*
X218684Y412895D01*
X218681Y412890D01*
X218676Y412886D01*
X218627Y412807D01*
X218576Y412728D01*
X218575Y412722D01*
X218571Y412717D01*
X218557Y412625D01*
X218541Y412533D01*
X218542Y412526D01*
X218541Y412520D01*
X218564Y412430D01*
X218585Y412339D01*
X218589Y412334D01*
X218591Y412328D01*
X218687Y412192D01*
X219346Y411533D01*
X220345Y410159D01*
X221116Y408644D01*
X221641Y407028D01*
X221895Y405424D01*
X211618Y405496D01*
X211610Y405494D01*
X211602Y405496D01*
X211513Y405475D01*
X211423Y405458D01*
X211416Y405453D01*
X211408Y405451D01*
X211334Y405397D01*
X211259Y405346D01*
X211254Y405339D01*
X211247Y405334D01*
X211200Y405256D01*
X211150Y405180D01*
X211149Y405171D01*
X211145Y405164D01*
X211116Y405000D01*
X211112Y404499D01*
X211110Y404499D01*
X211114Y405000D01*
X211112Y405008D01*
X211114Y405017D01*
X211093Y405106D01*
X211076Y405195D01*
X211071Y405202D01*
X211069Y405211D01*
X211015Y405285D01*
X210964Y405360D01*
X210957Y405365D01*
X210952Y405371D01*
X210874Y405419D01*
X210798Y405468D01*
X210789Y405470D01*
X210782Y405474D01*
X210618Y405503D01*
X200351Y405575D01*
X200581Y407028D01*
X201106Y408644D01*
X201878Y410158D01*
X202203Y410606D01*
X202230Y410665D01*
X202265Y410720D01*
X202271Y410755D01*
X202286Y410787D01*
X202288Y410852D01*
X202298Y410916D01*
X202290Y410951D01*
X202291Y410986D01*
X202267Y411047D01*
X202252Y411110D01*
X202231Y411138D01*
X202219Y411171D01*
X202173Y411218D01*
X202134Y411270D01*
X202104Y411288D01*
X202079Y411313D01*
X202019Y411338D01*
X201963Y411371D01*
X201924Y411378D01*
X201896Y411390D01*
X201857Y411389D01*
X201799Y411399D01*
X166420Y411399D01*
X159620Y414216D01*
X149590Y424246D01*
X144316Y429520D01*
X141499Y436320D01*
X141499Y474180D01*
X142161Y475778D01*
X142164Y475793D01*
X142172Y475805D01*
X142199Y475969D01*
X142199Y488880D01*
X145016Y495680D01*
X150220Y500884D01*
X157020Y503701D01*
X164380Y503701D01*
X171180Y500884D01*
X176384Y495680D01*
X179201Y488880D01*
X179201Y467520D01*
X178539Y465922D01*
X178536Y465907D01*
X178528Y465895D01*
X178501Y465731D01*
X178501Y448900D01*
X178502Y448891D01*
X178501Y448883D01*
X178522Y448795D01*
X178540Y448705D01*
X178545Y448698D01*
X178547Y448690D01*
X178601Y448616D01*
X178653Y448541D01*
X178660Y448536D01*
X178665Y448530D01*
X178743Y448483D01*
X178820Y448434D01*
X178829Y448432D01*
X178836Y448428D01*
X179000Y448400D01*
X192289Y448400D01*
X192297Y448402D01*
X192305Y448401D01*
X192394Y448422D01*
X192484Y448440D01*
X192491Y448445D01*
X192499Y448447D01*
X192572Y448501D01*
X192647Y448553D01*
X192652Y448560D01*
X192659Y448565D01*
X192705Y448643D01*
X192755Y448720D01*
X192756Y448728D01*
X192760Y448736D01*
X192788Y448900D01*
X192788Y490841D01*
X192785Y490854D01*
X192787Y490866D01*
X192766Y490950D01*
X192748Y491036D01*
X192741Y491047D01*
X192738Y491059D01*
X192642Y491194D01*
X144246Y539590D01*
X64316Y619520D01*
X64201Y619797D01*
X64200Y619799D01*
X64200Y619801D01*
X64145Y619881D01*
X64090Y619962D01*
X64088Y619963D01*
X64087Y619965D01*
X64006Y620016D01*
X63923Y620070D01*
X63921Y620071D01*
X63920Y620072D01*
X63825Y620088D01*
X63728Y620105D01*
X63726Y620104D01*
X63723Y620105D01*
X63630Y620082D01*
X63534Y620061D01*
X63532Y620059D01*
X63530Y620059D01*
X63453Y620002D01*
X63373Y619944D01*
X63372Y619942D01*
X63370Y619941D01*
X63321Y619858D01*
X63270Y619774D01*
X63270Y619772D01*
X63268Y619770D01*
X63241Y619606D01*
X63241Y619591D01*
X61167Y614584D01*
X57336Y610753D01*
X52329Y608679D01*
X31671Y608679D01*
X26664Y610753D01*
X24853Y612564D01*
X24849Y612567D01*
X24847Y612570D01*
X24767Y612621D01*
X24687Y612674D01*
X24683Y612675D01*
X24680Y612677D01*
X24586Y612693D01*
X24492Y612711D01*
X24488Y612710D01*
X24483Y612710D01*
X24392Y612688D01*
X24298Y612668D01*
X24294Y612665D01*
X24290Y612664D01*
X24214Y612608D01*
X24135Y612553D01*
X24133Y612549D01*
X24130Y612546D01*
X24081Y612465D01*
X24031Y612383D01*
X24031Y612379D01*
X24028Y612375D01*
X24001Y612211D01*
X24001Y600989D01*
X24005Y600966D01*
X24003Y600942D01*
X24023Y600877D01*
X24029Y600830D01*
X24035Y600819D01*
X24040Y600794D01*
X24054Y600774D01*
X24061Y600752D01*
X24108Y600694D01*
X24130Y600658D01*
X24137Y600653D01*
X24153Y600630D01*
X24173Y600617D01*
X24188Y600599D01*
X24256Y600564D01*
X24261Y600561D01*
X24289Y600540D01*
X24297Y600538D01*
X24320Y600523D01*
X24344Y600519D01*
X24365Y600508D01*
X24441Y600503D01*
X24449Y600501D01*
X24482Y600493D01*
X24490Y600494D01*
X24517Y600490D01*
X24539Y600495D01*
X24563Y600494D01*
X24636Y600518D01*
X24639Y600519D01*
X24679Y600525D01*
X24686Y600530D01*
X24710Y600536D01*
X24729Y600550D01*
X24751Y600557D01*
X24806Y600606D01*
X24847Y600632D01*
X24854Y600642D01*
X24870Y600654D01*
X24882Y600674D01*
X24900Y600690D01*
X24922Y600734D01*
X24946Y600765D01*
X25690Y602225D01*
X26630Y603519D01*
X27761Y604650D01*
X29055Y605590D01*
X30480Y606316D01*
X32001Y606811D01*
X33580Y607061D01*
X41001Y607061D01*
X41001Y597400D01*
X41002Y597392D01*
X41001Y597384D01*
X41022Y597295D01*
X41040Y597205D01*
X41045Y597198D01*
X41047Y597190D01*
X41101Y597117D01*
X41153Y597041D01*
X41160Y597037D01*
X41165Y597030D01*
X41243Y596984D01*
X41320Y596934D01*
X41329Y596933D01*
X41336Y596929D01*
X41500Y596901D01*
X42001Y596901D01*
X42001Y596899D01*
X41500Y596899D01*
X41492Y596897D01*
X41483Y596899D01*
X41395Y596878D01*
X41305Y596860D01*
X41298Y596855D01*
X41290Y596853D01*
X41217Y596799D01*
X41141Y596747D01*
X41137Y596740D01*
X41130Y596735D01*
X41083Y596657D01*
X41034Y596579D01*
X41033Y596571D01*
X41028Y596564D01*
X41001Y596400D01*
X41001Y586739D01*
X33580Y586739D01*
X32001Y586989D01*
X30480Y587484D01*
X29055Y588210D01*
X27761Y589150D01*
X26630Y590281D01*
X25690Y591575D01*
X24946Y593035D01*
X24912Y593078D01*
X24879Y593136D01*
X24861Y593151D01*
X24847Y593170D01*
X24829Y593182D01*
X24822Y593190D01*
X24780Y593213D01*
X24722Y593258D01*
X24699Y593264D01*
X24680Y593277D01*
X24655Y593281D01*
X24647Y593285D01*
X24608Y593289D01*
X24604Y593290D01*
X24530Y593310D01*
X24507Y593306D01*
X24483Y593310D01*
X24457Y593304D01*
X24450Y593305D01*
X24417Y593294D01*
X24409Y593293D01*
X24333Y593282D01*
X24313Y593270D01*
X24290Y593264D01*
X24267Y593247D01*
X24260Y593245D01*
X24232Y593221D01*
X24229Y593219D01*
X24163Y593179D01*
X24149Y593160D01*
X24130Y593146D01*
X24116Y593123D01*
X24108Y593116D01*
X24089Y593078D01*
X24046Y593019D01*
X24041Y592996D01*
X24028Y592975D01*
X24024Y592948D01*
X24019Y592939D01*
X24017Y592909D01*
X24009Y592859D01*
X24001Y592825D01*
X24002Y592818D01*
X24001Y592811D01*
X24001Y573880D01*
X24003Y573870D01*
X24001Y573860D01*
X24022Y573773D01*
X24040Y573686D01*
X24046Y573677D01*
X24049Y573667D01*
X24102Y573595D01*
X24153Y573522D01*
X24162Y573516D01*
X24168Y573508D01*
X24309Y573419D01*
X24431Y573369D01*
X26119Y571681D01*
X27033Y569475D01*
X27033Y555024D01*
X26119Y552818D01*
X24431Y551130D01*
X22226Y550217D01*
X7774Y550217D01*
X5569Y551130D01*
X3881Y552818D01*
X2967Y555024D01*
X2967Y569475D01*
X3881Y571681D01*
X5569Y573369D01*
X5691Y573419D01*
X5700Y573425D01*
X5710Y573428D01*
X5782Y573480D01*
X5856Y573530D01*
X5862Y573539D01*
X5870Y573545D01*
X5915Y573622D01*
X5964Y573697D01*
X5966Y573707D01*
X5972Y573716D01*
X5999Y573880D01*
X5999Y761286D01*
X7370Y764595D01*
X9972Y767197D01*
X36418Y793643D01*
X36420Y793647D01*
X36424Y793649D01*
X36475Y793729D01*
X36528Y793809D01*
X36529Y793813D01*
X36531Y793816D01*
X36547Y793910D01*
X36564Y794004D01*
X36563Y794008D01*
X36564Y794013D01*
X36542Y794104D01*
X36521Y794198D01*
X36519Y794202D01*
X36518Y794206D01*
X36462Y794282D01*
X36406Y794361D01*
X36403Y794363D01*
X36400Y794366D01*
X36318Y794415D01*
X36237Y794465D01*
X36233Y794465D01*
X36229Y794468D01*
X36065Y794495D01*
X25479Y794495D01*
X18095Y801879D01*
X18095Y812321D01*
X25479Y819705D01*
X35921Y819705D01*
X43305Y812321D01*
X43305Y801735D01*
X43306Y801731D01*
X43305Y801727D01*
X43325Y801633D01*
X43344Y801540D01*
X43347Y801537D01*
X43348Y801533D01*
X43403Y801455D01*
X43457Y801376D01*
X43460Y801374D01*
X43463Y801370D01*
X43544Y801321D01*
X43624Y801269D01*
X43629Y801268D01*
X43632Y801266D01*
X43726Y801252D01*
X43821Y801236D01*
X43825Y801237D01*
X43829Y801236D01*
X43921Y801260D01*
X44014Y801282D01*
X44017Y801285D01*
X44021Y801286D01*
X44157Y801382D01*
X52222Y809447D01*
X52226Y809454D01*
X52233Y809458D01*
X52281Y809536D01*
X52331Y809612D01*
X52333Y809621D01*
X52337Y809628D01*
X52351Y809718D01*
X52368Y809808D01*
X52366Y809816D01*
X52367Y809824D01*
X52345Y809912D01*
X52325Y810002D01*
X52320Y810009D01*
X52318Y810017D01*
X52222Y810153D01*
X47295Y815079D01*
X47295Y825521D01*
X54679Y832905D01*
X65121Y832905D01*
X67295Y830730D01*
X67302Y830726D01*
X67307Y830719D01*
X67385Y830671D01*
X67461Y830621D01*
X67469Y830619D01*
X67477Y830615D01*
X67566Y830601D01*
X67657Y830584D01*
X67665Y830586D01*
X67673Y830585D01*
X67761Y830607D01*
X67851Y830627D01*
X67858Y830632D01*
X67866Y830634D01*
X68001Y830730D01*
X70476Y833205D01*
X80853Y843582D01*
X80860Y843593D01*
X80870Y843600D01*
X80915Y843675D01*
X80963Y843748D01*
X80965Y843760D01*
X80972Y843771D01*
X80999Y843935D01*
X80999Y853290D01*
X82370Y856599D01*
X84972Y859201D01*
X90901Y865130D01*
X94210Y866501D01*
X153565Y866501D01*
X153577Y866503D01*
X153590Y866501D01*
X153674Y866523D01*
X153760Y866540D01*
X153770Y866547D01*
X153782Y866551D01*
X153918Y866647D01*
X157821Y870550D01*
X157828Y870561D01*
X157838Y870568D01*
X157883Y870643D01*
X157931Y870716D01*
X157933Y870728D01*
X157940Y870739D01*
X157967Y870903D01*
X157967Y877226D01*
X158881Y879431D01*
X160569Y881119D01*
X162774Y882033D01*
X177226Y882033D01*
X179431Y881119D01*
X181119Y879431D01*
X182033Y877226D01*
X182033Y869402D01*
X182034Y869398D01*
X182033Y869394D01*
X182053Y869300D01*
X182072Y869207D01*
X182075Y869204D01*
X182076Y869200D01*
X182131Y869122D01*
X182185Y869043D01*
X182188Y869041D01*
X182191Y869038D01*
X182272Y868988D01*
X182352Y868936D01*
X182357Y868935D01*
X182360Y868933D01*
X182454Y868919D01*
X182549Y868903D01*
X182553Y868904D01*
X182557Y868903D01*
X182649Y868927D01*
X182742Y868949D01*
X182745Y868952D01*
X182749Y868953D01*
X182885Y869049D01*
X189520Y875684D01*
X196320Y878501D01*
X253680Y878501D01*
X260480Y875684D01*
X265684Y870480D01*
X268501Y863680D01*
X268501Y858567D01*
X268502Y858563D01*
X268501Y858558D01*
X268521Y858466D01*
X268540Y858372D01*
X268543Y858368D01*
X268544Y858364D01*
X268599Y858287D01*
X268653Y858208D01*
X268656Y858206D01*
X268659Y858202D01*
X268740Y858152D01*
X268820Y858101D01*
X268825Y858100D01*
X268828Y858098D01*
X268922Y858084D01*
X269017Y858068D01*
X269021Y858069D01*
X269025Y858068D01*
X269117Y858092D01*
X269210Y858114D01*
X269213Y858116D01*
X269217Y858117D01*
X269353Y858214D01*
X269725Y858585D01*
X274964Y860756D01*
X280636Y860756D01*
X285875Y858585D01*
X288814Y855646D01*
X288821Y855642D01*
X288826Y855635D01*
X288904Y855587D01*
X288980Y855536D01*
X288989Y855535D01*
X288996Y855530D01*
X289086Y855517D01*
X289176Y855500D01*
X289184Y855502D01*
X289192Y855501D01*
X289280Y855523D01*
X289370Y855543D01*
X289377Y855548D01*
X289385Y855550D01*
X289520Y855646D01*
X291979Y858105D01*
X302421Y858105D01*
X309447Y851079D01*
X309454Y851074D01*
X309459Y851067D01*
X309536Y851020D01*
X309613Y850969D01*
X309621Y850967D01*
X309628Y850963D01*
X309718Y850949D01*
X309808Y850933D01*
X309816Y850934D01*
X309825Y850933D01*
X309913Y850956D01*
X310002Y850975D01*
X310009Y850980D01*
X310017Y850982D01*
X310153Y851079D01*
X314102Y855028D01*
X314106Y855033D01*
X314111Y855037D01*
X314161Y855116D01*
X314212Y855194D01*
X314213Y855200D01*
X314217Y855206D01*
X314231Y855297D01*
X314249Y855389D01*
X314247Y855396D01*
X314248Y855402D01*
X314226Y855492D01*
X314206Y855584D01*
X314202Y855589D01*
X314201Y855595D01*
X314145Y855670D01*
X314091Y855746D01*
X314085Y855749D01*
X314081Y855754D01*
X313940Y855842D01*
X308928Y857919D01*
X304919Y861928D01*
X302749Y867165D01*
X302749Y872835D01*
X304919Y878072D01*
X308928Y882081D01*
X314165Y884251D01*
X319835Y884251D01*
X325072Y882081D01*
X329081Y878072D01*
X331251Y872835D01*
X331251Y867165D01*
X329081Y861928D01*
X326511Y859357D01*
X326508Y859353D01*
X326505Y859351D01*
X326454Y859271D01*
X326401Y859191D01*
X326400Y859187D01*
X326398Y859184D01*
X326382Y859090D01*
X326364Y858996D01*
X326365Y858992D01*
X326365Y858987D01*
X326386Y858896D01*
X326407Y858802D01*
X326410Y858798D01*
X326411Y858794D01*
X326467Y858718D01*
X326522Y858639D01*
X326526Y858637D01*
X326529Y858634D01*
X326610Y858585D01*
X326692Y858535D01*
X326696Y858535D01*
X326700Y858532D01*
X326864Y858505D01*
X328021Y858505D01*
X335405Y851121D01*
X335405Y840679D01*
X328021Y833295D01*
X317579Y833295D01*
X310553Y840321D01*
X310546Y840326D01*
X310541Y840333D01*
X310464Y840380D01*
X310387Y840431D01*
X310379Y840433D01*
X310372Y840437D01*
X310282Y840451D01*
X310192Y840467D01*
X310183Y840466D01*
X310175Y840467D01*
X310087Y840444D01*
X309998Y840425D01*
X309991Y840420D01*
X309983Y840418D01*
X309847Y840321D01*
X302421Y832895D01*
X291979Y832895D01*
X288520Y836354D01*
X288513Y836358D01*
X288509Y836365D01*
X288431Y836413D01*
X288355Y836464D01*
X288346Y836465D01*
X288339Y836470D01*
X288249Y836483D01*
X288159Y836500D01*
X288151Y836498D01*
X288143Y836499D01*
X288055Y836477D01*
X287965Y836457D01*
X287958Y836452D01*
X287950Y836450D01*
X287814Y836354D01*
X285875Y834415D01*
X280919Y832362D01*
X280900Y832348D01*
X280877Y832342D01*
X280818Y832293D01*
X280755Y832251D01*
X280741Y832231D01*
X280723Y832215D01*
X280688Y832148D01*
X280646Y832084D01*
X280642Y832060D01*
X280631Y832039D01*
X280625Y831963D01*
X280611Y831888D01*
X280617Y831865D01*
X280615Y831841D01*
X280639Y831769D01*
X280656Y831694D01*
X280670Y831675D01*
X280677Y831652D01*
X280728Y831595D01*
X280772Y831533D01*
X280793Y831521D01*
X280809Y831503D01*
X280912Y831449D01*
X280943Y831430D01*
X280949Y831429D01*
X280956Y831426D01*
X281944Y831105D01*
X283458Y830333D01*
X284833Y829335D01*
X286035Y828133D01*
X287033Y826758D01*
X287805Y825244D01*
X288330Y823628D01*
X288572Y822099D01*
X278300Y822099D01*
X278292Y822098D01*
X278284Y822099D01*
X278195Y822078D01*
X278105Y822060D01*
X278098Y822055D01*
X278090Y822053D01*
X278017Y821999D01*
X277941Y821947D01*
X277937Y821940D01*
X277930Y821935D01*
X277884Y821857D01*
X277834Y821780D01*
X277833Y821771D01*
X277829Y821764D01*
X277801Y821600D01*
X277801Y821099D01*
X277799Y821099D01*
X277799Y821600D01*
X277797Y821608D01*
X277799Y821616D01*
X277778Y821705D01*
X277760Y821795D01*
X277755Y821802D01*
X277753Y821810D01*
X277699Y821883D01*
X277647Y821959D01*
X277640Y821963D01*
X277635Y821970D01*
X277557Y822016D01*
X277479Y822066D01*
X277471Y822067D01*
X277464Y822071D01*
X277300Y822099D01*
X267028Y822099D01*
X267270Y823628D01*
X267795Y825244D01*
X268567Y826758D01*
X269565Y828133D01*
X270767Y829335D01*
X272142Y830333D01*
X273656Y831105D01*
X274644Y831426D01*
X274665Y831438D01*
X274688Y831443D01*
X274751Y831486D01*
X274817Y831524D01*
X274831Y831543D01*
X274851Y831556D01*
X274892Y831621D01*
X274938Y831681D01*
X274944Y831705D01*
X274957Y831725D01*
X274969Y831800D01*
X274988Y831874D01*
X274984Y831898D01*
X274988Y831921D01*
X274970Y831995D01*
X274959Y832070D01*
X274946Y832091D01*
X274941Y832114D01*
X274895Y832175D01*
X274855Y832240D01*
X274836Y832254D01*
X274821Y832273D01*
X274723Y832335D01*
X274694Y832356D01*
X274687Y832358D01*
X274681Y832362D01*
X269725Y834415D01*
X265715Y838425D01*
X263544Y843664D01*
X263544Y846175D01*
X263543Y846179D01*
X263544Y846183D01*
X263524Y846277D01*
X263505Y846370D01*
X263502Y846373D01*
X263501Y846377D01*
X263446Y846455D01*
X263392Y846534D01*
X263389Y846536D01*
X263386Y846539D01*
X263305Y846589D01*
X263225Y846641D01*
X263220Y846642D01*
X263217Y846644D01*
X263123Y846658D01*
X263028Y846674D01*
X263024Y846673D01*
X263020Y846674D01*
X262928Y846650D01*
X262835Y846628D01*
X262832Y846625D01*
X262828Y846624D01*
X262692Y846528D01*
X260480Y844316D01*
X253680Y841499D01*
X207870Y841499D01*
X207858Y841497D01*
X207845Y841499D01*
X207761Y841477D01*
X207675Y841460D01*
X207665Y841453D01*
X207653Y841449D01*
X207517Y841353D01*
X187915Y821751D01*
X187891Y821715D01*
X187860Y821685D01*
X187837Y821633D01*
X187806Y821586D01*
X187798Y821543D01*
X187780Y821503D01*
X187780Y821446D01*
X187769Y821390D01*
X187779Y821348D01*
X187778Y821304D01*
X187800Y821252D01*
X187812Y821196D01*
X187837Y821160D01*
X187854Y821120D01*
X187894Y821080D01*
X187927Y821034D01*
X187964Y821011D01*
X187995Y820980D01*
X188048Y820959D01*
X188097Y820930D01*
X188140Y820923D01*
X188180Y820907D01*
X188250Y820906D01*
X188293Y820900D01*
X188316Y820906D01*
X188347Y820905D01*
X189501Y821088D01*
X189501Y804499D01*
X180419Y804499D01*
X180419Y805437D01*
X180419Y805439D01*
X180419Y805441D01*
X180399Y805536D01*
X180380Y805632D01*
X180378Y805633D01*
X180378Y805635D01*
X180321Y805717D01*
X180267Y805796D01*
X180265Y805797D01*
X180264Y805798D01*
X180181Y805850D01*
X180100Y805903D01*
X180097Y805903D01*
X180096Y805904D01*
X180000Y805919D01*
X179903Y805936D01*
X179901Y805935D01*
X179899Y805936D01*
X179805Y805912D01*
X179710Y805890D01*
X179708Y805888D01*
X179706Y805888D01*
X179627Y805828D01*
X179550Y805772D01*
X179549Y805770D01*
X179547Y805769D01*
X179459Y805628D01*
X179190Y804979D01*
X179187Y804964D01*
X179180Y804952D01*
X179152Y804788D01*
X179152Y765871D01*
X176335Y759071D01*
X141580Y724316D01*
X138367Y722985D01*
X138366Y722984D01*
X138364Y722984D01*
X138284Y722929D01*
X138203Y722874D01*
X138201Y722872D01*
X138200Y722871D01*
X138148Y722790D01*
X138094Y722707D01*
X138094Y722705D01*
X138093Y722704D01*
X138077Y722608D01*
X138059Y722512D01*
X138060Y722510D01*
X138060Y722507D01*
X138082Y722413D01*
X138104Y722318D01*
X138105Y722316D01*
X138106Y722314D01*
X138162Y722237D01*
X138220Y722157D01*
X138222Y722156D01*
X138223Y722154D01*
X138306Y722105D01*
X138391Y722054D01*
X138393Y722054D01*
X138394Y722052D01*
X138558Y722025D01*
X184111Y722025D01*
X184154Y722033D01*
X184198Y722032D01*
X184251Y722053D01*
X184306Y722064D01*
X184342Y722089D01*
X184383Y722105D01*
X184423Y722145D01*
X184470Y722177D01*
X184494Y722214D01*
X184525Y722244D01*
X184547Y722297D01*
X184577Y722344D01*
X184585Y722387D01*
X184601Y722428D01*
X184601Y722485D01*
X184610Y722541D01*
X184600Y722583D01*
X184600Y722626D01*
X184578Y722679D01*
X184564Y722734D01*
X184539Y722769D01*
X184521Y722809D01*
X184472Y722859D01*
X184447Y722894D01*
X184426Y722906D01*
X184405Y722928D01*
X183933Y723271D01*
X182811Y724393D01*
X181878Y725677D01*
X181158Y727090D01*
X180667Y728599D01*
X180419Y730166D01*
X180419Y737501D01*
X190000Y737501D01*
X190008Y737502D01*
X190016Y737501D01*
X190105Y737522D01*
X190195Y737540D01*
X190202Y737545D01*
X190210Y737547D01*
X190283Y737601D01*
X190359Y737653D01*
X190363Y737660D01*
X190370Y737665D01*
X190416Y737743D01*
X190466Y737820D01*
X190467Y737829D01*
X190471Y737836D01*
X190499Y738000D01*
X190499Y738501D01*
X190501Y738501D01*
X190501Y738000D01*
X190503Y737992D01*
X190501Y737983D01*
X190522Y737895D01*
X190540Y737805D01*
X190545Y737798D01*
X190547Y737790D01*
X190601Y737717D01*
X190653Y737641D01*
X190660Y737637D01*
X190665Y737630D01*
X190743Y737583D01*
X190821Y737534D01*
X190829Y737533D01*
X190836Y737528D01*
X191000Y737501D01*
X200581Y737501D01*
X200581Y730166D01*
X200333Y728599D01*
X199842Y727090D01*
X199122Y725677D01*
X198189Y724393D01*
X197067Y723271D01*
X196595Y722928D01*
X196566Y722896D01*
X196530Y722871D01*
X196499Y722823D01*
X196461Y722781D01*
X196446Y722740D01*
X196423Y722704D01*
X196413Y722647D01*
X196394Y722594D01*
X196397Y722550D01*
X196390Y722507D01*
X196403Y722452D01*
X196406Y722395D01*
X196425Y722356D01*
X196436Y722314D01*
X196469Y722268D01*
X196495Y722217D01*
X196528Y722189D01*
X196553Y722154D01*
X196602Y722125D01*
X196645Y722088D01*
X196687Y722075D01*
X196724Y722052D01*
X196794Y722041D01*
X196835Y722028D01*
X196859Y722030D01*
X196889Y722025D01*
X224081Y722025D01*
X224085Y722026D01*
X224089Y722025D01*
X224182Y722045D01*
X224275Y722064D01*
X224279Y722067D01*
X224283Y722068D01*
X224360Y722123D01*
X224439Y722177D01*
X224442Y722180D01*
X224445Y722183D01*
X224495Y722264D01*
X224546Y722344D01*
X224547Y722349D01*
X224549Y722352D01*
X224564Y722446D01*
X224579Y722541D01*
X224579Y722545D01*
X224579Y722549D01*
X224556Y722641D01*
X224533Y722734D01*
X224531Y722737D01*
X224530Y722741D01*
X224434Y722877D01*
X224021Y723290D01*
X221959Y728267D01*
X221959Y748733D01*
X224021Y753710D01*
X226353Y756043D01*
X226360Y756053D01*
X226370Y756060D01*
X226415Y756135D01*
X226463Y756208D01*
X226465Y756221D01*
X226472Y756232D01*
X226499Y756396D01*
X226499Y785604D01*
X226497Y785617D01*
X226499Y785629D01*
X226477Y785714D01*
X226460Y785799D01*
X226453Y785810D01*
X226449Y785822D01*
X226353Y785957D01*
X224021Y788290D01*
X221959Y793267D01*
X221959Y813733D01*
X224021Y818710D01*
X227830Y822519D01*
X232807Y824581D01*
X238193Y824581D01*
X243170Y822519D01*
X246979Y818710D01*
X249041Y813733D01*
X249041Y802895D01*
X249043Y802883D01*
X249041Y802870D01*
X249063Y802786D01*
X249080Y802700D01*
X249087Y802690D01*
X249091Y802678D01*
X249187Y802542D01*
X252582Y799147D01*
X252593Y799140D01*
X252600Y799130D01*
X252675Y799085D01*
X252748Y799037D01*
X252760Y799035D01*
X252771Y799028D01*
X252935Y799001D01*
X341790Y799001D01*
X345099Y797630D01*
X347701Y795028D01*
X350743Y791986D01*
X350747Y791984D01*
X350749Y791980D01*
X350752Y791978D01*
X350752Y791977D01*
X350763Y791971D01*
X350829Y791929D01*
X350909Y791876D01*
X350913Y791875D01*
X350916Y791873D01*
X351010Y791857D01*
X351104Y791840D01*
X351108Y791841D01*
X351113Y791840D01*
X351204Y791862D01*
X351298Y791883D01*
X351302Y791885D01*
X351306Y791886D01*
X351382Y791942D01*
X351461Y791998D01*
X351463Y792001D01*
X351466Y792004D01*
X351515Y792086D01*
X351565Y792167D01*
X351565Y792171D01*
X351568Y792175D01*
X351595Y792339D01*
X351595Y793847D01*
X353514Y798480D01*
X357060Y802026D01*
X359086Y802865D01*
X359091Y802869D01*
X359098Y802870D01*
X359174Y802924D01*
X359251Y802976D01*
X359254Y802981D01*
X359260Y802985D01*
X359308Y803064D01*
X359359Y803143D01*
X359361Y803149D01*
X359364Y803154D01*
X359378Y803246D01*
X359394Y803339D01*
X359393Y803345D01*
X359394Y803351D01*
X359371Y803441D01*
X359350Y803532D01*
X359346Y803538D01*
X359344Y803544D01*
X359248Y803679D01*
X355055Y807872D01*
X355055Y810661D01*
X363700Y810661D01*
X363708Y810662D01*
X363716Y810661D01*
X363805Y810682D01*
X363895Y810700D01*
X363902Y810705D01*
X363910Y810707D01*
X363983Y810761D01*
X364059Y810813D01*
X364063Y810820D01*
X364070Y810825D01*
X364116Y810903D01*
X364166Y810980D01*
X364167Y810989D01*
X364171Y810996D01*
X364199Y811160D01*
X364199Y811661D01*
X364201Y811661D01*
X364201Y811160D01*
X364203Y811152D01*
X364201Y811143D01*
X364222Y811055D01*
X364240Y810965D01*
X364245Y810958D01*
X364247Y810950D01*
X364301Y810877D01*
X364353Y810801D01*
X364360Y810797D01*
X364365Y810790D01*
X364443Y810743D01*
X364521Y810694D01*
X364529Y810693D01*
X364536Y810688D01*
X364700Y810661D01*
X373345Y810661D01*
X373345Y807872D01*
X369152Y803679D01*
X369151Y803678D01*
X369148Y803674D01*
X369143Y803670D01*
X369094Y803591D01*
X369042Y803513D01*
X369041Y803507D01*
X369038Y803502D01*
X369023Y803410D01*
X369006Y803318D01*
X369007Y803312D01*
X369006Y803306D01*
X369028Y803216D01*
X369049Y803124D01*
X369052Y803119D01*
X369054Y803113D01*
X369110Y803038D01*
X369164Y802962D01*
X369169Y802958D01*
X369173Y802953D01*
X369314Y802865D01*
X371340Y802026D01*
X374886Y798480D01*
X376805Y793847D01*
X376805Y788833D01*
X374886Y784200D01*
X371340Y780654D01*
X366707Y778735D01*
X361693Y778735D01*
X359691Y779564D01*
X359685Y779566D01*
X359680Y779569D01*
X359587Y779585D01*
X359496Y779602D01*
X359490Y779601D01*
X359483Y779602D01*
X359393Y779581D01*
X359301Y779561D01*
X359296Y779558D01*
X359290Y779556D01*
X359215Y779501D01*
X359138Y779447D01*
X359135Y779442D01*
X359130Y779438D01*
X359083Y779358D01*
X359033Y779279D01*
X359032Y779273D01*
X359028Y779267D01*
X359001Y779103D01*
X359001Y763935D01*
X359003Y763923D01*
X359001Y763910D01*
X359023Y763826D01*
X359040Y763740D01*
X359047Y763730D01*
X359051Y763718D01*
X359147Y763582D01*
X400550Y722179D01*
X400561Y722172D01*
X400568Y722162D01*
X400643Y722117D01*
X400716Y722069D01*
X400728Y722067D01*
X400739Y722060D01*
X400903Y722033D01*
X402393Y722033D01*
X406816Y720201D01*
X410201Y716816D01*
X412033Y712393D01*
X412033Y707607D01*
X410201Y703184D01*
X406816Y699799D01*
X402393Y697967D01*
X397607Y697967D01*
X393184Y699799D01*
X389799Y703184D01*
X387967Y707607D01*
X387967Y709097D01*
X387965Y709109D01*
X387967Y709122D01*
X387945Y709206D01*
X387928Y709292D01*
X387921Y709302D01*
X387917Y709314D01*
X387821Y709450D01*
X342370Y754901D01*
X340999Y758210D01*
X340999Y776065D01*
X340997Y776077D01*
X340999Y776090D01*
X340977Y776174D01*
X340960Y776260D01*
X340953Y776270D01*
X340949Y776282D01*
X340853Y776418D01*
X336418Y780853D01*
X336407Y780860D01*
X336400Y780870D01*
X336325Y780915D01*
X336252Y780963D01*
X336240Y780965D01*
X336229Y780972D01*
X336065Y780999D01*
X330532Y780999D01*
X330528Y780998D01*
X330524Y780999D01*
X330430Y780979D01*
X330337Y780960D01*
X330333Y780957D01*
X330329Y780956D01*
X330251Y780901D01*
X330173Y780847D01*
X330171Y780844D01*
X330167Y780841D01*
X330117Y780760D01*
X330066Y780680D01*
X330065Y780675D01*
X330063Y780672D01*
X330049Y780578D01*
X330033Y780483D01*
X330034Y780479D01*
X330033Y780475D01*
X330057Y780382D01*
X330079Y780290D01*
X330081Y780287D01*
X330082Y780283D01*
X330179Y780147D01*
X335405Y774921D01*
X335405Y764479D01*
X328021Y757095D01*
X317579Y757095D01*
X310553Y764121D01*
X310546Y764126D01*
X310541Y764133D01*
X310464Y764180D01*
X310387Y764231D01*
X310379Y764233D01*
X310372Y764237D01*
X310282Y764251D01*
X310192Y764267D01*
X310183Y764266D01*
X310175Y764267D01*
X310087Y764244D01*
X309998Y764225D01*
X309991Y764220D01*
X309983Y764218D01*
X309847Y764121D01*
X306111Y760385D01*
X306108Y760381D01*
X306105Y760379D01*
X306054Y760299D01*
X306001Y760219D01*
X306000Y760215D01*
X305998Y760212D01*
X305982Y760118D01*
X305965Y760024D01*
X305965Y760020D01*
X305965Y760015D01*
X305987Y759924D01*
X306007Y759830D01*
X306010Y759826D01*
X306011Y759822D01*
X306067Y759746D01*
X306123Y759667D01*
X306126Y759665D01*
X306129Y759662D01*
X306211Y759613D01*
X306292Y759563D01*
X306296Y759563D01*
X306300Y759560D01*
X306464Y759533D01*
X308393Y759533D01*
X312816Y757701D01*
X316201Y754316D01*
X318033Y749893D01*
X318033Y745105D01*
X318019Y745017D01*
X318002Y744929D01*
X318004Y744919D01*
X318003Y744909D01*
X318025Y744822D01*
X318043Y744735D01*
X318049Y744726D01*
X318052Y744716D01*
X318148Y744581D01*
X323582Y739147D01*
X323593Y739140D01*
X323600Y739130D01*
X323675Y739085D01*
X323748Y739037D01*
X323760Y739035D01*
X323771Y739028D01*
X323935Y739001D01*
X340890Y739001D01*
X344199Y737630D01*
X346801Y735028D01*
X402778Y679051D01*
X402789Y679044D01*
X402796Y679034D01*
X402871Y678989D01*
X402944Y678941D01*
X402956Y678939D01*
X402967Y678932D01*
X403131Y678905D01*
X408021Y678905D01*
X415405Y671521D01*
X415405Y662993D01*
X415406Y662989D01*
X415405Y662984D01*
X415425Y662891D01*
X415444Y662798D01*
X415447Y662794D01*
X415448Y662790D01*
X415503Y662712D01*
X415557Y662634D01*
X415560Y662632D01*
X415563Y662628D01*
X415644Y662578D01*
X415724Y662527D01*
X415729Y662526D01*
X415732Y662524D01*
X415826Y662510D01*
X415921Y662494D01*
X415925Y662495D01*
X415929Y662494D01*
X416021Y662518D01*
X416114Y662540D01*
X416117Y662542D01*
X416121Y662543D01*
X416257Y662640D01*
X419864Y666247D01*
X424871Y668321D01*
X445529Y668321D01*
X450536Y666247D01*
X454367Y662416D01*
X456441Y657409D01*
X456441Y651991D01*
X454367Y646984D01*
X450536Y643153D01*
X448866Y642461D01*
X448862Y642459D01*
X448858Y642458D01*
X448780Y642403D01*
X448701Y642350D01*
X448699Y642347D01*
X448695Y642344D01*
X448644Y642263D01*
X448592Y642183D01*
X448592Y642179D01*
X448589Y642176D01*
X448574Y642082D01*
X448558Y641988D01*
X448559Y641983D01*
X448558Y641979D01*
X448581Y641888D01*
X448602Y641794D01*
X448605Y641790D01*
X448606Y641786D01*
X448663Y641710D01*
X448719Y641633D01*
X448722Y641631D01*
X448725Y641627D01*
X448866Y641539D01*
X450535Y640847D01*
X454367Y637016D01*
X456441Y632009D01*
X456441Y626591D01*
X454367Y621584D01*
X450536Y617753D01*
X448866Y617061D01*
X448862Y617059D01*
X448858Y617058D01*
X448780Y617003D01*
X448701Y616950D01*
X448699Y616947D01*
X448695Y616944D01*
X448644Y616863D01*
X448592Y616783D01*
X448592Y616779D01*
X448589Y616776D01*
X448574Y616682D01*
X448558Y616588D01*
X448559Y616583D01*
X448558Y616579D01*
X448581Y616488D01*
X448602Y616394D01*
X448605Y616390D01*
X448606Y616386D01*
X448663Y616310D01*
X448719Y616233D01*
X448722Y616231D01*
X448725Y616227D01*
X448866Y616139D01*
X450535Y615447D01*
X454367Y611616D01*
X456441Y606609D01*
X456441Y601191D01*
X454367Y596184D01*
X450536Y592353D01*
X448866Y591661D01*
X448862Y591659D01*
X448858Y591658D01*
X448780Y591603D01*
X448701Y591550D01*
X448699Y591547D01*
X448695Y591544D01*
X448644Y591463D01*
X448592Y591383D01*
X448592Y591379D01*
X448589Y591376D01*
X448574Y591282D01*
X448558Y591188D01*
X448559Y591183D01*
X448558Y591179D01*
X448581Y591086D01*
X448602Y590994D01*
X448605Y590990D01*
X448606Y590986D01*
X448663Y590910D01*
X448719Y590833D01*
X448722Y590831D01*
X448725Y590827D01*
X448866Y590739D01*
X450535Y590047D01*
X454367Y586216D01*
X456441Y581209D01*
X456441Y575791D01*
X454367Y570784D01*
X450536Y566953D01*
X448866Y566261D01*
X448862Y566259D01*
X448858Y566258D01*
X448780Y566203D01*
X448701Y566150D01*
X448699Y566147D01*
X448695Y566144D01*
X448644Y566063D01*
X448592Y565983D01*
X448592Y565979D01*
X448589Y565976D01*
X448574Y565882D01*
X448558Y565788D01*
X448559Y565783D01*
X448558Y565779D01*
X448581Y565688D01*
X448602Y565594D01*
X448605Y565590D01*
X448606Y565586D01*
X448663Y565510D01*
X448719Y565433D01*
X448722Y565431D01*
X448725Y565427D01*
X448866Y565339D01*
X450535Y564647D01*
X454367Y560816D01*
X456441Y555809D01*
X456441Y550391D01*
X454367Y545384D01*
X450536Y541553D01*
X448866Y540861D01*
X448862Y540859D01*
X448858Y540858D01*
X448780Y540803D01*
X448701Y540750D01*
X448699Y540747D01*
X448695Y540744D01*
X448644Y540663D01*
X448592Y540583D01*
X448592Y540579D01*
X448589Y540576D01*
X448574Y540482D01*
X448558Y540388D01*
X448559Y540383D01*
X448558Y540379D01*
X448581Y540288D01*
X448602Y540194D01*
X448605Y540190D01*
X448606Y540186D01*
X448663Y540110D01*
X448719Y540033D01*
X448722Y540031D01*
X448725Y540027D01*
X448866Y539939D01*
X450535Y539247D01*
X454367Y535416D01*
X456441Y530409D01*
X456441Y524991D01*
X454367Y519984D01*
X450536Y516153D01*
X448866Y515461D01*
X448862Y515459D01*
X448858Y515458D01*
X448780Y515403D01*
X448701Y515350D01*
X448699Y515347D01*
X448695Y515344D01*
X448644Y515263D01*
X448592Y515183D01*
X448592Y515179D01*
X448589Y515176D01*
X448574Y515082D01*
X448558Y514988D01*
X448559Y514983D01*
X448558Y514979D01*
X448581Y514888D01*
X448602Y514794D01*
X448605Y514790D01*
X448606Y514786D01*
X448663Y514710D01*
X448719Y514633D01*
X448722Y514631D01*
X448725Y514627D01*
X448866Y514539D01*
X450535Y513847D01*
X454367Y510016D01*
X456441Y505009D01*
X456441Y499591D01*
X454367Y494584D01*
X450536Y490753D01*
X445529Y488679D01*
X424871Y488679D01*
X419864Y490753D01*
X416033Y494584D01*
X413959Y499591D01*
X413959Y505009D01*
X416033Y510016D01*
X419865Y513847D01*
X421534Y514539D01*
X421538Y514541D01*
X421542Y514542D01*
X421621Y514597D01*
X421699Y514650D01*
X421701Y514653D01*
X421705Y514656D01*
X421756Y514737D01*
X421808Y514817D01*
X421808Y514821D01*
X421811Y514824D01*
X421826Y514918D01*
X421842Y515012D01*
X421841Y515016D01*
X421842Y515021D01*
X421819Y515113D01*
X421798Y515206D01*
X421795Y515210D01*
X421794Y515214D01*
X421737Y515290D01*
X421681Y515367D01*
X421678Y515369D01*
X421675Y515373D01*
X421534Y515461D01*
X419864Y516153D01*
X416033Y519984D01*
X413959Y524991D01*
X413959Y530409D01*
X416033Y535416D01*
X419865Y539247D01*
X421119Y539767D01*
X421534Y539939D01*
X421538Y539941D01*
X421542Y539942D01*
X421621Y539997D01*
X421699Y540050D01*
X421701Y540053D01*
X421705Y540056D01*
X421756Y540137D01*
X421808Y540217D01*
X421808Y540221D01*
X421811Y540224D01*
X421826Y540318D01*
X421842Y540412D01*
X421841Y540416D01*
X421842Y540421D01*
X421819Y540513D01*
X421798Y540606D01*
X421795Y540610D01*
X421794Y540614D01*
X421737Y540690D01*
X421681Y540767D01*
X421678Y540769D01*
X421675Y540773D01*
X421534Y540861D01*
X419864Y541553D01*
X416033Y545384D01*
X413959Y550391D01*
X413959Y555809D01*
X413967Y555829D01*
X413968Y555833D01*
X413970Y555836D01*
X413987Y555930D01*
X414005Y556024D01*
X414004Y556028D01*
X414005Y556032D01*
X413984Y556125D01*
X413964Y556218D01*
X413962Y556222D01*
X413961Y556226D01*
X413905Y556304D01*
X413850Y556381D01*
X413847Y556384D01*
X413844Y556387D01*
X413762Y556437D01*
X413682Y556487D01*
X413678Y556488D01*
X413674Y556490D01*
X413580Y556503D01*
X413485Y556519D01*
X413481Y556518D01*
X413477Y556518D01*
X413315Y556481D01*
X412393Y556099D01*
X407607Y556099D01*
X403184Y557931D01*
X399799Y561316D01*
X397967Y565739D01*
X397967Y567229D01*
X397965Y567241D01*
X397967Y567254D01*
X397945Y567338D01*
X397928Y567424D01*
X397921Y567434D01*
X397917Y567446D01*
X397821Y567582D01*
X384972Y580431D01*
X382370Y583033D01*
X380999Y586342D01*
X380999Y613565D01*
X380997Y613577D01*
X380999Y613590D01*
X380977Y613674D01*
X380960Y613760D01*
X380953Y613770D01*
X380949Y613782D01*
X380853Y613918D01*
X351418Y643353D01*
X351407Y643360D01*
X351400Y643370D01*
X351325Y643415D01*
X351252Y643463D01*
X351240Y643465D01*
X351229Y643472D01*
X351065Y643499D01*
X348933Y643499D01*
X348919Y643496D01*
X348904Y643498D01*
X348742Y643461D01*
X346946Y642717D01*
X343054Y642717D01*
X339459Y644207D01*
X336707Y646959D01*
X335217Y650554D01*
X335217Y654446D01*
X336707Y658041D01*
X339459Y660793D01*
X343054Y662283D01*
X346946Y662283D01*
X348742Y661539D01*
X348757Y661536D01*
X348769Y661528D01*
X348933Y661501D01*
X356790Y661501D01*
X360099Y660130D01*
X362701Y657528D01*
X395028Y625201D01*
X397630Y622599D01*
X399001Y619290D01*
X399001Y592067D01*
X399003Y592055D01*
X399001Y592042D01*
X399023Y591958D01*
X399040Y591872D01*
X399047Y591862D01*
X399051Y591850D01*
X399147Y591714D01*
X410550Y580311D01*
X410560Y580304D01*
X410566Y580295D01*
X410567Y580295D01*
X410568Y580294D01*
X410643Y580249D01*
X410716Y580201D01*
X410728Y580199D01*
X410739Y580192D01*
X410903Y580165D01*
X412393Y580165D01*
X413269Y579802D01*
X413275Y579801D01*
X413280Y579797D01*
X413373Y579782D01*
X413464Y579764D01*
X413470Y579765D01*
X413477Y579764D01*
X413567Y579786D01*
X413659Y579805D01*
X413664Y579809D01*
X413670Y579810D01*
X413745Y579865D01*
X413822Y579919D01*
X413825Y579924D01*
X413830Y579928D01*
X413878Y580008D01*
X413927Y580088D01*
X413928Y580094D01*
X413932Y580099D01*
X413959Y580263D01*
X413959Y581209D01*
X416033Y586216D01*
X419865Y590047D01*
X420211Y590191D01*
X421534Y590739D01*
X421538Y590741D01*
X421542Y590742D01*
X421621Y590797D01*
X421699Y590850D01*
X421701Y590853D01*
X421705Y590856D01*
X421756Y590937D01*
X421808Y591017D01*
X421808Y591021D01*
X421811Y591024D01*
X421826Y591118D01*
X421842Y591212D01*
X421841Y591216D01*
X421842Y591221D01*
X421819Y591313D01*
X421798Y591406D01*
X421795Y591410D01*
X421794Y591414D01*
X421737Y591490D01*
X421681Y591567D01*
X421678Y591569D01*
X421675Y591573D01*
X421534Y591661D01*
X419864Y592353D01*
X416033Y596184D01*
X413959Y601191D01*
X413959Y606609D01*
X416033Y611616D01*
X419865Y615447D01*
X421534Y616139D01*
X421538Y616141D01*
X421542Y616142D01*
X421621Y616197D01*
X421699Y616250D01*
X421701Y616253D01*
X421705Y616256D01*
X421756Y616337D01*
X421808Y616417D01*
X421808Y616421D01*
X421811Y616424D01*
X421826Y616518D01*
X421842Y616612D01*
X421841Y616616D01*
X421842Y616621D01*
X421819Y616713D01*
X421798Y616806D01*
X421795Y616810D01*
X421794Y616814D01*
X421737Y616890D01*
X421681Y616967D01*
X421678Y616969D01*
X421675Y616973D01*
X421534Y617061D01*
X419864Y617753D01*
X416033Y621584D01*
X413959Y626591D01*
X413959Y632009D01*
X416033Y637016D01*
X419865Y640847D01*
X421534Y641539D01*
X421538Y641541D01*
X421542Y641542D01*
X421621Y641597D01*
X421699Y641650D01*
X421701Y641653D01*
X421705Y641656D01*
X421756Y641737D01*
X421808Y641817D01*
X421808Y641821D01*
X421811Y641824D01*
X421826Y641918D01*
X421842Y642012D01*
X421841Y642016D01*
X421842Y642021D01*
X421819Y642113D01*
X421798Y642206D01*
X421795Y642210D01*
X421794Y642214D01*
X421737Y642290D01*
X421681Y642367D01*
X421678Y642369D01*
X421675Y642373D01*
X421534Y642461D01*
X419864Y643153D01*
X416033Y646984D01*
X413959Y651991D01*
X413959Y657409D01*
X414572Y658887D01*
X414572Y658890D01*
X414573Y658891D01*
X414591Y658988D01*
X414609Y659083D01*
X414609Y659085D01*
X414609Y659087D01*
X414588Y659183D01*
X414568Y659277D01*
X414567Y659279D01*
X414567Y659281D01*
X414510Y659360D01*
X414454Y659440D01*
X414453Y659441D01*
X414451Y659443D01*
X414369Y659493D01*
X414286Y659546D01*
X414284Y659546D01*
X414282Y659547D01*
X414186Y659562D01*
X414090Y659577D01*
X414088Y659577D01*
X414085Y659577D01*
X413991Y659553D01*
X413897Y659530D01*
X413895Y659528D01*
X413893Y659528D01*
X413757Y659432D01*
X408021Y653695D01*
X397579Y653695D01*
X390195Y661079D01*
X390195Y665969D01*
X390193Y665981D01*
X390195Y665994D01*
X390173Y666078D01*
X390156Y666164D01*
X390149Y666174D01*
X390145Y666186D01*
X390049Y666322D01*
X335518Y720853D01*
X335507Y720860D01*
X335500Y720870D01*
X335425Y720915D01*
X335352Y720963D01*
X335340Y720965D01*
X335329Y720972D01*
X335165Y720999D01*
X318210Y720999D01*
X314901Y722370D01*
X300972Y736299D01*
X300599Y736672D01*
X300587Y736680D01*
X300578Y736692D01*
X300437Y736780D01*
X299184Y737299D01*
X295799Y740684D01*
X293967Y745107D01*
X293967Y749893D01*
X295799Y754316D01*
X297326Y755843D01*
X297329Y755847D01*
X297332Y755849D01*
X297383Y755929D01*
X297436Y756009D01*
X297437Y756013D01*
X297439Y756016D01*
X297455Y756110D01*
X297472Y756204D01*
X297471Y756208D01*
X297472Y756213D01*
X297450Y756304D01*
X297430Y756398D01*
X297427Y756402D01*
X297426Y756406D01*
X297370Y756482D01*
X297314Y756561D01*
X297311Y756563D01*
X297308Y756566D01*
X297226Y756615D01*
X297145Y756665D01*
X297141Y756665D01*
X297137Y756668D01*
X296973Y756695D01*
X291979Y756695D01*
X284595Y764079D01*
X284595Y774521D01*
X290221Y780147D01*
X290224Y780151D01*
X290227Y780153D01*
X290278Y780233D01*
X290331Y780313D01*
X290332Y780317D01*
X290334Y780320D01*
X290350Y780414D01*
X290367Y780508D01*
X290367Y780512D01*
X290367Y780517D01*
X290345Y780608D01*
X290325Y780702D01*
X290322Y780706D01*
X290321Y780710D01*
X290265Y780786D01*
X290209Y780865D01*
X290206Y780867D01*
X290203Y780870D01*
X290121Y780919D01*
X290040Y780969D01*
X290036Y780969D01*
X290032Y780972D01*
X289868Y780999D01*
X247210Y780999D01*
X245191Y781835D01*
X245185Y781837D01*
X245180Y781840D01*
X245087Y781856D01*
X244996Y781873D01*
X244990Y781872D01*
X244983Y781873D01*
X244893Y781852D01*
X244801Y781832D01*
X244796Y781829D01*
X244790Y781827D01*
X244715Y781772D01*
X244638Y781718D01*
X244635Y781713D01*
X244630Y781709D01*
X244582Y781629D01*
X244533Y781550D01*
X244532Y781544D01*
X244528Y781538D01*
X244501Y781374D01*
X244501Y756396D01*
X244502Y756390D01*
X244501Y756385D01*
X244503Y756379D01*
X244501Y756371D01*
X244523Y756286D01*
X244540Y756201D01*
X244547Y756190D01*
X244551Y756178D01*
X244647Y756043D01*
X246979Y753710D01*
X249041Y748733D01*
X249041Y728267D01*
X246979Y723290D01*
X246566Y722877D01*
X246564Y722874D01*
X246561Y722871D01*
X246509Y722791D01*
X246457Y722711D01*
X246456Y722707D01*
X246454Y722704D01*
X246438Y722610D01*
X246420Y722516D01*
X246421Y722512D01*
X246421Y722507D01*
X246442Y722416D01*
X246463Y722322D01*
X246466Y722318D01*
X246467Y722314D01*
X246523Y722238D01*
X246578Y722159D01*
X246582Y722157D01*
X246584Y722154D01*
X246666Y722105D01*
X246748Y722055D01*
X246752Y722055D01*
X246755Y722052D01*
X246919Y722025D01*
X300839Y722025D01*
X302025Y720839D01*
X302025Y649161D01*
X300839Y647975D01*
X119161Y647975D01*
X117975Y649161D01*
X117975Y721000D01*
X117974Y721008D01*
X117975Y721017D01*
X117954Y721105D01*
X117936Y721195D01*
X117931Y721202D01*
X117929Y721210D01*
X117875Y721283D01*
X117823Y721359D01*
X117816Y721363D01*
X117811Y721370D01*
X117733Y721417D01*
X117656Y721466D01*
X117647Y721467D01*
X117640Y721472D01*
X117476Y721499D01*
X107870Y721499D01*
X107858Y721497D01*
X107845Y721499D01*
X107761Y721477D01*
X107675Y721460D01*
X107665Y721453D01*
X107653Y721449D01*
X107517Y721353D01*
X98647Y712483D01*
X98640Y712472D01*
X98630Y712465D01*
X98585Y712390D01*
X98537Y712317D01*
X98535Y712305D01*
X98528Y712294D01*
X98501Y712130D01*
X98501Y637870D01*
X98503Y637858D01*
X98501Y637845D01*
X98523Y637761D01*
X98540Y637675D01*
X98547Y637665D01*
X98551Y637653D01*
X98647Y637517D01*
X170410Y565754D01*
X226973Y509191D01*
X229789Y502391D01*
X229789Y435057D01*
X229792Y435042D01*
X229790Y435028D01*
X229799Y434990D01*
X229799Y432524D01*
X229801Y432516D01*
X229799Y432507D01*
X229820Y432419D01*
X229838Y432329D01*
X229843Y432322D01*
X229845Y432314D01*
X229899Y432241D01*
X229951Y432165D01*
X229958Y432161D01*
X229963Y432154D01*
X230041Y432107D01*
X230119Y432058D01*
X230127Y432057D01*
X230134Y432052D01*
X230298Y432025D01*
X320839Y432025D01*
X322025Y430839D01*
X322025Y359161D01*
X320839Y357975D01*
X229161Y357975D01*
G37*
%LPD*%
%LPC*%
G36*
X411999Y364639D02*
X411999Y364639D01*
X411999Y365140D01*
X411997Y365148D01*
X411999Y365156D01*
X411978Y365245D01*
X411960Y365335D01*
X411955Y365342D01*
X411953Y365350D01*
X411899Y365423D01*
X411847Y365499D01*
X411840Y365503D01*
X411835Y365510D01*
X411757Y365556D01*
X411679Y365606D01*
X411671Y365607D01*
X411664Y365611D01*
X411500Y365639D01*
X402855Y365639D01*
X402855Y368428D01*
X407048Y372621D01*
X407052Y372626D01*
X407057Y372630D01*
X407106Y372709D01*
X407158Y372787D01*
X407159Y372793D01*
X407162Y372798D01*
X407177Y372890D01*
X407194Y372982D01*
X407193Y372988D01*
X407194Y372994D01*
X407172Y373084D01*
X407151Y373176D01*
X407148Y373181D01*
X407146Y373187D01*
X407091Y373262D01*
X407036Y373338D01*
X407031Y373342D01*
X407027Y373347D01*
X406886Y373435D01*
X404860Y374274D01*
X401314Y377820D01*
X399395Y382453D01*
X399395Y387467D01*
X401314Y392100D01*
X401483Y392269D01*
X401495Y392288D01*
X401513Y392302D01*
X401550Y392370D01*
X401593Y392434D01*
X401597Y392457D01*
X401608Y392477D01*
X401615Y392554D01*
X401629Y392630D01*
X401624Y392652D01*
X401626Y392675D01*
X401603Y392749D01*
X401586Y392824D01*
X401573Y392843D01*
X401566Y392865D01*
X401516Y392923D01*
X401471Y392986D01*
X401451Y392998D01*
X401436Y393016D01*
X401330Y393073D01*
X401302Y393090D01*
X401296Y393091D01*
X401290Y393094D01*
X347030Y411473D01*
X347013Y411475D01*
X346870Y411499D01*
X346320Y411499D01*
X343501Y412667D01*
X343486Y412670D01*
X343470Y412679D01*
X340579Y413658D01*
X340166Y414020D01*
X340152Y414028D01*
X340028Y414105D01*
X339520Y414316D01*
X337362Y416474D01*
X337350Y416482D01*
X337338Y416496D01*
X335043Y418507D01*
X334799Y419000D01*
X334789Y419012D01*
X334704Y419132D01*
X334316Y419520D01*
X333148Y422340D01*
X333140Y422352D01*
X333134Y422370D01*
X331783Y425106D01*
X331747Y425654D01*
X331742Y425670D01*
X331710Y425812D01*
X331499Y426320D01*
X331499Y429372D01*
X331496Y429386D01*
X331498Y429405D01*
X331297Y432450D01*
X331473Y432970D01*
X331475Y432987D01*
X331499Y433130D01*
X331499Y433680D01*
X332161Y435278D01*
X332164Y435293D01*
X332172Y435305D01*
X332199Y435469D01*
X332199Y488880D01*
X335016Y495680D01*
X340220Y500884D01*
X347020Y503701D01*
X354380Y503701D01*
X361180Y500884D01*
X366384Y495680D01*
X369201Y488880D01*
X369201Y443388D01*
X369206Y443361D01*
X369204Y443334D01*
X369226Y443264D01*
X369240Y443193D01*
X369256Y443170D01*
X369264Y443145D01*
X369311Y443089D01*
X369353Y443029D01*
X369376Y443014D01*
X369393Y442994D01*
X369486Y442944D01*
X369520Y442922D01*
X369530Y442920D01*
X369540Y442915D01*
X410966Y428883D01*
X410967Y428883D01*
X411062Y428871D01*
X411163Y428858D01*
X411164Y428859D01*
X411165Y428859D01*
X411326Y428899D01*
X449300Y445513D01*
X449308Y445518D01*
X449317Y445521D01*
X449453Y445617D01*
X449590Y445754D01*
X521353Y517517D01*
X521360Y517528D01*
X521370Y517535D01*
X521415Y517610D01*
X521463Y517683D01*
X521465Y517695D01*
X521472Y517706D01*
X521499Y517870D01*
X521499Y643680D01*
X524316Y650480D01*
X529520Y655684D01*
X536320Y658501D01*
X543680Y658501D01*
X550480Y655684D01*
X555684Y650480D01*
X558501Y643680D01*
X558501Y635585D01*
X558501Y635583D01*
X558501Y635581D01*
X558521Y635487D01*
X558540Y635390D01*
X558542Y635388D01*
X558542Y635386D01*
X558598Y635306D01*
X558653Y635226D01*
X558655Y635225D01*
X558656Y635223D01*
X558739Y635171D01*
X558820Y635119D01*
X558823Y635119D01*
X558824Y635118D01*
X558920Y635102D01*
X559017Y635086D01*
X559019Y635087D01*
X559021Y635086D01*
X559115Y635110D01*
X559210Y635132D01*
X559212Y635133D01*
X559214Y635134D01*
X559293Y635193D01*
X559370Y635250D01*
X559371Y635252D01*
X559373Y635253D01*
X559461Y635394D01*
X560133Y637016D01*
X563964Y640847D01*
X565634Y641539D01*
X565638Y641541D01*
X565642Y641542D01*
X565720Y641597D01*
X565799Y641650D01*
X565801Y641653D01*
X565805Y641656D01*
X565856Y641737D01*
X565908Y641817D01*
X565908Y641821D01*
X565911Y641824D01*
X565926Y641918D01*
X565942Y642012D01*
X565941Y642017D01*
X565942Y642021D01*
X565919Y642112D01*
X565898Y642206D01*
X565895Y642210D01*
X565894Y642214D01*
X565837Y642290D01*
X565781Y642367D01*
X565778Y642369D01*
X565775Y642373D01*
X565634Y642461D01*
X563965Y643153D01*
X560133Y646984D01*
X558059Y651991D01*
X558059Y657409D01*
X560133Y662416D01*
X563964Y666247D01*
X568971Y668321D01*
X589629Y668321D01*
X594636Y666247D01*
X598467Y662416D01*
X600541Y657409D01*
X600541Y651991D01*
X598467Y646984D01*
X594635Y643153D01*
X593139Y642533D01*
X592966Y642461D01*
X592962Y642459D01*
X592958Y642458D01*
X592879Y642403D01*
X592801Y642350D01*
X592799Y642347D01*
X592795Y642344D01*
X592744Y642263D01*
X592692Y642183D01*
X592692Y642179D01*
X592689Y642176D01*
X592674Y642082D01*
X592658Y641988D01*
X592659Y641984D01*
X592658Y641979D01*
X592681Y641887D01*
X592702Y641794D01*
X592705Y641790D01*
X592706Y641786D01*
X592763Y641710D01*
X592819Y641633D01*
X592822Y641631D01*
X592825Y641627D01*
X592966Y641539D01*
X594636Y640847D01*
X598467Y637016D01*
X600541Y632009D01*
X600541Y626591D01*
X598467Y621584D01*
X594636Y617753D01*
X589629Y615679D01*
X568971Y615679D01*
X563964Y617753D01*
X560133Y621584D01*
X559461Y623206D01*
X559460Y623208D01*
X559460Y623210D01*
X559405Y623290D01*
X559350Y623371D01*
X559348Y623372D01*
X559347Y623374D01*
X559266Y623426D01*
X559183Y623479D01*
X559181Y623480D01*
X559180Y623481D01*
X559084Y623497D01*
X558988Y623514D01*
X558986Y623514D01*
X558983Y623514D01*
X558890Y623492D01*
X558794Y623470D01*
X558792Y623468D01*
X558790Y623468D01*
X558713Y623412D01*
X558633Y623353D01*
X558632Y623351D01*
X558630Y623350D01*
X558581Y623267D01*
X558530Y623183D01*
X558530Y623181D01*
X558528Y623179D01*
X558501Y623015D01*
X558501Y584785D01*
X558501Y584783D01*
X558501Y584781D01*
X558521Y584687D01*
X558540Y584590D01*
X558542Y584588D01*
X558542Y584586D01*
X558598Y584506D01*
X558653Y584426D01*
X558655Y584425D01*
X558656Y584423D01*
X558739Y584371D01*
X558820Y584319D01*
X558823Y584319D01*
X558824Y584318D01*
X558920Y584302D01*
X559017Y584286D01*
X559019Y584287D01*
X559021Y584286D01*
X559115Y584310D01*
X559210Y584332D01*
X559212Y584333D01*
X559214Y584334D01*
X559293Y584393D01*
X559370Y584450D01*
X559371Y584452D01*
X559373Y584453D01*
X559461Y584594D01*
X560133Y586216D01*
X563964Y590047D01*
X568971Y592121D01*
X589629Y592121D01*
X594636Y590047D01*
X598467Y586216D01*
X600541Y581209D01*
X600541Y575791D01*
X598467Y570784D01*
X594636Y566953D01*
X592966Y566261D01*
X592962Y566259D01*
X592958Y566258D01*
X592880Y566203D01*
X592801Y566150D01*
X592799Y566147D01*
X592795Y566144D01*
X592744Y566063D01*
X592692Y565983D01*
X592692Y565979D01*
X592689Y565976D01*
X592674Y565882D01*
X592658Y565788D01*
X592659Y565784D01*
X592658Y565779D01*
X592681Y565688D01*
X592702Y565594D01*
X592705Y565590D01*
X592706Y565586D01*
X592762Y565511D01*
X592819Y565433D01*
X592822Y565431D01*
X592825Y565427D01*
X592966Y565339D01*
X594636Y564647D01*
X598467Y560816D01*
X600541Y555809D01*
X600541Y550391D01*
X598467Y545384D01*
X594636Y541553D01*
X592966Y540861D01*
X592962Y540859D01*
X592958Y540858D01*
X592880Y540803D01*
X592801Y540750D01*
X592799Y540747D01*
X592795Y540744D01*
X592744Y540663D01*
X592692Y540583D01*
X592692Y540579D01*
X592689Y540576D01*
X592674Y540482D01*
X592658Y540388D01*
X592659Y540384D01*
X592658Y540379D01*
X592681Y540288D01*
X592702Y540194D01*
X592705Y540190D01*
X592706Y540186D01*
X592762Y540111D01*
X592819Y540033D01*
X592822Y540031D01*
X592825Y540027D01*
X592966Y539939D01*
X594636Y539247D01*
X598467Y535416D01*
X600541Y530409D01*
X600541Y524991D01*
X598467Y519984D01*
X594636Y516153D01*
X592966Y515461D01*
X592962Y515459D01*
X592958Y515458D01*
X592880Y515403D01*
X592801Y515350D01*
X592799Y515347D01*
X592795Y515344D01*
X592744Y515263D01*
X592692Y515183D01*
X592692Y515179D01*
X592689Y515176D01*
X592674Y515082D01*
X592658Y514988D01*
X592659Y514984D01*
X592658Y514979D01*
X592681Y514888D01*
X592702Y514794D01*
X592705Y514790D01*
X592706Y514786D01*
X592762Y514711D01*
X592819Y514633D01*
X592822Y514631D01*
X592825Y514627D01*
X592966Y514539D01*
X594636Y513847D01*
X598467Y510016D01*
X600541Y505009D01*
X600541Y499591D01*
X598467Y494584D01*
X594636Y490753D01*
X589629Y488679D01*
X568971Y488679D01*
X563964Y490753D01*
X560133Y494584D01*
X558059Y499591D01*
X558059Y502744D01*
X558059Y502746D01*
X558059Y502748D01*
X558039Y502843D01*
X558020Y502939D01*
X558018Y502941D01*
X558018Y502943D01*
X557962Y503023D01*
X557907Y503103D01*
X557905Y503104D01*
X557904Y503106D01*
X557821Y503158D01*
X557740Y503210D01*
X557737Y503210D01*
X557736Y503212D01*
X557640Y503227D01*
X557543Y503243D01*
X557541Y503243D01*
X557539Y503243D01*
X557445Y503220D01*
X557350Y503197D01*
X557348Y503196D01*
X557346Y503195D01*
X557267Y503136D01*
X557190Y503079D01*
X557189Y503078D01*
X557187Y503076D01*
X557099Y502935D01*
X555684Y499520D01*
X473214Y417050D01*
X473212Y417046D01*
X473207Y417043D01*
X472455Y416260D01*
X472454Y416260D01*
X470787Y414525D01*
X470700Y414487D01*
X470692Y414482D01*
X470683Y414479D01*
X470547Y414383D01*
X470480Y414316D01*
X467252Y412979D01*
X467248Y412976D01*
X467243Y412975D01*
X422395Y393354D01*
X422394Y393353D01*
X422393Y393353D01*
X422311Y393295D01*
X422232Y393240D01*
X422232Y393239D01*
X422231Y393238D01*
X422180Y393155D01*
X422127Y393071D01*
X422127Y393070D01*
X422126Y393068D01*
X422112Y392973D01*
X422096Y392874D01*
X422097Y392873D01*
X422097Y392872D01*
X422120Y392778D01*
X422145Y392682D01*
X422145Y392680D01*
X422146Y392679D01*
X422242Y392544D01*
X422686Y392100D01*
X424605Y387467D01*
X424605Y382453D01*
X422686Y377820D01*
X419140Y374274D01*
X417114Y373435D01*
X417109Y373431D01*
X417102Y373430D01*
X417026Y373376D01*
X416949Y373324D01*
X416946Y373319D01*
X416940Y373315D01*
X416892Y373236D01*
X416841Y373157D01*
X416839Y373151D01*
X416836Y373146D01*
X416822Y373054D01*
X416806Y372961D01*
X416807Y372955D01*
X416806Y372949D01*
X416829Y372859D01*
X416850Y372768D01*
X416854Y372762D01*
X416855Y372756D01*
X416952Y372621D01*
X421145Y368428D01*
X421145Y365639D01*
X412500Y365639D01*
X412492Y365638D01*
X412484Y365639D01*
X412395Y365618D01*
X412305Y365600D01*
X412298Y365595D01*
X412290Y365593D01*
X412217Y365539D01*
X412141Y365487D01*
X412137Y365480D01*
X412130Y365475D01*
X412084Y365397D01*
X412034Y365320D01*
X412033Y365311D01*
X412029Y365304D01*
X412001Y365140D01*
X412001Y364639D01*
X411999Y364639D01*
G37*
%LPD*%
G36*
X61012Y681190D02*
X61012Y681190D01*
X61017Y681190D01*
X61108Y681212D01*
X61202Y681232D01*
X61206Y681235D01*
X61210Y681236D01*
X61286Y681292D01*
X61365Y681347D01*
X61367Y681351D01*
X61370Y681354D01*
X61419Y681435D01*
X61469Y681517D01*
X61469Y681521D01*
X61472Y681525D01*
X61499Y681689D01*
X61499Y723680D01*
X64316Y730480D01*
X89520Y755684D01*
X96320Y758501D01*
X123230Y758501D01*
X123242Y758503D01*
X123255Y758501D01*
X123339Y758523D01*
X123425Y758540D01*
X123435Y758547D01*
X123447Y758551D01*
X123583Y758647D01*
X142004Y777068D01*
X142011Y777079D01*
X142021Y777086D01*
X142066Y777161D01*
X142114Y777234D01*
X142116Y777246D01*
X142123Y777257D01*
X142150Y777421D01*
X142150Y807319D01*
X142150Y807324D01*
X142150Y807328D01*
X142130Y807421D01*
X142111Y807514D01*
X142108Y807518D01*
X142108Y807522D01*
X142052Y807600D01*
X141998Y807678D01*
X141995Y807681D01*
X141992Y807684D01*
X141911Y807734D01*
X141831Y807785D01*
X141827Y807786D01*
X141823Y807788D01*
X141728Y807803D01*
X141635Y807818D01*
X141631Y807817D01*
X141626Y807818D01*
X141534Y807794D01*
X141441Y807772D01*
X141438Y807770D01*
X141434Y807769D01*
X141330Y807695D01*
X130879Y807695D01*
X123495Y815079D01*
X123495Y825521D01*
X130879Y832905D01*
X141321Y832905D01*
X144119Y830106D01*
X144125Y830103D01*
X144128Y830098D01*
X144207Y830048D01*
X144285Y829997D01*
X144291Y829996D01*
X144297Y829992D01*
X144388Y829977D01*
X144481Y829960D01*
X144487Y829962D01*
X144493Y829961D01*
X144583Y829983D01*
X144675Y830003D01*
X144680Y830007D01*
X144686Y830008D01*
X144761Y830064D01*
X144837Y830118D01*
X144840Y830124D01*
X144845Y830127D01*
X144934Y830268D01*
X145520Y831684D01*
X150794Y836958D01*
X162714Y848878D01*
X162715Y848879D01*
X162717Y848881D01*
X162770Y848963D01*
X162823Y849043D01*
X162824Y849045D01*
X162825Y849047D01*
X162842Y849143D01*
X162860Y849239D01*
X162859Y849241D01*
X162860Y849243D01*
X162838Y849338D01*
X162817Y849433D01*
X162816Y849435D01*
X162815Y849437D01*
X162758Y849516D01*
X162702Y849595D01*
X162700Y849596D01*
X162699Y849598D01*
X162615Y849648D01*
X162532Y849699D01*
X162530Y849700D01*
X162529Y849701D01*
X162432Y849715D01*
X162336Y849729D01*
X162334Y849729D01*
X162332Y849729D01*
X162170Y849692D01*
X159290Y848499D01*
X99935Y848499D01*
X99923Y848497D01*
X99910Y848499D01*
X99826Y848477D01*
X99740Y848460D01*
X99730Y848453D01*
X99718Y848449D01*
X99582Y848353D01*
X99147Y847918D01*
X99140Y847908D01*
X99130Y847900D01*
X99085Y847825D01*
X99037Y847752D01*
X99035Y847740D01*
X99028Y847729D01*
X99001Y847565D01*
X99001Y838210D01*
X97630Y834901D01*
X95028Y832299D01*
X84651Y821922D01*
X84644Y821911D01*
X84634Y821904D01*
X84589Y821829D01*
X84541Y821756D01*
X84539Y821744D01*
X84532Y821733D01*
X84505Y821569D01*
X84505Y812046D01*
X83134Y808738D01*
X71462Y797066D01*
X68154Y795695D01*
X64135Y795695D01*
X64123Y795693D01*
X64110Y795695D01*
X64026Y795673D01*
X63940Y795656D01*
X63930Y795649D01*
X63918Y795645D01*
X63782Y795549D01*
X24147Y755914D01*
X24140Y755903D01*
X24130Y755896D01*
X24085Y755821D01*
X24037Y755748D01*
X24035Y755736D01*
X24028Y755725D01*
X24001Y755561D01*
X24001Y717832D01*
X24002Y717828D01*
X24001Y717823D01*
X24021Y717730D01*
X24040Y717637D01*
X24043Y717633D01*
X24044Y717629D01*
X24099Y717551D01*
X24153Y717473D01*
X24156Y717471D01*
X24159Y717467D01*
X24241Y717417D01*
X24320Y717366D01*
X24325Y717365D01*
X24328Y717363D01*
X24422Y717349D01*
X24517Y717333D01*
X24521Y717334D01*
X24525Y717333D01*
X24617Y717357D01*
X24710Y717379D01*
X24713Y717381D01*
X24717Y717382D01*
X24853Y717479D01*
X25479Y718105D01*
X35921Y718105D01*
X43305Y710721D01*
X43305Y700279D01*
X35921Y692895D01*
X25479Y692895D01*
X24853Y693521D01*
X24849Y693524D01*
X24847Y693527D01*
X24767Y693578D01*
X24687Y693631D01*
X24683Y693632D01*
X24680Y693634D01*
X24586Y693650D01*
X24492Y693667D01*
X24488Y693667D01*
X24483Y693667D01*
X24392Y693645D01*
X24298Y693625D01*
X24294Y693622D01*
X24290Y693621D01*
X24214Y693565D01*
X24135Y693509D01*
X24133Y693506D01*
X24130Y693503D01*
X24081Y693421D01*
X24031Y693340D01*
X24031Y693336D01*
X24028Y693332D01*
X24001Y693168D01*
X24001Y683189D01*
X24002Y683185D01*
X24001Y683180D01*
X24021Y683087D01*
X24040Y682994D01*
X24043Y682990D01*
X24044Y682986D01*
X24099Y682908D01*
X24153Y682830D01*
X24156Y682828D01*
X24159Y682824D01*
X24240Y682774D01*
X24320Y682723D01*
X24325Y682722D01*
X24328Y682720D01*
X24422Y682706D01*
X24517Y682690D01*
X24521Y682691D01*
X24525Y682690D01*
X24617Y682714D01*
X24710Y682736D01*
X24713Y682738D01*
X24717Y682739D01*
X24853Y682836D01*
X26664Y684647D01*
X31671Y686721D01*
X52329Y686721D01*
X57336Y684647D01*
X60647Y681336D01*
X60651Y681333D01*
X60653Y681330D01*
X60733Y681279D01*
X60813Y681226D01*
X60817Y681225D01*
X60820Y681223D01*
X60914Y681207D01*
X61008Y681189D01*
X61012Y681190D01*
G37*
%LPC*%
G36*
X53548Y362509D02*
X53548Y362509D01*
X48075Y364776D01*
X43886Y368965D01*
X41619Y374438D01*
X41619Y380362D01*
X43886Y385835D01*
X47798Y389747D01*
X47803Y389754D01*
X47810Y389759D01*
X47858Y389836D01*
X47908Y389913D01*
X47910Y389921D01*
X47914Y389928D01*
X47928Y390018D01*
X47944Y390108D01*
X47943Y390117D01*
X47944Y390125D01*
X47921Y390213D01*
X47902Y390302D01*
X47897Y390309D01*
X47895Y390317D01*
X47798Y390453D01*
X43886Y394365D01*
X41619Y399838D01*
X41619Y405762D01*
X43886Y411235D01*
X47798Y415147D01*
X47803Y415154D01*
X47810Y415159D01*
X47858Y415236D01*
X47908Y415313D01*
X47910Y415321D01*
X47914Y415328D01*
X47928Y415418D01*
X47944Y415508D01*
X47943Y415517D01*
X47944Y415525D01*
X47921Y415613D01*
X47902Y415702D01*
X47897Y415709D01*
X47895Y415717D01*
X47798Y415853D01*
X43886Y419765D01*
X41619Y425238D01*
X41619Y431162D01*
X43886Y436635D01*
X47798Y440547D01*
X47803Y440554D01*
X47810Y440559D01*
X47857Y440636D01*
X47908Y440713D01*
X47910Y440721D01*
X47914Y440728D01*
X47928Y440818D01*
X47944Y440908D01*
X47943Y440916D01*
X47944Y440925D01*
X47921Y441013D01*
X47902Y441102D01*
X47897Y441109D01*
X47895Y441117D01*
X47798Y441253D01*
X43886Y445165D01*
X41619Y450638D01*
X41619Y456562D01*
X43886Y462035D01*
X47798Y465947D01*
X47803Y465954D01*
X47810Y465959D01*
X47858Y466036D01*
X47908Y466113D01*
X47910Y466121D01*
X47914Y466128D01*
X47928Y466218D01*
X47944Y466308D01*
X47943Y466317D01*
X47944Y466325D01*
X47921Y466413D01*
X47902Y466502D01*
X47897Y466509D01*
X47895Y466517D01*
X47798Y466653D01*
X43886Y470565D01*
X41619Y476038D01*
X41619Y481962D01*
X43886Y487435D01*
X47798Y491347D01*
X47803Y491354D01*
X47810Y491359D01*
X47857Y491436D01*
X47908Y491513D01*
X47910Y491521D01*
X47914Y491528D01*
X47928Y491618D01*
X47944Y491708D01*
X47943Y491716D01*
X47944Y491725D01*
X47921Y491813D01*
X47902Y491902D01*
X47897Y491909D01*
X47895Y491917D01*
X47798Y492053D01*
X43886Y495965D01*
X41619Y501438D01*
X41619Y507362D01*
X43886Y512835D01*
X48075Y517024D01*
X51670Y518513D01*
X51740Y518560D01*
X51813Y518603D01*
X51822Y518615D01*
X51835Y518624D01*
X51881Y518695D01*
X51931Y518762D01*
X51935Y518778D01*
X51943Y518791D01*
X51958Y518874D01*
X51978Y518956D01*
X51975Y518971D01*
X51978Y518986D01*
X51959Y519069D01*
X51946Y519152D01*
X51937Y519165D01*
X51934Y519180D01*
X51884Y519249D01*
X51839Y519320D01*
X51825Y519330D01*
X51817Y519341D01*
X51779Y519364D01*
X51706Y519419D01*
X50519Y520024D01*
X49063Y521081D01*
X47791Y522353D01*
X46734Y523809D01*
X45917Y525412D01*
X45361Y527123D01*
X45095Y528801D01*
X64900Y528801D01*
X64908Y528802D01*
X64916Y528801D01*
X65005Y528822D01*
X65095Y528840D01*
X65102Y528845D01*
X65110Y528847D01*
X65183Y528901D01*
X65259Y528953D01*
X65263Y528960D01*
X65270Y528965D01*
X65316Y529043D01*
X65366Y529120D01*
X65367Y529129D01*
X65371Y529136D01*
X65399Y529300D01*
X65399Y530300D01*
X65397Y530308D01*
X65399Y530316D01*
X65378Y530405D01*
X65360Y530495D01*
X65355Y530502D01*
X65353Y530510D01*
X65299Y530583D01*
X65247Y530659D01*
X65240Y530663D01*
X65235Y530670D01*
X65157Y530716D01*
X65079Y530766D01*
X65071Y530767D01*
X65064Y530771D01*
X64900Y530799D01*
X45095Y530799D01*
X45361Y532477D01*
X45917Y534188D01*
X46734Y535791D01*
X47791Y537247D01*
X49063Y538519D01*
X50519Y539576D01*
X51706Y540181D01*
X51772Y540234D01*
X51841Y540282D01*
X51849Y540295D01*
X51861Y540305D01*
X51902Y540379D01*
X51946Y540450D01*
X51949Y540466D01*
X51956Y540480D01*
X51965Y540564D01*
X51978Y540647D01*
X51974Y540662D01*
X51976Y540677D01*
X51950Y540758D01*
X51930Y540840D01*
X51921Y540852D01*
X51916Y540867D01*
X51862Y540931D01*
X51811Y540999D01*
X51796Y541008D01*
X51787Y541019D01*
X51748Y541038D01*
X51670Y541087D01*
X48075Y542576D01*
X43886Y546765D01*
X41619Y552238D01*
X41619Y558162D01*
X43886Y563635D01*
X48075Y567824D01*
X53548Y570091D01*
X77252Y570091D01*
X82725Y567824D01*
X86914Y563635D01*
X89181Y558162D01*
X89181Y552238D01*
X86914Y546765D01*
X82725Y542576D01*
X79130Y541087D01*
X79060Y541040D01*
X78987Y540997D01*
X78978Y540985D01*
X78965Y540976D01*
X78919Y540905D01*
X78869Y540838D01*
X78865Y540822D01*
X78857Y540809D01*
X78842Y540726D01*
X78822Y540644D01*
X78825Y540629D01*
X78822Y540614D01*
X78841Y540531D01*
X78854Y540448D01*
X78863Y540435D01*
X78866Y540420D01*
X78916Y540351D01*
X78961Y540280D01*
X78975Y540270D01*
X78983Y540259D01*
X79021Y540236D01*
X79094Y540181D01*
X80281Y539576D01*
X81737Y538519D01*
X83009Y537247D01*
X84066Y535791D01*
X84883Y534188D01*
X85439Y532477D01*
X85705Y530799D01*
X65900Y530799D01*
X65892Y530798D01*
X65884Y530799D01*
X65795Y530778D01*
X65705Y530760D01*
X65698Y530755D01*
X65690Y530753D01*
X65617Y530699D01*
X65541Y530647D01*
X65537Y530640D01*
X65530Y530635D01*
X65484Y530557D01*
X65434Y530480D01*
X65433Y530471D01*
X65429Y530464D01*
X65401Y530300D01*
X65401Y529300D01*
X65403Y529292D01*
X65401Y529283D01*
X65422Y529195D01*
X65440Y529105D01*
X65445Y529098D01*
X65447Y529090D01*
X65501Y529017D01*
X65553Y528941D01*
X65560Y528937D01*
X65565Y528930D01*
X65643Y528883D01*
X65721Y528834D01*
X65729Y528833D01*
X65736Y528828D01*
X65900Y528801D01*
X85705Y528801D01*
X85439Y527123D01*
X84883Y525412D01*
X84066Y523809D01*
X83009Y522353D01*
X81737Y521081D01*
X80281Y520024D01*
X79094Y519419D01*
X79028Y519366D01*
X78959Y519318D01*
X78951Y519305D01*
X78939Y519295D01*
X78898Y519221D01*
X78854Y519150D01*
X78851Y519134D01*
X78844Y519120D01*
X78835Y519036D01*
X78822Y518953D01*
X78826Y518938D01*
X78824Y518923D01*
X78850Y518842D01*
X78870Y518760D01*
X78879Y518748D01*
X78884Y518733D01*
X78938Y518669D01*
X78989Y518601D01*
X79004Y518592D01*
X79013Y518581D01*
X79052Y518562D01*
X79130Y518513D01*
X82725Y517024D01*
X86914Y512835D01*
X89181Y507362D01*
X89181Y501438D01*
X86914Y495965D01*
X83002Y492053D01*
X82997Y492046D01*
X82990Y492041D01*
X82942Y491964D01*
X82892Y491887D01*
X82890Y491879D01*
X82886Y491872D01*
X82872Y491782D01*
X82856Y491692D01*
X82857Y491683D01*
X82856Y491675D01*
X82879Y491587D01*
X82898Y491498D01*
X82903Y491491D01*
X82905Y491483D01*
X83002Y491347D01*
X86914Y487435D01*
X89181Y481962D01*
X89181Y476038D01*
X86914Y470565D01*
X83002Y466653D01*
X82997Y466646D01*
X82990Y466641D01*
X82943Y466564D01*
X82892Y466487D01*
X82890Y466479D01*
X82886Y466472D01*
X82872Y466382D01*
X82856Y466292D01*
X82857Y466284D01*
X82856Y466275D01*
X82879Y466187D01*
X82898Y466098D01*
X82903Y466091D01*
X82905Y466083D01*
X83002Y465947D01*
X86914Y462035D01*
X89181Y456562D01*
X89181Y450638D01*
X86914Y445165D01*
X83002Y441253D01*
X82997Y441246D01*
X82990Y441241D01*
X82942Y441164D01*
X82892Y441087D01*
X82890Y441079D01*
X82886Y441072D01*
X82872Y440982D01*
X82856Y440892D01*
X82857Y440883D01*
X82856Y440875D01*
X82879Y440787D01*
X82898Y440698D01*
X82903Y440691D01*
X82905Y440683D01*
X83002Y440547D01*
X86914Y436635D01*
X89181Y431162D01*
X89181Y425238D01*
X86914Y419765D01*
X83002Y415853D01*
X82997Y415846D01*
X82990Y415841D01*
X82943Y415764D01*
X82892Y415687D01*
X82890Y415679D01*
X82886Y415672D01*
X82872Y415582D01*
X82856Y415492D01*
X82857Y415484D01*
X82856Y415475D01*
X82879Y415387D01*
X82898Y415298D01*
X82903Y415291D01*
X82905Y415283D01*
X83002Y415147D01*
X86914Y411235D01*
X89181Y405762D01*
X89181Y399838D01*
X86914Y394365D01*
X83002Y390453D01*
X82997Y390446D01*
X82990Y390441D01*
X82943Y390364D01*
X82892Y390287D01*
X82890Y390279D01*
X82886Y390272D01*
X82872Y390182D01*
X82856Y390092D01*
X82857Y390084D01*
X82856Y390075D01*
X82879Y389987D01*
X82898Y389898D01*
X82903Y389891D01*
X82905Y389883D01*
X83002Y389747D01*
X86914Y385835D01*
X89181Y380362D01*
X89181Y374438D01*
X86914Y368965D01*
X82725Y364776D01*
X77252Y362509D01*
X53548Y362509D01*
G37*
%LPD*%
G36*
X317484Y362026D02*
X317484Y362026D01*
X317493Y362025D01*
X317581Y362046D01*
X317671Y362064D01*
X317678Y362069D01*
X317686Y362071D01*
X317759Y362125D01*
X317835Y362177D01*
X317839Y362184D01*
X317846Y362189D01*
X317893Y362267D01*
X317942Y362344D01*
X317943Y362353D01*
X317948Y362360D01*
X317975Y362524D01*
X317975Y427476D01*
X317974Y427484D01*
X317975Y427493D01*
X317954Y427581D01*
X317936Y427671D01*
X317931Y427678D01*
X317929Y427686D01*
X317875Y427759D01*
X317823Y427835D01*
X317816Y427839D01*
X317811Y427846D01*
X317733Y427893D01*
X317656Y427942D01*
X317647Y427943D01*
X317640Y427948D01*
X317476Y427975D01*
X232524Y427975D01*
X232516Y427974D01*
X232507Y427975D01*
X232419Y427954D01*
X232329Y427936D01*
X232322Y427931D01*
X232314Y427929D01*
X232241Y427875D01*
X232165Y427823D01*
X232161Y427816D01*
X232154Y427811D01*
X232107Y427733D01*
X232058Y427656D01*
X232057Y427647D01*
X232052Y427640D01*
X232025Y427476D01*
X232025Y362524D01*
X232026Y362516D01*
X232025Y362507D01*
X232046Y362419D01*
X232064Y362329D01*
X232069Y362322D01*
X232071Y362314D01*
X232125Y362241D01*
X232177Y362165D01*
X232184Y362161D01*
X232189Y362154D01*
X232267Y362107D01*
X232344Y362058D01*
X232353Y362057D01*
X232360Y362052D01*
X232524Y362025D01*
X317476Y362025D01*
X317484Y362026D01*
G37*
%LPC*%
G36*
X539053Y907713D02*
X539053Y907713D01*
X538937Y907829D01*
X538926Y907836D01*
X538919Y907846D01*
X538844Y907891D01*
X538771Y907939D01*
X538759Y907941D01*
X538748Y907948D01*
X538584Y907975D01*
X489161Y907975D01*
X487975Y909161D01*
X487975Y980839D01*
X489161Y982025D01*
X528584Y982025D01*
X528596Y982027D01*
X528609Y982025D01*
X528693Y982047D01*
X528779Y982064D01*
X528789Y982071D01*
X528801Y982075D01*
X528937Y982171D01*
X529053Y982287D01*
X560947Y982287D01*
X562287Y980947D01*
X562287Y909053D01*
X560947Y907713D01*
X539053Y907713D01*
G37*
%LPD*%
G36*
X538596Y912027D02*
X538596Y912027D01*
X538609Y912025D01*
X538693Y912047D01*
X538779Y912064D01*
X538789Y912071D01*
X538801Y912075D01*
X538937Y912171D01*
X539053Y912287D01*
X557214Y912287D01*
X557222Y912288D01*
X557231Y912287D01*
X557319Y912308D01*
X557409Y912326D01*
X557416Y912331D01*
X557424Y912333D01*
X557497Y912387D01*
X557573Y912439D01*
X557577Y912446D01*
X557584Y912451D01*
X557631Y912529D01*
X557680Y912606D01*
X557681Y912615D01*
X557686Y912622D01*
X557713Y912786D01*
X557713Y977214D01*
X557712Y977222D01*
X557713Y977231D01*
X557692Y977319D01*
X557674Y977409D01*
X557669Y977416D01*
X557667Y977424D01*
X557613Y977497D01*
X557561Y977573D01*
X557554Y977577D01*
X557549Y977584D01*
X557471Y977631D01*
X557394Y977680D01*
X557385Y977681D01*
X557378Y977686D01*
X557214Y977713D01*
X529053Y977713D01*
X528937Y977829D01*
X528926Y977836D01*
X528919Y977846D01*
X528844Y977891D01*
X528771Y977939D01*
X528759Y977941D01*
X528748Y977948D01*
X528584Y977975D01*
X492524Y977975D01*
X492516Y977974D01*
X492507Y977975D01*
X492419Y977954D01*
X492329Y977936D01*
X492322Y977931D01*
X492314Y977929D01*
X492241Y977875D01*
X492165Y977823D01*
X492161Y977816D01*
X492154Y977811D01*
X492107Y977733D01*
X492058Y977656D01*
X492057Y977647D01*
X492052Y977640D01*
X492025Y977476D01*
X492025Y912524D01*
X492026Y912516D01*
X492025Y912507D01*
X492046Y912418D01*
X492064Y912329D01*
X492069Y912322D01*
X492071Y912314D01*
X492125Y912241D01*
X492177Y912165D01*
X492184Y912161D01*
X492189Y912154D01*
X492267Y912107D01*
X492344Y912058D01*
X492353Y912057D01*
X492360Y912052D01*
X492524Y912025D01*
X538584Y912025D01*
X538596Y912027D01*
G37*
%LPC*%
G36*
X342689Y897295D02*
X342689Y897295D01*
X338056Y899214D01*
X334510Y902760D01*
X332591Y907393D01*
X332591Y912407D01*
X334510Y917040D01*
X338056Y920586D01*
X341805Y922139D01*
X341809Y922141D01*
X341813Y922142D01*
X341891Y922197D01*
X341970Y922250D01*
X341972Y922253D01*
X341976Y922256D01*
X342027Y922337D01*
X342079Y922417D01*
X342079Y922421D01*
X342082Y922424D01*
X342097Y922518D01*
X342113Y922612D01*
X342112Y922617D01*
X342113Y922621D01*
X342090Y922712D01*
X342069Y922806D01*
X342066Y922810D01*
X342065Y922814D01*
X342008Y922890D01*
X341952Y922967D01*
X341949Y922969D01*
X341946Y922973D01*
X341805Y923061D01*
X338056Y924614D01*
X334510Y928160D01*
X332591Y932793D01*
X332591Y937807D01*
X334510Y942440D01*
X338056Y945986D01*
X341805Y947539D01*
X341809Y947541D01*
X341813Y947542D01*
X341891Y947597D01*
X341970Y947650D01*
X341972Y947653D01*
X341976Y947656D01*
X342027Y947737D01*
X342079Y947817D01*
X342079Y947821D01*
X342082Y947824D01*
X342097Y947918D01*
X342113Y948012D01*
X342112Y948016D01*
X342113Y948021D01*
X342090Y948112D01*
X342069Y948206D01*
X342066Y948210D01*
X342065Y948214D01*
X342008Y948290D01*
X341952Y948367D01*
X341949Y948369D01*
X341946Y948373D01*
X341805Y948461D01*
X338056Y950014D01*
X334510Y953560D01*
X332591Y958193D01*
X332591Y963207D01*
X334510Y967840D01*
X338056Y971386D01*
X342689Y973305D01*
X360911Y973305D01*
X365544Y971386D01*
X369090Y967840D01*
X371009Y963207D01*
X371009Y958193D01*
X369090Y953560D01*
X365544Y950014D01*
X361795Y948461D01*
X361791Y948459D01*
X361787Y948458D01*
X361709Y948403D01*
X361630Y948350D01*
X361628Y948347D01*
X361624Y948344D01*
X361573Y948263D01*
X361521Y948183D01*
X361521Y948179D01*
X361518Y948176D01*
X361503Y948082D01*
X361487Y947988D01*
X361488Y947983D01*
X361487Y947979D01*
X361510Y947888D01*
X361531Y947794D01*
X361534Y947790D01*
X361535Y947786D01*
X361592Y947710D01*
X361648Y947633D01*
X361651Y947631D01*
X361654Y947627D01*
X361795Y947539D01*
X365544Y945986D01*
X369090Y942440D01*
X371009Y937807D01*
X371009Y932793D01*
X369090Y928160D01*
X365544Y924614D01*
X361795Y923061D01*
X361791Y923059D01*
X361787Y923058D01*
X361709Y923003D01*
X361630Y922950D01*
X361628Y922947D01*
X361624Y922944D01*
X361573Y922863D01*
X361521Y922783D01*
X361521Y922779D01*
X361518Y922776D01*
X361503Y922682D01*
X361487Y922588D01*
X361488Y922584D01*
X361487Y922579D01*
X361510Y922488D01*
X361531Y922394D01*
X361534Y922390D01*
X361535Y922386D01*
X361592Y922310D01*
X361648Y922233D01*
X361651Y922231D01*
X361654Y922227D01*
X361795Y922139D01*
X365544Y920586D01*
X369090Y917040D01*
X371009Y912407D01*
X371009Y907393D01*
X369090Y902760D01*
X365544Y899214D01*
X360911Y897295D01*
X342689Y897295D01*
G37*
%LPD*%
%LPC*%
G36*
X291889Y897295D02*
X291889Y897295D01*
X287256Y899214D01*
X283710Y902760D01*
X281791Y907393D01*
X281791Y912407D01*
X283710Y917040D01*
X287256Y920586D01*
X291005Y922139D01*
X291009Y922141D01*
X291013Y922142D01*
X291091Y922197D01*
X291170Y922250D01*
X291172Y922253D01*
X291176Y922256D01*
X291227Y922337D01*
X291279Y922417D01*
X291279Y922421D01*
X291282Y922424D01*
X291297Y922518D01*
X291313Y922612D01*
X291312Y922617D01*
X291313Y922621D01*
X291290Y922712D01*
X291269Y922806D01*
X291266Y922810D01*
X291265Y922814D01*
X291208Y922890D01*
X291152Y922967D01*
X291149Y922969D01*
X291146Y922973D01*
X291005Y923061D01*
X287256Y924614D01*
X283710Y928160D01*
X281791Y932793D01*
X281791Y937807D01*
X283710Y942440D01*
X287256Y945986D01*
X291005Y947539D01*
X291009Y947541D01*
X291013Y947542D01*
X291091Y947597D01*
X291170Y947650D01*
X291172Y947653D01*
X291176Y947656D01*
X291227Y947737D01*
X291279Y947817D01*
X291279Y947821D01*
X291282Y947824D01*
X291297Y947918D01*
X291313Y948012D01*
X291312Y948017D01*
X291313Y948021D01*
X291290Y948112D01*
X291269Y948206D01*
X291266Y948210D01*
X291265Y948214D01*
X291208Y948290D01*
X291152Y948367D01*
X291149Y948369D01*
X291146Y948373D01*
X291005Y948461D01*
X287256Y950014D01*
X283710Y953560D01*
X281791Y958193D01*
X281791Y963207D01*
X283710Y967840D01*
X287256Y971386D01*
X291889Y973305D01*
X310111Y973305D01*
X314744Y971386D01*
X318290Y967840D01*
X320209Y963207D01*
X320209Y958193D01*
X318290Y953560D01*
X314744Y950014D01*
X310995Y948461D01*
X310991Y948459D01*
X310987Y948458D01*
X310909Y948403D01*
X310830Y948350D01*
X310828Y948347D01*
X310824Y948344D01*
X310773Y948263D01*
X310721Y948183D01*
X310721Y948179D01*
X310718Y948176D01*
X310703Y948082D01*
X310687Y947988D01*
X310688Y947984D01*
X310687Y947979D01*
X310710Y947888D01*
X310731Y947794D01*
X310734Y947790D01*
X310735Y947786D01*
X310792Y947710D01*
X310848Y947633D01*
X310851Y947631D01*
X310854Y947627D01*
X310995Y947539D01*
X314744Y945986D01*
X318290Y942440D01*
X320209Y937807D01*
X320209Y932793D01*
X318290Y928160D01*
X314744Y924614D01*
X310995Y923061D01*
X310991Y923059D01*
X310987Y923058D01*
X310909Y923003D01*
X310830Y922950D01*
X310828Y922947D01*
X310824Y922944D01*
X310773Y922863D01*
X310721Y922783D01*
X310721Y922779D01*
X310718Y922776D01*
X310703Y922682D01*
X310687Y922588D01*
X310688Y922584D01*
X310687Y922579D01*
X310710Y922488D01*
X310731Y922394D01*
X310734Y922390D01*
X310735Y922386D01*
X310792Y922310D01*
X310848Y922233D01*
X310851Y922231D01*
X310854Y922227D01*
X310995Y922139D01*
X314744Y920586D01*
X318290Y917040D01*
X320209Y912407D01*
X320209Y907393D01*
X318290Y902760D01*
X314744Y899214D01*
X310111Y897295D01*
X291889Y897295D01*
G37*
%LPD*%
%LPC*%
G36*
X208270Y896999D02*
X208270Y896999D01*
X201379Y899854D01*
X196104Y905129D01*
X193249Y912020D01*
X193249Y944980D01*
X196104Y951871D01*
X201379Y957146D01*
X208270Y960001D01*
X215730Y960001D01*
X222621Y957146D01*
X227896Y951871D01*
X230751Y944980D01*
X230751Y912020D01*
X227896Y905129D01*
X222621Y899854D01*
X215730Y896999D01*
X208270Y896999D01*
G37*
%LPD*%
%LPC*%
G36*
X546470Y366999D02*
X546470Y366999D01*
X539579Y369854D01*
X534304Y375129D01*
X531449Y382020D01*
X531449Y414980D01*
X534304Y421871D01*
X539579Y427146D01*
X546470Y430001D01*
X553930Y430001D01*
X560821Y427146D01*
X566096Y421871D01*
X568951Y414980D01*
X568951Y382020D01*
X566096Y375129D01*
X560821Y369854D01*
X553930Y366999D01*
X546470Y366999D01*
G37*
%LPD*%
%LPC*%
G36*
X506870Y366999D02*
X506870Y366999D01*
X499979Y369854D01*
X494704Y375129D01*
X491849Y382020D01*
X491849Y414980D01*
X494704Y421871D01*
X499979Y427146D01*
X506870Y430001D01*
X514330Y430001D01*
X521221Y427146D01*
X526496Y421871D01*
X529351Y414980D01*
X529351Y382020D01*
X526496Y375129D01*
X521221Y369854D01*
X514330Y366999D01*
X506870Y366999D01*
G37*
%LPD*%
%LPC*%
G36*
X582020Y695349D02*
X582020Y695349D01*
X575129Y698204D01*
X569854Y703479D01*
X566999Y710370D01*
X566999Y717830D01*
X569854Y724721D01*
X575129Y729996D01*
X582020Y732851D01*
X614980Y732851D01*
X621871Y729996D01*
X627146Y724721D01*
X630001Y717830D01*
X630001Y710370D01*
X627146Y703479D01*
X621871Y698204D01*
X614980Y695349D01*
X582020Y695349D01*
G37*
%LPD*%
%LPC*%
G36*
X412020Y943549D02*
X412020Y943549D01*
X405129Y946404D01*
X399854Y951679D01*
X396999Y958570D01*
X396999Y966030D01*
X399854Y972921D01*
X405129Y978196D01*
X412020Y981051D01*
X444980Y981051D01*
X451871Y978196D01*
X457146Y972921D01*
X460001Y966030D01*
X460001Y958570D01*
X457146Y951679D01*
X451871Y946404D01*
X444980Y943549D01*
X412020Y943549D01*
G37*
%LPD*%
%LPC*%
G36*
X582020Y734949D02*
X582020Y734949D01*
X575129Y737804D01*
X569854Y743079D01*
X566999Y749970D01*
X566999Y757430D01*
X569854Y764321D01*
X575129Y769596D01*
X582020Y772451D01*
X614980Y772451D01*
X621871Y769596D01*
X627146Y764321D01*
X630001Y757430D01*
X630001Y749970D01*
X627146Y743079D01*
X621871Y737804D01*
X614980Y734949D01*
X582020Y734949D01*
G37*
%LPD*%
%LPC*%
G36*
X445071Y853279D02*
X445071Y853279D01*
X440064Y855353D01*
X437055Y858363D01*
X437048Y858367D01*
X437043Y858374D01*
X436966Y858422D01*
X436889Y858472D01*
X436881Y858474D01*
X436874Y858478D01*
X436784Y858492D01*
X436694Y858509D01*
X436685Y858507D01*
X436677Y858508D01*
X436589Y858486D01*
X436499Y858466D01*
X436493Y858461D01*
X436484Y858459D01*
X436349Y858363D01*
X434649Y856663D01*
X432444Y855749D01*
X413556Y855749D01*
X411351Y856663D01*
X409663Y858351D01*
X408749Y860556D01*
X408749Y879444D01*
X409663Y881649D01*
X411351Y883337D01*
X413556Y884251D01*
X432444Y884251D01*
X434649Y883337D01*
X436337Y881649D01*
X437251Y879444D01*
X437251Y876839D01*
X437252Y876835D01*
X437251Y876830D01*
X437271Y876737D01*
X437290Y876644D01*
X437293Y876640D01*
X437294Y876636D01*
X437349Y876558D01*
X437403Y876480D01*
X437406Y876478D01*
X437409Y876474D01*
X437490Y876424D01*
X437570Y876373D01*
X437575Y876372D01*
X437578Y876370D01*
X437672Y876356D01*
X437767Y876340D01*
X437771Y876341D01*
X437775Y876340D01*
X437867Y876364D01*
X437960Y876386D01*
X437963Y876388D01*
X437967Y876389D01*
X438103Y876486D01*
X440064Y878447D01*
X445071Y880521D01*
X465729Y880521D01*
X470736Y878447D01*
X474567Y874616D01*
X476641Y869609D01*
X476641Y864191D01*
X474567Y859184D01*
X470736Y855353D01*
X465729Y853279D01*
X445071Y853279D01*
G37*
%LPD*%
%LPC*%
G36*
X462774Y657967D02*
X462774Y657967D01*
X460569Y658881D01*
X458881Y660569D01*
X457967Y662774D01*
X457967Y677226D01*
X458881Y679431D01*
X460569Y681119D01*
X462774Y682033D01*
X469097Y682033D01*
X469109Y682035D01*
X469122Y682033D01*
X469206Y682055D01*
X469292Y682072D01*
X469302Y682079D01*
X469314Y682083D01*
X469450Y682179D01*
X474901Y687630D01*
X478210Y689001D01*
X521777Y689001D01*
X521789Y689003D01*
X521802Y689001D01*
X521886Y689023D01*
X521972Y689040D01*
X521982Y689047D01*
X521995Y689051D01*
X522130Y689147D01*
X523184Y690201D01*
X527607Y692033D01*
X532393Y692033D01*
X536816Y690201D01*
X540201Y686816D01*
X542033Y682393D01*
X542033Y677607D01*
X540201Y673184D01*
X536816Y669799D01*
X532393Y667967D01*
X527607Y667967D01*
X523184Y669799D01*
X522130Y670853D01*
X522120Y670860D01*
X522112Y670870D01*
X522037Y670915D01*
X521964Y670963D01*
X521952Y670965D01*
X521941Y670972D01*
X521777Y670999D01*
X483935Y670999D01*
X483923Y670997D01*
X483910Y670999D01*
X483826Y670977D01*
X483740Y670960D01*
X483730Y670953D01*
X483718Y670949D01*
X483582Y670853D01*
X482179Y669450D01*
X482172Y669439D01*
X482162Y669432D01*
X482117Y669357D01*
X482069Y669284D01*
X482067Y669272D01*
X482060Y669261D01*
X482033Y669097D01*
X482033Y662774D01*
X481119Y660569D01*
X479431Y658881D01*
X477226Y657967D01*
X462774Y657967D01*
G37*
%LPD*%
%LPC*%
G36*
X16993Y836591D02*
X16993Y836591D01*
X12360Y838510D01*
X8814Y842056D01*
X6895Y846689D01*
X6895Y864911D01*
X8814Y869544D01*
X12360Y873090D01*
X16993Y875009D01*
X22007Y875009D01*
X26640Y873090D01*
X30186Y869544D01*
X31739Y865795D01*
X31741Y865791D01*
X31742Y865787D01*
X31797Y865709D01*
X31850Y865630D01*
X31853Y865628D01*
X31856Y865624D01*
X31937Y865574D01*
X32017Y865521D01*
X32021Y865521D01*
X32024Y865519D01*
X32118Y865503D01*
X32212Y865487D01*
X32216Y865488D01*
X32221Y865487D01*
X32312Y865510D01*
X32406Y865531D01*
X32410Y865534D01*
X32414Y865535D01*
X32490Y865592D01*
X32567Y865648D01*
X32569Y865651D01*
X32573Y865654D01*
X32661Y865795D01*
X34214Y869544D01*
X37760Y873090D01*
X42393Y875009D01*
X47407Y875009D01*
X52040Y873090D01*
X55586Y869544D01*
X57505Y864911D01*
X57505Y846689D01*
X55586Y842056D01*
X52040Y838510D01*
X47407Y836591D01*
X42393Y836591D01*
X37760Y838510D01*
X34214Y842056D01*
X32661Y845805D01*
X32659Y845809D01*
X32658Y845813D01*
X32603Y845891D01*
X32550Y845970D01*
X32547Y845972D01*
X32544Y845976D01*
X32463Y846026D01*
X32383Y846079D01*
X32379Y846079D01*
X32376Y846081D01*
X32282Y846097D01*
X32188Y846113D01*
X32183Y846112D01*
X32179Y846113D01*
X32088Y846090D01*
X31994Y846069D01*
X31990Y846066D01*
X31986Y846065D01*
X31910Y846008D01*
X31833Y845952D01*
X31831Y845949D01*
X31827Y845946D01*
X31739Y845805D01*
X30186Y842056D01*
X26640Y838510D01*
X22007Y836591D01*
X16993Y836591D01*
G37*
%LPD*%
%LPC*%
G36*
X404364Y782644D02*
X404364Y782644D01*
X399125Y784815D01*
X395115Y788825D01*
X392944Y794064D01*
X392944Y799736D01*
X395115Y804975D01*
X399125Y808985D01*
X404081Y811038D01*
X404100Y811052D01*
X404123Y811058D01*
X404182Y811107D01*
X404245Y811149D01*
X404259Y811169D01*
X404277Y811185D01*
X404312Y811252D01*
X404354Y811316D01*
X404358Y811340D01*
X404369Y811361D01*
X404375Y811437D01*
X404389Y811512D01*
X404383Y811535D01*
X404385Y811559D01*
X404361Y811631D01*
X404344Y811706D01*
X404330Y811725D01*
X404323Y811748D01*
X404272Y811805D01*
X404228Y811867D01*
X404207Y811879D01*
X404191Y811897D01*
X404088Y811951D01*
X404057Y811970D01*
X404051Y811971D01*
X404044Y811974D01*
X403056Y812295D01*
X401542Y813067D01*
X400167Y814065D01*
X398965Y815267D01*
X397967Y816642D01*
X397195Y818156D01*
X396670Y819772D01*
X396428Y821301D01*
X406700Y821301D01*
X406708Y821302D01*
X406716Y821301D01*
X406805Y821322D01*
X406895Y821340D01*
X406902Y821345D01*
X406910Y821347D01*
X406983Y821401D01*
X407059Y821453D01*
X407063Y821460D01*
X407070Y821465D01*
X407116Y821543D01*
X407166Y821620D01*
X407167Y821629D01*
X407171Y821636D01*
X407199Y821800D01*
X407199Y822800D01*
X407197Y822808D01*
X407199Y822816D01*
X407178Y822905D01*
X407160Y822995D01*
X407155Y823002D01*
X407153Y823010D01*
X407099Y823083D01*
X407047Y823159D01*
X407040Y823163D01*
X407035Y823170D01*
X406957Y823216D01*
X406879Y823266D01*
X406871Y823267D01*
X406864Y823271D01*
X406700Y823299D01*
X396428Y823299D01*
X396670Y824828D01*
X397195Y826444D01*
X397426Y826896D01*
X397447Y826973D01*
X397474Y827046D01*
X397473Y827068D01*
X397479Y827088D01*
X397469Y827166D01*
X397465Y827245D01*
X397456Y827264D01*
X397453Y827285D01*
X397413Y827353D01*
X397379Y827424D01*
X397362Y827441D01*
X397352Y827457D01*
X397316Y827483D01*
X397258Y827538D01*
X395812Y828503D01*
X395265Y831237D01*
X403742Y832931D01*
X403750Y832935D01*
X403759Y832935D01*
X403842Y832973D01*
X403926Y833008D01*
X403932Y833014D01*
X403939Y833018D01*
X404001Y833085D01*
X404064Y833151D01*
X404067Y833159D01*
X404073Y833165D01*
X404103Y833251D01*
X404137Y833336D01*
X404136Y833345D01*
X404139Y833352D01*
X404134Y833519D01*
X404036Y834010D01*
X404527Y834108D01*
X404535Y834111D01*
X404543Y834111D01*
X404627Y834150D01*
X404710Y834185D01*
X404716Y834191D01*
X404724Y834195D01*
X404785Y834262D01*
X404849Y834327D01*
X404852Y834335D01*
X404858Y834341D01*
X404888Y834428D01*
X404921Y834513D01*
X404921Y834521D01*
X404924Y834529D01*
X404919Y834695D01*
X403225Y843172D01*
X405959Y843719D01*
X410729Y840538D01*
X410782Y840516D01*
X410831Y840486D01*
X410873Y840479D01*
X410913Y840463D01*
X410971Y840463D01*
X411027Y840454D01*
X411069Y840465D01*
X411112Y840465D01*
X411165Y840488D01*
X411220Y840502D01*
X411255Y840528D01*
X411294Y840545D01*
X411333Y840587D01*
X411379Y840621D01*
X411406Y840664D01*
X411431Y840690D01*
X411443Y840722D01*
X411468Y840762D01*
X413277Y845131D01*
X416823Y848677D01*
X421456Y850596D01*
X426470Y850596D01*
X431103Y848677D01*
X434649Y845131D01*
X436568Y840498D01*
X436568Y835484D01*
X434649Y830851D01*
X431103Y827305D01*
X426470Y825386D01*
X421456Y825386D01*
X417941Y826842D01*
X417859Y826858D01*
X417777Y826879D01*
X417762Y826877D01*
X417746Y826880D01*
X417664Y826862D01*
X417580Y826850D01*
X417567Y826842D01*
X417552Y826839D01*
X417483Y826790D01*
X417411Y826746D01*
X417402Y826734D01*
X417389Y826725D01*
X417344Y826653D01*
X417295Y826585D01*
X417291Y826570D01*
X417283Y826556D01*
X417270Y826473D01*
X417251Y826391D01*
X417254Y826374D01*
X417252Y826360D01*
X417262Y826317D01*
X417276Y826226D01*
X417730Y824828D01*
X417972Y823299D01*
X407700Y823299D01*
X407692Y823298D01*
X407684Y823299D01*
X407595Y823278D01*
X407505Y823260D01*
X407498Y823255D01*
X407490Y823253D01*
X407417Y823199D01*
X407341Y823147D01*
X407337Y823140D01*
X407330Y823135D01*
X407284Y823057D01*
X407234Y822980D01*
X407233Y822971D01*
X407229Y822964D01*
X407201Y822800D01*
X407201Y821800D01*
X407202Y821793D01*
X407201Y821787D01*
X407201Y821785D01*
X407201Y821783D01*
X407222Y821695D01*
X407240Y821605D01*
X407245Y821598D01*
X407247Y821590D01*
X407301Y821517D01*
X407353Y821441D01*
X407360Y821437D01*
X407365Y821430D01*
X407443Y821383D01*
X407521Y821334D01*
X407529Y821333D01*
X407536Y821328D01*
X407700Y821301D01*
X417972Y821301D01*
X417730Y819772D01*
X417205Y818156D01*
X416433Y816642D01*
X415435Y815267D01*
X414233Y814065D01*
X412858Y813067D01*
X411344Y812295D01*
X410356Y811974D01*
X410335Y811962D01*
X410312Y811957D01*
X410249Y811914D01*
X410183Y811876D01*
X410169Y811857D01*
X410149Y811844D01*
X410108Y811779D01*
X410062Y811719D01*
X410056Y811695D01*
X410043Y811675D01*
X410031Y811600D01*
X410012Y811526D01*
X410016Y811502D01*
X410012Y811479D01*
X410030Y811405D01*
X410041Y811330D01*
X410054Y811309D01*
X410059Y811286D01*
X410105Y811225D01*
X410145Y811160D01*
X410164Y811146D01*
X410179Y811127D01*
X410277Y811065D01*
X410306Y811044D01*
X410313Y811042D01*
X410319Y811038D01*
X415275Y808985D01*
X419285Y804975D01*
X421456Y799736D01*
X421456Y794064D01*
X419285Y788825D01*
X415275Y784815D01*
X410036Y782644D01*
X404364Y782644D01*
G37*
%LPD*%
%LPC*%
G36*
X606110Y360441D02*
X606110Y360441D01*
X598921Y363419D01*
X593419Y368921D01*
X590441Y376110D01*
X590441Y383890D01*
X593419Y391079D01*
X598921Y396581D01*
X606110Y399559D01*
X613890Y399559D01*
X621079Y396581D01*
X626581Y391079D01*
X629559Y383890D01*
X629559Y376110D01*
X626581Y368921D01*
X621079Y363419D01*
X613890Y360441D01*
X606110Y360441D01*
G37*
%LPD*%
%LPC*%
G36*
X32110Y944441D02*
X32110Y944441D01*
X24921Y947419D01*
X19419Y952921D01*
X16441Y960110D01*
X16441Y967890D01*
X19419Y975079D01*
X24921Y980581D01*
X32110Y983559D01*
X39890Y983559D01*
X47079Y980581D01*
X52581Y975079D01*
X55559Y967890D01*
X55559Y960110D01*
X52581Y952921D01*
X47079Y947419D01*
X39890Y944441D01*
X32110Y944441D01*
G37*
%LPD*%
%LPC*%
G36*
X606110Y940441D02*
X606110Y940441D01*
X598921Y943419D01*
X593419Y948921D01*
X590441Y956110D01*
X590441Y963890D01*
X593419Y971079D01*
X598921Y976581D01*
X606110Y979559D01*
X613890Y979559D01*
X621079Y976581D01*
X626581Y971079D01*
X629559Y963890D01*
X629559Y956110D01*
X626581Y948921D01*
X621079Y943419D01*
X613890Y940441D01*
X606110Y940441D01*
G37*
%LPD*%
%LPC*%
G36*
X424779Y679295D02*
X424779Y679295D01*
X417395Y686679D01*
X417395Y697121D01*
X424779Y704505D01*
X435221Y704505D01*
X439343Y700383D01*
X439347Y700380D01*
X439349Y700377D01*
X439429Y700326D01*
X439509Y700273D01*
X439513Y700272D01*
X439516Y700270D01*
X439610Y700254D01*
X439704Y700237D01*
X439708Y700237D01*
X439713Y700237D01*
X439804Y700259D01*
X439898Y700279D01*
X439902Y700282D01*
X439906Y700283D01*
X439982Y700339D01*
X440061Y700395D01*
X440063Y700398D01*
X440066Y700401D01*
X440115Y700483D01*
X440165Y700564D01*
X440165Y700568D01*
X440168Y700572D01*
X440195Y700736D01*
X440195Y708121D01*
X447579Y715505D01*
X458021Y715505D01*
X465405Y708121D01*
X465405Y697679D01*
X458021Y690295D01*
X447579Y690295D01*
X443457Y694417D01*
X443453Y694420D01*
X443451Y694423D01*
X443371Y694474D01*
X443291Y694527D01*
X443287Y694528D01*
X443284Y694530D01*
X443190Y694546D01*
X443096Y694563D01*
X443092Y694563D01*
X443087Y694563D01*
X442996Y694541D01*
X442902Y694521D01*
X442898Y694518D01*
X442894Y694517D01*
X442818Y694461D01*
X442739Y694405D01*
X442737Y694402D01*
X442734Y694399D01*
X442685Y694317D01*
X442635Y694236D01*
X442635Y694232D01*
X442632Y694228D01*
X442605Y694064D01*
X442605Y686679D01*
X435221Y679295D01*
X424779Y679295D01*
G37*
%LPD*%
%LPC*%
G36*
X601673Y823465D02*
X601673Y823465D01*
X595044Y826211D01*
X589971Y831284D01*
X587225Y837913D01*
X587225Y845087D01*
X589971Y851716D01*
X595044Y856789D01*
X601673Y859535D01*
X608847Y859535D01*
X615476Y856789D01*
X620549Y851716D01*
X623295Y845087D01*
X623295Y837913D01*
X620549Y831284D01*
X615476Y826211D01*
X608847Y823465D01*
X601673Y823465D01*
G37*
%LPD*%
%LPC*%
G36*
X445071Y802479D02*
X445071Y802479D01*
X440064Y804553D01*
X436233Y808384D01*
X434159Y813391D01*
X434159Y818809D01*
X436233Y823816D01*
X440064Y827647D01*
X445071Y829721D01*
X465729Y829721D01*
X470736Y827647D01*
X474567Y823816D01*
X476641Y818809D01*
X476641Y813391D01*
X474567Y808384D01*
X470736Y804553D01*
X465729Y802479D01*
X445071Y802479D01*
G37*
%LPD*%
%LPC*%
G36*
X117243Y876592D02*
X117243Y876592D01*
X107404Y886431D01*
X107404Y900345D01*
X117243Y910184D01*
X131157Y910184D01*
X140996Y900345D01*
X140996Y886431D01*
X131157Y876592D01*
X117243Y876592D01*
G37*
%LPD*%
%LPC*%
G36*
X117243Y941616D02*
X117243Y941616D01*
X107404Y951455D01*
X107404Y965369D01*
X117243Y975208D01*
X131157Y975208D01*
X140996Y965369D01*
X140996Y951455D01*
X131157Y941616D01*
X117243Y941616D01*
G37*
%LPD*%
%LPC*%
G36*
X208607Y547967D02*
X208607Y547967D01*
X204184Y549799D01*
X200799Y553184D01*
X198967Y557607D01*
X198967Y562393D01*
X200799Y566816D01*
X204184Y570201D01*
X208607Y572033D01*
X213393Y572033D01*
X214259Y571674D01*
X214264Y571673D01*
X214267Y571671D01*
X214361Y571654D01*
X214455Y571636D01*
X214459Y571637D01*
X214463Y571636D01*
X214556Y571658D01*
X214649Y571677D01*
X214653Y571680D01*
X214657Y571681D01*
X214734Y571736D01*
X214812Y571791D01*
X214814Y571795D01*
X214818Y571797D01*
X214867Y571878D01*
X214918Y571960D01*
X214918Y571964D01*
X214921Y571967D01*
X214934Y572062D01*
X214949Y572156D01*
X214948Y572160D01*
X214949Y572164D01*
X214912Y572326D01*
X213967Y574607D01*
X213967Y579393D01*
X215799Y583816D01*
X219184Y587201D01*
X223607Y589033D01*
X228393Y589033D01*
X232816Y587201D01*
X236201Y583816D01*
X238033Y579393D01*
X238033Y574607D01*
X236201Y570184D01*
X232816Y566799D01*
X228393Y564967D01*
X223607Y564967D01*
X222741Y565326D01*
X222736Y565327D01*
X222733Y565329D01*
X222639Y565346D01*
X222545Y565364D01*
X222541Y565363D01*
X222537Y565364D01*
X222444Y565342D01*
X222351Y565323D01*
X222347Y565320D01*
X222343Y565319D01*
X222266Y565264D01*
X222188Y565209D01*
X222186Y565205D01*
X222182Y565203D01*
X222133Y565122D01*
X222082Y565040D01*
X222082Y565036D01*
X222079Y565033D01*
X222066Y564938D01*
X222051Y564844D01*
X222052Y564840D01*
X222051Y564836D01*
X222088Y564674D01*
X223033Y562393D01*
X223033Y557607D01*
X221201Y553184D01*
X217816Y549799D01*
X213393Y547967D01*
X208607Y547967D01*
G37*
%LPD*%
%LPC*%
G36*
X574864Y898544D02*
X574864Y898544D01*
X569625Y900715D01*
X565615Y904725D01*
X563444Y909964D01*
X563444Y915636D01*
X565615Y920875D01*
X569625Y924885D01*
X574864Y927056D01*
X580536Y927056D01*
X585775Y924885D01*
X589785Y920875D01*
X591838Y915919D01*
X591852Y915900D01*
X591858Y915876D01*
X591907Y915818D01*
X591949Y915755D01*
X591970Y915741D01*
X591985Y915723D01*
X592052Y915688D01*
X592116Y915646D01*
X592140Y915642D01*
X592161Y915631D01*
X592237Y915625D01*
X592312Y915611D01*
X592335Y915617D01*
X592359Y915615D01*
X592431Y915639D01*
X592506Y915656D01*
X592525Y915670D01*
X592548Y915677D01*
X592605Y915728D01*
X592667Y915772D01*
X592679Y915793D01*
X592697Y915809D01*
X592751Y915912D01*
X592770Y915943D01*
X592771Y915949D01*
X592774Y915956D01*
X593095Y916944D01*
X593867Y918458D01*
X594865Y919833D01*
X596067Y921035D01*
X597442Y922033D01*
X598956Y922805D01*
X600572Y923330D01*
X602101Y923572D01*
X602101Y913300D01*
X602102Y913292D01*
X602101Y913284D01*
X602122Y913195D01*
X602140Y913105D01*
X602145Y913098D01*
X602147Y913090D01*
X602201Y913017D01*
X602253Y912941D01*
X602260Y912937D01*
X602265Y912930D01*
X602343Y912884D01*
X602420Y912834D01*
X602429Y912833D01*
X602436Y912829D01*
X602600Y912801D01*
X603101Y912801D01*
X603101Y912799D01*
X602600Y912799D01*
X602592Y912797D01*
X602583Y912799D01*
X602495Y912778D01*
X602405Y912760D01*
X602398Y912755D01*
X602390Y912753D01*
X602317Y912699D01*
X602241Y912647D01*
X602237Y912640D01*
X602230Y912635D01*
X602183Y912557D01*
X602134Y912479D01*
X602133Y912471D01*
X602128Y912464D01*
X602101Y912300D01*
X602101Y902028D01*
X600572Y902270D01*
X598956Y902795D01*
X597442Y903567D01*
X596067Y904565D01*
X594865Y905767D01*
X593867Y907142D01*
X593095Y908656D01*
X592774Y909644D01*
X592762Y909665D01*
X592757Y909688D01*
X592714Y909751D01*
X592676Y909817D01*
X592657Y909831D01*
X592644Y909851D01*
X592579Y909892D01*
X592519Y909938D01*
X592495Y909944D01*
X592475Y909957D01*
X592400Y909969D01*
X592326Y909988D01*
X592302Y909985D01*
X592279Y909988D01*
X592205Y909970D01*
X592130Y909959D01*
X592109Y909946D01*
X592086Y909941D01*
X592025Y909895D01*
X591960Y909855D01*
X591946Y909836D01*
X591927Y909822D01*
X591865Y909723D01*
X591844Y909694D01*
X591842Y909687D01*
X591838Y909681D01*
X589785Y904725D01*
X585775Y900715D01*
X580536Y898544D01*
X574864Y898544D01*
G37*
%LPD*%
%LPC*%
G36*
X495493Y729035D02*
X495493Y729035D01*
X490860Y730954D01*
X487314Y734500D01*
X485395Y739133D01*
X485395Y744147D01*
X487314Y748780D01*
X490860Y752326D01*
X492886Y753165D01*
X492891Y753169D01*
X492898Y753170D01*
X492974Y753224D01*
X493051Y753276D01*
X493054Y753281D01*
X493060Y753285D01*
X493108Y753364D01*
X493159Y753443D01*
X493161Y753449D01*
X493164Y753454D01*
X493178Y753546D01*
X493194Y753639D01*
X493193Y753645D01*
X493194Y753651D01*
X493171Y753741D01*
X493150Y753832D01*
X493146Y753838D01*
X493145Y753844D01*
X493048Y753979D01*
X488855Y758172D01*
X488855Y760961D01*
X497500Y760961D01*
X497508Y760962D01*
X497516Y760961D01*
X497605Y760982D01*
X497695Y761000D01*
X497702Y761005D01*
X497710Y761007D01*
X497783Y761061D01*
X497859Y761113D01*
X497863Y761120D01*
X497870Y761125D01*
X497916Y761203D01*
X497966Y761280D01*
X497967Y761289D01*
X497971Y761296D01*
X497999Y761460D01*
X497999Y761961D01*
X498001Y761961D01*
X498001Y761460D01*
X498003Y761452D01*
X498001Y761443D01*
X498022Y761354D01*
X498040Y761265D01*
X498045Y761258D01*
X498047Y761250D01*
X498101Y761177D01*
X498153Y761101D01*
X498160Y761097D01*
X498165Y761090D01*
X498243Y761043D01*
X498321Y760994D01*
X498329Y760993D01*
X498336Y760988D01*
X498500Y760961D01*
X507145Y760961D01*
X507145Y758172D01*
X502952Y753979D01*
X502948Y753974D01*
X502943Y753970D01*
X502894Y753891D01*
X502842Y753813D01*
X502841Y753807D01*
X502838Y753802D01*
X502823Y753710D01*
X502806Y753618D01*
X502807Y753612D01*
X502806Y753606D01*
X502828Y753516D01*
X502849Y753424D01*
X502852Y753419D01*
X502854Y753413D01*
X502910Y753338D01*
X502964Y753262D01*
X502969Y753258D01*
X502973Y753253D01*
X503114Y753165D01*
X505140Y752326D01*
X508686Y748780D01*
X510605Y744147D01*
X510605Y739133D01*
X508686Y734500D01*
X505140Y730954D01*
X500507Y729035D01*
X495493Y729035D01*
G37*
%LPD*%
%LPC*%
G36*
X424779Y755495D02*
X424779Y755495D01*
X417395Y762879D01*
X417395Y773321D01*
X424779Y780705D01*
X435221Y780705D01*
X442605Y773321D01*
X442605Y762879D01*
X435221Y755495D01*
X424779Y755495D01*
G37*
%LPD*%
%LPC*%
G36*
X89879Y785095D02*
X89879Y785095D01*
X82495Y792479D01*
X82495Y802921D01*
X89879Y810305D01*
X100321Y810305D01*
X107705Y802921D01*
X107705Y792479D01*
X100321Y785095D01*
X89879Y785095D01*
G37*
%LPD*%
%LPC*%
G36*
X397579Y729895D02*
X397579Y729895D01*
X390195Y737279D01*
X390195Y747721D01*
X397579Y755105D01*
X408021Y755105D01*
X415405Y747721D01*
X415405Y737279D01*
X408021Y729895D01*
X397579Y729895D01*
G37*
%LPD*%
%LPC*%
G36*
X429499Y923699D02*
X429499Y923699D01*
X429499Y937991D01*
X442453Y937991D01*
X444831Y937614D01*
X447120Y936870D01*
X449264Y935778D01*
X451211Y934363D01*
X452913Y932661D01*
X454328Y930714D01*
X455420Y928570D01*
X456164Y926281D01*
X456541Y923903D01*
X456541Y923699D01*
X429499Y923699D01*
G37*
%LPD*%
%LPC*%
G36*
X252599Y929499D02*
X252599Y929499D01*
X252599Y956541D01*
X252803Y956541D01*
X255181Y956164D01*
X257470Y955420D01*
X259614Y954328D01*
X261561Y952913D01*
X263263Y951211D01*
X264678Y949264D01*
X265770Y947120D01*
X266514Y944831D01*
X266891Y942453D01*
X266891Y929499D01*
X252599Y929499D01*
G37*
%LPD*%
%LPC*%
G36*
X252599Y900459D02*
X252599Y900459D01*
X252599Y927501D01*
X266891Y927501D01*
X266891Y914547D01*
X266514Y912169D01*
X265770Y909880D01*
X264678Y907736D01*
X263263Y905789D01*
X261561Y904087D01*
X259614Y902672D01*
X257470Y901580D01*
X255181Y900836D01*
X252803Y900459D01*
X252599Y900459D01*
G37*
%LPD*%
%LPC*%
G36*
X400459Y923699D02*
X400459Y923699D01*
X400459Y923903D01*
X400836Y926281D01*
X401580Y928570D01*
X402672Y930714D01*
X404087Y932661D01*
X405789Y934363D01*
X407736Y935778D01*
X409880Y936870D01*
X412169Y937614D01*
X414547Y937991D01*
X427501Y937991D01*
X427501Y923699D01*
X400459Y923699D01*
G37*
%LPD*%
%LPC*%
G36*
X429499Y907409D02*
X429499Y907409D01*
X429499Y921701D01*
X456541Y921701D01*
X456541Y921497D01*
X456164Y919119D01*
X455420Y916830D01*
X454328Y914686D01*
X452913Y912739D01*
X451211Y911037D01*
X449264Y909622D01*
X447120Y908530D01*
X444831Y907786D01*
X442453Y907409D01*
X429499Y907409D01*
G37*
%LPD*%
%LPC*%
G36*
X236309Y929499D02*
X236309Y929499D01*
X236309Y942453D01*
X236686Y944831D01*
X237430Y947120D01*
X238522Y949264D01*
X239937Y951211D01*
X241639Y952913D01*
X243586Y954328D01*
X245730Y955420D01*
X248019Y956164D01*
X250397Y956541D01*
X250601Y956541D01*
X250601Y929499D01*
X236309Y929499D01*
G37*
%LPD*%
%LPC*%
G36*
X414547Y907409D02*
X414547Y907409D01*
X412169Y907786D01*
X409880Y908530D01*
X407736Y909622D01*
X405789Y911037D01*
X404087Y912739D01*
X402672Y914686D01*
X401580Y916830D01*
X400836Y919119D01*
X400459Y921497D01*
X400459Y921701D01*
X427501Y921701D01*
X427501Y907409D01*
X414547Y907409D01*
G37*
%LPD*%
%LPC*%
G36*
X250397Y900459D02*
X250397Y900459D01*
X248019Y900836D01*
X245730Y901580D01*
X243586Y902672D01*
X241639Y904087D01*
X239937Y905789D01*
X238522Y907736D01*
X237430Y909880D01*
X236686Y912169D01*
X236309Y914547D01*
X236309Y927501D01*
X250601Y927501D01*
X250601Y900459D01*
X250397Y900459D01*
G37*
%LPD*%
%LPC*%
G36*
X42999Y597899D02*
X42999Y597899D01*
X42999Y607061D01*
X50420Y607061D01*
X51999Y606811D01*
X53520Y606316D01*
X54945Y605590D01*
X56239Y604650D01*
X57370Y603519D01*
X58310Y602225D01*
X59036Y600800D01*
X59531Y599279D01*
X59749Y597899D01*
X42999Y597899D01*
G37*
%LPD*%
%LPC*%
G36*
X456399Y842499D02*
X456399Y842499D01*
X456399Y851661D01*
X463820Y851661D01*
X465399Y851411D01*
X466920Y850916D01*
X468345Y850190D01*
X469639Y849250D01*
X470770Y848119D01*
X471710Y846825D01*
X472436Y845400D01*
X472931Y843879D01*
X473149Y842499D01*
X456399Y842499D01*
G37*
%LPD*%
%LPC*%
G36*
X20999Y383699D02*
X20999Y383699D01*
X20999Y392861D01*
X28420Y392861D01*
X29999Y392611D01*
X31520Y392116D01*
X32945Y391390D01*
X34239Y390450D01*
X35370Y389319D01*
X36310Y388025D01*
X37036Y386600D01*
X37531Y385079D01*
X37749Y383699D01*
X20999Y383699D01*
G37*
%LPD*%
%LPC*%
G36*
X580299Y477899D02*
X580299Y477899D01*
X580299Y487061D01*
X587720Y487061D01*
X589299Y486811D01*
X590820Y486316D01*
X592245Y485590D01*
X593539Y484650D01*
X594670Y483519D01*
X595610Y482225D01*
X596336Y480800D01*
X596831Y479279D01*
X597049Y477899D01*
X580299Y477899D01*
G37*
%LPD*%
%LPC*%
G36*
X580299Y604899D02*
X580299Y604899D01*
X580299Y614061D01*
X587720Y614061D01*
X589299Y613811D01*
X590820Y613316D01*
X592245Y612590D01*
X593539Y611650D01*
X594670Y610519D01*
X595610Y609225D01*
X596336Y607800D01*
X596831Y606279D01*
X597049Y604899D01*
X580299Y604899D01*
G37*
%LPD*%
%LPC*%
G36*
X436199Y477899D02*
X436199Y477899D01*
X436199Y487061D01*
X443620Y487061D01*
X445199Y486811D01*
X446720Y486316D01*
X448145Y485590D01*
X449439Y484650D01*
X450570Y483519D01*
X451510Y482225D01*
X452236Y480800D01*
X452731Y479279D01*
X452949Y477899D01*
X436199Y477899D01*
G37*
%LPD*%
%LPC*%
G36*
X417451Y477899D02*
X417451Y477899D01*
X417669Y479279D01*
X418164Y480800D01*
X418890Y482225D01*
X419830Y483519D01*
X420961Y484650D01*
X422255Y485590D01*
X423680Y486316D01*
X425201Y486811D01*
X426780Y487061D01*
X434201Y487061D01*
X434201Y477899D01*
X417451Y477899D01*
G37*
%LPD*%
%LPC*%
G36*
X561551Y604899D02*
X561551Y604899D01*
X561769Y606279D01*
X562264Y607800D01*
X562990Y609225D01*
X563930Y610519D01*
X565061Y611650D01*
X566355Y612590D01*
X567780Y613316D01*
X569301Y613811D01*
X570880Y614061D01*
X578301Y614061D01*
X578301Y604899D01*
X561551Y604899D01*
G37*
%LPD*%
%LPC*%
G36*
X437651Y842499D02*
X437651Y842499D01*
X437869Y843879D01*
X438364Y845400D01*
X439090Y846825D01*
X440030Y848119D01*
X441161Y849250D01*
X442455Y850190D01*
X443880Y850916D01*
X445401Y851411D01*
X446980Y851661D01*
X454401Y851661D01*
X454401Y842499D01*
X437651Y842499D01*
G37*
%LPD*%
%LPC*%
G36*
X561551Y477899D02*
X561551Y477899D01*
X561769Y479279D01*
X562264Y480800D01*
X562990Y482225D01*
X563930Y483519D01*
X565061Y484650D01*
X566355Y485590D01*
X567780Y486316D01*
X569301Y486811D01*
X570880Y487061D01*
X578301Y487061D01*
X578301Y477899D01*
X561551Y477899D01*
G37*
%LPD*%
%LPC*%
G36*
X456399Y831339D02*
X456399Y831339D01*
X456399Y840501D01*
X473149Y840501D01*
X472931Y839121D01*
X472436Y837600D01*
X471710Y836175D01*
X470770Y834881D01*
X469639Y833750D01*
X468345Y832810D01*
X466920Y832084D01*
X465399Y831589D01*
X463820Y831339D01*
X456399Y831339D01*
G37*
%LPD*%
%LPC*%
G36*
X42999Y586739D02*
X42999Y586739D01*
X42999Y595901D01*
X59749Y595901D01*
X59531Y594521D01*
X59036Y593000D01*
X58310Y591575D01*
X57370Y590281D01*
X56239Y589150D01*
X54945Y588210D01*
X53520Y587484D01*
X51999Y586989D01*
X50420Y586739D01*
X42999Y586739D01*
G37*
%LPD*%
%LPC*%
G36*
X436199Y466739D02*
X436199Y466739D01*
X436199Y475901D01*
X452949Y475901D01*
X452731Y474521D01*
X452236Y473000D01*
X451510Y471575D01*
X450570Y470281D01*
X449439Y469150D01*
X448145Y468210D01*
X446720Y467484D01*
X445199Y466989D01*
X443620Y466739D01*
X436199Y466739D01*
G37*
%LPD*%
%LPC*%
G36*
X580299Y466739D02*
X580299Y466739D01*
X580299Y475901D01*
X597049Y475901D01*
X596831Y474521D01*
X596336Y473000D01*
X595610Y471575D01*
X594670Y470281D01*
X593539Y469150D01*
X592245Y468210D01*
X590820Y467484D01*
X589299Y466989D01*
X587720Y466739D01*
X580299Y466739D01*
G37*
%LPD*%
%LPC*%
G36*
X580299Y593739D02*
X580299Y593739D01*
X580299Y602901D01*
X597049Y602901D01*
X596831Y601521D01*
X596336Y600000D01*
X595610Y598575D01*
X594670Y597281D01*
X593539Y596150D01*
X592245Y595210D01*
X590820Y594484D01*
X589299Y593989D01*
X587720Y593739D01*
X580299Y593739D01*
G37*
%LPD*%
%LPC*%
G36*
X20999Y372539D02*
X20999Y372539D01*
X20999Y381701D01*
X37749Y381701D01*
X37531Y380321D01*
X37036Y378800D01*
X36310Y377375D01*
X35370Y376081D01*
X34239Y374950D01*
X32945Y374010D01*
X31520Y373284D01*
X29999Y372789D01*
X28420Y372539D01*
X20999Y372539D01*
G37*
%LPD*%
%LPC*%
G36*
X446980Y831339D02*
X446980Y831339D01*
X445401Y831589D01*
X443880Y832084D01*
X442455Y832810D01*
X441161Y833750D01*
X440030Y834881D01*
X439090Y836175D01*
X438364Y837600D01*
X437869Y839121D01*
X437651Y840501D01*
X454401Y840501D01*
X454401Y831339D01*
X446980Y831339D01*
G37*
%LPD*%
%LPC*%
G36*
X570880Y593739D02*
X570880Y593739D01*
X569301Y593989D01*
X567780Y594484D01*
X566355Y595210D01*
X565061Y596150D01*
X563930Y597281D01*
X562990Y598575D01*
X562264Y600000D01*
X561769Y601521D01*
X561551Y602901D01*
X578301Y602901D01*
X578301Y593739D01*
X570880Y593739D01*
G37*
%LPD*%
%LPC*%
G36*
X570880Y466739D02*
X570880Y466739D01*
X569301Y466989D01*
X567780Y467484D01*
X566355Y468210D01*
X565061Y469150D01*
X563930Y470281D01*
X562990Y471575D01*
X562264Y473000D01*
X561769Y474521D01*
X561551Y475901D01*
X578301Y475901D01*
X578301Y466739D01*
X570880Y466739D01*
G37*
%LPD*%
%LPC*%
G36*
X426780Y466739D02*
X426780Y466739D01*
X425201Y466989D01*
X423680Y467484D01*
X422255Y468210D01*
X420961Y469150D01*
X419830Y470281D01*
X418890Y471575D01*
X418164Y473000D01*
X417669Y474521D01*
X417451Y475901D01*
X434201Y475901D01*
X434201Y466739D01*
X426780Y466739D01*
G37*
%LPD*%
%LPC*%
G36*
X191499Y804499D02*
X191499Y804499D01*
X191499Y821088D01*
X192861Y820873D01*
X194370Y820382D01*
X195783Y819662D01*
X197067Y818729D01*
X198189Y817607D01*
X199122Y816323D01*
X199842Y814910D01*
X200333Y813401D01*
X200581Y811833D01*
X200581Y804499D01*
X191499Y804499D01*
G37*
%LPD*%
%LPC*%
G36*
X191499Y739499D02*
X191499Y739499D01*
X191499Y756088D01*
X192861Y755873D01*
X194370Y755382D01*
X195783Y754662D01*
X197067Y753729D01*
X198189Y752607D01*
X199122Y751323D01*
X199842Y749910D01*
X200333Y748401D01*
X200581Y746833D01*
X200581Y739499D01*
X191499Y739499D01*
G37*
%LPD*%
%LPC*%
G36*
X191499Y802501D02*
X191499Y802501D01*
X200581Y802501D01*
X200581Y795167D01*
X200333Y793599D01*
X199842Y792090D01*
X199122Y790677D01*
X198189Y789393D01*
X197067Y788271D01*
X195783Y787338D01*
X194370Y786618D01*
X192861Y786127D01*
X191499Y785912D01*
X191499Y802501D01*
G37*
%LPD*%
%LPC*%
G36*
X180419Y739499D02*
X180419Y739499D01*
X180419Y746833D01*
X180667Y748401D01*
X181158Y749910D01*
X181878Y751323D01*
X182811Y752607D01*
X183933Y753729D01*
X185217Y754662D01*
X186630Y755382D01*
X188139Y755873D01*
X189501Y756088D01*
X189501Y739499D01*
X180419Y739499D01*
G37*
%LPD*%
%LPC*%
G36*
X188139Y786127D02*
X188139Y786127D01*
X186630Y786618D01*
X185217Y787338D01*
X183933Y788271D01*
X182811Y789393D01*
X181878Y790677D01*
X181158Y792090D01*
X180667Y793599D01*
X180419Y795167D01*
X180419Y802501D01*
X189501Y802501D01*
X189501Y785912D01*
X188139Y786127D01*
G37*
%LPD*%
%LPC*%
G36*
X71299Y856799D02*
X71299Y856799D01*
X71299Y871529D01*
X72967Y871197D01*
X74632Y870508D01*
X76129Y869507D01*
X77403Y868233D01*
X78404Y866736D01*
X79093Y865071D01*
X79445Y863305D01*
X79445Y856799D01*
X71299Y856799D01*
G37*
%LPD*%
%LPC*%
G36*
X71299Y854801D02*
X71299Y854801D01*
X79445Y854801D01*
X79445Y848295D01*
X79093Y846529D01*
X78404Y844864D01*
X77403Y843367D01*
X76129Y842093D01*
X74632Y841092D01*
X72967Y840403D01*
X71299Y840071D01*
X71299Y854801D01*
G37*
%LPD*%
%LPC*%
G36*
X61155Y856799D02*
X61155Y856799D01*
X61155Y863305D01*
X61507Y865071D01*
X62196Y866736D01*
X63197Y868233D01*
X64471Y869507D01*
X65968Y870508D01*
X67633Y871197D01*
X69301Y871529D01*
X69301Y856799D01*
X61155Y856799D01*
G37*
%LPD*%
%LPC*%
G36*
X67633Y840403D02*
X67633Y840403D01*
X65968Y841092D01*
X64471Y842093D01*
X63197Y843367D01*
X62196Y844864D01*
X61507Y846529D01*
X61155Y848295D01*
X61155Y854801D01*
X69301Y854801D01*
X69301Y840071D01*
X67633Y840403D01*
G37*
%LPD*%
%LPC*%
G36*
X351699Y603199D02*
X351699Y603199D01*
X351699Y615201D01*
X359241Y615201D01*
X359241Y609866D01*
X359097Y609329D01*
X359094Y609282D01*
X359081Y609236D01*
X359087Y609173D01*
X359085Y609131D01*
X359094Y609106D01*
X359097Y609071D01*
X359241Y608534D01*
X359241Y603199D01*
X351699Y603199D01*
G37*
%LPD*%
%LPC*%
G36*
X161699Y603199D02*
X161699Y603199D01*
X161699Y615201D01*
X169241Y615201D01*
X169241Y609866D01*
X169097Y609329D01*
X169094Y609282D01*
X169081Y609236D01*
X169087Y609173D01*
X169085Y609131D01*
X169094Y609106D01*
X169097Y609071D01*
X169241Y608534D01*
X169241Y603199D01*
X161699Y603199D01*
G37*
%LPD*%
%LPC*%
G36*
X152159Y603199D02*
X152159Y603199D01*
X152159Y608534D01*
X152303Y609071D01*
X152306Y609118D01*
X152319Y609164D01*
X152313Y609227D01*
X152315Y609269D01*
X152306Y609294D01*
X152303Y609329D01*
X152159Y609866D01*
X152159Y615201D01*
X159701Y615201D01*
X159701Y603199D01*
X152159Y603199D01*
G37*
%LPD*%
%LPC*%
G36*
X342159Y603199D02*
X342159Y603199D01*
X342159Y608534D01*
X342303Y609071D01*
X342306Y609118D01*
X342319Y609164D01*
X342313Y609227D01*
X342315Y609269D01*
X342306Y609294D01*
X342303Y609329D01*
X342159Y609866D01*
X342159Y615201D01*
X349701Y615201D01*
X349701Y603199D01*
X342159Y603199D01*
G37*
%LPD*%
%LPC*%
G36*
X212103Y403494D02*
X212103Y403494D01*
X221871Y403426D01*
X221641Y401972D01*
X221116Y400356D01*
X220345Y398842D01*
X219346Y397467D01*
X218144Y396266D01*
X216770Y395267D01*
X215255Y394495D01*
X213639Y393970D01*
X212035Y393716D01*
X212103Y403494D01*
G37*
%LPD*%
%LPC*%
G36*
X208583Y393970D02*
X208583Y393970D01*
X206967Y394495D01*
X205453Y395267D01*
X204078Y396266D01*
X202877Y397467D01*
X201878Y398842D01*
X201106Y400356D01*
X200581Y401972D01*
X200327Y403576D01*
X210105Y403508D01*
X210037Y393740D01*
X208583Y393970D01*
G37*
%LPD*%
%LPC*%
G36*
X604099Y913799D02*
X604099Y913799D01*
X604099Y923572D01*
X605628Y923330D01*
X607244Y922805D01*
X608758Y922033D01*
X610133Y921035D01*
X611335Y919833D01*
X612333Y918458D01*
X613105Y916944D01*
X613630Y915328D01*
X613872Y913799D01*
X604099Y913799D01*
G37*
%LPD*%
%LPC*%
G36*
X278799Y820101D02*
X278799Y820101D01*
X288572Y820101D01*
X288330Y818572D01*
X287805Y816956D01*
X287033Y815442D01*
X286035Y814067D01*
X284833Y812865D01*
X283458Y811867D01*
X281944Y811095D01*
X280328Y810570D01*
X278799Y810328D01*
X278799Y820101D01*
G37*
%LPD*%
%LPC*%
G36*
X604099Y911801D02*
X604099Y911801D01*
X613872Y911801D01*
X613630Y910272D01*
X613105Y908656D01*
X612333Y907142D01*
X611335Y905767D01*
X610133Y904565D01*
X608758Y903567D01*
X607244Y902795D01*
X605628Y902270D01*
X604099Y902028D01*
X604099Y911801D01*
G37*
%LPD*%
%LPC*%
G36*
X275272Y810570D02*
X275272Y810570D01*
X273656Y811095D01*
X272142Y811867D01*
X270767Y812865D01*
X269565Y814067D01*
X268567Y815442D01*
X267795Y816956D01*
X267270Y818572D01*
X267028Y820101D01*
X276801Y820101D01*
X276801Y810328D01*
X275272Y810570D01*
G37*
%LPD*%
%LPC*%
G36*
X351699Y617199D02*
X351699Y617199D01*
X351699Y624741D01*
X357034Y624741D01*
X357681Y624568D01*
X358260Y624233D01*
X358733Y623760D01*
X359068Y623181D01*
X359241Y622534D01*
X359241Y617199D01*
X351699Y617199D01*
G37*
%LPD*%
%LPC*%
G36*
X161699Y617199D02*
X161699Y617199D01*
X161699Y624741D01*
X167034Y624741D01*
X167681Y624568D01*
X168260Y624233D01*
X168733Y623760D01*
X169068Y623181D01*
X169241Y622534D01*
X169241Y617199D01*
X161699Y617199D01*
G37*
%LPD*%
%LPC*%
G36*
X342159Y617199D02*
X342159Y617199D01*
X342159Y622534D01*
X342332Y623181D01*
X342667Y623760D01*
X343140Y624233D01*
X343719Y624568D01*
X344366Y624741D01*
X349701Y624741D01*
X349701Y617199D01*
X342159Y617199D01*
G37*
%LPD*%
%LPC*%
G36*
X152159Y617199D02*
X152159Y617199D01*
X152159Y622534D01*
X152332Y623181D01*
X152667Y623760D01*
X153140Y624233D01*
X153719Y624568D01*
X154366Y624741D01*
X159701Y624741D01*
X159701Y617199D01*
X152159Y617199D01*
G37*
%LPD*%
%LPC*%
G36*
X161699Y593659D02*
X161699Y593659D01*
X161699Y601201D01*
X169241Y601201D01*
X169241Y595866D01*
X169068Y595219D01*
X168733Y594640D01*
X168260Y594167D01*
X167681Y593832D01*
X167034Y593659D01*
X161699Y593659D01*
G37*
%LPD*%
%LPC*%
G36*
X351699Y593659D02*
X351699Y593659D01*
X351699Y601201D01*
X359241Y601201D01*
X359241Y595866D01*
X359068Y595219D01*
X358733Y594640D01*
X358260Y594167D01*
X357681Y593832D01*
X357034Y593659D01*
X351699Y593659D01*
G37*
%LPD*%
%LPC*%
G36*
X154366Y593659D02*
X154366Y593659D01*
X153719Y593832D01*
X153140Y594167D01*
X152667Y594640D01*
X152332Y595219D01*
X152159Y595866D01*
X152159Y601201D01*
X159701Y601201D01*
X159701Y593659D01*
X154366Y593659D01*
G37*
%LPD*%
%LPC*%
G36*
X344366Y593659D02*
X344366Y593659D01*
X343719Y593832D01*
X343140Y594167D01*
X342667Y594640D01*
X342332Y595219D01*
X342159Y595866D01*
X342159Y601201D01*
X349701Y601201D01*
X349701Y593659D01*
X344366Y593659D01*
G37*
%LPD*%
%LPC*%
G36*
X394327Y835932D02*
X394327Y835932D01*
X398531Y842234D01*
X401265Y842781D01*
X402861Y834793D01*
X394874Y833197D01*
X394327Y835932D01*
G37*
%LPD*%
%LPC*%
G36*
X365199Y812659D02*
X365199Y812659D01*
X365199Y820805D01*
X367988Y820805D01*
X373345Y815448D01*
X373345Y812659D01*
X365199Y812659D01*
G37*
%LPD*%
%LPC*%
G36*
X498999Y762959D02*
X498999Y762959D01*
X498999Y771105D01*
X501788Y771105D01*
X507145Y765748D01*
X507145Y762959D01*
X498999Y762959D01*
G37*
%LPD*%
%LPC*%
G36*
X453799Y780099D02*
X453799Y780099D01*
X453799Y788245D01*
X456588Y788245D01*
X461945Y782888D01*
X461945Y780099D01*
X453799Y780099D01*
G37*
%LPD*%
%LPC*%
G36*
X96099Y773299D02*
X96099Y773299D01*
X96099Y781445D01*
X98888Y781445D01*
X104245Y776088D01*
X104245Y773299D01*
X96099Y773299D01*
G37*
%LPD*%
%LPC*%
G36*
X85955Y773299D02*
X85955Y773299D01*
X85955Y776088D01*
X91312Y781445D01*
X94101Y781445D01*
X94101Y773299D01*
X85955Y773299D01*
G37*
%LPD*%
%LPC*%
G36*
X412999Y355495D02*
X412999Y355495D01*
X412999Y363641D01*
X421145Y363641D01*
X421145Y360852D01*
X415788Y355495D01*
X412999Y355495D01*
G37*
%LPD*%
%LPC*%
G36*
X443655Y780099D02*
X443655Y780099D01*
X443655Y782888D01*
X449012Y788245D01*
X451801Y788245D01*
X451801Y780099D01*
X443655Y780099D01*
G37*
%LPD*%
%LPC*%
G36*
X355055Y812659D02*
X355055Y812659D01*
X355055Y815448D01*
X360412Y820805D01*
X363201Y820805D01*
X363201Y812659D01*
X355055Y812659D01*
G37*
%LPD*%
%LPC*%
G36*
X488855Y762959D02*
X488855Y762959D01*
X488855Y765748D01*
X494212Y771105D01*
X497001Y771105D01*
X497001Y762959D01*
X488855Y762959D01*
G37*
%LPD*%
%LPC*%
G36*
X96099Y763155D02*
X96099Y763155D01*
X96099Y771301D01*
X104245Y771301D01*
X104245Y768512D01*
X98888Y763155D01*
X96099Y763155D01*
G37*
%LPD*%
%LPC*%
G36*
X453799Y769955D02*
X453799Y769955D01*
X453799Y778101D01*
X461945Y778101D01*
X461945Y775312D01*
X456588Y769955D01*
X453799Y769955D01*
G37*
%LPD*%
%LPC*%
G36*
X408212Y355495D02*
X408212Y355495D01*
X402855Y360852D01*
X402855Y363641D01*
X411001Y363641D01*
X411001Y355495D01*
X408212Y355495D01*
G37*
%LPD*%
%LPC*%
G36*
X91312Y763155D02*
X91312Y763155D01*
X85955Y768512D01*
X85955Y771301D01*
X94101Y771301D01*
X94101Y763155D01*
X91312Y763155D01*
G37*
%LPD*%
%LPC*%
G36*
X449012Y769955D02*
X449012Y769955D01*
X443655Y775312D01*
X443655Y778101D01*
X451801Y778101D01*
X451801Y769955D01*
X449012Y769955D01*
G37*
%LPD*%
G36*
X559019Y508087D02*
X559019Y508087D01*
X559021Y508086D01*
X559115Y508110D01*
X559210Y508132D01*
X559212Y508133D01*
X559214Y508134D01*
X559293Y508193D01*
X559370Y508250D01*
X559371Y508252D01*
X559373Y508253D01*
X559461Y508394D01*
X560133Y510016D01*
X563964Y513847D01*
X565634Y514539D01*
X565638Y514541D01*
X565642Y514542D01*
X565720Y514597D01*
X565799Y514650D01*
X565801Y514653D01*
X565805Y514656D01*
X565856Y514737D01*
X565908Y514817D01*
X565908Y514821D01*
X565911Y514824D01*
X565926Y514918D01*
X565942Y515012D01*
X565941Y515017D01*
X565942Y515021D01*
X565920Y515112D01*
X565898Y515206D01*
X565895Y515210D01*
X565894Y515214D01*
X565837Y515290D01*
X565781Y515367D01*
X565778Y515369D01*
X565775Y515373D01*
X565634Y515461D01*
X563964Y516153D01*
X560133Y519984D01*
X559461Y521606D01*
X559460Y521608D01*
X559460Y521610D01*
X559405Y521690D01*
X559350Y521771D01*
X559348Y521772D01*
X559347Y521774D01*
X559266Y521826D01*
X559183Y521879D01*
X559181Y521880D01*
X559180Y521881D01*
X559084Y521897D01*
X558988Y521914D01*
X558986Y521914D01*
X558983Y521914D01*
X558890Y521892D01*
X558794Y521870D01*
X558792Y521868D01*
X558790Y521868D01*
X558713Y521812D01*
X558633Y521753D01*
X558632Y521751D01*
X558630Y521750D01*
X558581Y521667D01*
X558530Y521583D01*
X558530Y521581D01*
X558528Y521579D01*
X558501Y521415D01*
X558501Y508585D01*
X558501Y508583D01*
X558501Y508581D01*
X558521Y508487D01*
X558540Y508390D01*
X558542Y508388D01*
X558542Y508386D01*
X558598Y508306D01*
X558653Y508226D01*
X558655Y508225D01*
X558656Y508223D01*
X558739Y508171D01*
X558820Y508119D01*
X558823Y508119D01*
X558824Y508118D01*
X558920Y508102D01*
X559017Y508086D01*
X559019Y508087D01*
G37*
G36*
X559019Y558887D02*
X559019Y558887D01*
X559021Y558886D01*
X559115Y558910D01*
X559210Y558932D01*
X559212Y558933D01*
X559214Y558934D01*
X559293Y558993D01*
X559370Y559050D01*
X559371Y559052D01*
X559373Y559053D01*
X559461Y559194D01*
X560133Y560816D01*
X563964Y564647D01*
X565634Y565339D01*
X565638Y565341D01*
X565642Y565342D01*
X565720Y565397D01*
X565799Y565450D01*
X565801Y565453D01*
X565805Y565456D01*
X565856Y565537D01*
X565908Y565617D01*
X565908Y565621D01*
X565911Y565624D01*
X565926Y565718D01*
X565942Y565812D01*
X565941Y565817D01*
X565942Y565821D01*
X565919Y565912D01*
X565898Y566006D01*
X565895Y566010D01*
X565894Y566014D01*
X565837Y566090D01*
X565781Y566167D01*
X565778Y566169D01*
X565775Y566173D01*
X565634Y566261D01*
X563964Y566953D01*
X560133Y570784D01*
X559461Y572406D01*
X559460Y572408D01*
X559460Y572410D01*
X559405Y572490D01*
X559350Y572571D01*
X559348Y572572D01*
X559347Y572574D01*
X559266Y572626D01*
X559183Y572679D01*
X559181Y572680D01*
X559180Y572681D01*
X559084Y572697D01*
X558988Y572714D01*
X558986Y572714D01*
X558983Y572714D01*
X558890Y572692D01*
X558794Y572670D01*
X558792Y572668D01*
X558790Y572668D01*
X558713Y572612D01*
X558633Y572553D01*
X558632Y572551D01*
X558630Y572550D01*
X558581Y572467D01*
X558530Y572383D01*
X558530Y572381D01*
X558528Y572379D01*
X558501Y572215D01*
X558501Y559385D01*
X558501Y559383D01*
X558501Y559381D01*
X558521Y559287D01*
X558540Y559190D01*
X558542Y559188D01*
X558542Y559186D01*
X558598Y559106D01*
X558653Y559026D01*
X558655Y559025D01*
X558656Y559023D01*
X558739Y558971D01*
X558820Y558919D01*
X558823Y558919D01*
X558824Y558918D01*
X558920Y558902D01*
X559017Y558886D01*
X559019Y558887D01*
G37*
G36*
X559019Y533487D02*
X559019Y533487D01*
X559021Y533486D01*
X559115Y533510D01*
X559210Y533532D01*
X559212Y533533D01*
X559214Y533534D01*
X559293Y533593D01*
X559370Y533650D01*
X559371Y533652D01*
X559373Y533653D01*
X559461Y533794D01*
X560133Y535416D01*
X563964Y539247D01*
X565634Y539939D01*
X565638Y539941D01*
X565642Y539942D01*
X565720Y539997D01*
X565799Y540050D01*
X565801Y540053D01*
X565805Y540056D01*
X565856Y540137D01*
X565908Y540217D01*
X565908Y540221D01*
X565911Y540224D01*
X565926Y540318D01*
X565942Y540412D01*
X565941Y540417D01*
X565942Y540421D01*
X565919Y540512D01*
X565898Y540606D01*
X565895Y540610D01*
X565894Y540614D01*
X565837Y540690D01*
X565781Y540767D01*
X565778Y540769D01*
X565775Y540773D01*
X565634Y540861D01*
X563964Y541553D01*
X560133Y545384D01*
X559461Y547006D01*
X559460Y547008D01*
X559460Y547010D01*
X559405Y547090D01*
X559350Y547171D01*
X559348Y547172D01*
X559347Y547174D01*
X559266Y547226D01*
X559183Y547279D01*
X559181Y547280D01*
X559180Y547281D01*
X559084Y547297D01*
X558988Y547314D01*
X558986Y547314D01*
X558983Y547314D01*
X558890Y547292D01*
X558794Y547270D01*
X558792Y547268D01*
X558790Y547268D01*
X558713Y547212D01*
X558633Y547153D01*
X558632Y547151D01*
X558630Y547150D01*
X558581Y547067D01*
X558530Y546983D01*
X558530Y546981D01*
X558528Y546979D01*
X558501Y546815D01*
X558501Y533985D01*
X558501Y533983D01*
X558501Y533981D01*
X558521Y533887D01*
X558540Y533790D01*
X558542Y533788D01*
X558542Y533786D01*
X558598Y533706D01*
X558653Y533626D01*
X558655Y533625D01*
X558656Y533623D01*
X558739Y533571D01*
X558820Y533519D01*
X558823Y533519D01*
X558824Y533518D01*
X558920Y533502D01*
X559017Y533486D01*
X559019Y533487D01*
G37*
G36*
X309816Y774734D02*
X309816Y774734D01*
X309825Y774733D01*
X309913Y774756D01*
X310002Y774775D01*
X310009Y774780D01*
X310017Y774782D01*
X310153Y774879D01*
X315421Y780147D01*
X315424Y780151D01*
X315427Y780153D01*
X315478Y780233D01*
X315531Y780313D01*
X315532Y780317D01*
X315534Y780320D01*
X315550Y780414D01*
X315567Y780508D01*
X315567Y780512D01*
X315567Y780517D01*
X315545Y780608D01*
X315525Y780702D01*
X315522Y780706D01*
X315521Y780710D01*
X315465Y780786D01*
X315409Y780865D01*
X315406Y780867D01*
X315403Y780870D01*
X315321Y780919D01*
X315240Y780969D01*
X315236Y780969D01*
X315232Y780972D01*
X315068Y780999D01*
X304532Y780999D01*
X304528Y780998D01*
X304524Y780999D01*
X304430Y780979D01*
X304337Y780960D01*
X304333Y780957D01*
X304329Y780956D01*
X304251Y780901D01*
X304173Y780847D01*
X304171Y780844D01*
X304167Y780841D01*
X304117Y780760D01*
X304066Y780680D01*
X304065Y780675D01*
X304063Y780672D01*
X304049Y780578D01*
X304033Y780483D01*
X304034Y780479D01*
X304033Y780475D01*
X304057Y780382D01*
X304079Y780290D01*
X304081Y780287D01*
X304082Y780283D01*
X304179Y780147D01*
X309447Y774879D01*
X309454Y774874D01*
X309459Y774867D01*
X309536Y774820D01*
X309613Y774769D01*
X309621Y774767D01*
X309628Y774763D01*
X309718Y774749D01*
X309808Y774733D01*
X309816Y774734D01*
G37*
G36*
X61012Y630390D02*
X61012Y630390D01*
X61017Y630390D01*
X61108Y630412D01*
X61202Y630432D01*
X61206Y630435D01*
X61210Y630436D01*
X61286Y630492D01*
X61365Y630547D01*
X61367Y630551D01*
X61370Y630554D01*
X61419Y630635D01*
X61469Y630717D01*
X61469Y630721D01*
X61472Y630725D01*
X61499Y630889D01*
X61499Y639111D01*
X61498Y639115D01*
X61499Y639120D01*
X61479Y639213D01*
X61460Y639306D01*
X61457Y639310D01*
X61456Y639314D01*
X61401Y639392D01*
X61347Y639470D01*
X61344Y639472D01*
X61341Y639476D01*
X61260Y639526D01*
X61180Y639577D01*
X61175Y639578D01*
X61172Y639580D01*
X61078Y639594D01*
X60983Y639610D01*
X60979Y639609D01*
X60975Y639610D01*
X60883Y639586D01*
X60790Y639564D01*
X60787Y639562D01*
X60783Y639561D01*
X60647Y639464D01*
X57336Y636153D01*
X55666Y635461D01*
X55662Y635459D01*
X55658Y635458D01*
X55580Y635403D01*
X55501Y635350D01*
X55499Y635347D01*
X55495Y635344D01*
X55444Y635263D01*
X55392Y635183D01*
X55392Y635179D01*
X55389Y635176D01*
X55374Y635082D01*
X55358Y634988D01*
X55359Y634983D01*
X55358Y634979D01*
X55381Y634888D01*
X55402Y634794D01*
X55405Y634790D01*
X55406Y634786D01*
X55463Y634710D01*
X55519Y634633D01*
X55522Y634631D01*
X55525Y634627D01*
X55666Y634539D01*
X57335Y633847D01*
X60647Y630536D01*
X60651Y630533D01*
X60653Y630530D01*
X60733Y630479D01*
X60813Y630426D01*
X60817Y630425D01*
X60820Y630423D01*
X60914Y630407D01*
X61008Y630389D01*
X61012Y630390D01*
G37*
G36*
X61012Y655790D02*
X61012Y655790D01*
X61017Y655790D01*
X61108Y655812D01*
X61202Y655832D01*
X61206Y655835D01*
X61210Y655836D01*
X61286Y655892D01*
X61365Y655947D01*
X61367Y655951D01*
X61370Y655954D01*
X61419Y656035D01*
X61469Y656117D01*
X61469Y656121D01*
X61472Y656125D01*
X61499Y656289D01*
X61499Y664511D01*
X61498Y664515D01*
X61499Y664520D01*
X61479Y664613D01*
X61460Y664706D01*
X61457Y664710D01*
X61456Y664714D01*
X61401Y664792D01*
X61347Y664870D01*
X61344Y664872D01*
X61341Y664876D01*
X61260Y664926D01*
X61180Y664977D01*
X61175Y664978D01*
X61172Y664980D01*
X61078Y664994D01*
X60983Y665010D01*
X60979Y665009D01*
X60975Y665010D01*
X60883Y664986D01*
X60790Y664964D01*
X60787Y664962D01*
X60783Y664961D01*
X60647Y664864D01*
X57336Y661553D01*
X55666Y660861D01*
X55662Y660859D01*
X55658Y660858D01*
X55580Y660803D01*
X55501Y660750D01*
X55499Y660747D01*
X55495Y660744D01*
X55444Y660663D01*
X55392Y660583D01*
X55392Y660579D01*
X55389Y660576D01*
X55374Y660482D01*
X55358Y660388D01*
X55359Y660383D01*
X55358Y660379D01*
X55381Y660288D01*
X55402Y660194D01*
X55405Y660190D01*
X55406Y660186D01*
X55463Y660110D01*
X55519Y660033D01*
X55522Y660031D01*
X55525Y660027D01*
X55666Y659939D01*
X57335Y659247D01*
X60647Y655936D01*
X60651Y655933D01*
X60653Y655930D01*
X60733Y655879D01*
X60813Y655826D01*
X60817Y655825D01*
X60820Y655823D01*
X60914Y655807D01*
X61008Y655789D01*
X61012Y655790D01*
G37*
G36*
X24521Y657291D02*
X24521Y657291D01*
X24525Y657290D01*
X24617Y657314D01*
X24710Y657336D01*
X24713Y657338D01*
X24717Y657339D01*
X24853Y657436D01*
X26665Y659247D01*
X28334Y659939D01*
X28338Y659941D01*
X28342Y659942D01*
X28421Y659997D01*
X28499Y660050D01*
X28501Y660053D01*
X28505Y660056D01*
X28556Y660137D01*
X28608Y660217D01*
X28608Y660221D01*
X28611Y660224D01*
X28626Y660318D01*
X28642Y660412D01*
X28641Y660416D01*
X28642Y660421D01*
X28619Y660513D01*
X28598Y660606D01*
X28595Y660610D01*
X28594Y660614D01*
X28537Y660690D01*
X28481Y660767D01*
X28478Y660769D01*
X28475Y660773D01*
X28334Y660861D01*
X26664Y661553D01*
X24853Y663364D01*
X24849Y663367D01*
X24847Y663370D01*
X24767Y663421D01*
X24687Y663474D01*
X24683Y663475D01*
X24680Y663477D01*
X24586Y663493D01*
X24492Y663511D01*
X24488Y663510D01*
X24483Y663510D01*
X24392Y663488D01*
X24298Y663468D01*
X24294Y663465D01*
X24290Y663464D01*
X24214Y663408D01*
X24135Y663353D01*
X24133Y663349D01*
X24130Y663346D01*
X24081Y663265D01*
X24031Y663183D01*
X24031Y663179D01*
X24028Y663175D01*
X24001Y663011D01*
X24001Y657789D01*
X24002Y657785D01*
X24001Y657780D01*
X24022Y657686D01*
X24040Y657594D01*
X24043Y657590D01*
X24044Y657586D01*
X24099Y657508D01*
X24153Y657430D01*
X24156Y657428D01*
X24159Y657424D01*
X24240Y657374D01*
X24320Y657323D01*
X24325Y657322D01*
X24328Y657320D01*
X24422Y657306D01*
X24517Y657290D01*
X24521Y657291D01*
G37*
G36*
X36010Y946477D02*
X36010Y946477D01*
X36021Y946477D01*
X36029Y946478D01*
X36048Y946477D01*
X36069Y946479D01*
X36119Y946494D01*
X36149Y946498D01*
X36164Y946506D01*
X36216Y946516D01*
X36236Y946530D01*
X36259Y946537D01*
X36317Y946586D01*
X36380Y946629D01*
X36393Y946649D01*
X36412Y946665D01*
X36446Y946733D01*
X36487Y946796D01*
X36491Y946821D01*
X36502Y946842D01*
X36507Y946918D01*
X36520Y946993D01*
X36514Y947016D01*
X36516Y947041D01*
X36491Y947112D01*
X36474Y947186D01*
X36459Y947206D01*
X36451Y947229D01*
X36401Y947285D01*
X36356Y947346D01*
X36335Y947359D01*
X36319Y947377D01*
X36250Y947409D01*
X36185Y947448D01*
X36158Y947452D01*
X36139Y947461D01*
X36079Y947465D01*
X36051Y947470D01*
X36048Y947471D01*
X36045Y947471D01*
X36021Y947475D01*
X35979Y947475D01*
X35963Y947472D01*
X35952Y947471D01*
X35940Y947467D01*
X35905Y947460D01*
X35830Y947452D01*
X35808Y947441D01*
X35784Y947436D01*
X35722Y947393D01*
X35656Y947356D01*
X35640Y947337D01*
X35620Y947323D01*
X35580Y947259D01*
X35533Y947200D01*
X35526Y947176D01*
X35513Y947156D01*
X35501Y947081D01*
X35481Y947008D01*
X35484Y946984D01*
X35480Y946959D01*
X35498Y946886D01*
X35508Y946811D01*
X35520Y946790D01*
X35526Y946766D01*
X35571Y946705D01*
X35610Y946640D01*
X35630Y946626D01*
X35644Y946606D01*
X35709Y946567D01*
X35770Y946523D01*
X35797Y946515D01*
X35815Y946504D01*
X35868Y946496D01*
X35882Y946489D01*
X35899Y946488D01*
X35931Y946479D01*
X35952Y946477D01*
X35967Y946479D01*
X35979Y946477D01*
X35988Y946477D01*
X36000Y946475D01*
X36010Y946477D01*
G37*
G36*
X610037Y976528D02*
X610037Y976528D01*
X610048Y976529D01*
X610060Y976533D01*
X610095Y976540D01*
X610170Y976548D01*
X610192Y976559D01*
X610216Y976564D01*
X610278Y976607D01*
X610344Y976644D01*
X610360Y976663D01*
X610380Y976677D01*
X610420Y976741D01*
X610467Y976800D01*
X610474Y976824D01*
X610487Y976844D01*
X610499Y976919D01*
X610519Y976992D01*
X610516Y977016D01*
X610520Y977041D01*
X610502Y977114D01*
X610492Y977189D01*
X610479Y977210D01*
X610474Y977234D01*
X610429Y977295D01*
X610390Y977360D01*
X610370Y977374D01*
X610356Y977394D01*
X610291Y977433D01*
X610230Y977477D01*
X610203Y977485D01*
X610185Y977496D01*
X610132Y977504D01*
X610118Y977511D01*
X610101Y977512D01*
X610069Y977521D01*
X610048Y977523D01*
X610032Y977521D01*
X610021Y977523D01*
X609979Y977523D01*
X609971Y977522D01*
X609952Y977523D01*
X609931Y977521D01*
X609881Y977506D01*
X609851Y977502D01*
X609835Y977494D01*
X609784Y977484D01*
X609764Y977470D01*
X609741Y977463D01*
X609683Y977414D01*
X609620Y977371D01*
X609607Y977350D01*
X609588Y977335D01*
X609554Y977267D01*
X609513Y977204D01*
X609509Y977179D01*
X609498Y977158D01*
X609493Y977082D01*
X609480Y977007D01*
X609486Y976984D01*
X609484Y976959D01*
X609509Y976888D01*
X609526Y976814D01*
X609541Y976794D01*
X609549Y976771D01*
X609599Y976715D01*
X609644Y976654D01*
X609665Y976641D01*
X609681Y976623D01*
X609750Y976591D01*
X609815Y976552D01*
X609842Y976548D01*
X609862Y976539D01*
X609921Y976535D01*
X609949Y976530D01*
X609952Y976529D01*
X609955Y976529D01*
X609979Y976525D01*
X610021Y976525D01*
X610037Y976528D01*
G37*
G36*
X36037Y980528D02*
X36037Y980528D01*
X36048Y980529D01*
X36060Y980533D01*
X36095Y980540D01*
X36170Y980548D01*
X36192Y980559D01*
X36216Y980564D01*
X36278Y980607D01*
X36344Y980644D01*
X36360Y980663D01*
X36380Y980677D01*
X36420Y980740D01*
X36467Y980800D01*
X36474Y980824D01*
X36487Y980844D01*
X36499Y980919D01*
X36519Y980992D01*
X36516Y981016D01*
X36520Y981041D01*
X36502Y981114D01*
X36492Y981189D01*
X36479Y981210D01*
X36474Y981234D01*
X36429Y981295D01*
X36390Y981360D01*
X36370Y981374D01*
X36356Y981394D01*
X36291Y981433D01*
X36230Y981477D01*
X36203Y981485D01*
X36185Y981496D01*
X36132Y981504D01*
X36118Y981511D01*
X36101Y981512D01*
X36069Y981521D01*
X36048Y981523D01*
X36033Y981521D01*
X36021Y981523D01*
X35979Y981523D01*
X35971Y981522D01*
X35952Y981523D01*
X35931Y981521D01*
X35881Y981505D01*
X35851Y981502D01*
X35836Y981494D01*
X35784Y981484D01*
X35764Y981470D01*
X35741Y981463D01*
X35683Y981414D01*
X35620Y981371D01*
X35607Y981350D01*
X35588Y981335D01*
X35554Y981267D01*
X35513Y981204D01*
X35509Y981179D01*
X35498Y981158D01*
X35493Y981082D01*
X35480Y981007D01*
X35486Y980984D01*
X35484Y980959D01*
X35509Y980888D01*
X35526Y980814D01*
X35541Y980794D01*
X35549Y980771D01*
X35599Y980715D01*
X35644Y980654D01*
X35665Y980641D01*
X35681Y980623D01*
X35750Y980591D01*
X35815Y980552D01*
X35842Y980548D01*
X35862Y980539D01*
X35921Y980535D01*
X35949Y980530D01*
X35952Y980529D01*
X35956Y980529D01*
X35979Y980525D01*
X36021Y980525D01*
X36037Y980528D01*
G37*
G36*
X610010Y942477D02*
X610010Y942477D01*
X610021Y942477D01*
X610029Y942478D01*
X610048Y942477D01*
X610069Y942479D01*
X610119Y942494D01*
X610149Y942498D01*
X610164Y942506D01*
X610216Y942516D01*
X610236Y942530D01*
X610259Y942537D01*
X610317Y942586D01*
X610380Y942629D01*
X610393Y942650D01*
X610412Y942665D01*
X610446Y942733D01*
X610487Y942796D01*
X610491Y942821D01*
X610502Y942843D01*
X610507Y942918D01*
X610520Y942993D01*
X610514Y943016D01*
X610516Y943041D01*
X610491Y943112D01*
X610474Y943186D01*
X610459Y943206D01*
X610451Y943229D01*
X610401Y943285D01*
X610356Y943346D01*
X610335Y943359D01*
X610318Y943377D01*
X610250Y943409D01*
X610185Y943448D01*
X610158Y943452D01*
X610138Y943461D01*
X610079Y943465D01*
X610051Y943470D01*
X610048Y943471D01*
X610045Y943471D01*
X610021Y943475D01*
X609979Y943475D01*
X609963Y943472D01*
X609951Y943471D01*
X609940Y943467D01*
X609905Y943460D01*
X609830Y943452D01*
X609808Y943441D01*
X609784Y943436D01*
X609722Y943393D01*
X609656Y943356D01*
X609641Y943337D01*
X609620Y943323D01*
X609580Y943259D01*
X609533Y943200D01*
X609527Y943176D01*
X609513Y943156D01*
X609501Y943081D01*
X609481Y943008D01*
X609484Y942984D01*
X609480Y942959D01*
X609498Y942886D01*
X609508Y942811D01*
X609521Y942790D01*
X609526Y942766D01*
X609571Y942705D01*
X609610Y942640D01*
X609630Y942626D01*
X609644Y942606D01*
X609709Y942567D01*
X609770Y942523D01*
X609797Y942515D01*
X609815Y942504D01*
X609868Y942496D01*
X609883Y942489D01*
X609900Y942488D01*
X609931Y942479D01*
X609951Y942477D01*
X609967Y942479D01*
X609979Y942477D01*
X609988Y942477D01*
X610000Y942475D01*
X610010Y942477D01*
G37*
G36*
X610010Y362477D02*
X610010Y362477D01*
X610021Y362477D01*
X610029Y362478D01*
X610049Y362477D01*
X610069Y362479D01*
X610119Y362494D01*
X610149Y362498D01*
X610164Y362506D01*
X610216Y362516D01*
X610236Y362530D01*
X610259Y362538D01*
X610317Y362586D01*
X610380Y362629D01*
X610393Y362650D01*
X610412Y362665D01*
X610446Y362733D01*
X610487Y362796D01*
X610491Y362821D01*
X610502Y362843D01*
X610507Y362918D01*
X610520Y362993D01*
X610514Y363016D01*
X610516Y363041D01*
X610491Y363113D01*
X610474Y363186D01*
X610459Y363206D01*
X610451Y363229D01*
X610401Y363285D01*
X610356Y363346D01*
X610335Y363359D01*
X610318Y363377D01*
X610250Y363409D01*
X610185Y363448D01*
X610158Y363452D01*
X610138Y363461D01*
X610079Y363465D01*
X610051Y363470D01*
X610049Y363471D01*
X610045Y363471D01*
X610021Y363475D01*
X609979Y363475D01*
X609963Y363472D01*
X609951Y363471D01*
X609940Y363467D01*
X609905Y363460D01*
X609830Y363452D01*
X609809Y363441D01*
X609784Y363436D01*
X609722Y363393D01*
X609656Y363356D01*
X609641Y363337D01*
X609620Y363323D01*
X609580Y363259D01*
X609533Y363200D01*
X609527Y363176D01*
X609513Y363156D01*
X609501Y363081D01*
X609481Y363008D01*
X609484Y362984D01*
X609480Y362959D01*
X609498Y362886D01*
X609508Y362811D01*
X609521Y362790D01*
X609526Y362766D01*
X609571Y362705D01*
X609610Y362640D01*
X609630Y362626D01*
X609644Y362606D01*
X609709Y362567D01*
X609770Y362523D01*
X609797Y362515D01*
X609815Y362504D01*
X609868Y362496D01*
X609883Y362489D01*
X609900Y362488D01*
X609931Y362479D01*
X609951Y362477D01*
X609967Y362479D01*
X609979Y362477D01*
X609988Y362477D01*
X610000Y362475D01*
X610010Y362477D01*
G37*
G36*
X610037Y396528D02*
X610037Y396528D01*
X610049Y396529D01*
X610060Y396533D01*
X610095Y396540D01*
X610170Y396548D01*
X610192Y396559D01*
X610216Y396564D01*
X610278Y396607D01*
X610344Y396644D01*
X610359Y396663D01*
X610380Y396677D01*
X610420Y396740D01*
X610467Y396800D01*
X610473Y396824D01*
X610487Y396844D01*
X610499Y396919D01*
X610519Y396992D01*
X610516Y397016D01*
X610520Y397041D01*
X610502Y397114D01*
X610492Y397189D01*
X610479Y397210D01*
X610474Y397234D01*
X610429Y397295D01*
X610390Y397360D01*
X610370Y397374D01*
X610356Y397394D01*
X610291Y397433D01*
X610230Y397477D01*
X610203Y397485D01*
X610185Y397496D01*
X610132Y397504D01*
X610117Y397511D01*
X610100Y397512D01*
X610069Y397521D01*
X610049Y397523D01*
X610033Y397521D01*
X610021Y397523D01*
X609979Y397523D01*
X609971Y397522D01*
X609952Y397523D01*
X609931Y397521D01*
X609881Y397506D01*
X609851Y397502D01*
X609836Y397494D01*
X609784Y397484D01*
X609764Y397470D01*
X609741Y397463D01*
X609683Y397414D01*
X609620Y397371D01*
X609607Y397350D01*
X609588Y397335D01*
X609554Y397267D01*
X609513Y397204D01*
X609509Y397179D01*
X609498Y397157D01*
X609493Y397082D01*
X609480Y397007D01*
X609486Y396984D01*
X609484Y396959D01*
X609509Y396888D01*
X609526Y396814D01*
X609541Y396794D01*
X609549Y396771D01*
X609599Y396715D01*
X609644Y396654D01*
X609665Y396641D01*
X609682Y396623D01*
X609750Y396591D01*
X609815Y396552D01*
X609842Y396548D01*
X609862Y396539D01*
X609921Y396535D01*
X609949Y396530D01*
X609951Y396529D01*
X609955Y396529D01*
X609979Y396525D01*
X610021Y396525D01*
X610037Y396528D01*
G37*
%LPC*%
G36*
X435199Y476899D02*
X435199Y476899D01*
X435199Y476901D01*
X435201Y476901D01*
X435201Y476899D01*
X435199Y476899D01*
G37*
%LPD*%
%LPC*%
G36*
X579299Y476899D02*
X579299Y476899D01*
X579299Y476901D01*
X579301Y476901D01*
X579301Y476899D01*
X579299Y476899D01*
G37*
%LPD*%
%LPC*%
G36*
X579299Y603899D02*
X579299Y603899D01*
X579299Y603901D01*
X579301Y603901D01*
X579301Y603899D01*
X579299Y603899D01*
G37*
%LPD*%
%LPC*%
G36*
X95099Y772299D02*
X95099Y772299D01*
X95099Y772301D01*
X95101Y772301D01*
X95101Y772299D01*
X95099Y772299D01*
G37*
%LPD*%
%LPC*%
G36*
X452799Y779099D02*
X452799Y779099D01*
X452799Y779101D01*
X452801Y779101D01*
X452801Y779099D01*
X452799Y779099D01*
G37*
%LPD*%
%LPC*%
G36*
X190499Y803499D02*
X190499Y803499D01*
X190499Y803501D01*
X190501Y803501D01*
X190501Y803499D01*
X190499Y803499D01*
G37*
%LPD*%
%LPC*%
G36*
X455399Y841499D02*
X455399Y841499D01*
X455399Y841501D01*
X455401Y841501D01*
X455401Y841499D01*
X455399Y841499D01*
G37*
%LPD*%
%LPC*%
G36*
X70299Y855799D02*
X70299Y855799D01*
X70299Y855801D01*
X70301Y855801D01*
X70301Y855799D01*
X70299Y855799D01*
G37*
%LPD*%
%LPC*%
G36*
X428499Y922699D02*
X428499Y922699D01*
X428499Y922701D01*
X428501Y922701D01*
X428501Y922699D01*
X428499Y922699D01*
G37*
%LPD*%
%LPC*%
G36*
X251599Y928499D02*
X251599Y928499D01*
X251599Y928501D01*
X251601Y928501D01*
X251601Y928499D01*
X251599Y928499D01*
G37*
%LPD*%
%LPC*%
G36*
X160699Y602199D02*
X160699Y602199D01*
X160699Y602201D01*
X160701Y602201D01*
X160701Y602199D01*
X160699Y602199D01*
G37*
%LPD*%
%LPC*%
G36*
X350699Y602199D02*
X350699Y602199D01*
X350699Y602201D01*
X350701Y602201D01*
X350701Y602199D01*
X350699Y602199D01*
G37*
%LPD*%
%LPC*%
G36*
X350699Y616199D02*
X350699Y616199D01*
X350699Y616201D01*
X350701Y616201D01*
X350701Y616199D01*
X350699Y616199D01*
G37*
%LPD*%
%LPC*%
G36*
X160699Y616199D02*
X160699Y616199D01*
X160699Y616201D01*
X160701Y616201D01*
X160701Y616199D01*
X160699Y616199D01*
G37*
%LPD*%
D10*
X441250Y922700D02*
X415750Y922700D01*
X415750Y962300D02*
X441250Y962300D01*
D11*
X364200Y811660D03*
D12*
X364200Y791340D03*
D13*
X277800Y846500D03*
X277800Y821100D03*
D11*
X498000Y761960D03*
D12*
X498000Y741640D03*
D13*
X577700Y912800D03*
X603100Y912800D03*
D14*
X412000Y364640D03*
D12*
X412000Y384960D03*
D13*
X407200Y796900D03*
X407200Y822300D03*
X211289Y429900D03*
X211111Y404500D03*
D10*
X251600Y915750D02*
X251600Y941250D01*
X212000Y941250D02*
X212000Y915750D01*
D15*
X447780Y866900D02*
X463020Y866900D01*
X463020Y841500D02*
X447780Y841500D01*
X447780Y816100D02*
X463020Y816100D01*
D14*
X95100Y797700D03*
X95100Y772300D03*
D10*
X585750Y714100D02*
X611250Y714100D01*
X611250Y753700D02*
X585750Y753700D01*
X550200Y411250D02*
X550200Y385750D01*
X510600Y385750D02*
X510600Y411250D01*
D16*
X19500Y849196D02*
X19500Y862404D01*
X70300Y862404D02*
X70300Y849196D01*
X44900Y849196D02*
X44900Y862404D01*
D14*
X322800Y845900D03*
X322800Y769700D03*
X402800Y742500D03*
X402800Y666300D03*
X452800Y779100D03*
X452800Y702900D03*
D17*
X59900Y820300D03*
X136100Y820300D03*
D11*
X30700Y705500D03*
X30700Y807100D03*
X297200Y769300D03*
X297200Y845500D03*
D16*
X345196Y935300D02*
X358404Y935300D01*
X358404Y960700D02*
X345196Y960700D01*
X345196Y909900D02*
X358404Y909900D01*
X307604Y960700D02*
X294396Y960700D01*
X294396Y935300D02*
X307604Y935300D01*
X307604Y909900D02*
X294396Y909900D01*
D18*
X124200Y958412D03*
X124200Y893388D03*
D15*
X427580Y476900D02*
X442820Y476900D01*
X442820Y502300D02*
X427580Y502300D01*
X427580Y527700D02*
X442820Y527700D01*
X442820Y553100D02*
X427580Y553100D01*
X427580Y578500D02*
X442820Y578500D01*
X442820Y603900D02*
X427580Y603900D01*
X427580Y629300D02*
X442820Y629300D01*
X442820Y654700D02*
X427580Y654700D01*
X571680Y654700D02*
X586920Y654700D01*
X586920Y629300D02*
X571680Y629300D01*
X571680Y603900D02*
X586920Y603900D01*
X586920Y578500D02*
X571680Y578500D01*
X571680Y553100D02*
X586920Y553100D01*
X586920Y527700D02*
X571680Y527700D01*
X571680Y502300D02*
X586920Y502300D01*
X586920Y476900D02*
X571680Y476900D01*
D19*
X160700Y485200D03*
X160700Y471200D03*
X160700Y616200D03*
X160700Y602200D03*
X350700Y616200D03*
X350700Y602200D03*
X350700Y485200D03*
X350700Y471200D03*
D20*
X74290Y479000D02*
X56510Y479000D01*
X56510Y453600D02*
X74290Y453600D01*
X74290Y504400D02*
X56510Y504400D01*
X56510Y529800D02*
X74290Y529800D01*
X74290Y555200D02*
X56510Y555200D01*
X56510Y428200D02*
X74290Y428200D01*
X74290Y402800D02*
X56510Y402800D01*
X56510Y377400D02*
X74290Y377400D01*
D15*
X49620Y596900D02*
X34380Y596900D01*
X34380Y622300D02*
X49620Y622300D01*
X49620Y647700D02*
X34380Y647700D01*
X34380Y673100D02*
X49620Y673100D01*
D11*
X430000Y691900D03*
X430000Y768100D03*
D21*
X235500Y795960D02*
X235500Y811040D01*
X235500Y746040D02*
X235500Y730960D01*
X190500Y795960D02*
X190500Y811040D01*
X190500Y746040D02*
X190500Y730960D01*
D15*
X27620Y382700D02*
X12380Y382700D01*
X12380Y357300D02*
X27620Y357300D01*
D22*
X317000Y870000D03*
D23*
X423000Y870000D03*
D24*
X404037Y834009D03*
D12*
X423963Y837991D03*
D25*
X350100Y615000D02*
X350000Y615000D01*
X350700Y602200D01*
D26*
X20000Y420000D03*
D27*
X70000Y590000D03*
D26*
X310000Y810000D03*
X363515Y665244D03*
X210000Y770000D03*
X306000Y747500D03*
D25*
X339100Y730000D02*
X402800Y666300D01*
X339100Y730000D02*
X320000Y730000D01*
X306000Y744000D01*
X306000Y747500D01*
D28*
X131100Y740000D02*
X100000Y740000D01*
X80000Y720000D01*
X80000Y630000D01*
X160000Y550000D01*
D29*
X250000Y860000D03*
D28*
X211289Y429900D02*
X170100Y429900D01*
X160000Y440000D01*
X160700Y440700D01*
D30*
X160000Y550000D03*
D28*
X211289Y498711D01*
X211289Y431264D01*
X211298Y431255D01*
X160700Y471200D02*
X160700Y485200D01*
X160700Y471200D02*
X160000Y470500D01*
X160000Y440000D01*
X200000Y860000D02*
X250000Y860000D01*
D30*
X200000Y860000D03*
D28*
X161204Y821204D01*
X161204Y809902D01*
X160651Y809349D01*
X160651Y769551D01*
X131100Y740000D01*
D25*
X345000Y652500D02*
X355000Y652500D01*
D27*
X345000Y652500D03*
D31*
X470000Y670000D03*
D26*
X530000Y680000D03*
D25*
X480000Y680000D01*
X470000Y670000D01*
D26*
X410000Y568132D03*
D25*
X390000Y588132D01*
X390000Y617500D02*
X355000Y652500D01*
X390000Y617500D02*
X390000Y588132D01*
X157500Y857500D02*
X96000Y857500D01*
X157500Y857500D02*
X170000Y870000D01*
D31*
X170000Y870000D03*
X15000Y562249D03*
D25*
X90000Y851500D02*
X96000Y857500D01*
X90000Y840000D02*
X75504Y825504D01*
X75504Y813837D02*
X66363Y804696D01*
X60200Y804696D01*
X15000Y759496D01*
X75504Y813837D02*
X75504Y825504D01*
X90000Y840000D02*
X90000Y851500D01*
X15000Y759496D02*
X15000Y630000D01*
X15000Y562249D01*
D26*
X22032Y630000D03*
D25*
X15000Y630000D01*
D28*
X460000Y430000D02*
X540000Y510000D01*
X540000Y640000D01*
D26*
X540000Y640000D03*
D30*
X460000Y430000D03*
D31*
X412000Y409000D03*
D28*
X460000Y430000D01*
X412000Y409000D02*
X350000Y430000D01*
X350700Y471200D02*
X350700Y485200D01*
X350700Y471200D02*
X350700Y430700D01*
X350000Y430000D01*
D26*
X226000Y577000D03*
X211000Y560000D03*
X400000Y710000D03*
D25*
X350000Y760000D01*
X350000Y780000D01*
X340000Y790000D01*
X249000Y790000D01*
X235500Y803500D01*
X235500Y738500D01*
M02*
