G04 EAGLE Gerber X2 export*
%TF.Part,Single*%
%TF.FileFunction,Copper,L2,Bot,Mixed*%
%TF.FilePolarity,Positive*%
%TF.GenerationSoftware,Autodesk,EAGLE,9.1.2*%
%TF.CreationDate,2018-09-19T13:29:08Z*%
G75*
%MOMM*%
%FSLAX34Y34*%
%LPD*%
%AMOC8*
5,1,8,0,0,1.08239X$1,22.5*%
G01*
%ADD10C,2.550000*%
%ADD11P,1.429621X8X112.500000*%
%ADD12C,1.320800*%
%ADD13C,1.651000*%
%ADD14P,1.429621X8X292.500000*%
%ADD15C,1.524000*%
%ADD16C,1.320800*%
%ADD17P,2.336880X8X292.500000*%
%ADD18C,0.198000*%
%ADD19R,4.000000X4.000000*%
%ADD20C,0.139500*%
%ADD21C,0.196500*%
%ADD22C,1.778000*%
%ADD23C,1.508000*%
%ADD24C,2.247900*%
%ADD25C,1.206400*%
%ADD26C,0.600000*%
%ADD27C,0.800000*%
%ADD28C,2.000000*%
%ADD29C,2.500000*%
%ADD30C,0.800000*%
%ADD31C,1.000000*%
%ADD32R,1.206400X1.206400*%
%ADD33C,0.600000*%
%ADD34C,1.500000*%
%ADD35C,1.500000*%

G36*
X647984Y341526D02*
X647984Y341526D01*
X647993Y341525D01*
X648081Y341546D01*
X648171Y341564D01*
X648178Y341569D01*
X648186Y341571D01*
X648259Y341625D01*
X648335Y341677D01*
X648339Y341684D01*
X648346Y341689D01*
X648393Y341767D01*
X648442Y341844D01*
X648443Y341853D01*
X648448Y341860D01*
X648475Y342024D01*
X648475Y997976D01*
X648474Y997984D01*
X648475Y997993D01*
X648454Y998081D01*
X648436Y998171D01*
X648431Y998178D01*
X648429Y998186D01*
X648375Y998259D01*
X648323Y998335D01*
X648316Y998339D01*
X648311Y998346D01*
X648233Y998393D01*
X648156Y998442D01*
X648147Y998443D01*
X648140Y998448D01*
X647976Y998475D01*
X286251Y998475D01*
X286249Y998475D01*
X286247Y998475D01*
X286153Y998455D01*
X286056Y998436D01*
X286055Y998434D01*
X286053Y998434D01*
X285972Y998378D01*
X285893Y998323D01*
X285891Y998321D01*
X285890Y998320D01*
X285838Y998237D01*
X285786Y998156D01*
X285785Y998153D01*
X285784Y998152D01*
X285769Y998056D01*
X285752Y997959D01*
X285753Y997957D01*
X285753Y997955D01*
X285776Y997861D01*
X285798Y997766D01*
X285800Y997764D01*
X285800Y997762D01*
X285860Y997683D01*
X285916Y997606D01*
X285918Y997605D01*
X285919Y997603D01*
X286060Y997515D01*
X286710Y997246D01*
X286719Y997244D01*
X286730Y997238D01*
X289809Y996112D01*
X290042Y995899D01*
X290045Y995896D01*
X290048Y995893D01*
X290188Y995805D01*
X290480Y995684D01*
X292799Y993365D01*
X292807Y993360D01*
X292814Y993350D01*
X313507Y974332D01*
X313509Y974331D01*
X313510Y974330D01*
X313593Y974281D01*
X313678Y974230D01*
X313680Y974229D01*
X313681Y974228D01*
X313845Y974201D01*
X354485Y974201D01*
X356557Y973343D01*
X356571Y973340D01*
X356584Y973332D01*
X356748Y973305D01*
X360911Y973305D01*
X365544Y971386D01*
X369090Y967840D01*
X369473Y966914D01*
X369477Y966908D01*
X369478Y966902D01*
X369533Y966826D01*
X369585Y966749D01*
X369590Y966745D01*
X369594Y966740D01*
X369673Y966692D01*
X369751Y966640D01*
X369758Y966639D01*
X369763Y966636D01*
X369855Y966622D01*
X369947Y966606D01*
X369953Y966607D01*
X369959Y966606D01*
X370050Y966629D01*
X370141Y966650D01*
X370146Y966654D01*
X370152Y966655D01*
X370288Y966752D01*
X375590Y972054D01*
X381520Y977984D01*
X388320Y980801D01*
X411317Y980801D01*
X411332Y980804D01*
X411346Y980802D01*
X411508Y980839D01*
X412020Y981051D01*
X444980Y981051D01*
X451871Y978196D01*
X457146Y972921D01*
X460001Y966030D01*
X460001Y958570D01*
X457146Y951679D01*
X451871Y946404D01*
X444980Y943549D01*
X412020Y943549D01*
X411508Y943761D01*
X411494Y943764D01*
X411481Y943772D01*
X411317Y943799D01*
X405000Y943799D01*
X404992Y943798D01*
X404983Y943799D01*
X404895Y943778D01*
X404805Y943760D01*
X404798Y943755D01*
X404790Y943753D01*
X404717Y943699D01*
X404641Y943647D01*
X404637Y943640D01*
X404630Y943635D01*
X404583Y943557D01*
X404534Y943480D01*
X404533Y943471D01*
X404528Y943464D01*
X404501Y943300D01*
X404501Y937620D01*
X401886Y931307D01*
X401878Y931266D01*
X401861Y931228D01*
X401859Y931170D01*
X401848Y931112D01*
X401856Y931071D01*
X401855Y931030D01*
X401877Y930975D01*
X401889Y930917D01*
X401913Y930883D01*
X401922Y930859D01*
X401908Y930862D01*
X401832Y930842D01*
X401755Y930829D01*
X401737Y930818D01*
X401716Y930812D01*
X401613Y930739D01*
X401587Y930723D01*
X401584Y930719D01*
X401580Y930716D01*
X390480Y919616D01*
X383680Y916799D01*
X369937Y916799D01*
X369930Y916798D01*
X369924Y916799D01*
X369833Y916778D01*
X369742Y916760D01*
X369737Y916756D01*
X369730Y916755D01*
X369655Y916700D01*
X369578Y916647D01*
X369574Y916642D01*
X369569Y916638D01*
X369521Y916558D01*
X369471Y916480D01*
X369470Y916473D01*
X369467Y916468D01*
X369453Y916376D01*
X369438Y916283D01*
X369439Y916277D01*
X369438Y916271D01*
X369475Y916109D01*
X371009Y912407D01*
X371009Y907393D01*
X369090Y902760D01*
X365544Y899214D01*
X362561Y897979D01*
X362548Y897970D01*
X362534Y897967D01*
X362399Y897870D01*
X360864Y896335D01*
X354983Y893899D01*
X311970Y893899D01*
X311958Y893897D01*
X311945Y893899D01*
X311861Y893877D01*
X311775Y893860D01*
X311765Y893853D01*
X311753Y893849D01*
X311617Y893753D01*
X311480Y893616D01*
X310547Y893230D01*
X310535Y893221D01*
X310521Y893218D01*
X310385Y893121D01*
X304721Y887457D01*
X304719Y887453D01*
X304715Y887451D01*
X304664Y887371D01*
X304611Y887291D01*
X304610Y887287D01*
X304608Y887284D01*
X304592Y887190D01*
X304575Y887096D01*
X304576Y887092D01*
X304575Y887087D01*
X304597Y886995D01*
X304618Y886902D01*
X304620Y886898D01*
X304621Y886894D01*
X304677Y886818D01*
X304733Y886739D01*
X304736Y886737D01*
X304739Y886734D01*
X304821Y886685D01*
X304902Y886635D01*
X304906Y886635D01*
X304910Y886632D01*
X305074Y886605D01*
X308011Y886605D01*
X312644Y884686D01*
X316190Y881140D01*
X318109Y876507D01*
X318109Y871493D01*
X316190Y866860D01*
X312644Y863314D01*
X312372Y863201D01*
X312051Y863069D01*
X312046Y863065D01*
X312039Y863064D01*
X311963Y863009D01*
X311886Y862957D01*
X311883Y862952D01*
X311877Y862948D01*
X311828Y862869D01*
X311778Y862791D01*
X311776Y862784D01*
X311773Y862779D01*
X311759Y862687D01*
X311743Y862595D01*
X311744Y862589D01*
X311743Y862583D01*
X311766Y862492D01*
X311787Y862401D01*
X311791Y862396D01*
X311792Y862390D01*
X311889Y862254D01*
X316256Y857887D01*
X316262Y857883D01*
X316266Y857878D01*
X316268Y857876D01*
X316346Y857828D01*
X316421Y857778D01*
X316430Y857776D01*
X316437Y857772D01*
X316527Y857758D01*
X316617Y857741D01*
X316625Y857743D01*
X316633Y857742D01*
X316722Y857764D01*
X316811Y857784D01*
X316818Y857789D01*
X316826Y857791D01*
X316962Y857887D01*
X317579Y858505D01*
X328021Y858505D01*
X335405Y851121D01*
X335405Y840679D01*
X328021Y833295D01*
X317579Y833295D01*
X315121Y835753D01*
X315111Y835760D01*
X315103Y835770D01*
X315028Y835815D01*
X314955Y835863D01*
X314943Y835865D01*
X314932Y835872D01*
X314768Y835899D01*
X312111Y835899D01*
X308435Y837422D01*
X290673Y855184D01*
X290671Y855185D01*
X290670Y855187D01*
X290588Y855240D01*
X290507Y855294D01*
X290505Y855294D01*
X290503Y855295D01*
X290464Y855302D01*
X290449Y855370D01*
X288899Y859111D01*
X288899Y861430D01*
X288897Y861440D01*
X288899Y861451D01*
X288878Y861537D01*
X288860Y861625D01*
X288854Y861634D01*
X288851Y861644D01*
X288798Y861715D01*
X288747Y861789D01*
X288738Y861795D01*
X288732Y861803D01*
X288591Y861891D01*
X285156Y863314D01*
X283220Y865250D01*
X283213Y865255D01*
X283208Y865262D01*
X283131Y865309D01*
X283054Y865360D01*
X283046Y865361D01*
X283039Y865366D01*
X282949Y865379D01*
X282859Y865396D01*
X282851Y865394D01*
X282842Y865396D01*
X282754Y865373D01*
X282665Y865353D01*
X282658Y865349D01*
X282650Y865346D01*
X282514Y865250D01*
X278872Y861608D01*
X278870Y861604D01*
X278866Y861602D01*
X278815Y861522D01*
X278762Y861442D01*
X278761Y861438D01*
X278759Y861435D01*
X278743Y861341D01*
X278726Y861247D01*
X278727Y861243D01*
X278726Y861238D01*
X278748Y861147D01*
X278769Y861053D01*
X278771Y861049D01*
X278772Y861045D01*
X278828Y860969D01*
X278884Y860890D01*
X278887Y860888D01*
X278890Y860885D01*
X278972Y860836D01*
X279053Y860786D01*
X279057Y860786D01*
X279061Y860783D01*
X279225Y860756D01*
X280636Y860756D01*
X285875Y858585D01*
X289634Y854826D01*
X289636Y854825D01*
X289637Y854823D01*
X289719Y854770D01*
X289800Y854717D01*
X289802Y854716D01*
X289804Y854715D01*
X289843Y854708D01*
X289859Y854640D01*
X292056Y849336D01*
X292056Y843664D01*
X289885Y838425D01*
X285875Y834415D01*
X280919Y832362D01*
X280900Y832348D01*
X280876Y832342D01*
X280818Y832293D01*
X280755Y832251D01*
X280741Y832230D01*
X280723Y832215D01*
X280688Y832148D01*
X280646Y832084D01*
X280642Y832060D01*
X280631Y832039D01*
X280625Y831963D01*
X280611Y831888D01*
X280617Y831865D01*
X280615Y831841D01*
X280639Y831769D01*
X280656Y831694D01*
X280670Y831675D01*
X280677Y831652D01*
X280728Y831595D01*
X280772Y831533D01*
X280793Y831521D01*
X280809Y831503D01*
X280912Y831449D01*
X280943Y831430D01*
X280949Y831429D01*
X280956Y831426D01*
X281944Y831105D01*
X283458Y830333D01*
X284833Y829335D01*
X286035Y828133D01*
X287033Y826758D01*
X287805Y825244D01*
X288330Y823628D01*
X288572Y822099D01*
X278300Y822099D01*
X278292Y822098D01*
X278284Y822099D01*
X278195Y822078D01*
X278105Y822060D01*
X278098Y822055D01*
X278090Y822053D01*
X278017Y821999D01*
X277941Y821947D01*
X277937Y821940D01*
X277930Y821935D01*
X277884Y821857D01*
X277834Y821780D01*
X277833Y821771D01*
X277829Y821764D01*
X277801Y821600D01*
X277801Y821099D01*
X277799Y821099D01*
X277799Y821600D01*
X277797Y821608D01*
X277799Y821616D01*
X277778Y821705D01*
X277760Y821795D01*
X277755Y821802D01*
X277753Y821810D01*
X277699Y821883D01*
X277647Y821959D01*
X277640Y821963D01*
X277635Y821970D01*
X277557Y822016D01*
X277479Y822066D01*
X277471Y822067D01*
X277464Y822071D01*
X277300Y822099D01*
X267028Y822099D01*
X267270Y823628D01*
X267795Y825244D01*
X268567Y826758D01*
X269565Y828133D01*
X270767Y829335D01*
X272142Y830333D01*
X273656Y831105D01*
X274644Y831426D01*
X274665Y831438D01*
X274688Y831443D01*
X274751Y831486D01*
X274817Y831524D01*
X274831Y831543D01*
X274851Y831556D01*
X274892Y831621D01*
X274938Y831681D01*
X274944Y831705D01*
X274957Y831725D01*
X274969Y831800D01*
X274988Y831874D01*
X274985Y831898D01*
X274988Y831921D01*
X274970Y831995D01*
X274959Y832070D01*
X274946Y832091D01*
X274941Y832114D01*
X274895Y832175D01*
X274855Y832240D01*
X274836Y832254D01*
X274822Y832273D01*
X274723Y832335D01*
X274694Y832356D01*
X274687Y832358D01*
X274681Y832362D01*
X269725Y834415D01*
X265715Y838425D01*
X263544Y843664D01*
X263544Y845075D01*
X263543Y845079D01*
X263544Y845083D01*
X263524Y845177D01*
X263505Y845270D01*
X263502Y845273D01*
X263501Y845277D01*
X263446Y845355D01*
X263392Y845434D01*
X263389Y845436D01*
X263386Y845439D01*
X263305Y845489D01*
X263225Y845541D01*
X263220Y845542D01*
X263217Y845544D01*
X263123Y845558D01*
X263028Y845574D01*
X263024Y845573D01*
X263020Y845574D01*
X262928Y845550D01*
X262835Y845528D01*
X262832Y845525D01*
X262828Y845524D01*
X262692Y845428D01*
X251458Y834194D01*
X244658Y831378D01*
X221390Y831378D01*
X221302Y831360D01*
X221213Y831345D01*
X221204Y831340D01*
X221195Y831338D01*
X221162Y831315D01*
X221069Y831261D01*
X216263Y827243D01*
X209719Y825192D01*
X202887Y825802D01*
X196809Y828979D01*
X192410Y834241D01*
X190359Y840786D01*
X190968Y847617D01*
X194146Y853695D01*
X199969Y858564D01*
X199992Y858593D01*
X200022Y858615D01*
X200065Y858685D01*
X200093Y858720D01*
X200098Y858737D01*
X200110Y858756D01*
X200774Y860358D01*
X205978Y865563D01*
X210586Y867471D01*
X210617Y867492D01*
X210715Y867550D01*
X216653Y872514D01*
X223197Y874565D01*
X230029Y873955D01*
X235524Y871083D01*
X235555Y871073D01*
X235583Y871056D01*
X235650Y871046D01*
X235715Y871027D01*
X235747Y871031D01*
X235780Y871026D01*
X235845Y871043D01*
X235912Y871051D01*
X235941Y871067D01*
X235972Y871076D01*
X236046Y871128D01*
X236085Y871150D01*
X236093Y871162D01*
X236108Y871172D01*
X284646Y919710D01*
X288350Y923414D01*
X288353Y923419D01*
X288359Y923423D01*
X288408Y923502D01*
X288460Y923580D01*
X288461Y923586D01*
X288464Y923591D01*
X288479Y923683D01*
X288496Y923775D01*
X288495Y923781D01*
X288496Y923788D01*
X288474Y923878D01*
X288453Y923969D01*
X288450Y923975D01*
X288448Y923981D01*
X288392Y924055D01*
X288338Y924131D01*
X288333Y924135D01*
X288329Y924140D01*
X288188Y924228D01*
X287256Y924614D01*
X283710Y928160D01*
X281791Y932793D01*
X281791Y937807D01*
X283710Y942440D01*
X287256Y945986D01*
X288197Y946376D01*
X288211Y946385D01*
X288227Y946389D01*
X288293Y946440D01*
X288362Y946487D01*
X288371Y946501D01*
X288385Y946511D01*
X288425Y946584D01*
X288470Y946653D01*
X288473Y946670D01*
X288482Y946685D01*
X288491Y946767D01*
X288505Y946849D01*
X288501Y946866D01*
X288503Y946883D01*
X288479Y946962D01*
X288461Y947043D01*
X288451Y947057D01*
X288446Y947073D01*
X288345Y947203D01*
X288344Y947204D01*
X272933Y961368D01*
X272931Y961369D01*
X272930Y961370D01*
X272848Y961419D01*
X272763Y961470D01*
X272761Y961471D01*
X272759Y961472D01*
X272595Y961499D01*
X237870Y961499D01*
X237858Y961497D01*
X237845Y961499D01*
X237761Y961477D01*
X237675Y961460D01*
X237665Y961453D01*
X237653Y961449D01*
X237517Y961353D01*
X230647Y954483D01*
X230640Y954472D01*
X230630Y954465D01*
X230585Y954390D01*
X230537Y954317D01*
X230535Y954305D01*
X230528Y954294D01*
X230501Y954130D01*
X230501Y945683D01*
X230504Y945668D01*
X230502Y945654D01*
X230539Y945492D01*
X230751Y944980D01*
X230751Y912020D01*
X227896Y905129D01*
X222621Y899854D01*
X215730Y896999D01*
X208270Y896999D01*
X201379Y899854D01*
X196104Y905129D01*
X193249Y912020D01*
X193249Y944980D01*
X193461Y945492D01*
X193464Y945506D01*
X193472Y945519D01*
X193499Y945683D01*
X193499Y965680D01*
X196316Y972480D01*
X219520Y995684D01*
X223940Y997515D01*
X223941Y997516D01*
X223944Y997516D01*
X224023Y997571D01*
X224105Y997626D01*
X224106Y997628D01*
X224107Y997629D01*
X224159Y997710D01*
X224213Y997793D01*
X224213Y997795D01*
X224214Y997796D01*
X224231Y997892D01*
X224248Y997988D01*
X224247Y997990D01*
X224248Y997993D01*
X224225Y998086D01*
X224203Y998182D01*
X224202Y998184D01*
X224202Y998186D01*
X224145Y998263D01*
X224087Y998343D01*
X224085Y998344D01*
X224084Y998346D01*
X224001Y998395D01*
X223917Y998446D01*
X223914Y998446D01*
X223913Y998448D01*
X223749Y998475D01*
X2024Y998475D01*
X2016Y998474D01*
X2007Y998475D01*
X1919Y998454D01*
X1829Y998436D01*
X1822Y998431D01*
X1814Y998429D01*
X1741Y998375D01*
X1665Y998323D01*
X1661Y998316D01*
X1654Y998311D01*
X1607Y998233D01*
X1558Y998156D01*
X1557Y998147D01*
X1552Y998140D01*
X1525Y997976D01*
X1525Y871460D01*
X1526Y871456D01*
X1525Y871452D01*
X1545Y871358D01*
X1564Y871265D01*
X1567Y871261D01*
X1568Y871257D01*
X1623Y871179D01*
X1677Y871101D01*
X1680Y871099D01*
X1683Y871095D01*
X1764Y871045D01*
X1844Y870994D01*
X1849Y870993D01*
X1852Y870991D01*
X1946Y870977D01*
X2041Y870961D01*
X2045Y870962D01*
X2049Y870961D01*
X2141Y870985D01*
X2234Y871007D01*
X2237Y871009D01*
X2241Y871010D01*
X2377Y871107D01*
X3353Y872083D01*
X3360Y872093D01*
X3370Y872101D01*
X3415Y872176D01*
X3463Y872249D01*
X3465Y872261D01*
X3472Y872272D01*
X3499Y872436D01*
X3499Y874290D01*
X4870Y877599D01*
X93313Y966042D01*
X96622Y967413D01*
X109241Y967413D01*
X109254Y967415D01*
X109266Y967413D01*
X109350Y967435D01*
X109436Y967452D01*
X109446Y967459D01*
X109459Y967463D01*
X109594Y967559D01*
X117243Y975208D01*
X131157Y975208D01*
X140996Y965369D01*
X140996Y951455D01*
X131157Y941616D01*
X117243Y941616D01*
X109594Y949265D01*
X109584Y949272D01*
X109576Y949282D01*
X109501Y949327D01*
X109428Y949375D01*
X109416Y949377D01*
X109405Y949384D01*
X109241Y949411D01*
X102347Y949411D01*
X102335Y949409D01*
X102322Y949411D01*
X102238Y949389D01*
X102152Y949372D01*
X102142Y949365D01*
X102130Y949361D01*
X101994Y949265D01*
X23447Y870718D01*
X23441Y870709D01*
X23433Y870703D01*
X23387Y870627D01*
X23337Y870552D01*
X23335Y870542D01*
X23330Y870533D01*
X23317Y870445D01*
X23301Y870357D01*
X23303Y870347D01*
X23302Y870336D01*
X23339Y870174D01*
X24739Y866795D01*
X24741Y866791D01*
X24742Y866787D01*
X24797Y866708D01*
X24850Y866630D01*
X24853Y866628D01*
X24856Y866624D01*
X24937Y866574D01*
X25017Y866521D01*
X25021Y866521D01*
X25024Y866519D01*
X25118Y866503D01*
X25212Y866487D01*
X25216Y866488D01*
X25221Y866487D01*
X25312Y866510D01*
X25406Y866531D01*
X25410Y866534D01*
X25414Y866535D01*
X25490Y866592D01*
X25567Y866648D01*
X25569Y866651D01*
X25573Y866654D01*
X25661Y866795D01*
X27214Y870544D01*
X30760Y874090D01*
X35393Y876009D01*
X40407Y876009D01*
X45040Y874090D01*
X48586Y870544D01*
X50505Y865911D01*
X50505Y847689D01*
X48586Y843056D01*
X45040Y839510D01*
X44399Y839245D01*
X44387Y839236D01*
X44372Y839233D01*
X44237Y839136D01*
X42928Y837828D01*
X40147Y835047D01*
X40140Y835036D01*
X40130Y835029D01*
X40085Y834954D01*
X40037Y834881D01*
X40035Y834868D01*
X40028Y834858D01*
X40001Y834694D01*
X40001Y821132D01*
X40003Y821119D01*
X40001Y821107D01*
X40023Y821023D01*
X40040Y820937D01*
X40047Y820927D01*
X40051Y820914D01*
X40147Y820779D01*
X43605Y817321D01*
X43605Y806879D01*
X36221Y799495D01*
X25779Y799495D01*
X18395Y806879D01*
X18395Y817321D01*
X21853Y820779D01*
X21860Y820789D01*
X21870Y820797D01*
X21915Y820872D01*
X21963Y820945D01*
X21965Y820957D01*
X21972Y820968D01*
X21999Y821132D01*
X21999Y840419D01*
X22064Y840576D01*
X22065Y840578D01*
X22066Y840580D01*
X22084Y840678D01*
X22102Y840771D01*
X22102Y840774D01*
X22102Y840776D01*
X22081Y840874D01*
X22061Y840966D01*
X22060Y840968D01*
X22060Y840970D01*
X22002Y841051D01*
X21947Y841129D01*
X21946Y841130D01*
X21944Y841132D01*
X21861Y841183D01*
X21779Y841235D01*
X21777Y841235D01*
X21775Y841236D01*
X21678Y841251D01*
X21583Y841266D01*
X21581Y841266D01*
X21578Y841266D01*
X21484Y841242D01*
X21390Y841219D01*
X21388Y841217D01*
X21386Y841217D01*
X21250Y841120D01*
X19640Y839510D01*
X15007Y837591D01*
X9993Y837591D01*
X5360Y839510D01*
X2377Y842493D01*
X2373Y842496D01*
X2371Y842499D01*
X2291Y842550D01*
X2211Y842603D01*
X2207Y842604D01*
X2204Y842606D01*
X2110Y842622D01*
X2016Y842639D01*
X2012Y842638D01*
X2007Y842639D01*
X1916Y842617D01*
X1822Y842597D01*
X1818Y842594D01*
X1814Y842593D01*
X1738Y842537D01*
X1659Y842481D01*
X1657Y842478D01*
X1654Y842475D01*
X1605Y842393D01*
X1555Y842312D01*
X1555Y842308D01*
X1552Y842304D01*
X1525Y842140D01*
X1525Y720359D01*
X1526Y720355D01*
X1525Y720351D01*
X1545Y720257D01*
X1564Y720164D01*
X1567Y720161D01*
X1568Y720157D01*
X1623Y720079D01*
X1677Y720000D01*
X1680Y719998D01*
X1683Y719994D01*
X1764Y719945D01*
X1844Y719893D01*
X1849Y719892D01*
X1852Y719890D01*
X1946Y719876D01*
X2041Y719860D01*
X2045Y719861D01*
X2049Y719860D01*
X2141Y719884D01*
X2234Y719906D01*
X2237Y719909D01*
X2241Y719910D01*
X2377Y720006D01*
X18249Y735878D01*
X18256Y735889D01*
X18266Y735896D01*
X18311Y735971D01*
X18359Y736044D01*
X18361Y736056D01*
X18368Y736067D01*
X18395Y736231D01*
X18395Y741121D01*
X25779Y748505D01*
X36221Y748505D01*
X43605Y741121D01*
X43605Y730679D01*
X36221Y723295D01*
X31331Y723295D01*
X31319Y723293D01*
X31306Y723295D01*
X31222Y723273D01*
X31136Y723256D01*
X31126Y723249D01*
X31114Y723245D01*
X30978Y723149D01*
X15147Y707318D01*
X15140Y707307D01*
X15130Y707300D01*
X15085Y707225D01*
X15037Y707152D01*
X15035Y707140D01*
X15028Y707129D01*
X15001Y706965D01*
X15001Y640859D01*
X15002Y640853D01*
X15001Y640846D01*
X15022Y640755D01*
X15040Y640664D01*
X15044Y640659D01*
X15045Y640653D01*
X15100Y640577D01*
X15153Y640500D01*
X15158Y640497D01*
X15162Y640492D01*
X15242Y640443D01*
X15320Y640393D01*
X15327Y640392D01*
X15332Y640389D01*
X15424Y640375D01*
X15517Y640360D01*
X15523Y640361D01*
X15529Y640360D01*
X15691Y640398D01*
X19639Y642033D01*
X21237Y642033D01*
X21244Y642034D01*
X21250Y642033D01*
X21340Y642054D01*
X21432Y642072D01*
X21437Y642076D01*
X21444Y642077D01*
X21519Y642132D01*
X21596Y642185D01*
X21600Y642190D01*
X21605Y642194D01*
X21653Y642274D01*
X21703Y642352D01*
X21704Y642359D01*
X21707Y642364D01*
X21721Y642456D01*
X21736Y642549D01*
X21735Y642555D01*
X21736Y642561D01*
X21699Y642723D01*
X20759Y644991D01*
X20759Y650409D01*
X22833Y655416D01*
X26665Y659247D01*
X28334Y659939D01*
X28338Y659941D01*
X28342Y659942D01*
X28421Y659997D01*
X28499Y660050D01*
X28501Y660053D01*
X28505Y660056D01*
X28556Y660137D01*
X28608Y660217D01*
X28608Y660221D01*
X28611Y660224D01*
X28626Y660318D01*
X28642Y660412D01*
X28641Y660416D01*
X28642Y660421D01*
X28619Y660513D01*
X28598Y660606D01*
X28595Y660610D01*
X28594Y660614D01*
X28537Y660690D01*
X28481Y660767D01*
X28478Y660769D01*
X28475Y660773D01*
X28334Y660861D01*
X26664Y661553D01*
X22833Y665384D01*
X20759Y670391D01*
X20759Y675809D01*
X22833Y680816D01*
X26664Y684647D01*
X31671Y686721D01*
X45448Y686721D01*
X45452Y686722D01*
X45456Y686721D01*
X45550Y686741D01*
X45643Y686760D01*
X45647Y686763D01*
X45651Y686764D01*
X45729Y686819D01*
X45807Y686873D01*
X45809Y686876D01*
X45813Y686879D01*
X45863Y686960D01*
X45914Y687040D01*
X45915Y687045D01*
X45917Y687048D01*
X45931Y687142D01*
X45947Y687237D01*
X45946Y687241D01*
X45947Y687245D01*
X45923Y687337D01*
X45901Y687430D01*
X45899Y687433D01*
X45898Y687437D01*
X45801Y687573D01*
X42395Y690979D01*
X42395Y701421D01*
X49779Y708805D01*
X60221Y708805D01*
X67605Y701421D01*
X67605Y699500D01*
X67606Y699492D01*
X67605Y699483D01*
X67626Y699395D01*
X67644Y699305D01*
X67649Y699298D01*
X67651Y699290D01*
X67705Y699217D01*
X67757Y699141D01*
X67764Y699137D01*
X67769Y699130D01*
X67847Y699083D01*
X67924Y699034D01*
X67933Y699033D01*
X67940Y699028D01*
X68104Y699001D01*
X81790Y699001D01*
X85099Y697630D01*
X97630Y685099D01*
X99001Y681790D01*
X99001Y633935D01*
X99003Y633923D01*
X99001Y633910D01*
X99023Y633826D01*
X99040Y633740D01*
X99047Y633730D01*
X99051Y633718D01*
X99147Y633582D01*
X105947Y626782D01*
X105951Y626780D01*
X105953Y626776D01*
X106033Y626725D01*
X106113Y626672D01*
X106117Y626671D01*
X106120Y626669D01*
X106214Y626653D01*
X106308Y626636D01*
X106312Y626637D01*
X106317Y626636D01*
X106408Y626658D01*
X106502Y626679D01*
X106506Y626681D01*
X106510Y626682D01*
X106586Y626738D01*
X106665Y626794D01*
X106667Y626797D01*
X106670Y626800D01*
X106719Y626882D01*
X106769Y626963D01*
X106769Y626967D01*
X106772Y626971D01*
X106799Y627135D01*
X106799Y634451D01*
X107864Y637020D01*
X109830Y638986D01*
X109951Y639037D01*
X109960Y639042D01*
X109970Y639045D01*
X110042Y639098D01*
X110116Y639148D01*
X110122Y639157D01*
X110130Y639163D01*
X110175Y639239D01*
X110224Y639314D01*
X110226Y639325D01*
X110232Y639334D01*
X110259Y639498D01*
X110259Y641251D01*
X120800Y641251D01*
X120808Y641252D01*
X120816Y641251D01*
X120905Y641272D01*
X120995Y641290D01*
X121002Y641295D01*
X121010Y641297D01*
X121083Y641351D01*
X121159Y641403D01*
X121163Y641410D01*
X121170Y641415D01*
X121216Y641493D01*
X121266Y641570D01*
X121267Y641579D01*
X121271Y641586D01*
X121299Y641750D01*
X121299Y642750D01*
X121297Y642758D01*
X121299Y642766D01*
X121278Y642855D01*
X121260Y642945D01*
X121255Y642952D01*
X121253Y642960D01*
X121199Y643033D01*
X121147Y643109D01*
X121140Y643113D01*
X121135Y643120D01*
X121057Y643166D01*
X120979Y643216D01*
X120971Y643217D01*
X120964Y643221D01*
X120800Y643249D01*
X110259Y643249D01*
X110259Y646225D01*
X110500Y647123D01*
X110965Y647928D01*
X111622Y648585D01*
X112427Y649050D01*
X113325Y649291D01*
X117476Y649291D01*
X117484Y649292D01*
X117493Y649291D01*
X117581Y649312D01*
X117671Y649330D01*
X117678Y649335D01*
X117686Y649337D01*
X117759Y649391D01*
X117835Y649443D01*
X117839Y649450D01*
X117846Y649455D01*
X117893Y649533D01*
X117942Y649610D01*
X117943Y649619D01*
X117948Y649626D01*
X117975Y649790D01*
X117975Y720839D01*
X119161Y722025D01*
X180081Y722025D01*
X180085Y722026D01*
X180089Y722025D01*
X180182Y722045D01*
X180275Y722064D01*
X180279Y722067D01*
X180283Y722068D01*
X180361Y722123D01*
X180439Y722177D01*
X180442Y722180D01*
X180445Y722183D01*
X180495Y722264D01*
X180546Y722344D01*
X180547Y722349D01*
X180549Y722352D01*
X180564Y722446D01*
X180579Y722541D01*
X180579Y722545D01*
X180579Y722549D01*
X180556Y722641D01*
X180533Y722734D01*
X180531Y722737D01*
X180530Y722741D01*
X180434Y722877D01*
X178481Y724830D01*
X176419Y729807D01*
X176419Y735193D01*
X178481Y740170D01*
X182290Y743979D01*
X187267Y746041D01*
X207733Y746041D01*
X212710Y743979D01*
X216519Y740170D01*
X218581Y735193D01*
X218581Y729807D01*
X216519Y724830D01*
X214566Y722877D01*
X214564Y722873D01*
X214561Y722871D01*
X214510Y722791D01*
X214457Y722711D01*
X214456Y722707D01*
X214454Y722704D01*
X214438Y722610D01*
X214420Y722516D01*
X214421Y722512D01*
X214421Y722507D01*
X214442Y722416D01*
X214463Y722322D01*
X214466Y722318D01*
X214467Y722314D01*
X214523Y722238D01*
X214578Y722159D01*
X214582Y722157D01*
X214584Y722154D01*
X214666Y722105D01*
X214748Y722055D01*
X214752Y722055D01*
X214755Y722052D01*
X214919Y722025D01*
X245081Y722025D01*
X245085Y722026D01*
X245089Y722025D01*
X245182Y722045D01*
X245275Y722064D01*
X245279Y722067D01*
X245283Y722068D01*
X245361Y722123D01*
X245439Y722177D01*
X245442Y722180D01*
X245445Y722183D01*
X245495Y722264D01*
X245546Y722344D01*
X245547Y722349D01*
X245549Y722352D01*
X245564Y722446D01*
X245579Y722541D01*
X245579Y722545D01*
X245579Y722549D01*
X245556Y722641D01*
X245533Y722734D01*
X245531Y722737D01*
X245530Y722741D01*
X245434Y722877D01*
X243481Y724830D01*
X241419Y729807D01*
X241419Y735193D01*
X243481Y740170D01*
X247290Y743979D01*
X252267Y746041D01*
X272733Y746041D01*
X277710Y743979D01*
X281519Y740170D01*
X283581Y735193D01*
X283581Y729807D01*
X281519Y724830D01*
X279566Y722877D01*
X279564Y722873D01*
X279561Y722871D01*
X279510Y722791D01*
X279457Y722711D01*
X279456Y722707D01*
X279454Y722704D01*
X279438Y722610D01*
X279420Y722516D01*
X279421Y722512D01*
X279421Y722507D01*
X279442Y722416D01*
X279463Y722322D01*
X279466Y722318D01*
X279467Y722314D01*
X279523Y722238D01*
X279578Y722159D01*
X279582Y722157D01*
X279584Y722154D01*
X279666Y722105D01*
X279748Y722055D01*
X279752Y722055D01*
X279755Y722052D01*
X279919Y722025D01*
X300839Y722025D01*
X302025Y720839D01*
X302025Y649790D01*
X302026Y649782D01*
X302025Y649773D01*
X302046Y649685D01*
X302064Y649595D01*
X302069Y649588D01*
X302071Y649580D01*
X302125Y649507D01*
X302177Y649431D01*
X302184Y649427D01*
X302189Y649420D01*
X302267Y649373D01*
X302344Y649324D01*
X302353Y649323D01*
X302360Y649318D01*
X302524Y649291D01*
X309275Y649291D01*
X310173Y649050D01*
X310978Y648585D01*
X311635Y647928D01*
X312100Y647123D01*
X312341Y646225D01*
X312341Y643249D01*
X301800Y643249D01*
X301792Y643247D01*
X301784Y643249D01*
X301695Y643228D01*
X301605Y643210D01*
X301598Y643205D01*
X301590Y643203D01*
X301517Y643149D01*
X301441Y643097D01*
X301437Y643090D01*
X301430Y643085D01*
X301384Y643007D01*
X301334Y642929D01*
X301333Y642921D01*
X301329Y642914D01*
X301301Y642750D01*
X301301Y641750D01*
X301303Y641742D01*
X301301Y641734D01*
X301322Y641645D01*
X301340Y641555D01*
X301345Y641548D01*
X301347Y641540D01*
X301401Y641467D01*
X301453Y641391D01*
X301460Y641387D01*
X301465Y641380D01*
X301543Y641334D01*
X301621Y641284D01*
X301629Y641283D01*
X301636Y641279D01*
X301800Y641251D01*
X312341Y641251D01*
X312341Y639500D01*
X312342Y639492D01*
X312341Y639483D01*
X312362Y639395D01*
X312380Y639305D01*
X312385Y639298D01*
X312387Y639290D01*
X312441Y639217D01*
X312493Y639141D01*
X312500Y639137D01*
X312505Y639130D01*
X312583Y639083D01*
X312660Y639034D01*
X312669Y639033D01*
X312676Y639028D01*
X312840Y639001D01*
X316065Y639001D01*
X316077Y639003D01*
X316090Y639001D01*
X316174Y639023D01*
X316260Y639040D01*
X316270Y639047D01*
X316282Y639051D01*
X316418Y639147D01*
X330521Y653250D01*
X330528Y653261D01*
X330538Y653268D01*
X330583Y653343D01*
X330631Y653416D01*
X330633Y653428D01*
X330640Y653439D01*
X330667Y653603D01*
X330667Y655093D01*
X332499Y659516D01*
X333553Y660570D01*
X333560Y660580D01*
X333570Y660588D01*
X333615Y660663D01*
X333663Y660736D01*
X333665Y660748D01*
X333672Y660759D01*
X333699Y660923D01*
X333699Y672466D01*
X333697Y672479D01*
X333699Y672491D01*
X333677Y672575D01*
X333660Y672661D01*
X333653Y672671D01*
X333649Y672684D01*
X333553Y672819D01*
X333069Y673303D01*
X332049Y675765D01*
X332049Y690135D01*
X333069Y692597D01*
X333553Y693081D01*
X333560Y693091D01*
X333570Y693099D01*
X333615Y693174D01*
X333663Y693247D01*
X333665Y693259D01*
X333672Y693270D01*
X333699Y693434D01*
X333699Y694490D01*
X335070Y697799D01*
X340903Y703632D01*
X340904Y703633D01*
X340906Y703636D01*
X340909Y703638D01*
X340960Y703718D01*
X341013Y703798D01*
X341014Y703802D01*
X341016Y703806D01*
X341032Y703899D01*
X341050Y703994D01*
X341049Y703998D01*
X341049Y704002D01*
X341027Y704094D01*
X341007Y704188D01*
X341004Y704191D01*
X341003Y704195D01*
X340947Y704271D01*
X340891Y704350D01*
X340888Y704352D01*
X340885Y704355D01*
X340804Y704404D01*
X340722Y704454D01*
X340718Y704455D01*
X340714Y704457D01*
X340550Y704485D01*
X333935Y704485D01*
X333923Y704482D01*
X333910Y704484D01*
X333826Y704462D01*
X333740Y704445D01*
X333730Y704438D01*
X333718Y704435D01*
X333582Y704338D01*
X329147Y699903D01*
X329140Y699893D01*
X329130Y699885D01*
X329085Y699810D01*
X329037Y699737D01*
X329035Y699725D01*
X329028Y699714D01*
X329001Y699550D01*
X329001Y693234D01*
X329003Y693221D01*
X329001Y693209D01*
X329023Y693125D01*
X329040Y693039D01*
X329047Y693029D01*
X329051Y693016D01*
X329147Y692881D01*
X329431Y692597D01*
X330451Y690135D01*
X330451Y675765D01*
X329431Y673303D01*
X327547Y671419D01*
X325085Y670399D01*
X314515Y670399D01*
X312053Y671419D01*
X310169Y673303D01*
X309149Y675765D01*
X309149Y690135D01*
X310169Y692597D01*
X310853Y693281D01*
X310860Y693291D01*
X310870Y693299D01*
X310915Y693374D01*
X310963Y693447D01*
X310965Y693459D01*
X310972Y693470D01*
X310999Y693634D01*
X310999Y705276D01*
X312370Y708584D01*
X324901Y721116D01*
X328210Y722486D01*
X358500Y722486D01*
X358508Y722488D01*
X358517Y722486D01*
X358605Y722507D01*
X358695Y722526D01*
X358702Y722530D01*
X358710Y722532D01*
X358783Y722586D01*
X358859Y722638D01*
X358863Y722645D01*
X358870Y722650D01*
X358917Y722729D01*
X358966Y722806D01*
X358967Y722814D01*
X358972Y722821D01*
X358999Y722985D01*
X358999Y736800D01*
X358998Y736808D01*
X358999Y736817D01*
X358978Y736905D01*
X358960Y736995D01*
X358955Y737002D01*
X358953Y737010D01*
X358899Y737083D01*
X358847Y737159D01*
X358840Y737163D01*
X358835Y737170D01*
X358757Y737217D01*
X358680Y737266D01*
X358671Y737267D01*
X358664Y737272D01*
X358500Y737299D01*
X326093Y737299D01*
X323527Y738362D01*
X321562Y740327D01*
X320499Y742893D01*
X320499Y756565D01*
X320498Y756569D01*
X320499Y756573D01*
X320479Y756667D01*
X320460Y756760D01*
X320457Y756763D01*
X320456Y756767D01*
X320401Y756845D01*
X320347Y756924D01*
X320344Y756926D01*
X320341Y756930D01*
X320260Y756979D01*
X320180Y757031D01*
X320175Y757032D01*
X320172Y757034D01*
X320078Y757048D01*
X319983Y757064D01*
X319979Y757063D01*
X319975Y757064D01*
X319883Y757040D01*
X319790Y757018D01*
X319787Y757015D01*
X319783Y757014D01*
X319647Y756918D01*
X316684Y753955D01*
X316678Y753946D01*
X316670Y753940D01*
X316624Y753864D01*
X316574Y753789D01*
X316572Y753779D01*
X316567Y753770D01*
X316554Y753682D01*
X316538Y753594D01*
X316540Y753583D01*
X316539Y753573D01*
X316576Y753411D01*
X318033Y749893D01*
X318033Y745107D01*
X316201Y740684D01*
X312816Y737299D01*
X308393Y735467D01*
X303607Y735467D01*
X299184Y737299D01*
X295799Y740684D01*
X293967Y745107D01*
X293967Y749893D01*
X295799Y754316D01*
X296853Y755370D01*
X296860Y755380D01*
X296870Y755388D01*
X296914Y755463D01*
X296963Y755536D01*
X296965Y755548D01*
X296972Y755559D01*
X296999Y755723D01*
X296999Y757790D01*
X298370Y761099D01*
X300972Y763701D01*
X310049Y772778D01*
X310056Y772789D01*
X310066Y772796D01*
X310111Y772871D01*
X310159Y772944D01*
X310161Y772956D01*
X310168Y772967D01*
X310195Y773131D01*
X310195Y774921D01*
X317579Y782305D01*
X328021Y782305D01*
X335405Y774921D01*
X335405Y764479D01*
X334179Y763253D01*
X334176Y763249D01*
X334173Y763247D01*
X334122Y763167D01*
X334069Y763087D01*
X334068Y763083D01*
X334066Y763080D01*
X334050Y762986D01*
X334033Y762892D01*
X334033Y762888D01*
X334033Y762883D01*
X334055Y762792D01*
X334075Y762698D01*
X334078Y762694D01*
X334079Y762690D01*
X334135Y762614D01*
X334191Y762535D01*
X334194Y762533D01*
X334197Y762530D01*
X334279Y762481D01*
X334360Y762431D01*
X334364Y762431D01*
X334368Y762428D01*
X334532Y762401D01*
X359307Y762401D01*
X361873Y761338D01*
X363838Y759373D01*
X364374Y758079D01*
X364377Y758074D01*
X364379Y758068D01*
X364433Y757992D01*
X364485Y757914D01*
X364490Y757911D01*
X364494Y757905D01*
X364573Y757857D01*
X364652Y757806D01*
X364658Y757805D01*
X364663Y757801D01*
X364755Y757787D01*
X364847Y757771D01*
X364854Y757772D01*
X364860Y757771D01*
X364950Y757794D01*
X365041Y757815D01*
X365046Y757819D01*
X365052Y757821D01*
X365188Y757917D01*
X379853Y772582D01*
X379860Y772593D01*
X379870Y772600D01*
X379915Y772675D01*
X379963Y772748D01*
X379965Y772760D01*
X379972Y772771D01*
X379999Y772935D01*
X379999Y779840D01*
X379998Y779848D01*
X379999Y779857D01*
X379978Y779945D01*
X379960Y780035D01*
X379955Y780042D01*
X379953Y780050D01*
X379899Y780123D01*
X379847Y780199D01*
X379840Y780203D01*
X379835Y780210D01*
X379757Y780257D01*
X379680Y780306D01*
X379671Y780307D01*
X379664Y780312D01*
X379500Y780339D01*
X370679Y780339D01*
X370664Y780336D01*
X370650Y780338D01*
X370488Y780301D01*
X366707Y778735D01*
X361693Y778735D01*
X357060Y780654D01*
X355521Y782193D01*
X355511Y782200D01*
X355503Y782210D01*
X355429Y782254D01*
X355355Y782303D01*
X355343Y782305D01*
X355332Y782312D01*
X355168Y782339D01*
X349870Y782339D01*
X346561Y783710D01*
X342418Y787853D01*
X342407Y787860D01*
X342400Y787870D01*
X342325Y787915D01*
X342252Y787963D01*
X342240Y787965D01*
X342229Y787972D01*
X342065Y787999D01*
X307193Y787999D01*
X307179Y787996D01*
X307165Y787998D01*
X307029Y787967D01*
X273599Y787967D01*
X273578Y787963D01*
X273556Y787965D01*
X273481Y787943D01*
X273404Y787928D01*
X273386Y787915D01*
X273365Y787909D01*
X273305Y787859D01*
X273240Y787815D01*
X273228Y787797D01*
X273212Y787783D01*
X273175Y787714D01*
X273133Y787648D01*
X273130Y787626D01*
X273119Y787606D01*
X273113Y787529D01*
X273100Y787451D01*
X273105Y787430D01*
X273103Y787408D01*
X273128Y787334D01*
X273146Y787258D01*
X273159Y787240D01*
X273166Y787220D01*
X273218Y787161D01*
X273264Y787098D01*
X273283Y787087D01*
X273297Y787070D01*
X273409Y787012D01*
X273435Y786996D01*
X273440Y786996D01*
X273445Y786993D01*
X273910Y786842D01*
X275323Y786122D01*
X276607Y785189D01*
X277729Y784067D01*
X278662Y782783D01*
X279382Y781370D01*
X279873Y779861D01*
X280088Y778499D01*
X263000Y778499D01*
X262992Y778498D01*
X262984Y778499D01*
X262895Y778478D01*
X262805Y778460D01*
X262798Y778455D01*
X262790Y778453D01*
X262717Y778399D01*
X262641Y778347D01*
X262637Y778340D01*
X262630Y778335D01*
X262584Y778257D01*
X262534Y778180D01*
X262533Y778171D01*
X262529Y778164D01*
X262501Y778000D01*
X262501Y777499D01*
X262499Y777499D01*
X262499Y778000D01*
X262497Y778008D01*
X262499Y778016D01*
X262478Y778105D01*
X262460Y778195D01*
X262455Y778202D01*
X262453Y778210D01*
X262399Y778283D01*
X262347Y778359D01*
X262340Y778363D01*
X262335Y778370D01*
X262257Y778416D01*
X262179Y778466D01*
X262171Y778467D01*
X262164Y778471D01*
X262000Y778499D01*
X244912Y778499D01*
X245127Y779861D01*
X245618Y781370D01*
X246338Y782783D01*
X247271Y784067D01*
X248393Y785189D01*
X249677Y786122D01*
X251090Y786842D01*
X251555Y786993D01*
X251574Y787004D01*
X251596Y787008D01*
X251660Y787053D01*
X251728Y787091D01*
X251742Y787108D01*
X251760Y787121D01*
X251802Y787187D01*
X251849Y787249D01*
X251855Y787270D01*
X251867Y787288D01*
X251880Y787365D01*
X251899Y787441D01*
X251896Y787463D01*
X251900Y787485D01*
X251882Y787560D01*
X251870Y787638D01*
X251859Y787657D01*
X251854Y787678D01*
X251808Y787741D01*
X251767Y787808D01*
X251749Y787820D01*
X251736Y787838D01*
X251669Y787878D01*
X251605Y787924D01*
X251584Y787928D01*
X251565Y787940D01*
X251441Y787961D01*
X251411Y787967D01*
X251406Y787966D01*
X251401Y787967D01*
X208599Y787967D01*
X208578Y787963D01*
X208556Y787965D01*
X208481Y787943D01*
X208404Y787928D01*
X208386Y787915D01*
X208365Y787909D01*
X208305Y787859D01*
X208240Y787815D01*
X208229Y787797D01*
X208212Y787783D01*
X208175Y787713D01*
X208133Y787648D01*
X208130Y787626D01*
X208119Y787606D01*
X208113Y787529D01*
X208100Y787451D01*
X208105Y787430D01*
X208103Y787408D01*
X208128Y787334D01*
X208146Y787258D01*
X208159Y787240D01*
X208166Y787220D01*
X208218Y787161D01*
X208264Y787098D01*
X208283Y787087D01*
X208297Y787070D01*
X208409Y787012D01*
X208435Y786996D01*
X208440Y786996D01*
X208445Y786993D01*
X208910Y786842D01*
X210323Y786122D01*
X211607Y785189D01*
X212729Y784067D01*
X213662Y782783D01*
X214382Y781370D01*
X214873Y779861D01*
X215088Y778499D01*
X198499Y778499D01*
X198499Y787581D01*
X201665Y787581D01*
X201667Y787581D01*
X201669Y787581D01*
X201763Y787601D01*
X201860Y787620D01*
X201862Y787622D01*
X201864Y787622D01*
X201944Y787678D01*
X202024Y787733D01*
X202025Y787735D01*
X202027Y787736D01*
X202078Y787818D01*
X202131Y787900D01*
X202131Y787903D01*
X202132Y787904D01*
X202148Y788000D01*
X202164Y788097D01*
X202163Y788099D01*
X202164Y788101D01*
X202140Y788195D01*
X202118Y788290D01*
X202117Y788292D01*
X202116Y788294D01*
X202057Y788373D01*
X202000Y788450D01*
X201998Y788451D01*
X201997Y788453D01*
X201856Y788541D01*
X199933Y789338D01*
X162370Y826901D01*
X160999Y830210D01*
X160999Y858369D01*
X160997Y858379D01*
X160999Y858390D01*
X160978Y858476D01*
X160960Y858564D01*
X160954Y858573D01*
X160951Y858583D01*
X160898Y858654D01*
X160847Y858728D01*
X160838Y858733D01*
X160832Y858742D01*
X160691Y858830D01*
X160569Y858881D01*
X158881Y860569D01*
X157967Y862774D01*
X157967Y869097D01*
X157965Y869109D01*
X157967Y869122D01*
X157945Y869206D01*
X157928Y869292D01*
X157921Y869302D01*
X157917Y869314D01*
X157821Y869450D01*
X143030Y884241D01*
X143019Y884248D01*
X143012Y884258D01*
X142937Y884303D01*
X142864Y884351D01*
X142852Y884353D01*
X142841Y884360D01*
X142677Y884387D01*
X139159Y884387D01*
X139146Y884385D01*
X139134Y884387D01*
X139050Y884365D01*
X138964Y884348D01*
X138953Y884341D01*
X138941Y884337D01*
X138806Y884241D01*
X131157Y876592D01*
X117243Y876592D01*
X107404Y886431D01*
X107404Y900345D01*
X117243Y910184D01*
X131157Y910184D01*
X138806Y902535D01*
X138816Y902528D01*
X138824Y902518D01*
X138899Y902473D01*
X138972Y902425D01*
X138984Y902423D01*
X138995Y902416D01*
X139159Y902389D01*
X148402Y902389D01*
X151711Y901018D01*
X170550Y882179D01*
X170561Y882172D01*
X170568Y882162D01*
X170643Y882117D01*
X170716Y882069D01*
X170728Y882067D01*
X170739Y882060D01*
X170903Y882033D01*
X177226Y882033D01*
X179431Y881119D01*
X181119Y879431D01*
X182033Y877226D01*
X182033Y862774D01*
X181119Y860569D01*
X179431Y858881D01*
X179309Y858830D01*
X179300Y858824D01*
X179290Y858822D01*
X179218Y858769D01*
X179144Y858719D01*
X179138Y858710D01*
X179130Y858704D01*
X179085Y858628D01*
X179036Y858552D01*
X179034Y858542D01*
X179028Y858533D01*
X179001Y858369D01*
X179001Y835935D01*
X179003Y835923D01*
X179001Y835910D01*
X179023Y835826D01*
X179040Y835740D01*
X179047Y835730D01*
X179051Y835718D01*
X179147Y835582D01*
X208614Y806115D01*
X208625Y806108D01*
X208632Y806098D01*
X208707Y806053D01*
X208780Y806005D01*
X208792Y806003D01*
X208803Y805996D01*
X208967Y805969D01*
X303292Y805969D01*
X303306Y805972D01*
X303320Y805970D01*
X303456Y806001D01*
X347790Y806001D01*
X351099Y804630D01*
X355029Y800700D01*
X355036Y800696D01*
X355040Y800689D01*
X355118Y800641D01*
X355194Y800591D01*
X355203Y800589D01*
X355210Y800585D01*
X355300Y800571D01*
X355390Y800554D01*
X355398Y800556D01*
X355406Y800555D01*
X355494Y800577D01*
X355584Y800597D01*
X355591Y800602D01*
X355599Y800604D01*
X355735Y800700D01*
X357060Y802026D01*
X359086Y802865D01*
X359091Y802869D01*
X359098Y802870D01*
X359174Y802924D01*
X359251Y802976D01*
X359254Y802981D01*
X359260Y802985D01*
X359308Y803064D01*
X359359Y803143D01*
X359361Y803149D01*
X359364Y803154D01*
X359378Y803246D01*
X359394Y803339D01*
X359393Y803345D01*
X359394Y803351D01*
X359371Y803441D01*
X359350Y803532D01*
X359346Y803538D01*
X359344Y803544D01*
X359248Y803679D01*
X355055Y807872D01*
X355055Y810661D01*
X363700Y810661D01*
X363708Y810662D01*
X363716Y810661D01*
X363805Y810682D01*
X363895Y810700D01*
X363902Y810705D01*
X363910Y810707D01*
X363983Y810761D01*
X364059Y810813D01*
X364063Y810820D01*
X364070Y810825D01*
X364116Y810903D01*
X364166Y810980D01*
X364167Y810989D01*
X364171Y810996D01*
X364199Y811160D01*
X364199Y811661D01*
X364201Y811661D01*
X364201Y811160D01*
X364203Y811152D01*
X364201Y811143D01*
X364222Y811055D01*
X364240Y810965D01*
X364245Y810958D01*
X364247Y810950D01*
X364301Y810877D01*
X364353Y810801D01*
X364360Y810797D01*
X364365Y810790D01*
X364443Y810743D01*
X364521Y810694D01*
X364529Y810693D01*
X364536Y810688D01*
X364700Y810661D01*
X373345Y810661D01*
X373345Y807872D01*
X369152Y803679D01*
X369151Y803678D01*
X369148Y803674D01*
X369143Y803670D01*
X369094Y803591D01*
X369042Y803513D01*
X369041Y803507D01*
X369038Y803502D01*
X369023Y803410D01*
X369006Y803318D01*
X369007Y803312D01*
X369006Y803306D01*
X369028Y803216D01*
X369049Y803124D01*
X369052Y803119D01*
X369054Y803113D01*
X369109Y803038D01*
X369164Y802962D01*
X369169Y802958D01*
X369173Y802953D01*
X369314Y802865D01*
X370488Y802379D01*
X370502Y802376D01*
X370515Y802368D01*
X370679Y802341D01*
X393690Y802341D01*
X393700Y802343D01*
X393710Y802341D01*
X393797Y802362D01*
X393885Y802380D01*
X393893Y802386D01*
X393903Y802389D01*
X393975Y802442D01*
X394049Y802493D01*
X394054Y802502D01*
X394063Y802508D01*
X394151Y802649D01*
X395115Y804975D01*
X399125Y808985D01*
X404081Y811038D01*
X404100Y811052D01*
X404123Y811058D01*
X404182Y811107D01*
X404245Y811149D01*
X404259Y811169D01*
X404277Y811185D01*
X404312Y811252D01*
X404354Y811316D01*
X404358Y811340D01*
X404369Y811361D01*
X404375Y811437D01*
X404389Y811512D01*
X404383Y811535D01*
X404385Y811559D01*
X404361Y811631D01*
X404344Y811706D01*
X404330Y811725D01*
X404323Y811748D01*
X404272Y811805D01*
X404228Y811867D01*
X404207Y811879D01*
X404191Y811897D01*
X404088Y811951D01*
X404057Y811970D01*
X404051Y811971D01*
X404044Y811974D01*
X403056Y812295D01*
X401542Y813067D01*
X400167Y814065D01*
X398965Y815267D01*
X397967Y816642D01*
X397195Y818156D01*
X396670Y819772D01*
X396428Y821301D01*
X406700Y821301D01*
X406708Y821302D01*
X406716Y821301D01*
X406805Y821322D01*
X406895Y821340D01*
X406902Y821345D01*
X406910Y821347D01*
X406983Y821401D01*
X407059Y821453D01*
X407063Y821460D01*
X407070Y821465D01*
X407116Y821543D01*
X407166Y821620D01*
X407167Y821629D01*
X407171Y821636D01*
X407199Y821800D01*
X407199Y822301D01*
X407201Y822301D01*
X407201Y821800D01*
X407202Y821793D01*
X407201Y821787D01*
X407201Y821785D01*
X407201Y821783D01*
X407222Y821695D01*
X407240Y821605D01*
X407245Y821598D01*
X407247Y821590D01*
X407301Y821517D01*
X407353Y821441D01*
X407360Y821437D01*
X407365Y821430D01*
X407443Y821383D01*
X407521Y821334D01*
X407529Y821333D01*
X407536Y821328D01*
X407700Y821301D01*
X417972Y821301D01*
X417730Y819772D01*
X417205Y818156D01*
X416433Y816642D01*
X415435Y815267D01*
X414233Y814065D01*
X412858Y813067D01*
X411344Y812295D01*
X410358Y811975D01*
X410339Y811964D01*
X410317Y811960D01*
X410253Y811915D01*
X410185Y811877D01*
X410172Y811860D01*
X410153Y811847D01*
X410111Y811781D01*
X410064Y811719D01*
X410058Y811698D01*
X410046Y811680D01*
X410033Y811603D01*
X410014Y811527D01*
X410017Y811505D01*
X410013Y811483D01*
X410031Y811408D01*
X410043Y811330D01*
X410054Y811311D01*
X410059Y811290D01*
X410106Y811227D01*
X410146Y811160D01*
X410164Y811148D01*
X410177Y811130D01*
X410244Y811090D01*
X410308Y811044D01*
X410329Y811040D01*
X410348Y811028D01*
X410472Y811007D01*
X410502Y811001D01*
X410507Y811002D01*
X410512Y811001D01*
X434402Y811001D01*
X434408Y811002D01*
X434414Y811001D01*
X434505Y811022D01*
X434597Y811040D01*
X434602Y811044D01*
X434608Y811045D01*
X434684Y811100D01*
X434761Y811153D01*
X434764Y811158D01*
X434769Y811162D01*
X434818Y811242D01*
X434868Y811320D01*
X434869Y811327D01*
X434872Y811332D01*
X434885Y811424D01*
X434901Y811517D01*
X434900Y811523D01*
X434900Y811529D01*
X434863Y811691D01*
X434159Y813391D01*
X434159Y818809D01*
X436233Y823816D01*
X440064Y827647D01*
X445071Y829721D01*
X465729Y829721D01*
X470736Y827647D01*
X474567Y823816D01*
X476641Y818809D01*
X476641Y813391D01*
X474567Y808384D01*
X470736Y804553D01*
X465729Y802479D01*
X457543Y802479D01*
X457531Y802477D01*
X457519Y802479D01*
X457434Y802457D01*
X457349Y802440D01*
X457338Y802433D01*
X457326Y802429D01*
X457190Y802333D01*
X445531Y790674D01*
X441488Y788999D01*
X419667Y788999D01*
X419654Y788997D01*
X419642Y788999D01*
X419558Y788977D01*
X419472Y788960D01*
X419461Y788953D01*
X419449Y788949D01*
X419314Y788853D01*
X415275Y784815D01*
X410036Y782644D01*
X408708Y782644D01*
X408696Y782642D01*
X408684Y782644D01*
X408599Y782622D01*
X408514Y782605D01*
X408503Y782598D01*
X408491Y782594D01*
X408355Y782498D01*
X407871Y782014D01*
X403828Y780339D01*
X403575Y780339D01*
X403563Y780337D01*
X403550Y780339D01*
X403466Y780317D01*
X403380Y780300D01*
X403370Y780293D01*
X403358Y780289D01*
X403222Y780193D01*
X398147Y775118D01*
X398140Y775107D01*
X398130Y775100D01*
X398085Y775025D01*
X398037Y774952D01*
X398035Y774940D01*
X398028Y774929D01*
X398001Y774765D01*
X398001Y773702D01*
X398002Y773698D01*
X398001Y773694D01*
X398021Y773601D01*
X398040Y773508D01*
X398043Y773504D01*
X398044Y773500D01*
X398099Y773422D01*
X398153Y773344D01*
X398156Y773341D01*
X398159Y773338D01*
X398240Y773288D01*
X398320Y773237D01*
X398325Y773236D01*
X398328Y773234D01*
X398422Y773219D01*
X398517Y773203D01*
X398521Y773204D01*
X398525Y773204D01*
X398617Y773227D01*
X398710Y773249D01*
X398713Y773252D01*
X398717Y773253D01*
X398853Y773349D01*
X401234Y775730D01*
X404542Y777101D01*
X445968Y777101D01*
X445981Y777103D01*
X445993Y777101D01*
X446077Y777123D01*
X446163Y777140D01*
X446173Y777147D01*
X446186Y777151D01*
X446321Y777247D01*
X449779Y780705D01*
X460221Y780705D01*
X467605Y773321D01*
X467605Y762879D01*
X460221Y755495D01*
X449779Y755495D01*
X446321Y758953D01*
X446311Y758960D01*
X446303Y758970D01*
X446228Y759015D01*
X446155Y759063D01*
X446143Y759065D01*
X446132Y759072D01*
X445968Y759099D01*
X410268Y759099D01*
X410255Y759097D01*
X410243Y759099D01*
X410159Y759077D01*
X410073Y759060D01*
X410062Y759053D01*
X410050Y759049D01*
X409915Y758953D01*
X403459Y752497D01*
X403456Y752493D01*
X403453Y752491D01*
X403402Y752411D01*
X403349Y752331D01*
X403348Y752327D01*
X403346Y752324D01*
X403330Y752230D01*
X403312Y752136D01*
X403313Y752132D01*
X403313Y752127D01*
X403334Y752036D01*
X403355Y751942D01*
X403358Y751938D01*
X403359Y751934D01*
X403415Y751858D01*
X403470Y751779D01*
X403474Y751777D01*
X403476Y751774D01*
X403558Y751725D01*
X403640Y751675D01*
X403644Y751675D01*
X403648Y751672D01*
X403812Y751645D01*
X406588Y751645D01*
X411945Y746288D01*
X411945Y743499D01*
X403300Y743499D01*
X403292Y743498D01*
X403284Y743499D01*
X403195Y743478D01*
X403105Y743460D01*
X403098Y743455D01*
X403090Y743453D01*
X403017Y743399D01*
X402941Y743347D01*
X402937Y743340D01*
X402930Y743335D01*
X402884Y743257D01*
X402834Y743180D01*
X402833Y743171D01*
X402829Y743164D01*
X402801Y743000D01*
X402801Y742499D01*
X402300Y742499D01*
X402292Y742497D01*
X402283Y742499D01*
X402195Y742478D01*
X402105Y742460D01*
X402098Y742455D01*
X402090Y742453D01*
X402017Y742399D01*
X401941Y742347D01*
X401937Y742340D01*
X401930Y742335D01*
X401883Y742257D01*
X401834Y742179D01*
X401833Y742171D01*
X401828Y742164D01*
X401801Y742000D01*
X401801Y733355D01*
X399012Y733355D01*
X393655Y738712D01*
X393655Y741488D01*
X393654Y741493D01*
X393655Y741497D01*
X393635Y741590D01*
X393616Y741683D01*
X393613Y741687D01*
X393612Y741691D01*
X393557Y741769D01*
X393503Y741847D01*
X393500Y741850D01*
X393497Y741853D01*
X393416Y741903D01*
X393336Y741954D01*
X393331Y741955D01*
X393328Y741957D01*
X393234Y741972D01*
X393139Y741987D01*
X393135Y741986D01*
X393131Y741987D01*
X393039Y741963D01*
X392946Y741941D01*
X392943Y741939D01*
X392939Y741938D01*
X392803Y741841D01*
X389147Y738185D01*
X389140Y738175D01*
X389130Y738167D01*
X389085Y738093D01*
X389037Y738020D01*
X389035Y738007D01*
X389028Y737996D01*
X389001Y737832D01*
X389001Y708210D01*
X387630Y704901D01*
X375099Y692370D01*
X372504Y691295D01*
X372470Y691272D01*
X372432Y691258D01*
X372389Y691217D01*
X372339Y691184D01*
X372317Y691149D01*
X372287Y691121D01*
X372263Y691067D01*
X372231Y691017D01*
X372224Y690977D01*
X372207Y690939D01*
X372207Y690880D01*
X372196Y690821D01*
X372206Y690781D01*
X372205Y690740D01*
X372231Y690671D01*
X372241Y690628D01*
X372253Y690610D01*
X372263Y690584D01*
X372570Y690053D01*
X372791Y689229D01*
X372791Y683949D01*
X366100Y683949D01*
X366092Y683947D01*
X366084Y683949D01*
X365995Y683928D01*
X365905Y683910D01*
X365898Y683905D01*
X365890Y683903D01*
X365817Y683849D01*
X365741Y683797D01*
X365737Y683790D01*
X365730Y683785D01*
X365684Y683707D01*
X365634Y683629D01*
X365633Y683621D01*
X365629Y683614D01*
X365601Y683450D01*
X365601Y682949D01*
X365599Y682949D01*
X365599Y683450D01*
X365597Y683458D01*
X365599Y683466D01*
X365578Y683555D01*
X365560Y683645D01*
X365555Y683652D01*
X365553Y683660D01*
X365499Y683733D01*
X365447Y683809D01*
X365440Y683813D01*
X365435Y683820D01*
X365357Y683866D01*
X365279Y683916D01*
X365271Y683917D01*
X365264Y683921D01*
X365100Y683949D01*
X358409Y683949D01*
X358409Y689229D01*
X358630Y690052D01*
X358744Y690250D01*
X358757Y690287D01*
X358778Y690320D01*
X358788Y690381D01*
X358807Y690439D01*
X358804Y690478D01*
X358811Y690517D01*
X358797Y690576D01*
X358792Y690637D01*
X358774Y690672D01*
X358765Y690710D01*
X358729Y690759D01*
X358700Y690814D01*
X358670Y690839D01*
X358647Y690870D01*
X358594Y690901D01*
X358547Y690940D01*
X358510Y690952D01*
X358476Y690972D01*
X358399Y690984D01*
X358357Y690997D01*
X358337Y690995D01*
X358312Y690999D01*
X353935Y690999D01*
X353923Y690997D01*
X353910Y690999D01*
X353826Y690977D01*
X353740Y690960D01*
X353730Y690953D01*
X353718Y690949D01*
X353582Y690853D01*
X353444Y690715D01*
X353438Y690706D01*
X353430Y690700D01*
X353383Y690623D01*
X353334Y690549D01*
X353332Y690539D01*
X353327Y690530D01*
X353314Y690441D01*
X353298Y690354D01*
X353300Y690343D01*
X353299Y690333D01*
X353336Y690171D01*
X353351Y690135D01*
X353351Y675765D01*
X352331Y673303D01*
X351847Y672819D01*
X351840Y672809D01*
X351830Y672801D01*
X351785Y672726D01*
X351737Y672653D01*
X351735Y672641D01*
X351728Y672630D01*
X351701Y672466D01*
X351701Y660923D01*
X351703Y660911D01*
X351701Y660898D01*
X351723Y660814D01*
X351740Y660728D01*
X351747Y660718D01*
X351751Y660705D01*
X351847Y660570D01*
X352901Y659516D01*
X354733Y655093D01*
X354733Y650307D01*
X354014Y648572D01*
X354014Y648570D01*
X354013Y648568D01*
X353995Y648472D01*
X353976Y648377D01*
X353977Y648375D01*
X353976Y648373D01*
X353998Y648277D01*
X354018Y648183D01*
X354019Y648181D01*
X354019Y648179D01*
X354075Y648100D01*
X354131Y648020D01*
X354133Y648018D01*
X354134Y648017D01*
X354216Y647966D01*
X354300Y647914D01*
X354302Y647914D01*
X354304Y647913D01*
X354400Y647898D01*
X354496Y647882D01*
X354498Y647883D01*
X354500Y647883D01*
X354595Y647907D01*
X354689Y647930D01*
X354691Y647931D01*
X354693Y647932D01*
X354829Y648028D01*
X378049Y671249D01*
X378056Y671259D01*
X378066Y671267D01*
X378111Y671341D01*
X378159Y671414D01*
X378161Y671427D01*
X378168Y671438D01*
X378195Y671602D01*
X378195Y678986D01*
X379566Y682295D01*
X396801Y699530D01*
X400110Y700901D01*
X420877Y700901D01*
X420881Y700902D01*
X420885Y700901D01*
X420979Y700921D01*
X421072Y700940D01*
X421075Y700943D01*
X421080Y700944D01*
X421157Y700999D01*
X421236Y701053D01*
X421238Y701056D01*
X421242Y701059D01*
X421292Y701140D01*
X421343Y701220D01*
X421344Y701225D01*
X421346Y701228D01*
X421360Y701322D01*
X421376Y701417D01*
X421375Y701421D01*
X421376Y701425D01*
X421352Y701517D01*
X421330Y701610D01*
X421328Y701613D01*
X421327Y701617D01*
X421230Y701753D01*
X419799Y703184D01*
X417967Y707607D01*
X417967Y712393D01*
X419799Y716816D01*
X423184Y720201D01*
X427607Y722033D01*
X432393Y722033D01*
X436816Y720201D01*
X437870Y719147D01*
X437880Y719140D01*
X437888Y719130D01*
X437963Y719085D01*
X438036Y719037D01*
X438048Y719035D01*
X438059Y719028D01*
X438223Y719001D01*
X451790Y719001D01*
X455099Y717630D01*
X462630Y710099D01*
X464001Y706790D01*
X464001Y700932D01*
X464003Y700919D01*
X464001Y700907D01*
X464023Y700823D01*
X464040Y700737D01*
X464047Y700727D01*
X464051Y700714D01*
X464147Y700579D01*
X467605Y697121D01*
X467605Y686679D01*
X463811Y682885D01*
X463808Y682881D01*
X463805Y682879D01*
X463754Y682799D01*
X463701Y682719D01*
X463700Y682715D01*
X463698Y682712D01*
X463682Y682618D01*
X463665Y682524D01*
X463665Y682520D01*
X463665Y682515D01*
X463687Y682424D01*
X463707Y682330D01*
X463710Y682326D01*
X463711Y682322D01*
X463767Y682246D01*
X463823Y682167D01*
X463826Y682165D01*
X463829Y682162D01*
X463911Y682113D01*
X463992Y682063D01*
X463996Y682063D01*
X464000Y682060D01*
X464164Y682033D01*
X469097Y682033D01*
X469109Y682035D01*
X469122Y682033D01*
X469206Y682055D01*
X469292Y682072D01*
X469302Y682079D01*
X469314Y682083D01*
X469450Y682179D01*
X471853Y684582D01*
X471860Y684593D01*
X471870Y684600D01*
X471915Y684675D01*
X471963Y684748D01*
X471965Y684760D01*
X471972Y684771D01*
X471999Y684935D01*
X471999Y699660D01*
X473370Y702969D01*
X475972Y705571D01*
X488853Y718452D01*
X488860Y718463D01*
X488870Y718470D01*
X488915Y718545D01*
X488963Y718618D01*
X488965Y718630D01*
X488972Y718641D01*
X488999Y718805D01*
X488999Y732608D01*
X488997Y732621D01*
X488999Y732633D01*
X488977Y732717D01*
X488960Y732803D01*
X488953Y732813D01*
X488949Y732826D01*
X488853Y732961D01*
X487314Y734500D01*
X485395Y739133D01*
X485395Y744147D01*
X487314Y748780D01*
X490860Y752326D01*
X492886Y753165D01*
X492891Y753169D01*
X492898Y753170D01*
X492974Y753224D01*
X493051Y753276D01*
X493054Y753281D01*
X493060Y753285D01*
X493108Y753364D01*
X493159Y753443D01*
X493161Y753449D01*
X493164Y753454D01*
X493178Y753546D01*
X493194Y753639D01*
X493193Y753645D01*
X493194Y753651D01*
X493171Y753741D01*
X493150Y753832D01*
X493146Y753838D01*
X493145Y753844D01*
X493048Y753979D01*
X488855Y758172D01*
X488855Y760961D01*
X497500Y760961D01*
X497508Y760962D01*
X497516Y760961D01*
X497605Y760982D01*
X497695Y761000D01*
X497702Y761005D01*
X497710Y761007D01*
X497783Y761061D01*
X497859Y761113D01*
X497863Y761120D01*
X497870Y761125D01*
X497916Y761203D01*
X497966Y761280D01*
X497967Y761289D01*
X497971Y761296D01*
X497999Y761460D01*
X497999Y761961D01*
X498001Y761961D01*
X498001Y761460D01*
X498003Y761452D01*
X498001Y761443D01*
X498022Y761354D01*
X498040Y761265D01*
X498045Y761258D01*
X498047Y761250D01*
X498101Y761177D01*
X498153Y761101D01*
X498160Y761097D01*
X498165Y761090D01*
X498243Y761043D01*
X498321Y760994D01*
X498329Y760993D01*
X498336Y760988D01*
X498500Y760961D01*
X507145Y760961D01*
X507145Y758172D01*
X502952Y753979D01*
X502948Y753974D01*
X502943Y753970D01*
X502894Y753891D01*
X502842Y753813D01*
X502841Y753807D01*
X502838Y753802D01*
X502823Y753710D01*
X502806Y753618D01*
X502807Y753612D01*
X502806Y753606D01*
X502828Y753516D01*
X502849Y753424D01*
X502852Y753419D01*
X502854Y753413D01*
X502910Y753338D01*
X502964Y753262D01*
X502969Y753258D01*
X502973Y753253D01*
X503114Y753165D01*
X505140Y752326D01*
X508686Y748780D01*
X510605Y744147D01*
X510605Y739133D01*
X508686Y734500D01*
X507147Y732961D01*
X507140Y732951D01*
X507130Y732943D01*
X507085Y732868D01*
X507037Y732795D01*
X507035Y732783D01*
X507028Y732772D01*
X507001Y732608D01*
X507001Y720834D01*
X507002Y720830D01*
X507001Y720826D01*
X507021Y720733D01*
X507040Y720640D01*
X507043Y720636D01*
X507044Y720632D01*
X507099Y720554D01*
X507153Y720476D01*
X507156Y720473D01*
X507159Y720470D01*
X507240Y720420D01*
X507320Y720369D01*
X507325Y720368D01*
X507328Y720366D01*
X507422Y720351D01*
X507517Y720335D01*
X507521Y720336D01*
X507525Y720336D01*
X507617Y720359D01*
X507710Y720382D01*
X507713Y720384D01*
X507717Y720385D01*
X507853Y720481D01*
X550065Y762693D01*
X554636Y767265D01*
X560517Y769701D01*
X575282Y769701D01*
X575296Y769704D01*
X575311Y769702D01*
X575473Y769739D01*
X582020Y772451D01*
X614980Y772451D01*
X621871Y769596D01*
X627146Y764321D01*
X630001Y757430D01*
X630001Y749970D01*
X627146Y743079D01*
X621871Y737804D01*
X614980Y734949D01*
X582020Y734949D01*
X575473Y737661D01*
X575458Y737664D01*
X575446Y737672D01*
X575282Y737699D01*
X570535Y737699D01*
X570522Y737697D01*
X570510Y737699D01*
X570425Y737677D01*
X570340Y737660D01*
X570329Y737653D01*
X570317Y737649D01*
X570181Y737553D01*
X524353Y691725D01*
X524352Y691723D01*
X524350Y691722D01*
X524297Y691640D01*
X524243Y691559D01*
X524243Y691557D01*
X524242Y691555D01*
X524225Y691459D01*
X524207Y691364D01*
X524208Y691361D01*
X524207Y691359D01*
X524229Y691265D01*
X524250Y691169D01*
X524251Y691168D01*
X524252Y691166D01*
X524309Y691086D01*
X524365Y691007D01*
X524367Y691006D01*
X524368Y691004D01*
X524452Y690954D01*
X524534Y690903D01*
X524536Y690903D01*
X524538Y690902D01*
X524635Y690888D01*
X524731Y690873D01*
X524733Y690874D01*
X524735Y690873D01*
X524897Y690911D01*
X527607Y692033D01*
X532393Y692033D01*
X536816Y690201D01*
X537870Y689147D01*
X537879Y689141D01*
X537886Y689132D01*
X537887Y689131D01*
X537888Y689130D01*
X537963Y689085D01*
X538036Y689037D01*
X538048Y689035D01*
X538059Y689028D01*
X538223Y689001D01*
X601790Y689001D01*
X605099Y687630D01*
X607701Y685028D01*
X613147Y679582D01*
X613151Y679580D01*
X613153Y679576D01*
X613233Y679525D01*
X613313Y679472D01*
X613317Y679471D01*
X613320Y679469D01*
X613414Y679453D01*
X613508Y679436D01*
X613512Y679437D01*
X613517Y679436D01*
X613608Y679458D01*
X613702Y679479D01*
X613706Y679481D01*
X613710Y679482D01*
X613786Y679538D01*
X613865Y679594D01*
X613867Y679597D01*
X613870Y679600D01*
X613919Y679682D01*
X613969Y679763D01*
X613969Y679767D01*
X613972Y679771D01*
X613999Y679935D01*
X613999Y683165D01*
X613997Y683178D01*
X613999Y683190D01*
X613977Y683275D01*
X613960Y683360D01*
X613953Y683371D01*
X613949Y683383D01*
X613853Y683519D01*
X602169Y695203D01*
X602158Y695210D01*
X602151Y695220D01*
X602076Y695265D01*
X602003Y695313D01*
X601990Y695315D01*
X601980Y695322D01*
X601816Y695349D01*
X582020Y695349D01*
X575129Y698204D01*
X569854Y703479D01*
X566999Y710370D01*
X566999Y717830D01*
X569854Y724721D01*
X575129Y729996D01*
X582020Y732851D01*
X614980Y732851D01*
X621871Y729996D01*
X627146Y724721D01*
X630001Y717830D01*
X630001Y712834D01*
X630003Y712822D01*
X630001Y712810D01*
X630023Y712725D01*
X630040Y712640D01*
X630047Y712629D01*
X630051Y712617D01*
X630147Y712481D01*
X643565Y699064D01*
X646001Y693183D01*
X646001Y566817D01*
X643565Y560936D01*
X622164Y539535D01*
X616283Y537099D01*
X597989Y537099D01*
X597985Y537098D01*
X597980Y537099D01*
X597887Y537079D01*
X597794Y537060D01*
X597790Y537057D01*
X597786Y537056D01*
X597708Y537001D01*
X597630Y536947D01*
X597628Y536944D01*
X597624Y536941D01*
X597574Y536860D01*
X597523Y536780D01*
X597522Y536775D01*
X597520Y536772D01*
X597506Y536678D01*
X597490Y536583D01*
X597491Y536579D01*
X597490Y536575D01*
X597514Y536483D01*
X597536Y536390D01*
X597538Y536387D01*
X597539Y536383D01*
X597636Y536247D01*
X598467Y535416D01*
X600541Y530409D01*
X600541Y524991D01*
X598467Y519984D01*
X595856Y517373D01*
X595853Y517369D01*
X595850Y517367D01*
X595799Y517287D01*
X595746Y517207D01*
X595745Y517203D01*
X595743Y517200D01*
X595727Y517106D01*
X595709Y517012D01*
X595710Y517008D01*
X595710Y517003D01*
X595732Y516912D01*
X595752Y516818D01*
X595755Y516814D01*
X595756Y516810D01*
X595812Y516734D01*
X595867Y516655D01*
X595871Y516653D01*
X595874Y516650D01*
X595955Y516601D01*
X596037Y516551D01*
X596041Y516551D01*
X596045Y516548D01*
X596209Y516521D01*
X599887Y516521D01*
X605767Y514085D01*
X643565Y476287D01*
X646001Y470407D01*
X646001Y446817D01*
X643565Y440936D01*
X619064Y416435D01*
X613183Y413999D01*
X588535Y413999D01*
X588522Y413997D01*
X588510Y413999D01*
X588425Y413977D01*
X588340Y413960D01*
X588329Y413953D01*
X588317Y413949D01*
X588181Y413853D01*
X569097Y394769D01*
X569090Y394758D01*
X569080Y394751D01*
X569035Y394676D01*
X568987Y394603D01*
X568985Y394590D01*
X568978Y394580D01*
X568951Y394415D01*
X568951Y382020D01*
X566096Y375129D01*
X560821Y369854D01*
X553930Y366999D01*
X546470Y366999D01*
X539579Y369854D01*
X534304Y375129D01*
X531449Y382020D01*
X531449Y414980D01*
X534304Y421871D01*
X539579Y427146D01*
X546470Y430001D01*
X553930Y430001D01*
X557258Y428622D01*
X557268Y428620D01*
X557277Y428615D01*
X557365Y428601D01*
X557453Y428584D01*
X557463Y428586D01*
X557474Y428585D01*
X557560Y428607D01*
X557648Y428625D01*
X557656Y428631D01*
X557666Y428634D01*
X557802Y428730D01*
X568065Y438993D01*
X572636Y443565D01*
X578517Y446001D01*
X603165Y446001D01*
X603178Y446003D01*
X603190Y446001D01*
X603275Y446023D01*
X603360Y446040D01*
X603371Y446047D01*
X603383Y446051D01*
X603519Y446147D01*
X613853Y456481D01*
X613860Y456492D01*
X613870Y456499D01*
X613915Y456574D01*
X613963Y456647D01*
X613965Y456660D01*
X613972Y456670D01*
X613999Y456835D01*
X613999Y460389D01*
X613997Y460402D01*
X613999Y460414D01*
X613977Y460498D01*
X613960Y460584D01*
X613953Y460595D01*
X613949Y460607D01*
X613853Y460742D01*
X597933Y476662D01*
X597929Y476665D01*
X597927Y476668D01*
X597847Y476719D01*
X597767Y476772D01*
X597763Y476773D01*
X597760Y476775D01*
X597666Y476791D01*
X597572Y476808D01*
X597568Y476808D01*
X597563Y476808D01*
X597472Y476786D01*
X597378Y476766D01*
X597374Y476763D01*
X597370Y476762D01*
X597294Y476706D01*
X597215Y476650D01*
X597213Y476647D01*
X597210Y476644D01*
X597161Y476563D01*
X597111Y476481D01*
X597111Y476477D01*
X597108Y476473D01*
X597081Y476309D01*
X597081Y476100D01*
X596831Y474521D01*
X596336Y473000D01*
X595610Y471575D01*
X594670Y470281D01*
X593539Y469150D01*
X592245Y468210D01*
X590820Y467484D01*
X589299Y466989D01*
X587720Y466739D01*
X580299Y466739D01*
X580299Y476400D01*
X580298Y476408D01*
X580299Y476416D01*
X580278Y476505D01*
X580260Y476595D01*
X580255Y476602D01*
X580253Y476610D01*
X580199Y476683D01*
X580147Y476759D01*
X580140Y476763D01*
X580135Y476770D01*
X580057Y476816D01*
X579980Y476866D01*
X579971Y476867D01*
X579964Y476871D01*
X579800Y476899D01*
X579299Y476899D01*
X579299Y477400D01*
X579297Y477408D01*
X579299Y477416D01*
X579278Y477505D01*
X579260Y477595D01*
X579255Y477602D01*
X579253Y477610D01*
X579199Y477683D01*
X579147Y477759D01*
X579140Y477763D01*
X579135Y477770D01*
X579057Y477816D01*
X578979Y477866D01*
X578971Y477867D01*
X578964Y477871D01*
X578800Y477899D01*
X561551Y477899D01*
X561769Y479279D01*
X562264Y480800D01*
X562990Y482225D01*
X563930Y483519D01*
X565061Y484650D01*
X566355Y485590D01*
X567780Y486316D01*
X569301Y486811D01*
X570802Y487048D01*
X570863Y487071D01*
X570927Y487085D01*
X570955Y487106D01*
X570988Y487118D01*
X571036Y487163D01*
X571089Y487200D01*
X571107Y487230D01*
X571133Y487255D01*
X571159Y487314D01*
X571193Y487370D01*
X571198Y487405D01*
X571212Y487437D01*
X571213Y487502D01*
X571223Y487566D01*
X571214Y487600D01*
X571214Y487636D01*
X571190Y487696D01*
X571173Y487759D01*
X571150Y487792D01*
X571139Y487820D01*
X571111Y487847D01*
X571077Y487894D01*
X570438Y488533D01*
X570428Y488540D01*
X570421Y488550D01*
X570346Y488595D01*
X570273Y488643D01*
X570260Y488645D01*
X570250Y488652D01*
X570085Y488679D01*
X568971Y488679D01*
X563964Y490753D01*
X560133Y494584D01*
X558385Y498804D01*
X558382Y498809D01*
X558380Y498816D01*
X558326Y498892D01*
X558274Y498969D01*
X558269Y498972D01*
X558265Y498978D01*
X558186Y499026D01*
X558107Y499077D01*
X558101Y499079D01*
X558096Y499082D01*
X558004Y499096D01*
X557911Y499112D01*
X557905Y499111D01*
X557899Y499112D01*
X557809Y499089D01*
X557718Y499068D01*
X557712Y499064D01*
X557706Y499063D01*
X557571Y498966D01*
X526747Y468142D01*
X526740Y468132D01*
X526730Y468124D01*
X526685Y468049D01*
X526637Y467976D01*
X526635Y467964D01*
X526628Y467953D01*
X526601Y467789D01*
X526601Y421718D01*
X526604Y421704D01*
X526602Y421689D01*
X526639Y421527D01*
X529351Y414980D01*
X529351Y382020D01*
X526496Y375129D01*
X521221Y369854D01*
X514330Y366999D01*
X506870Y366999D01*
X499979Y369854D01*
X494704Y375129D01*
X491849Y382020D01*
X491849Y414980D01*
X494561Y421527D01*
X494564Y421542D01*
X494572Y421554D01*
X494599Y421718D01*
X494599Y477807D01*
X497035Y483687D01*
X555213Y541865D01*
X560490Y544051D01*
X560496Y544054D01*
X560502Y544056D01*
X560578Y544110D01*
X560655Y544162D01*
X560659Y544167D01*
X560664Y544171D01*
X560713Y544251D01*
X560764Y544329D01*
X560765Y544335D01*
X560768Y544340D01*
X560782Y544432D01*
X560798Y544524D01*
X560797Y544531D01*
X560798Y544537D01*
X560775Y544627D01*
X560754Y544718D01*
X560750Y544723D01*
X560749Y544730D01*
X560652Y544865D01*
X560133Y545384D01*
X558059Y550391D01*
X558059Y555809D01*
X560133Y560816D01*
X560964Y561647D01*
X560967Y561651D01*
X560970Y561653D01*
X561021Y561733D01*
X561074Y561813D01*
X561075Y561817D01*
X561077Y561820D01*
X561093Y561914D01*
X561111Y562008D01*
X561110Y562012D01*
X561110Y562017D01*
X561088Y562108D01*
X561068Y562202D01*
X561065Y562206D01*
X561064Y562210D01*
X561008Y562286D01*
X560953Y562365D01*
X560949Y562367D01*
X560946Y562370D01*
X560865Y562419D01*
X560783Y562469D01*
X560779Y562469D01*
X560775Y562472D01*
X560611Y562499D01*
X558317Y562499D01*
X552436Y564935D01*
X547865Y569506D01*
X547865Y569507D01*
X519722Y597649D01*
X519710Y597657D01*
X519701Y597669D01*
X519560Y597757D01*
X519131Y597935D01*
X502507Y614560D01*
X502506Y614560D01*
X497935Y619131D01*
X497757Y619560D01*
X497749Y619573D01*
X497746Y619587D01*
X497649Y619722D01*
X491007Y626365D01*
X491006Y626365D01*
X486435Y630936D01*
X483999Y636817D01*
X483999Y670065D01*
X483998Y670069D01*
X483999Y670073D01*
X483979Y670167D01*
X483960Y670260D01*
X483957Y670263D01*
X483956Y670267D01*
X483901Y670345D01*
X483847Y670424D01*
X483844Y670426D01*
X483841Y670430D01*
X483760Y670479D01*
X483680Y670531D01*
X483675Y670532D01*
X483672Y670534D01*
X483578Y670548D01*
X483483Y670564D01*
X483479Y670563D01*
X483475Y670564D01*
X483383Y670540D01*
X483290Y670518D01*
X483287Y670515D01*
X483283Y670514D01*
X483147Y670418D01*
X482179Y669450D01*
X482172Y669439D01*
X482162Y669432D01*
X482117Y669357D01*
X482069Y669284D01*
X482067Y669272D01*
X482060Y669261D01*
X482033Y669097D01*
X482033Y662774D01*
X481119Y660569D01*
X479431Y658881D01*
X479309Y658830D01*
X479300Y658824D01*
X479290Y658822D01*
X479218Y658769D01*
X479144Y658719D01*
X479138Y658710D01*
X479130Y658704D01*
X479085Y658628D01*
X479036Y658552D01*
X479034Y658542D01*
X479028Y658533D01*
X479001Y658369D01*
X479001Y588210D01*
X477630Y584901D01*
X465099Y572370D01*
X461790Y570999D01*
X444789Y570999D01*
X444776Y570997D01*
X444764Y570999D01*
X444680Y570977D01*
X444594Y570960D01*
X444583Y570953D01*
X444571Y570949D01*
X444436Y570853D01*
X440536Y566953D01*
X438866Y566261D01*
X438862Y566259D01*
X438858Y566258D01*
X438780Y566203D01*
X438701Y566150D01*
X438699Y566147D01*
X438695Y566144D01*
X438644Y566063D01*
X438592Y565983D01*
X438592Y565979D01*
X438589Y565976D01*
X438574Y565882D01*
X438558Y565788D01*
X438559Y565783D01*
X438558Y565779D01*
X438581Y565688D01*
X438602Y565594D01*
X438605Y565590D01*
X438606Y565586D01*
X438663Y565510D01*
X438719Y565433D01*
X438722Y565431D01*
X438725Y565427D01*
X438866Y565339D01*
X440535Y564647D01*
X444367Y560816D01*
X446441Y555809D01*
X446441Y550391D01*
X444367Y545384D01*
X440536Y541553D01*
X438866Y540861D01*
X438862Y540859D01*
X438858Y540858D01*
X438780Y540803D01*
X438701Y540750D01*
X438699Y540747D01*
X438695Y540744D01*
X438644Y540663D01*
X438592Y540583D01*
X438592Y540579D01*
X438589Y540576D01*
X438574Y540482D01*
X438558Y540388D01*
X438559Y540383D01*
X438558Y540379D01*
X438581Y540288D01*
X438602Y540194D01*
X438605Y540190D01*
X438606Y540186D01*
X438663Y540110D01*
X438719Y540033D01*
X438722Y540031D01*
X438725Y540027D01*
X438866Y539939D01*
X440535Y539247D01*
X444367Y535416D01*
X446441Y530409D01*
X446441Y524991D01*
X444367Y519984D01*
X440536Y516153D01*
X438866Y515461D01*
X438862Y515459D01*
X438858Y515458D01*
X438780Y515403D01*
X438701Y515350D01*
X438699Y515347D01*
X438695Y515344D01*
X438644Y515263D01*
X438592Y515183D01*
X438592Y515179D01*
X438589Y515176D01*
X438574Y515082D01*
X438558Y514988D01*
X438559Y514983D01*
X438558Y514979D01*
X438581Y514888D01*
X438602Y514794D01*
X438605Y514790D01*
X438606Y514786D01*
X438663Y514710D01*
X438719Y514633D01*
X438722Y514631D01*
X438725Y514627D01*
X438866Y514539D01*
X440535Y513847D01*
X444367Y510016D01*
X446441Y505009D01*
X446441Y499591D01*
X444367Y494584D01*
X440536Y490753D01*
X435529Y488679D01*
X414871Y488679D01*
X409864Y490753D01*
X407464Y493153D01*
X407455Y493159D01*
X407449Y493168D01*
X407448Y493168D01*
X407446Y493170D01*
X407371Y493215D01*
X407299Y493263D01*
X407286Y493265D01*
X407275Y493272D01*
X407111Y493299D01*
X406235Y493299D01*
X406223Y493297D01*
X406210Y493299D01*
X406126Y493277D01*
X406040Y493260D01*
X406030Y493253D01*
X406018Y493249D01*
X405882Y493153D01*
X382249Y469520D01*
X378940Y468149D01*
X313412Y468149D01*
X313400Y468147D01*
X313388Y468149D01*
X313303Y468127D01*
X313218Y468110D01*
X313207Y468103D01*
X313195Y468099D01*
X313059Y468003D01*
X312770Y467714D01*
X310201Y466649D01*
X292399Y466649D01*
X289830Y467714D01*
X287864Y469680D01*
X286799Y472249D01*
X286799Y482051D01*
X287321Y483309D01*
X287323Y483321D01*
X287329Y483332D01*
X287342Y483418D01*
X287359Y483504D01*
X287356Y483516D01*
X287358Y483529D01*
X287321Y483691D01*
X286799Y484949D01*
X286799Y494751D01*
X287321Y496009D01*
X287323Y496021D01*
X287329Y496032D01*
X287342Y496118D01*
X287359Y496204D01*
X287356Y496216D01*
X287358Y496229D01*
X287321Y496391D01*
X286799Y497649D01*
X286799Y507451D01*
X287321Y508709D01*
X287323Y508721D01*
X287329Y508732D01*
X287342Y508818D01*
X287359Y508904D01*
X287356Y508916D01*
X287358Y508929D01*
X287321Y509091D01*
X286799Y510349D01*
X286799Y520151D01*
X287321Y521409D01*
X287323Y521421D01*
X287329Y521432D01*
X287342Y521518D01*
X287359Y521604D01*
X287356Y521616D01*
X287358Y521629D01*
X287321Y521791D01*
X286799Y523049D01*
X286799Y532851D01*
X287321Y534109D01*
X287323Y534121D01*
X287329Y534132D01*
X287342Y534218D01*
X287359Y534304D01*
X287356Y534316D01*
X287358Y534329D01*
X287321Y534491D01*
X286799Y535749D01*
X286799Y545551D01*
X287321Y546809D01*
X287323Y546821D01*
X287329Y546832D01*
X287342Y546918D01*
X287359Y547004D01*
X287356Y547016D01*
X287358Y547029D01*
X287321Y547191D01*
X286799Y548449D01*
X286799Y558251D01*
X287321Y559509D01*
X287321Y559514D01*
X287324Y559517D01*
X287325Y559525D01*
X287329Y559532D01*
X287342Y559618D01*
X287358Y559704D01*
X287357Y559712D01*
X287357Y559714D01*
X287356Y559718D01*
X287358Y559729D01*
X287321Y559891D01*
X286799Y561149D01*
X286799Y570951D01*
X287321Y572209D01*
X287323Y572221D01*
X287329Y572232D01*
X287342Y572318D01*
X287358Y572404D01*
X287356Y572416D01*
X287358Y572429D01*
X287321Y572591D01*
X286799Y573849D01*
X286799Y583651D01*
X287321Y584909D01*
X287323Y584921D01*
X287329Y584932D01*
X287342Y585018D01*
X287358Y585104D01*
X287356Y585116D01*
X287358Y585129D01*
X287321Y585291D01*
X286799Y586549D01*
X286799Y596351D01*
X287321Y597609D01*
X287323Y597621D01*
X287329Y597632D01*
X287342Y597718D01*
X287358Y597804D01*
X287356Y597816D01*
X287358Y597829D01*
X287321Y597991D01*
X286799Y599249D01*
X286799Y609051D01*
X287321Y610309D01*
X287323Y610321D01*
X287329Y610332D01*
X287342Y610418D01*
X287358Y610504D01*
X287356Y610516D01*
X287358Y610529D01*
X287321Y610691D01*
X286799Y611949D01*
X286799Y621751D01*
X287321Y623009D01*
X287323Y623021D01*
X287329Y623032D01*
X287342Y623118D01*
X287358Y623204D01*
X287356Y623216D01*
X287358Y623229D01*
X287321Y623391D01*
X286799Y624649D01*
X286799Y634451D01*
X287864Y637020D01*
X289830Y638986D01*
X289951Y639037D01*
X289960Y639042D01*
X289970Y639045D01*
X290042Y639098D01*
X290116Y639148D01*
X290122Y639157D01*
X290130Y639163D01*
X290175Y639239D01*
X290224Y639314D01*
X290226Y639325D01*
X290232Y639334D01*
X290259Y639498D01*
X290259Y641251D01*
X300800Y641251D01*
X300808Y641252D01*
X300816Y641251D01*
X300905Y641272D01*
X300995Y641290D01*
X301002Y641295D01*
X301010Y641297D01*
X301083Y641351D01*
X301159Y641403D01*
X301163Y641410D01*
X301170Y641415D01*
X301216Y641493D01*
X301266Y641570D01*
X301267Y641579D01*
X301271Y641586D01*
X301299Y641750D01*
X301299Y642750D01*
X301297Y642758D01*
X301299Y642766D01*
X301278Y642855D01*
X301260Y642945D01*
X301255Y642952D01*
X301253Y642960D01*
X301199Y643033D01*
X301147Y643109D01*
X301140Y643113D01*
X301135Y643120D01*
X301057Y643166D01*
X300979Y643216D01*
X300971Y643217D01*
X300964Y643221D01*
X300800Y643249D01*
X290259Y643249D01*
X290259Y646225D01*
X290500Y647123D01*
X290560Y647226D01*
X290572Y647263D01*
X290593Y647296D01*
X290603Y647357D01*
X290623Y647415D01*
X290620Y647454D01*
X290626Y647493D01*
X290612Y647552D01*
X290607Y647613D01*
X290589Y647648D01*
X290580Y647686D01*
X290544Y647735D01*
X290516Y647790D01*
X290486Y647815D01*
X290462Y647846D01*
X290410Y647877D01*
X290363Y647916D01*
X290325Y647928D01*
X290291Y647948D01*
X290215Y647960D01*
X290172Y647973D01*
X290152Y647971D01*
X290127Y647975D01*
X132473Y647975D01*
X132434Y647967D01*
X132395Y647969D01*
X132338Y647948D01*
X132278Y647936D01*
X132246Y647914D01*
X132209Y647900D01*
X132164Y647858D01*
X132114Y647823D01*
X132093Y647790D01*
X132064Y647763D01*
X132040Y647707D01*
X132007Y647656D01*
X132000Y647617D01*
X131985Y647581D01*
X131984Y647520D01*
X131974Y647459D01*
X131983Y647421D01*
X131982Y647382D01*
X132009Y647309D01*
X132020Y647266D01*
X132032Y647250D01*
X132040Y647226D01*
X132100Y647123D01*
X132341Y646225D01*
X132341Y643249D01*
X121800Y643249D01*
X121792Y643247D01*
X121784Y643249D01*
X121695Y643228D01*
X121605Y643210D01*
X121598Y643205D01*
X121590Y643203D01*
X121517Y643149D01*
X121441Y643097D01*
X121437Y643090D01*
X121430Y643085D01*
X121384Y643007D01*
X121334Y642929D01*
X121333Y642921D01*
X121329Y642914D01*
X121301Y642750D01*
X121301Y641750D01*
X121303Y641742D01*
X121301Y641734D01*
X121322Y641645D01*
X121340Y641555D01*
X121345Y641548D01*
X121347Y641540D01*
X121401Y641467D01*
X121453Y641391D01*
X121460Y641387D01*
X121465Y641380D01*
X121543Y641334D01*
X121621Y641284D01*
X121629Y641283D01*
X121636Y641279D01*
X121800Y641251D01*
X132341Y641251D01*
X132341Y639498D01*
X132343Y639488D01*
X132341Y639477D01*
X132362Y639391D01*
X132380Y639303D01*
X132386Y639294D01*
X132389Y639284D01*
X132442Y639213D01*
X132493Y639139D01*
X132502Y639133D01*
X132508Y639125D01*
X132649Y639037D01*
X132770Y638986D01*
X134736Y637020D01*
X135801Y634451D01*
X135801Y624649D01*
X135279Y623391D01*
X135277Y623379D01*
X135271Y623368D01*
X135258Y623281D01*
X135242Y623196D01*
X135244Y623184D01*
X135242Y623171D01*
X135279Y623009D01*
X135801Y621751D01*
X135801Y611949D01*
X135279Y610691D01*
X135277Y610679D01*
X135271Y610668D01*
X135258Y610582D01*
X135242Y610496D01*
X135244Y610484D01*
X135242Y610471D01*
X135279Y610309D01*
X135801Y609051D01*
X135801Y599249D01*
X135279Y597991D01*
X135277Y597979D01*
X135271Y597968D01*
X135258Y597882D01*
X135242Y597796D01*
X135244Y597784D01*
X135242Y597771D01*
X135279Y597609D01*
X135801Y596351D01*
X135801Y586549D01*
X135279Y585291D01*
X135277Y585279D01*
X135271Y585268D01*
X135258Y585182D01*
X135242Y585096D01*
X135244Y585084D01*
X135242Y585071D01*
X135279Y584909D01*
X135801Y583651D01*
X135801Y573849D01*
X135279Y572591D01*
X135277Y572579D01*
X135271Y572568D01*
X135258Y572482D01*
X135242Y572396D01*
X135244Y572384D01*
X135242Y572371D01*
X135279Y572209D01*
X135801Y570951D01*
X135801Y561149D01*
X135279Y559891D01*
X135277Y559879D01*
X135271Y559868D01*
X135258Y559782D01*
X135242Y559696D01*
X135244Y559685D01*
X135243Y559680D01*
X135243Y559679D01*
X135242Y559671D01*
X135279Y559509D01*
X135801Y558251D01*
X135801Y548449D01*
X135279Y547191D01*
X135277Y547179D01*
X135271Y547168D01*
X135258Y547082D01*
X135242Y546996D01*
X135244Y546984D01*
X135242Y546971D01*
X135279Y546809D01*
X135801Y545551D01*
X135801Y535749D01*
X135279Y534491D01*
X135277Y534479D01*
X135271Y534468D01*
X135258Y534382D01*
X135242Y534296D01*
X135244Y534284D01*
X135242Y534271D01*
X135279Y534109D01*
X135801Y532851D01*
X135801Y523049D01*
X135279Y521791D01*
X135277Y521779D01*
X135271Y521768D01*
X135258Y521682D01*
X135242Y521596D01*
X135244Y521584D01*
X135242Y521571D01*
X135279Y521409D01*
X135801Y520151D01*
X135801Y510349D01*
X135279Y509091D01*
X135277Y509079D01*
X135271Y509068D01*
X135258Y508982D01*
X135242Y508896D01*
X135244Y508884D01*
X135242Y508871D01*
X135279Y508709D01*
X135801Y507451D01*
X135801Y497649D01*
X135279Y496391D01*
X135277Y496379D01*
X135271Y496368D01*
X135258Y496282D01*
X135242Y496196D01*
X135244Y496184D01*
X135242Y496171D01*
X135279Y496009D01*
X135801Y494751D01*
X135801Y484949D01*
X135279Y483691D01*
X135277Y483679D01*
X135271Y483668D01*
X135258Y483582D01*
X135242Y483496D01*
X135244Y483484D01*
X135242Y483471D01*
X135279Y483309D01*
X135801Y482051D01*
X135801Y472249D01*
X134736Y469680D01*
X132770Y467714D01*
X130201Y466649D01*
X112399Y466649D01*
X110571Y467407D01*
X110561Y467409D01*
X110552Y467414D01*
X110464Y467427D01*
X110376Y467444D01*
X110366Y467442D01*
X110355Y467444D01*
X110269Y467422D01*
X110182Y467403D01*
X110173Y467397D01*
X110163Y467395D01*
X110027Y467298D01*
X109147Y466418D01*
X109140Y466407D01*
X109130Y466400D01*
X109085Y466325D01*
X109037Y466252D01*
X109035Y466240D01*
X109028Y466229D01*
X109001Y466065D01*
X109001Y413935D01*
X109003Y413923D01*
X109001Y413910D01*
X109023Y413826D01*
X109040Y413740D01*
X109047Y413730D01*
X109051Y413718D01*
X109147Y413582D01*
X166582Y356147D01*
X166591Y356141D01*
X166598Y356132D01*
X166599Y356132D01*
X166600Y356130D01*
X166675Y356085D01*
X166748Y356037D01*
X166760Y356035D01*
X166771Y356028D01*
X166935Y356001D01*
X331065Y356001D01*
X331077Y356003D01*
X331090Y356001D01*
X331174Y356023D01*
X331260Y356040D01*
X331270Y356047D01*
X331282Y356051D01*
X331418Y356147D01*
X334613Y359342D01*
X334620Y359353D01*
X334630Y359360D01*
X334675Y359435D01*
X334723Y359508D01*
X334725Y359520D01*
X334732Y359531D01*
X334759Y359695D01*
X334759Y362009D01*
X336833Y367016D01*
X340664Y370847D01*
X345671Y372921D01*
X366329Y372921D01*
X371336Y370847D01*
X375167Y367016D01*
X377241Y362009D01*
X377241Y356591D01*
X375167Y351584D01*
X371336Y347753D01*
X366329Y345679D01*
X346615Y345679D01*
X346603Y345677D01*
X346590Y345679D01*
X346506Y345657D01*
X346420Y345640D01*
X346410Y345633D01*
X346398Y345629D01*
X346262Y345533D01*
X343106Y342377D01*
X343104Y342373D01*
X343100Y342371D01*
X343049Y342291D01*
X342996Y342211D01*
X342995Y342207D01*
X342993Y342204D01*
X342977Y342110D01*
X342960Y342016D01*
X342961Y342012D01*
X342960Y342007D01*
X342982Y341916D01*
X343003Y341822D01*
X343005Y341818D01*
X343006Y341814D01*
X343062Y341738D01*
X343118Y341659D01*
X343121Y341657D01*
X343124Y341654D01*
X343206Y341605D01*
X343287Y341555D01*
X343291Y341555D01*
X343295Y341552D01*
X343459Y341525D01*
X647976Y341525D01*
X647984Y341526D01*
G37*
%LPC*%
G36*
X445071Y853279D02*
X445071Y853279D01*
X440064Y855353D01*
X436233Y859184D01*
X434159Y864191D01*
X434159Y865660D01*
X434158Y865668D01*
X434159Y865677D01*
X434138Y865765D01*
X434120Y865855D01*
X434115Y865862D01*
X434113Y865870D01*
X434059Y865943D01*
X434007Y866019D01*
X434000Y866023D01*
X433995Y866030D01*
X433917Y866077D01*
X433840Y866126D01*
X433831Y866127D01*
X433824Y866132D01*
X433660Y866159D01*
X421032Y866159D01*
X421019Y866157D01*
X421007Y866159D01*
X420923Y866137D01*
X420837Y866120D01*
X420827Y866113D01*
X420814Y866109D01*
X420679Y866013D01*
X420140Y865474D01*
X418114Y864635D01*
X418109Y864631D01*
X418102Y864630D01*
X418026Y864576D01*
X417949Y864524D01*
X417946Y864519D01*
X417940Y864515D01*
X417892Y864436D01*
X417841Y864357D01*
X417839Y864351D01*
X417836Y864346D01*
X417822Y864254D01*
X417806Y864161D01*
X417807Y864155D01*
X417806Y864149D01*
X417829Y864059D01*
X417850Y863968D01*
X417854Y863962D01*
X417855Y863956D01*
X417952Y863821D01*
X422145Y859628D01*
X422145Y856839D01*
X413500Y856839D01*
X413492Y856838D01*
X413484Y856839D01*
X413395Y856818D01*
X413305Y856800D01*
X413298Y856795D01*
X413290Y856793D01*
X413217Y856739D01*
X413141Y856687D01*
X413137Y856680D01*
X413130Y856675D01*
X413084Y856597D01*
X413034Y856520D01*
X413033Y856511D01*
X413029Y856504D01*
X413001Y856340D01*
X413001Y855839D01*
X412999Y855839D01*
X412999Y856340D01*
X412997Y856348D01*
X412999Y856356D01*
X412978Y856445D01*
X412960Y856535D01*
X412955Y856542D01*
X412953Y856550D01*
X412899Y856623D01*
X412847Y856699D01*
X412840Y856703D01*
X412835Y856710D01*
X412757Y856756D01*
X412679Y856806D01*
X412671Y856807D01*
X412664Y856811D01*
X412500Y856839D01*
X403855Y856839D01*
X403855Y859628D01*
X407374Y863147D01*
X407377Y863151D01*
X407380Y863153D01*
X407431Y863233D01*
X407484Y863313D01*
X407485Y863317D01*
X407487Y863320D01*
X407503Y863414D01*
X407521Y863508D01*
X407520Y863512D01*
X407520Y863517D01*
X407499Y863608D01*
X407478Y863702D01*
X407475Y863706D01*
X407474Y863710D01*
X407418Y863786D01*
X407363Y863865D01*
X407359Y863867D01*
X407356Y863870D01*
X407275Y863919D01*
X407193Y863969D01*
X407189Y863969D01*
X407185Y863972D01*
X407021Y863999D01*
X389736Y863999D01*
X389723Y863997D01*
X389711Y863999D01*
X389627Y863977D01*
X389541Y863960D01*
X389531Y863953D01*
X389518Y863949D01*
X389383Y863853D01*
X388844Y863314D01*
X384211Y861395D01*
X365989Y861395D01*
X361356Y863314D01*
X357810Y866860D01*
X355891Y871493D01*
X355891Y876507D01*
X357810Y881140D01*
X361356Y884686D01*
X365989Y886605D01*
X384211Y886605D01*
X388844Y884686D01*
X389383Y884147D01*
X389393Y884140D01*
X389401Y884130D01*
X389476Y884085D01*
X389549Y884037D01*
X389561Y884035D01*
X389572Y884028D01*
X389736Y884001D01*
X402808Y884001D01*
X402821Y884003D01*
X402833Y884001D01*
X402917Y884023D01*
X403003Y884040D01*
X403013Y884047D01*
X403026Y884051D01*
X403161Y884147D01*
X405860Y886846D01*
X410493Y888765D01*
X415507Y888765D01*
X420140Y886846D01*
X420679Y886307D01*
X420689Y886300D01*
X420697Y886290D01*
X420772Y886245D01*
X420845Y886197D01*
X420857Y886195D01*
X420868Y886188D01*
X421032Y886161D01*
X448129Y886161D01*
X451805Y884638D01*
X455776Y880667D01*
X455787Y880660D01*
X455794Y880650D01*
X455869Y880605D01*
X455942Y880557D01*
X455954Y880555D01*
X455965Y880548D01*
X456129Y880521D01*
X464757Y880521D01*
X464769Y880523D01*
X464781Y880521D01*
X464866Y880543D01*
X464951Y880560D01*
X464962Y880567D01*
X464974Y880571D01*
X465110Y880667D01*
X483769Y899326D01*
X487812Y901001D01*
X555237Y901001D01*
X555249Y901003D01*
X555261Y901001D01*
X555346Y901023D01*
X555431Y901040D01*
X555442Y901047D01*
X555454Y901051D01*
X555590Y901147D01*
X561304Y906861D01*
X561306Y906865D01*
X561309Y906867D01*
X561361Y906947D01*
X561413Y907027D01*
X561414Y907031D01*
X561416Y907034D01*
X561432Y907128D01*
X561450Y907222D01*
X561449Y907226D01*
X561450Y907231D01*
X561428Y907322D01*
X561407Y907416D01*
X561405Y907420D01*
X561404Y907424D01*
X561348Y907500D01*
X561292Y907579D01*
X561288Y907581D01*
X561286Y907584D01*
X561204Y907633D01*
X561122Y907683D01*
X561118Y907683D01*
X561115Y907686D01*
X560951Y907713D01*
X539053Y907713D01*
X538937Y907829D01*
X538926Y907836D01*
X538919Y907846D01*
X538844Y907891D01*
X538771Y907939D01*
X538759Y907941D01*
X538748Y907948D01*
X538584Y907975D01*
X489161Y907975D01*
X487975Y909161D01*
X487975Y980839D01*
X489161Y982025D01*
X528584Y982025D01*
X528596Y982027D01*
X528609Y982025D01*
X528693Y982047D01*
X528779Y982064D01*
X528789Y982071D01*
X528801Y982075D01*
X528937Y982171D01*
X529053Y982287D01*
X560947Y982287D01*
X562287Y980947D01*
X562287Y909049D01*
X562288Y909045D01*
X562287Y909041D01*
X562307Y908948D01*
X562326Y908855D01*
X562329Y908851D01*
X562330Y908847D01*
X562385Y908769D01*
X562439Y908691D01*
X562442Y908688D01*
X562445Y908685D01*
X562526Y908635D01*
X562606Y908584D01*
X562611Y908583D01*
X562614Y908581D01*
X562708Y908566D01*
X562803Y908550D01*
X562807Y908551D01*
X562811Y908551D01*
X562903Y908574D01*
X562996Y908596D01*
X562999Y908599D01*
X563003Y908600D01*
X563139Y908696D01*
X563490Y909048D01*
X563496Y909057D01*
X563505Y909063D01*
X563551Y909139D01*
X563600Y909214D01*
X563602Y909224D01*
X563608Y909233D01*
X563620Y909321D01*
X563637Y909409D01*
X563634Y909419D01*
X563636Y909430D01*
X563599Y909592D01*
X563444Y909964D01*
X563444Y915636D01*
X565615Y920875D01*
X569625Y924885D01*
X574864Y927056D01*
X580536Y927056D01*
X585775Y924885D01*
X589785Y920875D01*
X591838Y915919D01*
X591852Y915900D01*
X591858Y915877D01*
X591907Y915818D01*
X591949Y915755D01*
X591969Y915741D01*
X591985Y915723D01*
X592052Y915688D01*
X592116Y915646D01*
X592140Y915642D01*
X592161Y915631D01*
X592237Y915625D01*
X592312Y915611D01*
X592335Y915617D01*
X592359Y915615D01*
X592431Y915639D01*
X592506Y915656D01*
X592525Y915670D01*
X592548Y915677D01*
X592605Y915728D01*
X592667Y915772D01*
X592679Y915793D01*
X592697Y915809D01*
X592751Y915912D01*
X592770Y915943D01*
X592771Y915949D01*
X592774Y915956D01*
X593095Y916944D01*
X593867Y918458D01*
X594865Y919833D01*
X596067Y921035D01*
X597442Y922033D01*
X598956Y922805D01*
X600572Y923330D01*
X602101Y923572D01*
X602101Y913300D01*
X602102Y913292D01*
X602101Y913284D01*
X602122Y913195D01*
X602140Y913105D01*
X602145Y913098D01*
X602147Y913090D01*
X602201Y913017D01*
X602253Y912941D01*
X602260Y912937D01*
X602265Y912930D01*
X602343Y912884D01*
X602420Y912834D01*
X602429Y912833D01*
X602436Y912829D01*
X602600Y912801D01*
X603101Y912801D01*
X603101Y912799D01*
X602600Y912799D01*
X602592Y912797D01*
X602583Y912799D01*
X602495Y912778D01*
X602405Y912760D01*
X602398Y912755D01*
X602390Y912753D01*
X602317Y912699D01*
X602241Y912647D01*
X602237Y912640D01*
X602230Y912635D01*
X602183Y912557D01*
X602134Y912479D01*
X602133Y912471D01*
X602128Y912464D01*
X602101Y912300D01*
X602101Y902028D01*
X600572Y902270D01*
X598956Y902795D01*
X597442Y903567D01*
X596067Y904565D01*
X594865Y905767D01*
X593867Y907142D01*
X593095Y908656D01*
X592774Y909644D01*
X592762Y909665D01*
X592757Y909688D01*
X592714Y909751D01*
X592676Y909817D01*
X592657Y909831D01*
X592644Y909851D01*
X592579Y909892D01*
X592519Y909938D01*
X592495Y909944D01*
X592475Y909957D01*
X592400Y909969D01*
X592326Y909988D01*
X592302Y909984D01*
X592279Y909988D01*
X592205Y909970D01*
X592130Y909959D01*
X592109Y909946D01*
X592086Y909941D01*
X592025Y909895D01*
X591960Y909855D01*
X591946Y909836D01*
X591927Y909821D01*
X591865Y909723D01*
X591844Y909694D01*
X591842Y909687D01*
X591838Y909681D01*
X589785Y904725D01*
X587447Y902387D01*
X587439Y902375D01*
X587428Y902366D01*
X587339Y902225D01*
X587026Y901469D01*
X566231Y880674D01*
X562188Y878999D01*
X494763Y878999D01*
X494751Y878997D01*
X494739Y878999D01*
X494654Y878977D01*
X494569Y878960D01*
X494558Y878953D01*
X494546Y878949D01*
X494410Y878853D01*
X473131Y857574D01*
X472925Y857488D01*
X472913Y857480D01*
X472898Y857477D01*
X472763Y857380D01*
X470736Y855353D01*
X465729Y853279D01*
X445071Y853279D01*
G37*
%LPD*%
G36*
X154545Y341526D02*
X154545Y341526D01*
X154549Y341525D01*
X154643Y341545D01*
X154736Y341564D01*
X154739Y341567D01*
X154743Y341568D01*
X154821Y341623D01*
X154900Y341677D01*
X154902Y341680D01*
X154906Y341683D01*
X154955Y341764D01*
X155007Y341844D01*
X155008Y341849D01*
X155010Y341852D01*
X155024Y341946D01*
X155040Y342041D01*
X155039Y342045D01*
X155040Y342049D01*
X155016Y342141D01*
X154994Y342234D01*
X154991Y342237D01*
X154990Y342241D01*
X154894Y342377D01*
X92370Y404901D01*
X90999Y408210D01*
X90999Y471790D01*
X92370Y475099D01*
X94972Y477701D01*
X97418Y480147D01*
X97420Y480151D01*
X97424Y480153D01*
X97475Y480233D01*
X97528Y480313D01*
X97529Y480317D01*
X97531Y480320D01*
X97547Y480414D01*
X97564Y480508D01*
X97563Y480512D01*
X97564Y480517D01*
X97542Y480608D01*
X97521Y480702D01*
X97519Y480706D01*
X97518Y480710D01*
X97462Y480786D01*
X97406Y480865D01*
X97403Y480867D01*
X97400Y480870D01*
X97318Y480919D01*
X97237Y480969D01*
X97233Y480969D01*
X97229Y480972D01*
X97065Y480999D01*
X93935Y480999D01*
X93923Y480997D01*
X93910Y480999D01*
X93826Y480977D01*
X93740Y480960D01*
X93730Y480953D01*
X93718Y480949D01*
X93582Y480853D01*
X89147Y476418D01*
X89140Y476407D01*
X89130Y476400D01*
X89085Y476325D01*
X89037Y476252D01*
X89035Y476240D01*
X89028Y476229D01*
X89001Y476065D01*
X89001Y458210D01*
X87630Y454901D01*
X71147Y438418D01*
X71140Y438407D01*
X71130Y438400D01*
X71085Y438325D01*
X71037Y438252D01*
X71035Y438240D01*
X71028Y438229D01*
X71001Y438065D01*
X71001Y370210D01*
X69630Y366901D01*
X58499Y355770D01*
X55551Y354549D01*
X55539Y354541D01*
X55525Y354537D01*
X55389Y354441D01*
X51725Y350776D01*
X46252Y348509D01*
X22548Y348509D01*
X17075Y350776D01*
X12886Y354965D01*
X10619Y360438D01*
X10619Y366362D01*
X12886Y371835D01*
X16798Y375747D01*
X16803Y375754D01*
X16810Y375759D01*
X16858Y375836D01*
X16908Y375913D01*
X16910Y375921D01*
X16914Y375928D01*
X16928Y376018D01*
X16944Y376108D01*
X16943Y376117D01*
X16944Y376125D01*
X16921Y376213D01*
X16902Y376302D01*
X16897Y376309D01*
X16895Y376317D01*
X16798Y376453D01*
X12886Y380365D01*
X10619Y385838D01*
X10619Y391762D01*
X12886Y397235D01*
X16798Y401147D01*
X16803Y401154D01*
X16810Y401159D01*
X16858Y401236D01*
X16908Y401313D01*
X16910Y401321D01*
X16914Y401328D01*
X16928Y401418D01*
X16944Y401508D01*
X16943Y401517D01*
X16944Y401525D01*
X16921Y401613D01*
X16902Y401702D01*
X16897Y401709D01*
X16895Y401717D01*
X16798Y401853D01*
X12886Y405765D01*
X10619Y411238D01*
X10619Y417162D01*
X12886Y422635D01*
X16798Y426547D01*
X16799Y426549D01*
X16801Y426549D01*
X16804Y426555D01*
X16810Y426559D01*
X16858Y426636D01*
X16908Y426713D01*
X16910Y426721D01*
X16914Y426728D01*
X16928Y426818D01*
X16944Y426908D01*
X16943Y426917D01*
X16944Y426925D01*
X16921Y427013D01*
X16902Y427102D01*
X16897Y427109D01*
X16895Y427117D01*
X16798Y427253D01*
X12886Y431165D01*
X10619Y436638D01*
X10619Y442562D01*
X12886Y448035D01*
X16798Y451947D01*
X16803Y451954D01*
X16810Y451959D01*
X16858Y452036D01*
X16908Y452113D01*
X16910Y452121D01*
X16914Y452128D01*
X16928Y452218D01*
X16944Y452308D01*
X16943Y452317D01*
X16944Y452325D01*
X16921Y452413D01*
X16902Y452502D01*
X16897Y452509D01*
X16895Y452517D01*
X16798Y452653D01*
X12886Y456565D01*
X10619Y462038D01*
X10619Y467962D01*
X12886Y473435D01*
X16798Y477347D01*
X16803Y477354D01*
X16810Y477359D01*
X16857Y477436D01*
X16908Y477513D01*
X16910Y477521D01*
X16914Y477528D01*
X16928Y477618D01*
X16944Y477708D01*
X16943Y477716D01*
X16944Y477725D01*
X16921Y477813D01*
X16902Y477902D01*
X16897Y477909D01*
X16895Y477917D01*
X16798Y478053D01*
X12886Y481965D01*
X10619Y487438D01*
X10619Y493362D01*
X12886Y498835D01*
X17075Y503024D01*
X20670Y504513D01*
X20740Y504560D01*
X20813Y504603D01*
X20822Y504615D01*
X20835Y504624D01*
X20881Y504695D01*
X20931Y504762D01*
X20935Y504778D01*
X20943Y504791D01*
X20958Y504874D01*
X20978Y504956D01*
X20975Y504971D01*
X20978Y504986D01*
X20959Y505069D01*
X20946Y505152D01*
X20937Y505165D01*
X20934Y505180D01*
X20884Y505249D01*
X20839Y505320D01*
X20825Y505330D01*
X20817Y505341D01*
X20779Y505364D01*
X20706Y505419D01*
X19519Y506024D01*
X18063Y507081D01*
X16791Y508353D01*
X15734Y509809D01*
X14917Y511412D01*
X14361Y513123D01*
X14095Y514801D01*
X33900Y514801D01*
X33908Y514802D01*
X33916Y514801D01*
X34005Y514822D01*
X34095Y514840D01*
X34102Y514845D01*
X34110Y514847D01*
X34183Y514901D01*
X34259Y514953D01*
X34263Y514960D01*
X34270Y514965D01*
X34316Y515043D01*
X34366Y515120D01*
X34367Y515129D01*
X34371Y515136D01*
X34399Y515300D01*
X34399Y516300D01*
X34397Y516308D01*
X34399Y516316D01*
X34378Y516405D01*
X34360Y516495D01*
X34355Y516502D01*
X34353Y516510D01*
X34299Y516583D01*
X34247Y516659D01*
X34240Y516663D01*
X34235Y516670D01*
X34157Y516716D01*
X34079Y516766D01*
X34071Y516767D01*
X34064Y516771D01*
X33900Y516799D01*
X14095Y516799D01*
X14361Y518477D01*
X14917Y520188D01*
X15734Y521791D01*
X16791Y523247D01*
X18063Y524519D01*
X19519Y525576D01*
X20706Y526181D01*
X20772Y526234D01*
X20841Y526282D01*
X20849Y526295D01*
X20861Y526305D01*
X20902Y526379D01*
X20946Y526450D01*
X20949Y526466D01*
X20956Y526480D01*
X20965Y526564D01*
X20978Y526647D01*
X20974Y526662D01*
X20976Y526677D01*
X20950Y526758D01*
X20930Y526840D01*
X20921Y526852D01*
X20916Y526867D01*
X20862Y526931D01*
X20811Y526999D01*
X20796Y527008D01*
X20787Y527019D01*
X20748Y527038D01*
X20670Y527087D01*
X17075Y528576D01*
X12886Y532765D01*
X10619Y538238D01*
X10619Y544162D01*
X12841Y549526D01*
X12842Y549530D01*
X12844Y549532D01*
X12844Y549535D01*
X12846Y549538D01*
X12861Y549630D01*
X12879Y549722D01*
X12878Y549728D01*
X12879Y549734D01*
X12857Y549825D01*
X12838Y549916D01*
X12834Y549921D01*
X12833Y549927D01*
X12779Y550001D01*
X12724Y550079D01*
X12719Y550083D01*
X12715Y550088D01*
X12635Y550135D01*
X12556Y550185D01*
X12550Y550186D01*
X12544Y550189D01*
X12380Y550217D01*
X7774Y550217D01*
X5569Y551130D01*
X3881Y552818D01*
X2967Y555024D01*
X2967Y569475D01*
X3881Y571681D01*
X4383Y572182D01*
X4387Y572189D01*
X4394Y572194D01*
X4442Y572272D01*
X4492Y572348D01*
X4494Y572356D01*
X4498Y572364D01*
X4512Y572453D01*
X4529Y572544D01*
X4527Y572552D01*
X4528Y572560D01*
X4506Y572648D01*
X4486Y572738D01*
X4481Y572745D01*
X4479Y572753D01*
X4383Y572888D01*
X2377Y574894D01*
X2373Y574896D01*
X2371Y574900D01*
X2291Y574951D01*
X2211Y575004D01*
X2207Y575005D01*
X2204Y575007D01*
X2110Y575023D01*
X2016Y575040D01*
X2012Y575039D01*
X2007Y575040D01*
X1916Y575018D01*
X1822Y574997D01*
X1818Y574995D01*
X1814Y574994D01*
X1738Y574938D01*
X1659Y574882D01*
X1657Y574879D01*
X1654Y574876D01*
X1605Y574794D01*
X1555Y574713D01*
X1555Y574709D01*
X1552Y574705D01*
X1525Y574541D01*
X1525Y342024D01*
X1526Y342016D01*
X1525Y342007D01*
X1546Y341919D01*
X1564Y341829D01*
X1569Y341822D01*
X1571Y341814D01*
X1625Y341741D01*
X1677Y341665D01*
X1684Y341661D01*
X1689Y341654D01*
X1767Y341607D01*
X1844Y341558D01*
X1853Y341557D01*
X1860Y341552D01*
X2024Y341525D01*
X154541Y341525D01*
X154545Y341526D01*
G37*
%LPC*%
G36*
X229161Y357975D02*
X229161Y357975D01*
X227975Y359161D01*
X227975Y430839D01*
X229161Y432025D01*
X320839Y432025D01*
X322025Y430839D01*
X322025Y359161D01*
X320839Y357975D01*
X229161Y357975D01*
G37*
%LPD*%
%LPC*%
G36*
X599742Y799589D02*
X599742Y799589D01*
X589083Y802445D01*
X579526Y807963D01*
X571723Y815766D01*
X566205Y825323D01*
X563349Y835982D01*
X563349Y847018D01*
X566205Y857677D01*
X571723Y867234D01*
X579526Y875037D01*
X589083Y880555D01*
X599742Y883411D01*
X610778Y883411D01*
X621437Y880555D01*
X630994Y875037D01*
X638797Y867234D01*
X644315Y857677D01*
X647171Y847018D01*
X647171Y835982D01*
X644315Y825323D01*
X638797Y815766D01*
X630994Y807963D01*
X621437Y802445D01*
X610778Y799589D01*
X599742Y799589D01*
G37*
%LPD*%
%LPC*%
G36*
X149249Y447649D02*
X149249Y447649D01*
X146680Y448714D01*
X144714Y450680D01*
X143649Y453249D01*
X143649Y471051D01*
X144714Y473620D01*
X146680Y475586D01*
X149249Y476651D01*
X159051Y476651D01*
X160309Y476129D01*
X160321Y476127D01*
X160332Y476121D01*
X160418Y476108D01*
X160504Y476092D01*
X160516Y476094D01*
X160529Y476092D01*
X160691Y476129D01*
X161949Y476651D01*
X171751Y476651D01*
X173009Y476129D01*
X173021Y476127D01*
X173032Y476121D01*
X173118Y476108D01*
X173204Y476092D01*
X173216Y476094D01*
X173229Y476092D01*
X173391Y476129D01*
X174649Y476651D01*
X184451Y476651D01*
X185709Y476129D01*
X185721Y476127D01*
X185732Y476121D01*
X185818Y476108D01*
X185904Y476092D01*
X185916Y476094D01*
X185929Y476092D01*
X186091Y476129D01*
X187349Y476651D01*
X197151Y476651D01*
X198409Y476129D01*
X198421Y476127D01*
X198432Y476121D01*
X198518Y476108D01*
X198604Y476092D01*
X198616Y476094D01*
X198629Y476092D01*
X198791Y476129D01*
X200049Y476651D01*
X209851Y476651D01*
X211109Y476129D01*
X211121Y476127D01*
X211132Y476121D01*
X211218Y476108D01*
X211304Y476092D01*
X211316Y476094D01*
X211329Y476092D01*
X211491Y476129D01*
X212749Y476651D01*
X222551Y476651D01*
X223809Y476129D01*
X223821Y476127D01*
X223832Y476121D01*
X223918Y476108D01*
X224004Y476092D01*
X224016Y476094D01*
X224029Y476092D01*
X224191Y476129D01*
X225449Y476651D01*
X235251Y476651D01*
X236509Y476129D01*
X236521Y476127D01*
X236532Y476121D01*
X236618Y476108D01*
X236704Y476092D01*
X236716Y476094D01*
X236729Y476092D01*
X236891Y476129D01*
X238149Y476651D01*
X247951Y476651D01*
X249209Y476129D01*
X249221Y476127D01*
X249232Y476121D01*
X249318Y476108D01*
X249404Y476092D01*
X249416Y476094D01*
X249429Y476092D01*
X249591Y476129D01*
X250849Y476651D01*
X260651Y476651D01*
X263220Y475586D01*
X265186Y473620D01*
X265237Y473499D01*
X265242Y473490D01*
X265245Y473480D01*
X265298Y473408D01*
X265348Y473334D01*
X265357Y473328D01*
X265363Y473320D01*
X265439Y473275D01*
X265514Y473226D01*
X265525Y473224D01*
X265534Y473218D01*
X265698Y473191D01*
X267451Y473191D01*
X267451Y462650D01*
X267452Y462642D01*
X267451Y462634D01*
X267472Y462545D01*
X267490Y462455D01*
X267495Y462448D01*
X267497Y462440D01*
X267551Y462367D01*
X267603Y462291D01*
X267610Y462287D01*
X267615Y462280D01*
X267693Y462234D01*
X267770Y462184D01*
X267779Y462183D01*
X267786Y462179D01*
X267950Y462151D01*
X268451Y462151D01*
X268451Y462149D01*
X267950Y462149D01*
X267942Y462147D01*
X267934Y462149D01*
X267845Y462128D01*
X267755Y462110D01*
X267748Y462105D01*
X267740Y462103D01*
X267667Y462049D01*
X267591Y461997D01*
X267587Y461990D01*
X267580Y461985D01*
X267534Y461907D01*
X267484Y461829D01*
X267483Y461821D01*
X267479Y461814D01*
X267451Y461650D01*
X267451Y451109D01*
X265698Y451109D01*
X265688Y451107D01*
X265677Y451109D01*
X265591Y451088D01*
X265503Y451070D01*
X265494Y451064D01*
X265484Y451061D01*
X265413Y451008D01*
X265339Y450957D01*
X265333Y450948D01*
X265325Y450942D01*
X265237Y450801D01*
X265186Y450680D01*
X263220Y448714D01*
X260651Y447649D01*
X250849Y447649D01*
X249591Y448171D01*
X249579Y448173D01*
X249568Y448179D01*
X249482Y448192D01*
X249396Y448208D01*
X249384Y448206D01*
X249371Y448208D01*
X249209Y448171D01*
X247951Y447649D01*
X238149Y447649D01*
X236891Y448171D01*
X236879Y448173D01*
X236868Y448179D01*
X236782Y448192D01*
X236696Y448208D01*
X236684Y448206D01*
X236671Y448208D01*
X236509Y448171D01*
X235251Y447649D01*
X225449Y447649D01*
X224191Y448171D01*
X224179Y448173D01*
X224168Y448179D01*
X224082Y448192D01*
X223996Y448208D01*
X223984Y448206D01*
X223971Y448208D01*
X223809Y448171D01*
X222551Y447649D01*
X212749Y447649D01*
X211491Y448171D01*
X211479Y448173D01*
X211468Y448179D01*
X211382Y448192D01*
X211296Y448208D01*
X211284Y448206D01*
X211271Y448208D01*
X211109Y448171D01*
X209851Y447649D01*
X200049Y447649D01*
X198791Y448171D01*
X198779Y448173D01*
X198768Y448179D01*
X198682Y448192D01*
X198596Y448208D01*
X198584Y448206D01*
X198571Y448208D01*
X198409Y448171D01*
X197151Y447649D01*
X187349Y447649D01*
X186091Y448171D01*
X186079Y448173D01*
X186068Y448179D01*
X185982Y448192D01*
X185896Y448208D01*
X185884Y448206D01*
X185871Y448208D01*
X185709Y448171D01*
X184451Y447649D01*
X174649Y447649D01*
X173391Y448171D01*
X173379Y448173D01*
X173368Y448179D01*
X173282Y448192D01*
X173196Y448208D01*
X173184Y448206D01*
X173171Y448208D01*
X173009Y448171D01*
X171751Y447649D01*
X161949Y447649D01*
X160691Y448171D01*
X160679Y448173D01*
X160668Y448179D01*
X160582Y448192D01*
X160496Y448208D01*
X160484Y448206D01*
X160471Y448208D01*
X160309Y448171D01*
X159051Y447649D01*
X149249Y447649D01*
G37*
%LPD*%
G36*
X106308Y562352D02*
X106308Y562352D01*
X106317Y562351D01*
X106405Y562372D01*
X106495Y562390D01*
X106502Y562395D01*
X106510Y562397D01*
X106583Y562451D01*
X106659Y562503D01*
X106663Y562510D01*
X106670Y562515D01*
X106717Y562593D01*
X106766Y562670D01*
X106767Y562679D01*
X106772Y562686D01*
X106799Y562850D01*
X106799Y570951D01*
X107321Y572209D01*
X107323Y572221D01*
X107329Y572232D01*
X107342Y572318D01*
X107358Y572404D01*
X107356Y572416D01*
X107358Y572429D01*
X107321Y572591D01*
X106799Y573849D01*
X106799Y581950D01*
X106798Y581958D01*
X106799Y581967D01*
X106778Y582055D01*
X106760Y582145D01*
X106755Y582152D01*
X106753Y582160D01*
X106699Y582233D01*
X106647Y582309D01*
X106640Y582313D01*
X106635Y582320D01*
X106557Y582367D01*
X106480Y582416D01*
X106471Y582417D01*
X106464Y582422D01*
X106300Y582449D01*
X86760Y582449D01*
X83451Y583820D01*
X58370Y608901D01*
X57755Y610386D01*
X57750Y610393D01*
X57748Y610401D01*
X57694Y610475D01*
X57643Y610551D01*
X57636Y610556D01*
X57631Y610562D01*
X57554Y610609D01*
X57477Y610659D01*
X57468Y610661D01*
X57461Y610665D01*
X57371Y610678D01*
X57281Y610694D01*
X57273Y610692D01*
X57264Y610693D01*
X57102Y610656D01*
X52329Y608679D01*
X31671Y608679D01*
X26664Y610753D01*
X22833Y614584D01*
X21559Y617659D01*
X21553Y617668D01*
X21551Y617678D01*
X21498Y617750D01*
X21448Y617824D01*
X21439Y617830D01*
X21433Y617838D01*
X21357Y617883D01*
X21282Y617932D01*
X21271Y617934D01*
X21262Y617940D01*
X21098Y617967D01*
X19639Y617967D01*
X15691Y619602D01*
X15685Y619604D01*
X15680Y619607D01*
X15587Y619623D01*
X15496Y619640D01*
X15490Y619639D01*
X15483Y619640D01*
X15393Y619619D01*
X15301Y619599D01*
X15296Y619596D01*
X15290Y619594D01*
X15215Y619539D01*
X15138Y619485D01*
X15135Y619480D01*
X15130Y619476D01*
X15083Y619396D01*
X15033Y619317D01*
X15032Y619311D01*
X15028Y619305D01*
X15001Y619141D01*
X15001Y587935D01*
X15003Y587923D01*
X15001Y587910D01*
X15023Y587826D01*
X15040Y587740D01*
X15047Y587730D01*
X15051Y587718D01*
X15147Y587582D01*
X16301Y586428D01*
X16311Y586421D01*
X16319Y586411D01*
X16393Y586367D01*
X16466Y586319D01*
X16479Y586316D01*
X16490Y586310D01*
X16654Y586282D01*
X31025Y586282D01*
X31047Y586287D01*
X31069Y586284D01*
X31144Y586306D01*
X31220Y586322D01*
X31238Y586334D01*
X31259Y586340D01*
X31320Y586390D01*
X31384Y586434D01*
X31396Y586453D01*
X31413Y586467D01*
X31449Y586536D01*
X31491Y586602D01*
X31495Y586624D01*
X31505Y586643D01*
X31511Y586721D01*
X31524Y586798D01*
X31519Y586819D01*
X31521Y586841D01*
X31496Y586915D01*
X31478Y586991D01*
X31465Y587009D01*
X31458Y587030D01*
X31407Y587089D01*
X31360Y587152D01*
X31342Y587163D01*
X31327Y587179D01*
X31215Y587238D01*
X31189Y587253D01*
X31184Y587254D01*
X31180Y587256D01*
X30480Y587484D01*
X29055Y588210D01*
X27761Y589150D01*
X26630Y590281D01*
X25690Y591575D01*
X24964Y593000D01*
X24469Y594521D01*
X24251Y595901D01*
X41001Y595901D01*
X41001Y586739D01*
X35915Y586739D01*
X35913Y586739D01*
X35911Y586739D01*
X35817Y586719D01*
X35720Y586700D01*
X35719Y586698D01*
X35717Y586698D01*
X35636Y586642D01*
X35556Y586587D01*
X35555Y586585D01*
X35554Y586584D01*
X35502Y586501D01*
X35449Y586420D01*
X35449Y586417D01*
X35448Y586416D01*
X35433Y586320D01*
X35416Y586224D01*
X35417Y586221D01*
X35416Y586219D01*
X35439Y586126D01*
X35462Y586030D01*
X35464Y586028D01*
X35464Y586026D01*
X35523Y585947D01*
X35580Y585870D01*
X35582Y585869D01*
X35583Y585867D01*
X35724Y585779D01*
X37817Y584912D01*
X60232Y562497D01*
X60243Y562490D01*
X60250Y562480D01*
X60325Y562435D01*
X60398Y562387D01*
X60410Y562385D01*
X60421Y562378D01*
X60585Y562351D01*
X106300Y562351D01*
X106308Y562352D01*
G37*
%LPC*%
G36*
X49779Y759795D02*
X49779Y759795D01*
X42395Y767179D01*
X42395Y777621D01*
X45853Y781079D01*
X45860Y781089D01*
X45870Y781097D01*
X45915Y781172D01*
X45963Y781245D01*
X45965Y781257D01*
X45972Y781268D01*
X45999Y781432D01*
X45999Y816790D01*
X47370Y820099D01*
X69265Y841994D01*
X69294Y842037D01*
X69330Y842073D01*
X69348Y842119D01*
X69375Y842160D01*
X69385Y842211D01*
X69404Y842258D01*
X69403Y842307D01*
X69412Y842356D01*
X69400Y842406D01*
X69399Y842457D01*
X69379Y842502D01*
X69369Y842550D01*
X69339Y842591D01*
X69318Y842638D01*
X69282Y842672D01*
X69253Y842712D01*
X69210Y842739D01*
X69172Y842774D01*
X69126Y842790D01*
X69084Y842816D01*
X69033Y842824D01*
X68985Y842841D01*
X68936Y842839D01*
X68888Y842846D01*
X68838Y842833D01*
X68787Y842831D01*
X68733Y842807D01*
X68695Y842797D01*
X68667Y842777D01*
X68635Y842762D01*
X67632Y842092D01*
X65967Y841403D01*
X64299Y841071D01*
X64299Y855801D01*
X72445Y855801D01*
X72445Y849295D01*
X72093Y847529D01*
X71404Y845864D01*
X70555Y844594D01*
X70535Y844545D01*
X70506Y844500D01*
X70497Y844453D01*
X70480Y844410D01*
X70480Y844356D01*
X70471Y844304D01*
X70482Y844258D01*
X70482Y844211D01*
X70503Y844162D01*
X70515Y844110D01*
X70543Y844072D01*
X70562Y844029D01*
X70601Y843992D01*
X70632Y843949D01*
X70672Y843925D01*
X70707Y843892D01*
X70757Y843874D01*
X70802Y843846D01*
X70849Y843840D01*
X70893Y843823D01*
X70946Y843826D01*
X70999Y843818D01*
X71053Y843830D01*
X71092Y843832D01*
X71120Y843846D01*
X71161Y843855D01*
X74410Y845201D01*
X81968Y845201D01*
X81981Y845203D01*
X81993Y845201D01*
X82077Y845223D01*
X82163Y845240D01*
X82173Y845247D01*
X82186Y845251D01*
X82321Y845347D01*
X85779Y848805D01*
X96221Y848805D01*
X103605Y841421D01*
X103605Y830979D01*
X96221Y823595D01*
X85779Y823595D01*
X82321Y827053D01*
X82311Y827060D01*
X82303Y827070D01*
X82228Y827115D01*
X82155Y827163D01*
X82143Y827165D01*
X82132Y827172D01*
X81968Y827199D01*
X80135Y827199D01*
X80123Y827197D01*
X80110Y827199D01*
X80026Y827177D01*
X79940Y827160D01*
X79930Y827153D01*
X79918Y827149D01*
X79782Y827053D01*
X64147Y811418D01*
X64140Y811407D01*
X64130Y811400D01*
X64085Y811325D01*
X64037Y811252D01*
X64035Y811240D01*
X64028Y811229D01*
X64001Y811065D01*
X64001Y781432D01*
X64003Y781419D01*
X64001Y781407D01*
X64023Y781323D01*
X64040Y781237D01*
X64047Y781227D01*
X64051Y781214D01*
X64147Y781079D01*
X67605Y777621D01*
X67605Y767179D01*
X60221Y759795D01*
X49779Y759795D01*
G37*
%LPD*%
%LPC*%
G36*
X411999Y364639D02*
X411999Y364639D01*
X411999Y365140D01*
X411997Y365148D01*
X411999Y365156D01*
X411978Y365245D01*
X411960Y365335D01*
X411955Y365342D01*
X411953Y365350D01*
X411899Y365423D01*
X411847Y365499D01*
X411840Y365503D01*
X411835Y365510D01*
X411757Y365556D01*
X411679Y365606D01*
X411671Y365607D01*
X411664Y365611D01*
X411500Y365639D01*
X402855Y365639D01*
X402855Y368389D01*
X402853Y368400D01*
X402855Y368410D01*
X402834Y368496D01*
X402816Y368584D01*
X402810Y368593D01*
X402807Y368603D01*
X402754Y368674D01*
X402703Y368748D01*
X402694Y368754D01*
X402688Y368762D01*
X402547Y368850D01*
X401520Y369276D01*
X396316Y374480D01*
X393499Y381280D01*
X393499Y412680D01*
X396316Y419480D01*
X401520Y424684D01*
X408320Y427501D01*
X415680Y427501D01*
X422480Y424684D01*
X427684Y419480D01*
X430501Y412680D01*
X430501Y381280D01*
X427684Y374480D01*
X422480Y369276D01*
X421453Y368850D01*
X421444Y368845D01*
X421434Y368842D01*
X421362Y368789D01*
X421288Y368739D01*
X421282Y368730D01*
X421274Y368724D01*
X421229Y368648D01*
X421180Y368573D01*
X421178Y368562D01*
X421172Y368553D01*
X421145Y368389D01*
X421145Y365639D01*
X412500Y365639D01*
X412492Y365638D01*
X412484Y365639D01*
X412395Y365618D01*
X412305Y365600D01*
X412298Y365595D01*
X412290Y365593D01*
X412217Y365539D01*
X412141Y365487D01*
X412137Y365480D01*
X412130Y365475D01*
X412084Y365397D01*
X412034Y365320D01*
X412033Y365311D01*
X412029Y365304D01*
X412001Y365140D01*
X412001Y364639D01*
X411999Y364639D01*
G37*
%LPD*%
G36*
X456077Y589003D02*
X456077Y589003D01*
X456090Y589001D01*
X456174Y589023D01*
X456260Y589040D01*
X456270Y589047D01*
X456282Y589051D01*
X456418Y589147D01*
X460853Y593582D01*
X460860Y593593D01*
X460870Y593600D01*
X460915Y593675D01*
X460963Y593748D01*
X460965Y593760D01*
X460972Y593771D01*
X460999Y593935D01*
X460999Y658369D01*
X460997Y658379D01*
X460999Y658390D01*
X460978Y658476D01*
X460960Y658564D01*
X460954Y658573D01*
X460951Y658583D01*
X460898Y658654D01*
X460847Y658728D01*
X460838Y658733D01*
X460832Y658742D01*
X460691Y658830D01*
X460569Y658881D01*
X458881Y660569D01*
X457967Y662774D01*
X457967Y677226D01*
X458539Y678605D01*
X458540Y678611D01*
X458543Y678616D01*
X458559Y678709D01*
X458577Y678800D01*
X458575Y678806D01*
X458576Y678813D01*
X458555Y678903D01*
X458535Y678995D01*
X458532Y679000D01*
X458530Y679006D01*
X458475Y679081D01*
X458422Y679158D01*
X458416Y679161D01*
X458412Y679166D01*
X458333Y679213D01*
X458253Y679263D01*
X458247Y679264D01*
X458241Y679268D01*
X458077Y679295D01*
X449779Y679295D01*
X446321Y682753D01*
X446311Y682760D01*
X446303Y682770D01*
X446229Y682814D01*
X446155Y682863D01*
X446143Y682865D01*
X446132Y682872D01*
X445968Y682899D01*
X405835Y682899D01*
X405823Y682897D01*
X405810Y682899D01*
X405726Y682877D01*
X405640Y682860D01*
X405630Y682853D01*
X405618Y682849D01*
X405482Y682753D01*
X402486Y679757D01*
X402484Y679753D01*
X402480Y679751D01*
X402429Y679671D01*
X402376Y679591D01*
X402375Y679587D01*
X402373Y679584D01*
X402357Y679489D01*
X402340Y679396D01*
X402341Y679392D01*
X402340Y679387D01*
X402362Y679295D01*
X402383Y679202D01*
X402385Y679198D01*
X402386Y679194D01*
X402442Y679118D01*
X402498Y679039D01*
X402501Y679037D01*
X402504Y679034D01*
X402586Y678985D01*
X402667Y678935D01*
X402671Y678935D01*
X402675Y678932D01*
X402839Y678905D01*
X408021Y678905D01*
X415405Y671521D01*
X415405Y668820D01*
X415406Y668812D01*
X415405Y668803D01*
X415426Y668715D01*
X415444Y668625D01*
X415449Y668618D01*
X415451Y668610D01*
X415505Y668537D01*
X415557Y668461D01*
X415564Y668457D01*
X415569Y668450D01*
X415647Y668403D01*
X415724Y668354D01*
X415733Y668353D01*
X415740Y668348D01*
X415904Y668321D01*
X435529Y668321D01*
X440536Y666247D01*
X444367Y662416D01*
X446441Y657409D01*
X446441Y651991D01*
X444367Y646984D01*
X440536Y643153D01*
X438866Y642461D01*
X438862Y642459D01*
X438858Y642458D01*
X438780Y642403D01*
X438701Y642350D01*
X438699Y642347D01*
X438695Y642344D01*
X438644Y642263D01*
X438592Y642183D01*
X438592Y642179D01*
X438589Y642176D01*
X438574Y642082D01*
X438558Y641988D01*
X438559Y641983D01*
X438558Y641979D01*
X438581Y641888D01*
X438602Y641794D01*
X438605Y641790D01*
X438606Y641786D01*
X438663Y641710D01*
X438719Y641633D01*
X438722Y641631D01*
X438725Y641627D01*
X438866Y641539D01*
X440535Y640847D01*
X444367Y637016D01*
X446441Y632009D01*
X446441Y626591D01*
X444367Y621584D01*
X440536Y617753D01*
X438866Y617061D01*
X438862Y617059D01*
X438858Y617058D01*
X438780Y617003D01*
X438701Y616950D01*
X438699Y616947D01*
X438695Y616944D01*
X438644Y616863D01*
X438592Y616783D01*
X438592Y616779D01*
X438589Y616776D01*
X438574Y616682D01*
X438558Y616588D01*
X438559Y616583D01*
X438558Y616579D01*
X438581Y616488D01*
X438602Y616394D01*
X438605Y616390D01*
X438606Y616386D01*
X438663Y616310D01*
X438719Y616233D01*
X438722Y616231D01*
X438725Y616227D01*
X438866Y616139D01*
X440535Y615447D01*
X444367Y611616D01*
X446441Y606609D01*
X446441Y601191D01*
X444367Y596184D01*
X440536Y592353D01*
X438866Y591661D01*
X438862Y591659D01*
X438858Y591658D01*
X438780Y591603D01*
X438701Y591550D01*
X438699Y591547D01*
X438695Y591544D01*
X438644Y591463D01*
X438592Y591383D01*
X438592Y591379D01*
X438589Y591376D01*
X438574Y591282D01*
X438558Y591188D01*
X438559Y591183D01*
X438558Y591179D01*
X438581Y591086D01*
X438602Y590994D01*
X438605Y590990D01*
X438606Y590986D01*
X438663Y590910D01*
X438719Y590833D01*
X438722Y590831D01*
X438725Y590827D01*
X438866Y590739D01*
X440535Y590047D01*
X441436Y589147D01*
X441446Y589140D01*
X441454Y589130D01*
X441529Y589085D01*
X441601Y589037D01*
X441614Y589035D01*
X441625Y589028D01*
X441789Y589001D01*
X456065Y589001D01*
X456077Y589003D01*
G37*
%LPC*%
G36*
X85971Y728045D02*
X85971Y728045D01*
X79893Y731222D01*
X75494Y736484D01*
X73443Y743029D01*
X74052Y749860D01*
X77230Y755938D01*
X99737Y774757D01*
X106281Y776808D01*
X113113Y776198D01*
X119191Y773021D01*
X123590Y767759D01*
X125641Y761214D01*
X125032Y754383D01*
X121854Y748305D01*
X99347Y729486D01*
X92803Y727435D01*
X85971Y728045D01*
G37*
%LPD*%
G36*
X606278Y569103D02*
X606278Y569103D01*
X606290Y569101D01*
X606375Y569123D01*
X606460Y569140D01*
X606471Y569147D01*
X606483Y569151D01*
X606619Y569247D01*
X613853Y576481D01*
X613860Y576492D01*
X613870Y576499D01*
X613915Y576574D01*
X613963Y576647D01*
X613965Y576660D01*
X613972Y576670D01*
X613999Y576835D01*
X613999Y630065D01*
X613998Y630069D01*
X613999Y630073D01*
X613979Y630167D01*
X613960Y630260D01*
X613957Y630263D01*
X613956Y630267D01*
X613901Y630345D01*
X613847Y630424D01*
X613844Y630426D01*
X613841Y630430D01*
X613760Y630479D01*
X613680Y630531D01*
X613675Y630532D01*
X613672Y630534D01*
X613578Y630548D01*
X613483Y630564D01*
X613479Y630563D01*
X613475Y630564D01*
X613383Y630540D01*
X613290Y630518D01*
X613287Y630515D01*
X613283Y630514D01*
X613147Y630418D01*
X605099Y622370D01*
X601790Y620999D01*
X598089Y620999D01*
X598076Y620997D01*
X598064Y620999D01*
X597980Y620977D01*
X597894Y620960D01*
X597883Y620953D01*
X597871Y620949D01*
X597736Y620853D01*
X594636Y617753D01*
X589629Y615679D01*
X568971Y615679D01*
X563964Y617753D01*
X560133Y621584D01*
X558059Y626591D01*
X558059Y630690D01*
X558058Y630694D01*
X558059Y630698D01*
X558039Y630792D01*
X558020Y630885D01*
X558017Y630888D01*
X558016Y630892D01*
X557961Y630970D01*
X557907Y631049D01*
X557904Y631051D01*
X557901Y631054D01*
X557820Y631104D01*
X557740Y631156D01*
X557735Y631157D01*
X557732Y631159D01*
X557638Y631173D01*
X557543Y631189D01*
X557539Y631188D01*
X557535Y631189D01*
X557443Y631165D01*
X557350Y631143D01*
X557347Y631140D01*
X557343Y631139D01*
X557207Y631043D01*
X550480Y624316D01*
X543680Y621499D01*
X542334Y621499D01*
X542330Y621498D01*
X542326Y621499D01*
X542233Y621479D01*
X542140Y621460D01*
X542136Y621457D01*
X542132Y621456D01*
X542054Y621401D01*
X541976Y621347D01*
X541973Y621344D01*
X541970Y621341D01*
X541920Y621260D01*
X541869Y621180D01*
X541868Y621175D01*
X541866Y621172D01*
X541851Y621077D01*
X541835Y620983D01*
X541836Y620979D01*
X541836Y620975D01*
X541859Y620883D01*
X541882Y620790D01*
X541884Y620787D01*
X541885Y620783D01*
X541981Y620647D01*
X560807Y601821D01*
X560844Y601797D01*
X560874Y601765D01*
X560926Y601743D01*
X560973Y601711D01*
X561016Y601703D01*
X561056Y601686D01*
X561113Y601685D01*
X561169Y601675D01*
X561211Y601684D01*
X561255Y601684D01*
X561307Y601705D01*
X561363Y601718D01*
X561398Y601743D01*
X561439Y601759D01*
X561479Y601800D01*
X561525Y601833D01*
X561548Y601870D01*
X561578Y601901D01*
X561599Y601954D01*
X561629Y602002D01*
X561636Y602045D01*
X561652Y602086D01*
X561653Y602156D01*
X561659Y602199D01*
X561653Y602222D01*
X561654Y602252D01*
X561551Y602901D01*
X578800Y602901D01*
X578808Y602902D01*
X578816Y602901D01*
X578905Y602922D01*
X578995Y602940D01*
X579002Y602945D01*
X579010Y602947D01*
X579083Y603001D01*
X579159Y603053D01*
X579163Y603060D01*
X579170Y603065D01*
X579216Y603143D01*
X579266Y603220D01*
X579267Y603229D01*
X579271Y603236D01*
X579299Y603400D01*
X579299Y603901D01*
X579301Y603901D01*
X579301Y603400D01*
X579303Y603392D01*
X579301Y603383D01*
X579322Y603295D01*
X579340Y603205D01*
X579345Y603198D01*
X579347Y603190D01*
X579401Y603117D01*
X579453Y603041D01*
X579460Y603037D01*
X579465Y603030D01*
X579543Y602983D01*
X579621Y602934D01*
X579629Y602933D01*
X579636Y602928D01*
X579800Y602901D01*
X597049Y602901D01*
X596831Y601521D01*
X596336Y600000D01*
X595610Y598575D01*
X594670Y597281D01*
X593539Y596150D01*
X592245Y595210D01*
X590820Y594484D01*
X589299Y593989D01*
X587720Y593739D01*
X586831Y593739D01*
X586829Y593739D01*
X586827Y593739D01*
X586733Y593719D01*
X586636Y593700D01*
X586634Y593698D01*
X586632Y593698D01*
X586552Y593642D01*
X586472Y593587D01*
X586471Y593585D01*
X586469Y593584D01*
X586417Y593501D01*
X586365Y593420D01*
X586365Y593417D01*
X586364Y593416D01*
X586348Y593320D01*
X586332Y593223D01*
X586333Y593221D01*
X586332Y593219D01*
X586355Y593125D01*
X586378Y593030D01*
X586379Y593028D01*
X586380Y593026D01*
X586439Y592948D01*
X586496Y592870D01*
X586498Y592869D01*
X586499Y592867D01*
X586640Y592779D01*
X588137Y592159D01*
X588151Y592156D01*
X588164Y592148D01*
X588328Y592121D01*
X589629Y592121D01*
X594636Y590047D01*
X598467Y586216D01*
X600541Y581209D01*
X600541Y575791D01*
X598467Y570784D01*
X597636Y569953D01*
X597633Y569949D01*
X597630Y569947D01*
X597579Y569867D01*
X597526Y569787D01*
X597525Y569783D01*
X597523Y569780D01*
X597507Y569686D01*
X597489Y569592D01*
X597490Y569588D01*
X597490Y569583D01*
X597512Y569492D01*
X597532Y569398D01*
X597535Y569394D01*
X597536Y569390D01*
X597592Y569314D01*
X597647Y569235D01*
X597651Y569233D01*
X597654Y569230D01*
X597735Y569181D01*
X597817Y569131D01*
X597821Y569131D01*
X597825Y569128D01*
X597989Y569101D01*
X606265Y569101D01*
X606278Y569103D01*
G37*
G36*
X358627Y511553D02*
X358627Y511553D01*
X358640Y511551D01*
X358724Y511573D01*
X358810Y511590D01*
X358820Y511597D01*
X358832Y511601D01*
X358968Y511697D01*
X404511Y557239D01*
X404519Y557252D01*
X404530Y557261D01*
X404619Y557401D01*
X405009Y558343D01*
X405010Y558349D01*
X405013Y558354D01*
X405029Y558447D01*
X405047Y558538D01*
X405045Y558544D01*
X405046Y558551D01*
X405025Y558641D01*
X405006Y558733D01*
X405002Y558738D01*
X405000Y558744D01*
X404946Y558819D01*
X404892Y558896D01*
X404886Y558899D01*
X404883Y558904D01*
X404803Y558951D01*
X404723Y559001D01*
X404717Y559002D01*
X404712Y559006D01*
X404547Y559033D01*
X400541Y559033D01*
X396118Y560865D01*
X392733Y564250D01*
X391334Y567629D01*
X391330Y567634D01*
X391329Y567640D01*
X391275Y567716D01*
X391223Y567793D01*
X391217Y567797D01*
X391214Y567802D01*
X391134Y567851D01*
X391056Y567902D01*
X391050Y567903D01*
X391044Y567906D01*
X390952Y567920D01*
X390860Y567937D01*
X390854Y567935D01*
X390848Y567936D01*
X390758Y567913D01*
X390666Y567892D01*
X390661Y567888D01*
X390655Y567887D01*
X390519Y567790D01*
X335132Y512403D01*
X335130Y512399D01*
X335126Y512397D01*
X335075Y512317D01*
X335022Y512237D01*
X335021Y512233D01*
X335019Y512230D01*
X335003Y512136D01*
X334986Y512042D01*
X334987Y512038D01*
X334986Y512033D01*
X335008Y511942D01*
X335029Y511848D01*
X335031Y511844D01*
X335032Y511840D01*
X335088Y511764D01*
X335144Y511685D01*
X335147Y511683D01*
X335150Y511680D01*
X335232Y511631D01*
X335313Y511581D01*
X335317Y511581D01*
X335321Y511578D01*
X335485Y511551D01*
X358615Y511551D01*
X358627Y511553D01*
G37*
%LPC*%
G36*
X606110Y360441D02*
X606110Y360441D01*
X598921Y363419D01*
X593419Y368921D01*
X590441Y376110D01*
X590441Y383890D01*
X593419Y391079D01*
X598921Y396581D01*
X606110Y399559D01*
X613890Y399559D01*
X621079Y396581D01*
X626581Y391079D01*
X629559Y383890D01*
X629559Y376110D01*
X626581Y368921D01*
X621079Y363419D01*
X613890Y360441D01*
X606110Y360441D01*
G37*
%LPD*%
%LPC*%
G36*
X32110Y944441D02*
X32110Y944441D01*
X24921Y947419D01*
X19419Y952921D01*
X16441Y960110D01*
X16441Y967890D01*
X19419Y975079D01*
X24921Y980581D01*
X32110Y983559D01*
X39890Y983559D01*
X47079Y980581D01*
X52581Y975079D01*
X55559Y967890D01*
X55559Y960110D01*
X52581Y952921D01*
X47079Y947419D01*
X39890Y944441D01*
X32110Y944441D01*
G37*
%LPD*%
%LPC*%
G36*
X606110Y940441D02*
X606110Y940441D01*
X598921Y943419D01*
X593419Y948921D01*
X590441Y956110D01*
X590441Y963890D01*
X593419Y971079D01*
X598921Y976581D01*
X606110Y979559D01*
X613890Y979559D01*
X621079Y976581D01*
X626581Y971079D01*
X629559Y963890D01*
X629559Y956110D01*
X626581Y948921D01*
X621079Y943419D01*
X613890Y940441D01*
X606110Y940441D01*
G37*
%LPD*%
G36*
X50611Y503535D02*
X50611Y503535D01*
X50621Y503533D01*
X50708Y503555D01*
X50795Y503574D01*
X50804Y503580D01*
X50814Y503582D01*
X50950Y503679D01*
X82851Y535580D01*
X86160Y536951D01*
X106300Y536951D01*
X106308Y536952D01*
X106317Y536951D01*
X106405Y536972D01*
X106495Y536990D01*
X106502Y536995D01*
X106510Y536997D01*
X106583Y537051D01*
X106659Y537103D01*
X106663Y537110D01*
X106670Y537115D01*
X106717Y537193D01*
X106766Y537270D01*
X106767Y537279D01*
X106772Y537286D01*
X106799Y537450D01*
X106799Y543850D01*
X106798Y543858D01*
X106799Y543867D01*
X106778Y543955D01*
X106760Y544045D01*
X106755Y544052D01*
X106753Y544060D01*
X106699Y544133D01*
X106647Y544209D01*
X106640Y544213D01*
X106635Y544220D01*
X106557Y544267D01*
X106480Y544316D01*
X106471Y544317D01*
X106464Y544322D01*
X106300Y544349D01*
X58680Y544349D01*
X58672Y544348D01*
X58663Y544349D01*
X58575Y544328D01*
X58485Y544310D01*
X58478Y544305D01*
X58470Y544303D01*
X58397Y544249D01*
X58321Y544197D01*
X58317Y544190D01*
X58310Y544185D01*
X58263Y544107D01*
X58214Y544030D01*
X58213Y544021D01*
X58208Y544014D01*
X58181Y543850D01*
X58181Y538238D01*
X55914Y532765D01*
X51725Y528576D01*
X48130Y527087D01*
X48060Y527040D01*
X47987Y526997D01*
X47978Y526985D01*
X47965Y526976D01*
X47919Y526905D01*
X47869Y526838D01*
X47865Y526822D01*
X47857Y526809D01*
X47842Y526726D01*
X47822Y526644D01*
X47825Y526629D01*
X47822Y526614D01*
X47841Y526531D01*
X47854Y526448D01*
X47863Y526435D01*
X47866Y526420D01*
X47916Y526351D01*
X47961Y526280D01*
X47975Y526270D01*
X47983Y526259D01*
X48021Y526236D01*
X48094Y526181D01*
X49281Y525576D01*
X50737Y524519D01*
X52009Y523247D01*
X53066Y521791D01*
X53883Y520188D01*
X54439Y518477D01*
X54705Y516799D01*
X34900Y516799D01*
X34892Y516798D01*
X34884Y516799D01*
X34795Y516778D01*
X34705Y516760D01*
X34698Y516755D01*
X34690Y516753D01*
X34617Y516699D01*
X34541Y516647D01*
X34537Y516640D01*
X34530Y516635D01*
X34484Y516557D01*
X34434Y516480D01*
X34433Y516471D01*
X34429Y516464D01*
X34401Y516300D01*
X34401Y515300D01*
X34403Y515292D01*
X34401Y515283D01*
X34422Y515195D01*
X34440Y515105D01*
X34445Y515098D01*
X34447Y515090D01*
X34501Y515017D01*
X34553Y514941D01*
X34560Y514937D01*
X34565Y514930D01*
X34643Y514883D01*
X34721Y514834D01*
X34729Y514833D01*
X34736Y514828D01*
X34900Y514801D01*
X54705Y514801D01*
X54439Y513123D01*
X53883Y511412D01*
X53066Y509809D01*
X52009Y508353D01*
X50737Y507081D01*
X49281Y506024D01*
X48094Y505419D01*
X48028Y505366D01*
X47959Y505318D01*
X47951Y505305D01*
X47939Y505295D01*
X47898Y505221D01*
X47854Y505150D01*
X47851Y505134D01*
X47844Y505120D01*
X47835Y505036D01*
X47822Y504953D01*
X47826Y504938D01*
X47824Y504923D01*
X47850Y504842D01*
X47870Y504760D01*
X47879Y504748D01*
X47884Y504733D01*
X47938Y504669D01*
X47989Y504601D01*
X48004Y504592D01*
X48013Y504581D01*
X48052Y504562D01*
X48130Y504513D01*
X50405Y503570D01*
X50416Y503568D01*
X50425Y503563D01*
X50513Y503549D01*
X50601Y503532D01*
X50611Y503535D01*
G37*
G36*
X326063Y563003D02*
X326063Y563003D01*
X326076Y563001D01*
X326160Y563023D01*
X326246Y563040D01*
X326256Y563047D01*
X326268Y563051D01*
X326404Y563147D01*
X358375Y595118D01*
X358376Y595120D01*
X358378Y595121D01*
X358431Y595203D01*
X358485Y595284D01*
X358485Y595286D01*
X358487Y595288D01*
X358503Y595383D01*
X358521Y595479D01*
X358521Y595482D01*
X358521Y595484D01*
X358500Y595577D01*
X358479Y595674D01*
X358477Y595675D01*
X358477Y595677D01*
X358420Y595755D01*
X358363Y595836D01*
X358362Y595837D01*
X358360Y595839D01*
X358277Y595889D01*
X358194Y595940D01*
X358192Y595940D01*
X358190Y595941D01*
X358093Y595955D01*
X357997Y595970D01*
X357995Y595969D01*
X357993Y595970D01*
X357831Y595932D01*
X355940Y595149D01*
X316300Y595149D01*
X316292Y595148D01*
X316283Y595149D01*
X316195Y595128D01*
X316105Y595110D01*
X316098Y595105D01*
X316090Y595103D01*
X316017Y595049D01*
X315941Y594997D01*
X315937Y594990D01*
X315930Y594985D01*
X315883Y594907D01*
X315834Y594830D01*
X315833Y594821D01*
X315828Y594814D01*
X315801Y594650D01*
X315801Y586549D01*
X315279Y585291D01*
X315277Y585279D01*
X315271Y585268D01*
X315258Y585182D01*
X315242Y585096D01*
X315244Y585084D01*
X315242Y585071D01*
X315279Y584909D01*
X315801Y583651D01*
X315801Y573849D01*
X315279Y572591D01*
X315277Y572579D01*
X315271Y572568D01*
X315258Y572482D01*
X315242Y572396D01*
X315244Y572384D01*
X315242Y572371D01*
X315279Y572209D01*
X315801Y570951D01*
X315801Y563572D01*
X315805Y563552D01*
X315802Y563532D01*
X315824Y563456D01*
X315840Y563377D01*
X315852Y563361D01*
X315858Y563341D01*
X315908Y563279D01*
X315953Y563214D01*
X315970Y563203D01*
X315983Y563187D01*
X316053Y563149D01*
X316120Y563106D01*
X316141Y563103D01*
X316159Y563094D01*
X316293Y563077D01*
X316317Y563073D01*
X316320Y563074D01*
X316324Y563074D01*
X316362Y563075D01*
X316488Y563030D01*
X316490Y563030D01*
X316493Y563028D01*
X316657Y563001D01*
X326051Y563001D01*
X326063Y563003D01*
G37*
%LPC*%
G36*
X177265Y407033D02*
X177265Y407033D01*
X172025Y409203D01*
X168015Y413213D01*
X165845Y418453D01*
X165845Y424124D01*
X168015Y429364D01*
X172025Y433374D01*
X177265Y435544D01*
X182936Y435544D01*
X188176Y433374D01*
X192186Y429364D01*
X194270Y424331D01*
X194284Y424311D01*
X194291Y424288D01*
X194339Y424229D01*
X194382Y424166D01*
X194402Y424153D01*
X194417Y424134D01*
X194484Y424099D01*
X194548Y424058D01*
X194572Y424053D01*
X194593Y424042D01*
X194669Y424036D01*
X194744Y424023D01*
X194767Y424028D01*
X194791Y424026D01*
X194863Y424050D01*
X194938Y424067D01*
X194957Y424081D01*
X194980Y424089D01*
X195037Y424139D01*
X195099Y424184D01*
X195111Y424204D01*
X195129Y424220D01*
X195183Y424324D01*
X195202Y424354D01*
X195203Y424361D01*
X195206Y424368D01*
X195495Y425255D01*
X196266Y426770D01*
X197265Y428144D01*
X198467Y429346D01*
X199841Y430345D01*
X201356Y431116D01*
X202972Y431641D01*
X204576Y431895D01*
X204504Y421618D01*
X204506Y421610D01*
X204504Y421602D01*
X204525Y421513D01*
X204542Y421423D01*
X204547Y421416D01*
X204549Y421408D01*
X204603Y421334D01*
X204654Y421259D01*
X204661Y421254D01*
X204666Y421247D01*
X204744Y421200D01*
X204820Y421150D01*
X204829Y421149D01*
X204836Y421145D01*
X205000Y421116D01*
X205501Y421112D01*
X205501Y421110D01*
X205000Y421114D01*
X204991Y421112D01*
X204983Y421114D01*
X204894Y421093D01*
X204805Y421076D01*
X204798Y421071D01*
X204789Y421069D01*
X204715Y421015D01*
X204640Y420964D01*
X204635Y420957D01*
X204628Y420952D01*
X204581Y420874D01*
X204532Y420797D01*
X204530Y420789D01*
X204526Y420782D01*
X204497Y420618D01*
X204425Y410351D01*
X202972Y410581D01*
X201356Y411106D01*
X199841Y411878D01*
X198467Y412877D01*
X197265Y414078D01*
X196266Y415453D01*
X195495Y416967D01*
X195142Y418054D01*
X195130Y418075D01*
X195125Y418098D01*
X195081Y418161D01*
X195044Y418227D01*
X195025Y418241D01*
X195011Y418261D01*
X194947Y418302D01*
X194886Y418348D01*
X194863Y418354D01*
X194843Y418367D01*
X194768Y418379D01*
X194694Y418398D01*
X194670Y418394D01*
X194646Y418398D01*
X194573Y418380D01*
X194497Y418369D01*
X194477Y418356D01*
X194453Y418351D01*
X194392Y418305D01*
X194327Y418265D01*
X194313Y418246D01*
X194294Y418231D01*
X194232Y418132D01*
X194212Y418104D01*
X194210Y418097D01*
X194206Y418090D01*
X192186Y413213D01*
X188176Y409203D01*
X182936Y407033D01*
X177265Y407033D01*
G37*
%LPD*%
%LPC*%
G36*
X219299Y569149D02*
X219299Y569149D01*
X219299Y590691D01*
X238634Y590691D01*
X239281Y590518D01*
X239860Y590183D01*
X240333Y589710D01*
X240668Y589131D01*
X240841Y588484D01*
X240841Y569149D01*
X219299Y569149D01*
G37*
%LPD*%
%LPC*%
G36*
X195759Y569149D02*
X195759Y569149D01*
X195759Y588484D01*
X195932Y589131D01*
X196267Y589710D01*
X196740Y590183D01*
X197319Y590518D01*
X197966Y590691D01*
X217301Y590691D01*
X217301Y569149D01*
X195759Y569149D01*
G37*
%LPD*%
%LPC*%
G36*
X219299Y545609D02*
X219299Y545609D01*
X219299Y567151D01*
X240841Y567151D01*
X240841Y547816D01*
X240668Y547169D01*
X240333Y546590D01*
X239860Y546117D01*
X239281Y545782D01*
X238634Y545609D01*
X219299Y545609D01*
G37*
%LPD*%
%LPC*%
G36*
X197966Y545609D02*
X197966Y545609D01*
X197319Y545782D01*
X196740Y546117D01*
X196267Y546590D01*
X195932Y547169D01*
X195759Y547816D01*
X195759Y567151D01*
X217301Y567151D01*
X217301Y545609D01*
X197966Y545609D01*
G37*
%LPD*%
G36*
X521012Y641836D02*
X521012Y641836D01*
X521017Y641835D01*
X521108Y641857D01*
X521202Y641878D01*
X521206Y641881D01*
X521210Y641882D01*
X521286Y641938D01*
X521365Y641993D01*
X521367Y641997D01*
X521370Y641999D01*
X521419Y642081D01*
X521469Y642163D01*
X521469Y642167D01*
X521472Y642170D01*
X521499Y642334D01*
X521499Y643680D01*
X524316Y650480D01*
X543983Y670147D01*
X543985Y670151D01*
X543989Y670153D01*
X544040Y670233D01*
X544093Y670313D01*
X544094Y670317D01*
X544096Y670320D01*
X544112Y670414D01*
X544129Y670508D01*
X544128Y670512D01*
X544129Y670517D01*
X544107Y670608D01*
X544086Y670702D01*
X544084Y670706D01*
X544083Y670710D01*
X544027Y670786D01*
X543971Y670865D01*
X543968Y670867D01*
X543965Y670870D01*
X543883Y670919D01*
X543802Y670969D01*
X543798Y670969D01*
X543794Y670972D01*
X543630Y670999D01*
X538223Y670999D01*
X538211Y670997D01*
X538198Y670999D01*
X538114Y670977D01*
X538028Y670960D01*
X538018Y670953D01*
X538005Y670949D01*
X537870Y670853D01*
X536816Y669799D01*
X532393Y667967D01*
X527607Y667967D01*
X523184Y669799D01*
X519799Y673184D01*
X517967Y677607D01*
X517967Y682393D01*
X519089Y685103D01*
X519090Y685105D01*
X519091Y685107D01*
X519109Y685203D01*
X519127Y685298D01*
X519127Y685300D01*
X519127Y685302D01*
X519106Y685398D01*
X519086Y685492D01*
X519085Y685494D01*
X519085Y685496D01*
X519028Y685575D01*
X518972Y685655D01*
X518971Y685657D01*
X518969Y685658D01*
X518887Y685709D01*
X518804Y685761D01*
X518802Y685761D01*
X518800Y685763D01*
X518704Y685777D01*
X518608Y685793D01*
X518606Y685792D01*
X518603Y685792D01*
X518509Y685768D01*
X518415Y685745D01*
X518413Y685744D01*
X518411Y685743D01*
X518275Y685647D01*
X516147Y683519D01*
X516140Y683508D01*
X516130Y683501D01*
X516085Y683426D01*
X516037Y683353D01*
X516035Y683340D01*
X516028Y683330D01*
X516001Y683165D01*
X516001Y646834D01*
X516003Y646822D01*
X516001Y646810D01*
X516023Y646725D01*
X516040Y646640D01*
X516047Y646629D01*
X516051Y646617D01*
X516147Y646481D01*
X520647Y641981D01*
X520651Y641979D01*
X520653Y641976D01*
X520733Y641924D01*
X520813Y641872D01*
X520817Y641871D01*
X520820Y641869D01*
X520914Y641853D01*
X521008Y641835D01*
X521012Y641836D01*
G37*
%LPC*%
G36*
X400459Y923699D02*
X400459Y923699D01*
X400459Y923903D01*
X400836Y926281D01*
X401580Y928570D01*
X402378Y930136D01*
X402384Y930157D01*
X402396Y930176D01*
X402410Y930252D01*
X402431Y930328D01*
X402428Y930350D01*
X402432Y930371D01*
X402415Y930448D01*
X402405Y930525D01*
X402394Y930544D01*
X402389Y930565D01*
X402351Y930620D01*
X402368Y930617D01*
X402408Y930627D01*
X402450Y930627D01*
X402504Y930651D01*
X402561Y930665D01*
X402594Y930690D01*
X402632Y930706D01*
X402685Y930757D01*
X402720Y930784D01*
X402733Y930805D01*
X402751Y930823D01*
X404087Y932661D01*
X405789Y934363D01*
X407736Y935778D01*
X409880Y936870D01*
X412169Y937614D01*
X414547Y937991D01*
X427501Y937991D01*
X427501Y923699D01*
X400459Y923699D01*
G37*
%LPD*%
%LPC*%
G36*
X429499Y923699D02*
X429499Y923699D01*
X429499Y937991D01*
X442453Y937991D01*
X444831Y937614D01*
X447120Y936870D01*
X449264Y935778D01*
X451211Y934363D01*
X452913Y932661D01*
X454328Y930714D01*
X455420Y928570D01*
X456164Y926281D01*
X456541Y923903D01*
X456541Y923699D01*
X429499Y923699D01*
G37*
%LPD*%
%LPC*%
G36*
X252599Y929499D02*
X252599Y929499D01*
X252599Y956541D01*
X252803Y956541D01*
X255181Y956164D01*
X257470Y955420D01*
X259614Y954328D01*
X261561Y952913D01*
X263263Y951211D01*
X264678Y949264D01*
X265770Y947120D01*
X266514Y944831D01*
X266891Y942453D01*
X266891Y929499D01*
X252599Y929499D01*
G37*
%LPD*%
%LPC*%
G36*
X252599Y900459D02*
X252599Y900459D01*
X252599Y927501D01*
X266891Y927501D01*
X266891Y914547D01*
X266514Y912169D01*
X265770Y909880D01*
X264678Y907736D01*
X263263Y905789D01*
X261561Y904087D01*
X259614Y902672D01*
X257470Y901580D01*
X255181Y900836D01*
X252803Y900459D01*
X252599Y900459D01*
G37*
%LPD*%
%LPC*%
G36*
X429499Y907409D02*
X429499Y907409D01*
X429499Y921701D01*
X456541Y921701D01*
X456541Y921497D01*
X456164Y919119D01*
X455420Y916830D01*
X454328Y914686D01*
X452913Y912739D01*
X451211Y911037D01*
X449264Y909622D01*
X447120Y908530D01*
X444831Y907786D01*
X442453Y907409D01*
X429499Y907409D01*
G37*
%LPD*%
%LPC*%
G36*
X236309Y929499D02*
X236309Y929499D01*
X236309Y942453D01*
X236686Y944831D01*
X237430Y947120D01*
X238522Y949264D01*
X239937Y951211D01*
X241639Y952913D01*
X243586Y954328D01*
X245730Y955420D01*
X248019Y956164D01*
X250397Y956541D01*
X250601Y956541D01*
X250601Y929499D01*
X236309Y929499D01*
G37*
%LPD*%
%LPC*%
G36*
X414547Y907409D02*
X414547Y907409D01*
X412169Y907786D01*
X409880Y908530D01*
X407736Y909622D01*
X405789Y911037D01*
X404087Y912739D01*
X402672Y914686D01*
X401580Y916830D01*
X400836Y919119D01*
X400459Y921497D01*
X400459Y921701D01*
X427501Y921701D01*
X427501Y907409D01*
X414547Y907409D01*
G37*
%LPD*%
%LPC*%
G36*
X250397Y900459D02*
X250397Y900459D01*
X248019Y900836D01*
X245730Y901580D01*
X243586Y902672D01*
X241639Y904087D01*
X239937Y905789D01*
X238522Y907736D01*
X237430Y909880D01*
X236686Y912169D01*
X236309Y914547D01*
X236309Y927501D01*
X250601Y927501D01*
X250601Y900459D01*
X250397Y900459D01*
G37*
%LPD*%
G36*
X106308Y511552D02*
X106308Y511552D01*
X106317Y511551D01*
X106405Y511572D01*
X106495Y511590D01*
X106502Y511595D01*
X106510Y511597D01*
X106583Y511651D01*
X106659Y511703D01*
X106663Y511710D01*
X106670Y511715D01*
X106717Y511793D01*
X106766Y511870D01*
X106767Y511879D01*
X106772Y511886D01*
X106799Y512050D01*
X106799Y518450D01*
X106798Y518458D01*
X106799Y518467D01*
X106778Y518555D01*
X106760Y518645D01*
X106755Y518652D01*
X106753Y518660D01*
X106699Y518733D01*
X106647Y518809D01*
X106640Y518813D01*
X106635Y518820D01*
X106557Y518867D01*
X106480Y518916D01*
X106471Y518917D01*
X106464Y518922D01*
X106300Y518949D01*
X91885Y518949D01*
X91873Y518947D01*
X91860Y518949D01*
X91776Y518927D01*
X91690Y518910D01*
X91680Y518903D01*
X91668Y518899D01*
X91532Y518803D01*
X85132Y512403D01*
X85130Y512399D01*
X85126Y512397D01*
X85075Y512317D01*
X85022Y512237D01*
X85021Y512233D01*
X85019Y512230D01*
X85003Y512136D01*
X84986Y512042D01*
X84987Y512038D01*
X84986Y512033D01*
X85008Y511942D01*
X85029Y511848D01*
X85031Y511844D01*
X85032Y511840D01*
X85088Y511764D01*
X85144Y511685D01*
X85147Y511683D01*
X85150Y511680D01*
X85232Y511631D01*
X85313Y511581D01*
X85317Y511581D01*
X85321Y511578D01*
X85485Y511551D01*
X106300Y511551D01*
X106308Y511552D01*
G37*
%LPC*%
G36*
X356999Y385699D02*
X356999Y385699D01*
X356999Y394861D01*
X364420Y394861D01*
X365999Y394611D01*
X367520Y394116D01*
X368945Y393390D01*
X370239Y392450D01*
X371370Y391319D01*
X372310Y390025D01*
X373036Y388600D01*
X373531Y387079D01*
X373749Y385699D01*
X356999Y385699D01*
G37*
%LPD*%
%LPC*%
G36*
X456399Y842499D02*
X456399Y842499D01*
X456399Y851661D01*
X463820Y851661D01*
X465399Y851411D01*
X466920Y850916D01*
X468345Y850190D01*
X469639Y849250D01*
X470770Y848119D01*
X471710Y846825D01*
X472436Y845400D01*
X472931Y843879D01*
X473149Y842499D01*
X456399Y842499D01*
G37*
%LPD*%
%LPC*%
G36*
X580299Y604899D02*
X580299Y604899D01*
X580299Y614061D01*
X587720Y614061D01*
X589299Y613811D01*
X590820Y613316D01*
X592245Y612590D01*
X593539Y611650D01*
X594670Y610519D01*
X595610Y609225D01*
X596336Y607800D01*
X596831Y606279D01*
X597049Y604899D01*
X580299Y604899D01*
G37*
%LPD*%
%LPC*%
G36*
X426199Y477899D02*
X426199Y477899D01*
X426199Y487061D01*
X433620Y487061D01*
X435199Y486811D01*
X436720Y486316D01*
X438145Y485590D01*
X439439Y484650D01*
X440570Y483519D01*
X441510Y482225D01*
X442236Y480800D01*
X442731Y479279D01*
X442949Y477899D01*
X426199Y477899D01*
G37*
%LPD*%
%LPC*%
G36*
X42999Y597899D02*
X42999Y597899D01*
X42999Y607061D01*
X50420Y607061D01*
X51999Y606811D01*
X53520Y606316D01*
X54945Y605590D01*
X56239Y604650D01*
X57370Y603519D01*
X58310Y602225D01*
X59036Y600800D01*
X59531Y599279D01*
X59749Y597899D01*
X42999Y597899D01*
G37*
%LPD*%
%LPC*%
G36*
X561551Y604899D02*
X561551Y604899D01*
X561769Y606279D01*
X562264Y607800D01*
X562990Y609225D01*
X563930Y610519D01*
X565061Y611650D01*
X566355Y612590D01*
X567780Y613316D01*
X569301Y613811D01*
X570880Y614061D01*
X578301Y614061D01*
X578301Y604899D01*
X561551Y604899D01*
G37*
%LPD*%
%LPC*%
G36*
X24251Y597899D02*
X24251Y597899D01*
X24469Y599279D01*
X24964Y600800D01*
X25690Y602225D01*
X26630Y603519D01*
X27761Y604650D01*
X29055Y605590D01*
X30480Y606316D01*
X32001Y606811D01*
X33580Y607061D01*
X41001Y607061D01*
X41001Y597899D01*
X24251Y597899D01*
G37*
%LPD*%
%LPC*%
G36*
X407451Y477899D02*
X407451Y477899D01*
X407669Y479279D01*
X408164Y480800D01*
X408890Y482225D01*
X409830Y483519D01*
X410961Y484650D01*
X412255Y485590D01*
X413680Y486316D01*
X415201Y486811D01*
X416780Y487061D01*
X424201Y487061D01*
X424201Y477899D01*
X407451Y477899D01*
G37*
%LPD*%
%LPC*%
G36*
X338251Y385699D02*
X338251Y385699D01*
X338469Y387079D01*
X338964Y388600D01*
X339690Y390025D01*
X340630Y391319D01*
X341761Y392450D01*
X343055Y393390D01*
X344480Y394116D01*
X346001Y394611D01*
X347580Y394861D01*
X355001Y394861D01*
X355001Y385699D01*
X338251Y385699D01*
G37*
%LPD*%
%LPC*%
G36*
X437651Y842499D02*
X437651Y842499D01*
X437869Y843879D01*
X438364Y845400D01*
X439090Y846825D01*
X440030Y848119D01*
X441161Y849250D01*
X442455Y850190D01*
X443880Y850916D01*
X445401Y851411D01*
X446980Y851661D01*
X454401Y851661D01*
X454401Y842499D01*
X437651Y842499D01*
G37*
%LPD*%
%LPC*%
G36*
X456399Y831339D02*
X456399Y831339D01*
X456399Y840501D01*
X473149Y840501D01*
X472931Y839121D01*
X472436Y837600D01*
X471710Y836175D01*
X470770Y834881D01*
X469639Y833750D01*
X468345Y832810D01*
X466920Y832084D01*
X465399Y831589D01*
X463820Y831339D01*
X456399Y831339D01*
G37*
%LPD*%
%LPC*%
G36*
X356999Y374539D02*
X356999Y374539D01*
X356999Y383701D01*
X373749Y383701D01*
X373531Y382321D01*
X373036Y380800D01*
X372310Y379375D01*
X371370Y378081D01*
X370239Y376950D01*
X368945Y376010D01*
X367520Y375284D01*
X365999Y374789D01*
X364420Y374539D01*
X356999Y374539D01*
G37*
%LPD*%
%LPC*%
G36*
X42999Y586739D02*
X42999Y586739D01*
X42999Y595901D01*
X59749Y595901D01*
X59531Y594521D01*
X59036Y593000D01*
X58310Y591575D01*
X57370Y590281D01*
X56239Y589150D01*
X54945Y588210D01*
X53520Y587484D01*
X51999Y586989D01*
X50420Y586739D01*
X42999Y586739D01*
G37*
%LPD*%
%LPC*%
G36*
X426199Y466739D02*
X426199Y466739D01*
X426199Y475901D01*
X442949Y475901D01*
X442731Y474521D01*
X442236Y473000D01*
X441510Y471575D01*
X440570Y470281D01*
X439439Y469150D01*
X438145Y468210D01*
X436720Y467484D01*
X435199Y466989D01*
X433620Y466739D01*
X426199Y466739D01*
G37*
%LPD*%
%LPC*%
G36*
X446980Y831339D02*
X446980Y831339D01*
X445401Y831589D01*
X443880Y832084D01*
X442455Y832810D01*
X441161Y833750D01*
X440030Y834881D01*
X439090Y836175D01*
X438364Y837600D01*
X437869Y839121D01*
X437651Y840501D01*
X454401Y840501D01*
X454401Y831339D01*
X446980Y831339D01*
G37*
%LPD*%
%LPC*%
G36*
X570880Y466739D02*
X570880Y466739D01*
X569301Y466989D01*
X567780Y467484D01*
X566355Y468210D01*
X565061Y469150D01*
X563930Y470281D01*
X562990Y471575D01*
X562264Y473000D01*
X561769Y474521D01*
X561551Y475901D01*
X578301Y475901D01*
X578301Y466739D01*
X570880Y466739D01*
G37*
%LPD*%
%LPC*%
G36*
X347580Y374539D02*
X347580Y374539D01*
X346001Y374789D01*
X344480Y375284D01*
X343055Y376010D01*
X341761Y376950D01*
X340630Y378081D01*
X339690Y379375D01*
X338964Y380800D01*
X338469Y382321D01*
X338251Y383701D01*
X355001Y383701D01*
X355001Y374539D01*
X347580Y374539D01*
G37*
%LPD*%
%LPC*%
G36*
X416780Y466739D02*
X416780Y466739D01*
X415201Y466989D01*
X413680Y467484D01*
X412255Y468210D01*
X410961Y469150D01*
X409830Y470281D01*
X408890Y471575D01*
X408164Y473000D01*
X407669Y474521D01*
X407451Y475901D01*
X424201Y475901D01*
X424201Y466739D01*
X416780Y466739D01*
G37*
%LPD*%
%LPC*%
G36*
X179912Y778499D02*
X179912Y778499D01*
X180127Y779861D01*
X180618Y781370D01*
X181338Y782783D01*
X182271Y784067D01*
X183393Y785189D01*
X184677Y786122D01*
X186090Y786842D01*
X187599Y787333D01*
X189167Y787581D01*
X196501Y787581D01*
X196501Y778499D01*
X179912Y778499D01*
G37*
%LPD*%
%LPC*%
G36*
X198499Y767419D02*
X198499Y767419D01*
X198499Y776501D01*
X215088Y776501D01*
X214873Y775139D01*
X214382Y773630D01*
X213662Y772217D01*
X212729Y770933D01*
X211607Y769811D01*
X210323Y768878D01*
X208910Y768158D01*
X207401Y767667D01*
X205833Y767419D01*
X198499Y767419D01*
G37*
%LPD*%
%LPC*%
G36*
X263499Y767419D02*
X263499Y767419D01*
X263499Y776501D01*
X280088Y776501D01*
X279873Y775139D01*
X279382Y773630D01*
X278662Y772217D01*
X277729Y770933D01*
X276607Y769811D01*
X275323Y768878D01*
X273910Y768158D01*
X272401Y767667D01*
X270833Y767419D01*
X263499Y767419D01*
G37*
%LPD*%
%LPC*%
G36*
X254167Y767419D02*
X254167Y767419D01*
X252599Y767667D01*
X251090Y768158D01*
X249677Y768878D01*
X248393Y769811D01*
X247271Y770933D01*
X246338Y772217D01*
X245618Y773630D01*
X245127Y775139D01*
X244912Y776501D01*
X261501Y776501D01*
X261501Y767419D01*
X254167Y767419D01*
G37*
%LPD*%
%LPC*%
G36*
X189167Y767419D02*
X189167Y767419D01*
X187599Y767667D01*
X186090Y768158D01*
X184677Y768878D01*
X183393Y769811D01*
X182271Y770933D01*
X181338Y772217D01*
X180618Y773630D01*
X180127Y775139D01*
X179912Y776501D01*
X196501Y776501D01*
X196501Y767419D01*
X189167Y767419D01*
G37*
%LPD*%
G36*
X55626Y448547D02*
X55626Y448547D01*
X55635Y448546D01*
X55723Y448569D01*
X55812Y448588D01*
X55819Y448593D01*
X55827Y448595D01*
X55963Y448692D01*
X70853Y463582D01*
X70860Y463593D01*
X70870Y463600D01*
X70915Y463675D01*
X70963Y463748D01*
X70965Y463760D01*
X70972Y463771D01*
X70999Y463935D01*
X70999Y477065D01*
X70998Y477069D01*
X70999Y477073D01*
X70979Y477167D01*
X70960Y477260D01*
X70957Y477263D01*
X70956Y477267D01*
X70901Y477345D01*
X70847Y477424D01*
X70844Y477426D01*
X70841Y477430D01*
X70760Y477479D01*
X70680Y477531D01*
X70675Y477532D01*
X70672Y477534D01*
X70578Y477548D01*
X70483Y477564D01*
X70479Y477563D01*
X70475Y477564D01*
X70383Y477540D01*
X70290Y477518D01*
X70287Y477515D01*
X70283Y477514D01*
X70147Y477418D01*
X69147Y476418D01*
X69140Y476407D01*
X69130Y476400D01*
X69085Y476325D01*
X69037Y476252D01*
X69035Y476240D01*
X69028Y476229D01*
X69001Y476065D01*
X69001Y468210D01*
X67630Y464901D01*
X60099Y457370D01*
X56790Y455999D01*
X55555Y455999D01*
X55542Y455997D01*
X55530Y455999D01*
X55446Y455977D01*
X55360Y455960D01*
X55349Y455953D01*
X55337Y455949D01*
X55202Y455853D01*
X52002Y452653D01*
X51997Y452646D01*
X51990Y452641D01*
X51942Y452564D01*
X51892Y452487D01*
X51890Y452479D01*
X51886Y452472D01*
X51872Y452382D01*
X51856Y452292D01*
X51857Y452284D01*
X51856Y452275D01*
X51879Y452187D01*
X51898Y452098D01*
X51903Y452091D01*
X51905Y452083D01*
X52002Y451947D01*
X55257Y448692D01*
X55264Y448687D01*
X55269Y448680D01*
X55346Y448633D01*
X55423Y448582D01*
X55431Y448581D01*
X55438Y448576D01*
X55528Y448562D01*
X55618Y448546D01*
X55626Y448547D01*
G37*
%LPC*%
G36*
X64299Y857799D02*
X64299Y857799D01*
X64299Y872529D01*
X65967Y872197D01*
X67632Y871508D01*
X69129Y870507D01*
X70403Y869233D01*
X71404Y867736D01*
X72093Y866071D01*
X72445Y864305D01*
X72445Y857799D01*
X64299Y857799D01*
G37*
%LPD*%
%LPC*%
G36*
X54155Y857799D02*
X54155Y857799D01*
X54155Y864305D01*
X54507Y866071D01*
X55196Y867736D01*
X56197Y869233D01*
X57471Y870507D01*
X58968Y871508D01*
X60633Y872197D01*
X62301Y872529D01*
X62301Y857799D01*
X54155Y857799D01*
G37*
%LPD*%
%LPC*%
G36*
X60633Y841403D02*
X60633Y841403D01*
X58968Y842092D01*
X57471Y843093D01*
X56197Y844367D01*
X55196Y845864D01*
X54507Y847529D01*
X54155Y849295D01*
X54155Y855801D01*
X62301Y855801D01*
X62301Y841071D01*
X60633Y841403D01*
G37*
%LPD*%
G36*
X39979Y556092D02*
X39979Y556092D01*
X39983Y556091D01*
X40077Y556111D01*
X40170Y556130D01*
X40173Y556133D01*
X40177Y556134D01*
X40255Y556189D01*
X40334Y556243D01*
X40336Y556246D01*
X40340Y556249D01*
X40389Y556330D01*
X40441Y556410D01*
X40442Y556415D01*
X40444Y556418D01*
X40458Y556512D01*
X40474Y556607D01*
X40473Y556611D01*
X40474Y556615D01*
X40450Y556707D01*
X40428Y556800D01*
X40425Y556803D01*
X40424Y556807D01*
X40328Y556943D01*
X29137Y568134D01*
X29126Y568141D01*
X29119Y568152D01*
X29044Y568196D01*
X28971Y568244D01*
X28958Y568247D01*
X28948Y568253D01*
X28784Y568281D01*
X27532Y568281D01*
X27524Y568279D01*
X27515Y568280D01*
X27427Y568259D01*
X27337Y568241D01*
X27330Y568236D01*
X27322Y568234D01*
X27249Y568180D01*
X27173Y568129D01*
X27169Y568121D01*
X27162Y568117D01*
X27115Y568038D01*
X27066Y567961D01*
X27065Y567953D01*
X27060Y567945D01*
X27033Y567781D01*
X27033Y561503D01*
X27035Y561491D01*
X27033Y561478D01*
X27055Y561394D01*
X27072Y561308D01*
X27079Y561298D01*
X27083Y561286D01*
X27179Y561150D01*
X32092Y556237D01*
X32103Y556230D01*
X32110Y556220D01*
X32185Y556175D01*
X32258Y556127D01*
X32270Y556125D01*
X32281Y556118D01*
X32445Y556091D01*
X39975Y556091D01*
X39979Y556092D01*
G37*
G36*
X68512Y650437D02*
X68512Y650437D01*
X68517Y650436D01*
X68608Y650458D01*
X68702Y650479D01*
X68706Y650481D01*
X68710Y650482D01*
X68786Y650538D01*
X68865Y650594D01*
X68867Y650597D01*
X68870Y650600D01*
X68919Y650682D01*
X68969Y650763D01*
X68969Y650767D01*
X68972Y650771D01*
X68999Y650935D01*
X68999Y656065D01*
X68999Y656067D01*
X68999Y656069D01*
X68997Y656078D01*
X68999Y656090D01*
X68977Y656174D01*
X68960Y656260D01*
X68953Y656270D01*
X68949Y656282D01*
X68853Y656418D01*
X61318Y663953D01*
X61307Y663960D01*
X61300Y663970D01*
X61225Y664015D01*
X61152Y664063D01*
X61140Y664065D01*
X61129Y664072D01*
X60965Y664099D01*
X60089Y664099D01*
X60076Y664097D01*
X60064Y664099D01*
X59980Y664077D01*
X59894Y664060D01*
X59883Y664053D01*
X59871Y664049D01*
X59736Y663953D01*
X57336Y661553D01*
X55666Y660861D01*
X55662Y660859D01*
X55658Y660858D01*
X55580Y660803D01*
X55501Y660750D01*
X55499Y660747D01*
X55495Y660744D01*
X55444Y660663D01*
X55392Y660583D01*
X55392Y660579D01*
X55389Y660576D01*
X55374Y660482D01*
X55358Y660388D01*
X55359Y660383D01*
X55358Y660379D01*
X55381Y660288D01*
X55402Y660194D01*
X55405Y660190D01*
X55406Y660186D01*
X55463Y660110D01*
X55519Y660033D01*
X55522Y660031D01*
X55525Y660027D01*
X55666Y659939D01*
X57335Y659247D01*
X59736Y656847D01*
X59746Y656840D01*
X59754Y656830D01*
X59829Y656785D01*
X59901Y656737D01*
X59914Y656735D01*
X59925Y656728D01*
X60089Y656701D01*
X60090Y656701D01*
X63399Y655330D01*
X66001Y652728D01*
X68147Y650582D01*
X68151Y650580D01*
X68153Y650576D01*
X68233Y650525D01*
X68313Y650472D01*
X68317Y650471D01*
X68320Y650469D01*
X68414Y650453D01*
X68508Y650436D01*
X68512Y650437D01*
G37*
G36*
X336508Y625852D02*
X336508Y625852D01*
X336517Y625851D01*
X336605Y625872D01*
X336695Y625890D01*
X336702Y625895D01*
X336710Y625897D01*
X336783Y625951D01*
X336859Y626003D01*
X336863Y626010D01*
X336870Y626015D01*
X336917Y626093D01*
X336966Y626170D01*
X336967Y626179D01*
X336972Y626186D01*
X336999Y626350D01*
X336999Y628261D01*
X338370Y631569D01*
X347372Y640571D01*
X347373Y640573D01*
X347375Y640574D01*
X347428Y640656D01*
X347482Y640737D01*
X347482Y640739D01*
X347483Y640741D01*
X347500Y640837D01*
X347518Y640933D01*
X347517Y640935D01*
X347518Y640937D01*
X347496Y641031D01*
X347475Y641127D01*
X347474Y641129D01*
X347473Y641131D01*
X347417Y641209D01*
X347360Y641289D01*
X347358Y641290D01*
X347357Y641292D01*
X347273Y641342D01*
X347191Y641393D01*
X347188Y641393D01*
X347187Y641395D01*
X347090Y641408D01*
X346994Y641423D01*
X346992Y641422D01*
X346990Y641423D01*
X346828Y641386D01*
X345093Y640667D01*
X343603Y640667D01*
X343591Y640665D01*
X343578Y640667D01*
X343494Y640645D01*
X343408Y640628D01*
X343398Y640621D01*
X343386Y640617D01*
X343250Y640521D01*
X329432Y626703D01*
X329430Y626699D01*
X329426Y626697D01*
X329375Y626617D01*
X329322Y626537D01*
X329321Y626533D01*
X329319Y626530D01*
X329303Y626436D01*
X329286Y626342D01*
X329287Y626338D01*
X329286Y626333D01*
X329308Y626242D01*
X329329Y626148D01*
X329331Y626144D01*
X329332Y626140D01*
X329388Y626064D01*
X329444Y625985D01*
X329447Y625983D01*
X329450Y625980D01*
X329532Y625931D01*
X329613Y625881D01*
X329617Y625881D01*
X329621Y625878D01*
X329785Y625851D01*
X336500Y625851D01*
X336508Y625852D01*
G37*
%LPC*%
G36*
X206506Y422103D02*
X206506Y422103D01*
X206574Y431871D01*
X208028Y431641D01*
X209644Y431116D01*
X211158Y430345D01*
X212533Y429346D01*
X213734Y428144D01*
X214733Y426770D01*
X215505Y425255D01*
X216030Y423639D01*
X216284Y422035D01*
X206506Y422103D01*
G37*
%LPD*%
%LPC*%
G36*
X206492Y420105D02*
X206492Y420105D01*
X216260Y420037D01*
X216030Y418583D01*
X215505Y416967D01*
X214733Y415453D01*
X213734Y414078D01*
X212533Y412877D01*
X211158Y411878D01*
X209644Y411106D01*
X208028Y410581D01*
X206424Y410327D01*
X206492Y420105D01*
G37*
%LPD*%
%LPC*%
G36*
X604099Y913799D02*
X604099Y913799D01*
X604099Y923572D01*
X605628Y923330D01*
X607244Y922805D01*
X608758Y922033D01*
X610133Y921035D01*
X611335Y919833D01*
X612333Y918458D01*
X613105Y916944D01*
X613630Y915328D01*
X613872Y913799D01*
X604099Y913799D01*
G37*
%LPD*%
%LPC*%
G36*
X408199Y823299D02*
X408199Y823299D01*
X408199Y833072D01*
X409728Y832830D01*
X411344Y832305D01*
X412858Y831533D01*
X414233Y830535D01*
X415435Y829333D01*
X416433Y827958D01*
X417205Y826444D01*
X417730Y824828D01*
X417972Y823299D01*
X408199Y823299D01*
G37*
%LPD*%
%LPC*%
G36*
X278799Y820101D02*
X278799Y820101D01*
X288572Y820101D01*
X288330Y818572D01*
X287805Y816956D01*
X287033Y815442D01*
X286035Y814067D01*
X284833Y812865D01*
X283458Y811867D01*
X281944Y811095D01*
X280328Y810570D01*
X278799Y810328D01*
X278799Y820101D01*
G37*
%LPD*%
%LPC*%
G36*
X604099Y911801D02*
X604099Y911801D01*
X613872Y911801D01*
X613630Y910272D01*
X613105Y908656D01*
X612333Y907142D01*
X611335Y905767D01*
X610133Y904565D01*
X608758Y903567D01*
X607244Y902795D01*
X605628Y902270D01*
X604099Y902028D01*
X604099Y911801D01*
G37*
%LPD*%
%LPC*%
G36*
X396428Y823299D02*
X396428Y823299D01*
X396670Y824828D01*
X397195Y826444D01*
X397967Y827958D01*
X398965Y829333D01*
X400167Y830535D01*
X401542Y831533D01*
X403056Y832305D01*
X404672Y832830D01*
X406201Y833072D01*
X406201Y823299D01*
X396428Y823299D01*
G37*
%LPD*%
%LPC*%
G36*
X275272Y810570D02*
X275272Y810570D01*
X273656Y811095D01*
X272142Y811867D01*
X270767Y812865D01*
X269565Y814067D01*
X268567Y815442D01*
X267795Y816956D01*
X267270Y818572D01*
X267028Y820101D01*
X276801Y820101D01*
X276801Y810328D01*
X275272Y810570D01*
G37*
%LPD*%
%LPC*%
G36*
X269449Y463149D02*
X269449Y463149D01*
X269449Y473191D01*
X272425Y473191D01*
X273323Y472950D01*
X274128Y472485D01*
X274785Y471828D01*
X275250Y471023D01*
X275491Y470125D01*
X275491Y463149D01*
X269449Y463149D01*
G37*
%LPD*%
%LPC*%
G36*
X269449Y451109D02*
X269449Y451109D01*
X269449Y461151D01*
X275491Y461151D01*
X275491Y454175D01*
X275250Y453277D01*
X274785Y452472D01*
X274128Y451815D01*
X273323Y451350D01*
X272425Y451109D01*
X269449Y451109D01*
G37*
%LPD*%
G36*
X600514Y658314D02*
X600514Y658314D01*
X600517Y658313D01*
X600610Y658335D01*
X600706Y658358D01*
X600708Y658359D01*
X600710Y658359D01*
X600787Y658416D01*
X600867Y658474D01*
X600868Y658476D01*
X600870Y658477D01*
X600919Y658560D01*
X600970Y658644D01*
X600970Y658646D01*
X600972Y658648D01*
X600999Y658812D01*
X600999Y666065D01*
X600997Y666077D01*
X600999Y666090D01*
X600977Y666174D01*
X600960Y666260D01*
X600953Y666270D01*
X600949Y666282D01*
X600853Y666418D01*
X596418Y670853D01*
X596407Y670860D01*
X596400Y670870D01*
X596325Y670915D01*
X596252Y670963D01*
X596240Y670965D01*
X596229Y670972D01*
X596065Y670999D01*
X590370Y670999D01*
X590366Y670998D01*
X590362Y670999D01*
X590268Y670979D01*
X590175Y670960D01*
X590172Y670957D01*
X590168Y670956D01*
X590090Y670901D01*
X590011Y670847D01*
X590009Y670844D01*
X590006Y670841D01*
X589956Y670760D01*
X589904Y670680D01*
X589903Y670675D01*
X589901Y670672D01*
X589887Y670578D01*
X589871Y670483D01*
X589872Y670479D01*
X589871Y670475D01*
X589895Y670383D01*
X589917Y670290D01*
X589920Y670287D01*
X589921Y670283D01*
X590017Y670147D01*
X593339Y666825D01*
X593351Y666817D01*
X593360Y666806D01*
X593501Y666717D01*
X594635Y666247D01*
X598467Y662416D01*
X600039Y658621D01*
X600040Y658619D01*
X600040Y658617D01*
X600095Y658538D01*
X600150Y658456D01*
X600152Y658455D01*
X600153Y658453D01*
X600234Y658401D01*
X600317Y658348D01*
X600319Y658347D01*
X600320Y658346D01*
X600416Y658330D01*
X600512Y658313D01*
X600514Y658314D01*
G37*
%LPC*%
G36*
X91999Y862599D02*
X91999Y862599D01*
X91999Y870745D01*
X94788Y870745D01*
X100145Y865388D01*
X100145Y862599D01*
X91999Y862599D01*
G37*
%LPD*%
%LPC*%
G36*
X498999Y762959D02*
X498999Y762959D01*
X498999Y771105D01*
X501788Y771105D01*
X507145Y765748D01*
X507145Y762959D01*
X498999Y762959D01*
G37*
%LPD*%
%LPC*%
G36*
X365199Y812659D02*
X365199Y812659D01*
X365199Y820805D01*
X367988Y820805D01*
X373345Y815448D01*
X373345Y812659D01*
X365199Y812659D01*
G37*
%LPD*%
%LPC*%
G36*
X413999Y846695D02*
X413999Y846695D01*
X413999Y854841D01*
X422145Y854841D01*
X422145Y852052D01*
X416788Y846695D01*
X413999Y846695D01*
G37*
%LPD*%
%LPC*%
G36*
X412999Y355495D02*
X412999Y355495D01*
X412999Y363641D01*
X421145Y363641D01*
X421145Y360852D01*
X415788Y355495D01*
X412999Y355495D01*
G37*
%LPD*%
%LPC*%
G36*
X81855Y862599D02*
X81855Y862599D01*
X81855Y865388D01*
X87212Y870745D01*
X90001Y870745D01*
X90001Y862599D01*
X81855Y862599D01*
G37*
%LPD*%
%LPC*%
G36*
X91999Y852455D02*
X91999Y852455D01*
X91999Y860601D01*
X100145Y860601D01*
X100145Y857812D01*
X94788Y852455D01*
X91999Y852455D01*
G37*
%LPD*%
%LPC*%
G36*
X355055Y812659D02*
X355055Y812659D01*
X355055Y815448D01*
X360412Y820805D01*
X363201Y820805D01*
X363201Y812659D01*
X355055Y812659D01*
G37*
%LPD*%
%LPC*%
G36*
X403799Y733355D02*
X403799Y733355D01*
X403799Y741501D01*
X411945Y741501D01*
X411945Y738712D01*
X406588Y733355D01*
X403799Y733355D01*
G37*
%LPD*%
%LPC*%
G36*
X488855Y762959D02*
X488855Y762959D01*
X488855Y765748D01*
X494212Y771105D01*
X497001Y771105D01*
X497001Y762959D01*
X488855Y762959D01*
G37*
%LPD*%
%LPC*%
G36*
X87212Y852455D02*
X87212Y852455D01*
X81855Y857812D01*
X81855Y860601D01*
X90001Y860601D01*
X90001Y852455D01*
X87212Y852455D01*
G37*
%LPD*%
%LPC*%
G36*
X409212Y846695D02*
X409212Y846695D01*
X403855Y852052D01*
X403855Y854841D01*
X412001Y854841D01*
X412001Y846695D01*
X409212Y846695D01*
G37*
%LPD*%
%LPC*%
G36*
X408212Y355495D02*
X408212Y355495D01*
X402855Y360852D01*
X402855Y363641D01*
X411001Y363641D01*
X411001Y355495D01*
X408212Y355495D01*
G37*
%LPD*%
G36*
X80512Y670437D02*
X80512Y670437D01*
X80517Y670436D01*
X80608Y670458D01*
X80702Y670479D01*
X80706Y670481D01*
X80710Y670482D01*
X80786Y670538D01*
X80865Y670594D01*
X80867Y670597D01*
X80870Y670600D01*
X80919Y670682D01*
X80969Y670763D01*
X80969Y670767D01*
X80972Y670771D01*
X80999Y670935D01*
X80999Y676065D01*
X80997Y676077D01*
X80999Y676090D01*
X80977Y676174D01*
X80960Y676260D01*
X80953Y676270D01*
X80949Y676282D01*
X80853Y676418D01*
X76418Y680853D01*
X76407Y680860D01*
X76400Y680870D01*
X76325Y680915D01*
X76252Y680963D01*
X76240Y680965D01*
X76229Y680972D01*
X76065Y680999D01*
X70935Y680999D01*
X70931Y680998D01*
X70927Y680999D01*
X70833Y680979D01*
X70740Y680960D01*
X70737Y680957D01*
X70733Y680956D01*
X70655Y680901D01*
X70576Y680847D01*
X70574Y680844D01*
X70570Y680841D01*
X70521Y680760D01*
X70469Y680680D01*
X70468Y680675D01*
X70466Y680672D01*
X70452Y680578D01*
X70436Y680483D01*
X70437Y680479D01*
X70436Y680475D01*
X70460Y680383D01*
X70482Y680290D01*
X70485Y680287D01*
X70486Y680283D01*
X70582Y680147D01*
X72601Y678128D01*
X80147Y670582D01*
X80151Y670580D01*
X80153Y670576D01*
X80233Y670525D01*
X80313Y670472D01*
X80317Y670471D01*
X80320Y670469D01*
X80414Y670453D01*
X80508Y670436D01*
X80512Y670437D01*
G37*
%LPC*%
G36*
X366599Y673859D02*
X366599Y673859D01*
X366599Y681951D01*
X372791Y681951D01*
X372791Y676671D01*
X372570Y675848D01*
X372144Y675109D01*
X371541Y674506D01*
X370802Y674080D01*
X369979Y673859D01*
X366599Y673859D01*
G37*
%LPD*%
%LPC*%
G36*
X361221Y673859D02*
X361221Y673859D01*
X360398Y674080D01*
X359659Y674506D01*
X359056Y675109D01*
X358630Y675848D01*
X358409Y676671D01*
X358409Y681951D01*
X364601Y681951D01*
X364601Y673859D01*
X361221Y673859D01*
G37*
%LPD*%
G36*
X596393Y639314D02*
X596393Y639314D01*
X596402Y639313D01*
X596490Y639336D01*
X596579Y639355D01*
X596586Y639360D01*
X596594Y639362D01*
X596730Y639459D01*
X600853Y643582D01*
X600860Y643593D01*
X600870Y643600D01*
X600915Y643675D01*
X600963Y643748D01*
X600965Y643760D01*
X600972Y643771D01*
X600999Y643935D01*
X600999Y650588D01*
X600999Y650590D01*
X600999Y650592D01*
X600979Y650686D01*
X600960Y650783D01*
X600958Y650784D01*
X600958Y650786D01*
X600902Y650867D01*
X600847Y650947D01*
X600845Y650948D01*
X600844Y650949D01*
X600761Y651002D01*
X600680Y651054D01*
X600677Y651054D01*
X600676Y651055D01*
X600580Y651070D01*
X600483Y651087D01*
X600481Y651086D01*
X600479Y651087D01*
X600385Y651063D01*
X600290Y651041D01*
X600288Y651039D01*
X600286Y651039D01*
X600207Y650980D01*
X600130Y650923D01*
X600129Y650921D01*
X600127Y650920D01*
X600039Y650779D01*
X598467Y646984D01*
X594635Y643153D01*
X593501Y642683D01*
X593488Y642675D01*
X593474Y642671D01*
X593339Y642575D01*
X593025Y642261D01*
X593022Y642256D01*
X593017Y642252D01*
X592967Y642173D01*
X592915Y642095D01*
X592914Y642089D01*
X592911Y642084D01*
X592896Y641992D01*
X592879Y641900D01*
X592880Y641894D01*
X592879Y641888D01*
X592902Y641797D01*
X592922Y641706D01*
X592926Y641701D01*
X592927Y641695D01*
X592983Y641620D01*
X593037Y641544D01*
X593043Y641540D01*
X593046Y641535D01*
X593187Y641447D01*
X594636Y640847D01*
X596024Y639459D01*
X596031Y639454D01*
X596036Y639447D01*
X596113Y639400D01*
X596190Y639349D01*
X596198Y639347D01*
X596205Y639343D01*
X596295Y639329D01*
X596385Y639313D01*
X596393Y639314D01*
G37*
G36*
X316318Y537537D02*
X316318Y537537D01*
X316320Y537537D01*
X316416Y537561D01*
X316510Y537583D01*
X316511Y537584D01*
X316513Y537584D01*
X316649Y537679D01*
X323248Y544143D01*
X323252Y544149D01*
X323258Y544153D01*
X323308Y544231D01*
X323360Y544308D01*
X323361Y544315D01*
X323365Y544320D01*
X323380Y544412D01*
X323398Y544503D01*
X323397Y544510D01*
X323398Y544517D01*
X323377Y544606D01*
X323358Y544698D01*
X323354Y544703D01*
X323352Y544710D01*
X323297Y544784D01*
X323244Y544861D01*
X323238Y544865D01*
X323234Y544870D01*
X323155Y544917D01*
X323076Y544967D01*
X323069Y544968D01*
X323063Y544972D01*
X322899Y544999D01*
X316300Y544999D01*
X316292Y544998D01*
X316283Y544999D01*
X316195Y544978D01*
X316105Y544960D01*
X316098Y544955D01*
X316090Y544953D01*
X316017Y544899D01*
X315941Y544847D01*
X315937Y544840D01*
X315930Y544835D01*
X315883Y544757D01*
X315834Y544680D01*
X315833Y544671D01*
X315828Y544664D01*
X315801Y544500D01*
X315801Y538036D01*
X315801Y538034D01*
X315801Y538033D01*
X315821Y537936D01*
X315840Y537841D01*
X315841Y537840D01*
X315842Y537838D01*
X315898Y537757D01*
X315953Y537677D01*
X315954Y537676D01*
X315955Y537675D01*
X316038Y537623D01*
X316120Y537570D01*
X316122Y537570D01*
X316123Y537569D01*
X316220Y537553D01*
X316317Y537537D01*
X316318Y537537D01*
G37*
G36*
X407124Y511303D02*
X407124Y511303D01*
X407136Y511301D01*
X407220Y511323D01*
X407306Y511340D01*
X407317Y511347D01*
X407329Y511351D01*
X407464Y511447D01*
X409865Y513847D01*
X411534Y514539D01*
X411538Y514541D01*
X411542Y514542D01*
X411621Y514597D01*
X411699Y514650D01*
X411701Y514653D01*
X411705Y514656D01*
X411756Y514737D01*
X411808Y514817D01*
X411808Y514821D01*
X411811Y514824D01*
X411826Y514918D01*
X411842Y515012D01*
X411841Y515016D01*
X411842Y515021D01*
X411819Y515112D01*
X411798Y515206D01*
X411795Y515210D01*
X411794Y515214D01*
X411737Y515290D01*
X411681Y515367D01*
X411678Y515369D01*
X411675Y515373D01*
X411534Y515461D01*
X410185Y516020D01*
X410175Y516022D01*
X410166Y516028D01*
X410077Y516041D01*
X409990Y516058D01*
X409980Y516056D01*
X409969Y516058D01*
X409883Y516035D01*
X409795Y516017D01*
X409787Y516011D01*
X409776Y516008D01*
X409641Y515912D01*
X405882Y512153D01*
X405880Y512149D01*
X405876Y512147D01*
X405825Y512067D01*
X405772Y511987D01*
X405771Y511983D01*
X405769Y511980D01*
X405753Y511886D01*
X405736Y511792D01*
X405737Y511788D01*
X405736Y511783D01*
X405758Y511692D01*
X405779Y511598D01*
X405781Y511594D01*
X405782Y511590D01*
X405838Y511514D01*
X405894Y511435D01*
X405897Y511433D01*
X405900Y511430D01*
X405982Y511381D01*
X406063Y511331D01*
X406067Y511331D01*
X406071Y511328D01*
X406235Y511301D01*
X407111Y511301D01*
X407124Y511303D01*
G37*
G36*
X407124Y612903D02*
X407124Y612903D01*
X407136Y612901D01*
X407220Y612923D01*
X407306Y612940D01*
X407317Y612947D01*
X407329Y612951D01*
X407464Y613047D01*
X409865Y615447D01*
X411534Y616139D01*
X411538Y616141D01*
X411542Y616142D01*
X411620Y616197D01*
X411699Y616250D01*
X411701Y616253D01*
X411705Y616256D01*
X411755Y616336D01*
X411808Y616417D01*
X411808Y616421D01*
X411811Y616424D01*
X411826Y616518D01*
X411842Y616612D01*
X411841Y616616D01*
X411842Y616621D01*
X411819Y616712D01*
X411798Y616806D01*
X411795Y616810D01*
X411794Y616814D01*
X411738Y616889D01*
X411681Y616967D01*
X411678Y616969D01*
X411675Y616973D01*
X411534Y617061D01*
X410609Y617444D01*
X410599Y617446D01*
X410590Y617452D01*
X410502Y617465D01*
X410414Y617482D01*
X410404Y617480D01*
X410393Y617482D01*
X410307Y617460D01*
X410220Y617441D01*
X410211Y617435D01*
X410201Y617433D01*
X410065Y617336D01*
X406482Y613753D01*
X406480Y613749D01*
X406476Y613747D01*
X406425Y613667D01*
X406372Y613587D01*
X406371Y613583D01*
X406369Y613580D01*
X406353Y613486D01*
X406336Y613392D01*
X406337Y613388D01*
X406336Y613383D01*
X406358Y613292D01*
X406379Y613198D01*
X406381Y613194D01*
X406382Y613190D01*
X406438Y613114D01*
X406494Y613035D01*
X406497Y613033D01*
X406500Y613030D01*
X406582Y612981D01*
X406663Y612931D01*
X406667Y612931D01*
X406671Y612928D01*
X406835Y612901D01*
X407111Y612901D01*
X407124Y612903D01*
G37*
G36*
X409521Y589891D02*
X409521Y589891D01*
X409525Y589890D01*
X409618Y589914D01*
X409710Y589936D01*
X409713Y589938D01*
X409717Y589939D01*
X409853Y590036D01*
X409865Y590047D01*
X410211Y590191D01*
X411534Y590739D01*
X411538Y590741D01*
X411542Y590742D01*
X411620Y590796D01*
X411699Y590850D01*
X411701Y590853D01*
X411705Y590856D01*
X411755Y590936D01*
X411808Y591017D01*
X411808Y591021D01*
X411811Y591024D01*
X411826Y591118D01*
X411842Y591212D01*
X411841Y591216D01*
X411842Y591221D01*
X411819Y591313D01*
X411798Y591406D01*
X411795Y591410D01*
X411794Y591414D01*
X411737Y591490D01*
X411681Y591567D01*
X411678Y591569D01*
X411675Y591573D01*
X411534Y591661D01*
X409865Y592353D01*
X409853Y592364D01*
X409849Y592367D01*
X409847Y592370D01*
X409767Y592421D01*
X409687Y592474D01*
X409683Y592475D01*
X409680Y592477D01*
X409586Y592493D01*
X409492Y592511D01*
X409488Y592510D01*
X409483Y592510D01*
X409391Y592488D01*
X409298Y592468D01*
X409294Y592465D01*
X409290Y592464D01*
X409214Y592408D01*
X409136Y592353D01*
X409133Y592349D01*
X409130Y592346D01*
X409081Y592265D01*
X409031Y592183D01*
X409031Y592179D01*
X409028Y592175D01*
X409001Y592011D01*
X409001Y590389D01*
X409002Y590384D01*
X409001Y590380D01*
X409021Y590288D01*
X409040Y590194D01*
X409043Y590190D01*
X409044Y590186D01*
X409099Y590109D01*
X409153Y590030D01*
X409156Y590028D01*
X409159Y590024D01*
X409240Y589974D01*
X409320Y589923D01*
X409325Y589922D01*
X409328Y589920D01*
X409422Y589906D01*
X409517Y589890D01*
X409521Y589891D01*
G37*
G36*
X56510Y634236D02*
X56510Y634236D01*
X56517Y634235D01*
X56607Y634256D01*
X56699Y634276D01*
X56704Y634279D01*
X56710Y634281D01*
X56785Y634335D01*
X56862Y634389D01*
X56865Y634395D01*
X56870Y634398D01*
X56917Y634478D01*
X56967Y634558D01*
X56968Y634564D01*
X56972Y634570D01*
X56999Y634734D01*
X56999Y635266D01*
X56998Y635273D01*
X56999Y635279D01*
X56978Y635369D01*
X56960Y635461D01*
X56956Y635467D01*
X56955Y635473D01*
X56900Y635548D01*
X56847Y635625D01*
X56842Y635629D01*
X56838Y635634D01*
X56758Y635682D01*
X56680Y635732D01*
X56673Y635733D01*
X56668Y635737D01*
X56576Y635750D01*
X56483Y635765D01*
X56477Y635764D01*
X56471Y635765D01*
X56309Y635728D01*
X55666Y635461D01*
X55662Y635459D01*
X55658Y635458D01*
X55580Y635403D01*
X55501Y635350D01*
X55499Y635347D01*
X55495Y635344D01*
X55444Y635263D01*
X55392Y635183D01*
X55392Y635179D01*
X55389Y635176D01*
X55374Y635082D01*
X55358Y634988D01*
X55359Y634983D01*
X55358Y634979D01*
X55381Y634887D01*
X55402Y634794D01*
X55405Y634790D01*
X55406Y634786D01*
X55463Y634710D01*
X55519Y634633D01*
X55522Y634630D01*
X55525Y634627D01*
X55666Y634539D01*
X56309Y634272D01*
X56315Y634271D01*
X56320Y634268D01*
X56413Y634252D01*
X56504Y634234D01*
X56510Y634236D01*
G37*
G36*
X24975Y845517D02*
X24975Y845517D01*
X24977Y845517D01*
X25071Y845541D01*
X25166Y845564D01*
X25167Y845566D01*
X25170Y845566D01*
X25305Y845663D01*
X25656Y846013D01*
X25662Y846022D01*
X25670Y846028D01*
X25716Y846105D01*
X25766Y846179D01*
X25767Y846189D01*
X25773Y846198D01*
X25786Y846287D01*
X25802Y846375D01*
X25800Y846385D01*
X25801Y846395D01*
X25764Y846557D01*
X25661Y846805D01*
X25659Y846809D01*
X25658Y846813D01*
X25603Y846891D01*
X25550Y846970D01*
X25547Y846972D01*
X25544Y846976D01*
X25463Y847026D01*
X25383Y847079D01*
X25379Y847079D01*
X25376Y847081D01*
X25282Y847096D01*
X25188Y847113D01*
X25183Y847112D01*
X25179Y847113D01*
X25087Y847090D01*
X24994Y847069D01*
X24990Y847066D01*
X24986Y847065D01*
X24910Y847008D01*
X24833Y846952D01*
X24830Y846949D01*
X24827Y846946D01*
X24739Y846805D01*
X24491Y846207D01*
X24490Y846205D01*
X24489Y846203D01*
X24471Y846106D01*
X24453Y846012D01*
X24453Y846010D01*
X24453Y846007D01*
X24474Y845910D01*
X24494Y845817D01*
X24495Y845815D01*
X24496Y845813D01*
X24553Y845733D01*
X24608Y845654D01*
X24610Y845653D01*
X24611Y845651D01*
X24693Y845601D01*
X24776Y845548D01*
X24778Y845548D01*
X24780Y845547D01*
X24877Y845532D01*
X24973Y845517D01*
X24975Y845517D01*
G37*
G36*
X52512Y375456D02*
X52512Y375456D01*
X52517Y375456D01*
X52609Y375478D01*
X52702Y375498D01*
X52706Y375501D01*
X52710Y375502D01*
X52786Y375558D01*
X52864Y375614D01*
X52867Y375617D01*
X52870Y375620D01*
X52919Y375702D01*
X52969Y375783D01*
X52969Y375787D01*
X52972Y375791D01*
X52999Y375955D01*
X52999Y376245D01*
X52998Y376249D01*
X52999Y376254D01*
X52979Y376347D01*
X52960Y376440D01*
X52957Y376444D01*
X52956Y376448D01*
X52901Y376526D01*
X52847Y376604D01*
X52844Y376606D01*
X52841Y376610D01*
X52760Y376660D01*
X52680Y376711D01*
X52675Y376712D01*
X52672Y376714D01*
X52578Y376728D01*
X52483Y376744D01*
X52479Y376743D01*
X52475Y376744D01*
X52383Y376720D01*
X52290Y376698D01*
X52287Y376696D01*
X52283Y376695D01*
X52147Y376598D01*
X52002Y376453D01*
X51997Y376446D01*
X51990Y376441D01*
X51943Y376364D01*
X51892Y376287D01*
X51890Y376279D01*
X51886Y376272D01*
X51872Y376182D01*
X51856Y376092D01*
X51857Y376084D01*
X51856Y376075D01*
X51879Y375987D01*
X51898Y375898D01*
X51903Y375891D01*
X51905Y375883D01*
X52002Y375747D01*
X52147Y375602D01*
X52151Y375599D01*
X52153Y375596D01*
X52233Y375545D01*
X52313Y375492D01*
X52317Y375491D01*
X52320Y375489D01*
X52414Y375473D01*
X52508Y375456D01*
X52512Y375456D01*
G37*
G36*
X52512Y400856D02*
X52512Y400856D01*
X52517Y400856D01*
X52609Y400878D01*
X52702Y400898D01*
X52706Y400901D01*
X52710Y400902D01*
X52786Y400958D01*
X52864Y401014D01*
X52867Y401017D01*
X52870Y401020D01*
X52919Y401102D01*
X52969Y401183D01*
X52969Y401187D01*
X52972Y401191D01*
X52999Y401355D01*
X52999Y401645D01*
X52998Y401649D01*
X52999Y401654D01*
X52979Y401747D01*
X52960Y401840D01*
X52957Y401844D01*
X52956Y401848D01*
X52901Y401926D01*
X52847Y402004D01*
X52844Y402006D01*
X52841Y402010D01*
X52760Y402060D01*
X52680Y402111D01*
X52675Y402112D01*
X52672Y402114D01*
X52578Y402128D01*
X52483Y402144D01*
X52479Y402143D01*
X52475Y402144D01*
X52383Y402120D01*
X52290Y402098D01*
X52287Y402096D01*
X52283Y402095D01*
X52147Y401998D01*
X52002Y401853D01*
X51997Y401846D01*
X51990Y401841D01*
X51943Y401764D01*
X51892Y401687D01*
X51890Y401679D01*
X51886Y401672D01*
X51872Y401582D01*
X51856Y401492D01*
X51857Y401484D01*
X51856Y401475D01*
X51879Y401387D01*
X51898Y401298D01*
X51903Y401291D01*
X51905Y401283D01*
X52002Y401147D01*
X52147Y401002D01*
X52151Y400999D01*
X52153Y400996D01*
X52233Y400945D01*
X52313Y400892D01*
X52317Y400891D01*
X52320Y400889D01*
X52414Y400873D01*
X52508Y400856D01*
X52512Y400856D01*
G37*
G36*
X52512Y426256D02*
X52512Y426256D01*
X52517Y426256D01*
X52609Y426278D01*
X52702Y426298D01*
X52706Y426301D01*
X52710Y426302D01*
X52786Y426358D01*
X52864Y426414D01*
X52867Y426417D01*
X52870Y426420D01*
X52919Y426502D01*
X52969Y426583D01*
X52969Y426587D01*
X52972Y426591D01*
X52999Y426755D01*
X52999Y427045D01*
X52998Y427049D01*
X52999Y427054D01*
X52979Y427147D01*
X52960Y427240D01*
X52957Y427244D01*
X52956Y427248D01*
X52901Y427326D01*
X52847Y427404D01*
X52844Y427406D01*
X52841Y427410D01*
X52760Y427460D01*
X52680Y427511D01*
X52675Y427512D01*
X52672Y427514D01*
X52578Y427528D01*
X52483Y427544D01*
X52479Y427543D01*
X52475Y427544D01*
X52383Y427520D01*
X52290Y427498D01*
X52287Y427496D01*
X52283Y427495D01*
X52147Y427398D01*
X52002Y427253D01*
X51997Y427246D01*
X51990Y427241D01*
X51943Y427164D01*
X51892Y427087D01*
X51890Y427079D01*
X51886Y427072D01*
X51872Y426982D01*
X51856Y426892D01*
X51857Y426884D01*
X51856Y426875D01*
X51879Y426787D01*
X51898Y426698D01*
X51903Y426691D01*
X51905Y426683D01*
X52002Y426547D01*
X52147Y426402D01*
X52151Y426399D01*
X52153Y426396D01*
X52233Y426345D01*
X52313Y426292D01*
X52317Y426291D01*
X52320Y426289D01*
X52414Y426273D01*
X52508Y426256D01*
X52512Y426256D01*
G37*
G36*
X36010Y946477D02*
X36010Y946477D01*
X36021Y946477D01*
X36029Y946478D01*
X36048Y946477D01*
X36069Y946479D01*
X36119Y946495D01*
X36149Y946498D01*
X36164Y946506D01*
X36216Y946516D01*
X36236Y946530D01*
X36259Y946537D01*
X36317Y946586D01*
X36380Y946629D01*
X36393Y946650D01*
X36412Y946665D01*
X36446Y946733D01*
X36487Y946796D01*
X36491Y946821D01*
X36502Y946842D01*
X36507Y946918D01*
X36520Y946993D01*
X36514Y947016D01*
X36516Y947041D01*
X36491Y947112D01*
X36474Y947186D01*
X36459Y947206D01*
X36451Y947229D01*
X36401Y947285D01*
X36356Y947346D01*
X36335Y947359D01*
X36319Y947377D01*
X36250Y947409D01*
X36185Y947448D01*
X36158Y947452D01*
X36138Y947461D01*
X36079Y947465D01*
X36051Y947470D01*
X36048Y947471D01*
X36045Y947471D01*
X36021Y947475D01*
X35979Y947475D01*
X35963Y947472D01*
X35952Y947471D01*
X35940Y947467D01*
X35905Y947460D01*
X35830Y947452D01*
X35808Y947441D01*
X35784Y947436D01*
X35722Y947393D01*
X35656Y947356D01*
X35640Y947337D01*
X35620Y947323D01*
X35580Y947260D01*
X35533Y947200D01*
X35526Y947176D01*
X35513Y947156D01*
X35501Y947081D01*
X35481Y947008D01*
X35484Y946984D01*
X35480Y946959D01*
X35498Y946886D01*
X35508Y946811D01*
X35520Y946790D01*
X35526Y946766D01*
X35571Y946705D01*
X35610Y946640D01*
X35630Y946626D01*
X35644Y946606D01*
X35709Y946567D01*
X35770Y946523D01*
X35797Y946515D01*
X35815Y946504D01*
X35868Y946496D01*
X35882Y946489D01*
X35899Y946488D01*
X35931Y946479D01*
X35952Y946477D01*
X35967Y946479D01*
X35979Y946477D01*
X35988Y946477D01*
X36000Y946475D01*
X36010Y946477D01*
G37*
G36*
X610010Y942477D02*
X610010Y942477D01*
X610021Y942477D01*
X610029Y942478D01*
X610049Y942477D01*
X610069Y942479D01*
X610119Y942494D01*
X610149Y942498D01*
X610164Y942506D01*
X610216Y942516D01*
X610236Y942530D01*
X610259Y942537D01*
X610317Y942586D01*
X610380Y942629D01*
X610393Y942650D01*
X610412Y942665D01*
X610446Y942733D01*
X610487Y942796D01*
X610491Y942821D01*
X610502Y942843D01*
X610507Y942918D01*
X610520Y942993D01*
X610514Y943016D01*
X610516Y943041D01*
X610491Y943112D01*
X610474Y943186D01*
X610459Y943206D01*
X610451Y943229D01*
X610401Y943285D01*
X610356Y943346D01*
X610335Y943359D01*
X610318Y943377D01*
X610250Y943409D01*
X610185Y943448D01*
X610158Y943452D01*
X610138Y943461D01*
X610079Y943465D01*
X610051Y943470D01*
X610049Y943471D01*
X610045Y943471D01*
X610021Y943475D01*
X609979Y943475D01*
X609963Y943472D01*
X609952Y943471D01*
X609940Y943467D01*
X609905Y943460D01*
X609830Y943452D01*
X609809Y943441D01*
X609784Y943436D01*
X609722Y943393D01*
X609656Y943356D01*
X609641Y943337D01*
X609620Y943323D01*
X609580Y943259D01*
X609533Y943200D01*
X609527Y943176D01*
X609513Y943156D01*
X609501Y943081D01*
X609481Y943008D01*
X609484Y942984D01*
X609480Y942959D01*
X609498Y942886D01*
X609508Y942811D01*
X609521Y942790D01*
X609526Y942766D01*
X609571Y942705D01*
X609610Y942640D01*
X609630Y942626D01*
X609644Y942606D01*
X609709Y942567D01*
X609770Y942523D01*
X609797Y942515D01*
X609815Y942504D01*
X609868Y942496D01*
X609883Y942489D01*
X609900Y942488D01*
X609931Y942479D01*
X609951Y942477D01*
X609967Y942479D01*
X609979Y942477D01*
X609988Y942477D01*
X610000Y942475D01*
X610010Y942477D01*
G37*
G36*
X36037Y980528D02*
X36037Y980528D01*
X36048Y980529D01*
X36060Y980533D01*
X36095Y980540D01*
X36170Y980548D01*
X36192Y980559D01*
X36216Y980564D01*
X36278Y980607D01*
X36344Y980644D01*
X36359Y980663D01*
X36380Y980677D01*
X36420Y980741D01*
X36467Y980800D01*
X36473Y980824D01*
X36487Y980844D01*
X36499Y980919D01*
X36519Y980992D01*
X36516Y981016D01*
X36520Y981041D01*
X36502Y981114D01*
X36492Y981189D01*
X36479Y981210D01*
X36474Y981234D01*
X36429Y981295D01*
X36390Y981360D01*
X36370Y981374D01*
X36356Y981394D01*
X36291Y981433D01*
X36230Y981477D01*
X36203Y981485D01*
X36185Y981496D01*
X36132Y981504D01*
X36118Y981511D01*
X36100Y981512D01*
X36069Y981521D01*
X36049Y981523D01*
X36033Y981521D01*
X36021Y981523D01*
X35979Y981523D01*
X35971Y981522D01*
X35952Y981523D01*
X35931Y981521D01*
X35881Y981506D01*
X35851Y981502D01*
X35836Y981494D01*
X35784Y981484D01*
X35764Y981470D01*
X35741Y981463D01*
X35683Y981414D01*
X35620Y981371D01*
X35607Y981350D01*
X35588Y981335D01*
X35554Y981267D01*
X35513Y981204D01*
X35509Y981179D01*
X35498Y981158D01*
X35493Y981082D01*
X35480Y981007D01*
X35486Y980984D01*
X35484Y980959D01*
X35509Y980887D01*
X35526Y980814D01*
X35541Y980794D01*
X35549Y980771D01*
X35599Y980715D01*
X35644Y980654D01*
X35665Y980641D01*
X35682Y980623D01*
X35750Y980591D01*
X35815Y980552D01*
X35842Y980548D01*
X35862Y980539D01*
X35921Y980535D01*
X35949Y980530D01*
X35952Y980529D01*
X35955Y980529D01*
X35979Y980525D01*
X36021Y980525D01*
X36037Y980528D01*
G37*
G36*
X610037Y976528D02*
X610037Y976528D01*
X610048Y976529D01*
X610060Y976533D01*
X610095Y976540D01*
X610170Y976548D01*
X610192Y976559D01*
X610216Y976564D01*
X610278Y976607D01*
X610344Y976644D01*
X610359Y976663D01*
X610380Y976677D01*
X610420Y976741D01*
X610467Y976800D01*
X610473Y976824D01*
X610487Y976844D01*
X610499Y976919D01*
X610519Y976992D01*
X610516Y977016D01*
X610520Y977041D01*
X610502Y977114D01*
X610492Y977189D01*
X610479Y977210D01*
X610474Y977234D01*
X610429Y977295D01*
X610390Y977360D01*
X610370Y977374D01*
X610356Y977394D01*
X610291Y977433D01*
X610230Y977477D01*
X610203Y977485D01*
X610185Y977496D01*
X610132Y977504D01*
X610118Y977511D01*
X610100Y977512D01*
X610069Y977521D01*
X610049Y977523D01*
X610033Y977521D01*
X610021Y977523D01*
X609979Y977523D01*
X609971Y977522D01*
X609952Y977523D01*
X609931Y977521D01*
X609881Y977506D01*
X609851Y977502D01*
X609836Y977494D01*
X609784Y977484D01*
X609764Y977470D01*
X609741Y977463D01*
X609683Y977414D01*
X609620Y977371D01*
X609607Y977350D01*
X609588Y977335D01*
X609554Y977267D01*
X609513Y977204D01*
X609509Y977179D01*
X609498Y977158D01*
X609493Y977082D01*
X609480Y977007D01*
X609486Y976984D01*
X609484Y976959D01*
X609509Y976887D01*
X609526Y976814D01*
X609541Y976794D01*
X609549Y976771D01*
X609599Y976715D01*
X609644Y976654D01*
X609665Y976641D01*
X609682Y976623D01*
X609750Y976591D01*
X609815Y976552D01*
X609842Y976548D01*
X609862Y976539D01*
X609921Y976535D01*
X609949Y976530D01*
X609952Y976529D01*
X609955Y976529D01*
X609979Y976525D01*
X610021Y976525D01*
X610037Y976528D01*
G37*
G36*
X610010Y362477D02*
X610010Y362477D01*
X610021Y362477D01*
X610029Y362478D01*
X610049Y362477D01*
X610069Y362479D01*
X610119Y362494D01*
X610149Y362498D01*
X610164Y362506D01*
X610216Y362516D01*
X610236Y362530D01*
X610260Y362538D01*
X610317Y362586D01*
X610380Y362629D01*
X610393Y362650D01*
X610412Y362665D01*
X610446Y362733D01*
X610487Y362796D01*
X610491Y362821D01*
X610502Y362843D01*
X610507Y362918D01*
X610520Y362993D01*
X610514Y363016D01*
X610516Y363041D01*
X610491Y363113D01*
X610474Y363186D01*
X610459Y363206D01*
X610451Y363229D01*
X610401Y363285D01*
X610356Y363346D01*
X610335Y363359D01*
X610318Y363377D01*
X610250Y363409D01*
X610185Y363448D01*
X610158Y363452D01*
X610138Y363461D01*
X610079Y363465D01*
X610052Y363470D01*
X610049Y363471D01*
X610044Y363471D01*
X610021Y363475D01*
X609979Y363475D01*
X609963Y363472D01*
X609951Y363471D01*
X609939Y363467D01*
X609905Y363460D01*
X609830Y363452D01*
X609809Y363441D01*
X609784Y363436D01*
X609722Y363393D01*
X609656Y363357D01*
X609641Y363337D01*
X609620Y363323D01*
X609580Y363260D01*
X609533Y363200D01*
X609527Y363176D01*
X609513Y363156D01*
X609501Y363081D01*
X609481Y363008D01*
X609484Y362984D01*
X609480Y362959D01*
X609498Y362886D01*
X609508Y362811D01*
X609521Y362790D01*
X609526Y362766D01*
X609571Y362705D01*
X609610Y362640D01*
X609630Y362626D01*
X609644Y362606D01*
X609709Y362567D01*
X609770Y362523D01*
X609797Y362515D01*
X609815Y362504D01*
X609868Y362496D01*
X609883Y362489D01*
X609900Y362488D01*
X609931Y362479D01*
X609951Y362477D01*
X609967Y362479D01*
X609979Y362477D01*
X609988Y362477D01*
X610000Y362475D01*
X610010Y362477D01*
G37*
G36*
X610037Y396528D02*
X610037Y396528D01*
X610049Y396529D01*
X610061Y396533D01*
X610095Y396540D01*
X610170Y396548D01*
X610191Y396559D01*
X610216Y396564D01*
X610278Y396607D01*
X610344Y396644D01*
X610359Y396663D01*
X610380Y396677D01*
X610420Y396741D01*
X610467Y396800D01*
X610473Y396824D01*
X610487Y396844D01*
X610499Y396919D01*
X610519Y396992D01*
X610516Y397016D01*
X610520Y397041D01*
X610502Y397114D01*
X610492Y397189D01*
X610479Y397210D01*
X610474Y397234D01*
X610429Y397295D01*
X610390Y397360D01*
X610370Y397374D01*
X610356Y397394D01*
X610291Y397433D01*
X610230Y397477D01*
X610203Y397485D01*
X610185Y397496D01*
X610132Y397504D01*
X610117Y397511D01*
X610100Y397512D01*
X610069Y397521D01*
X610049Y397523D01*
X610033Y397521D01*
X610021Y397523D01*
X609979Y397523D01*
X609971Y397522D01*
X609951Y397523D01*
X609931Y397521D01*
X609881Y397506D01*
X609851Y397502D01*
X609836Y397494D01*
X609784Y397484D01*
X609764Y397470D01*
X609741Y397462D01*
X609683Y397414D01*
X609620Y397371D01*
X609607Y397350D01*
X609588Y397335D01*
X609554Y397267D01*
X609513Y397204D01*
X609509Y397179D01*
X609498Y397157D01*
X609493Y397082D01*
X609480Y397007D01*
X609486Y396984D01*
X609484Y396959D01*
X609509Y396887D01*
X609526Y396814D01*
X609541Y396794D01*
X609549Y396771D01*
X609599Y396715D01*
X609644Y396654D01*
X609665Y396641D01*
X609682Y396623D01*
X609750Y396591D01*
X609815Y396552D01*
X609842Y396548D01*
X609862Y396539D01*
X609921Y396535D01*
X609948Y396530D01*
X609951Y396529D01*
X609956Y396529D01*
X609979Y396525D01*
X610021Y396525D01*
X610037Y396528D01*
G37*
%LPC*%
G36*
X63299Y856799D02*
X63299Y856799D01*
X63299Y856801D01*
X63301Y856801D01*
X63301Y856799D01*
X63299Y856799D01*
G37*
%LPD*%
%LPC*%
G36*
X355999Y384699D02*
X355999Y384699D01*
X355999Y384701D01*
X356001Y384701D01*
X356001Y384699D01*
X355999Y384699D01*
G37*
%LPD*%
%LPC*%
G36*
X251599Y928499D02*
X251599Y928499D01*
X251599Y928501D01*
X251601Y928501D01*
X251601Y928499D01*
X251599Y928499D01*
G37*
%LPD*%
%LPC*%
G36*
X428499Y922699D02*
X428499Y922699D01*
X428499Y922701D01*
X428501Y922701D01*
X428501Y922699D01*
X428499Y922699D01*
G37*
%LPD*%
%LPC*%
G36*
X90999Y861599D02*
X90999Y861599D01*
X90999Y861601D01*
X91001Y861601D01*
X91001Y861599D01*
X90999Y861599D01*
G37*
%LPD*%
%LPC*%
G36*
X455399Y841499D02*
X455399Y841499D01*
X455399Y841501D01*
X455401Y841501D01*
X455401Y841499D01*
X455399Y841499D01*
G37*
%LPD*%
%LPC*%
G36*
X197499Y777499D02*
X197499Y777499D01*
X197499Y777501D01*
X197501Y777501D01*
X197501Y777499D01*
X197499Y777499D01*
G37*
%LPD*%
%LPC*%
G36*
X41999Y596899D02*
X41999Y596899D01*
X41999Y596901D01*
X42001Y596901D01*
X42001Y596899D01*
X41999Y596899D01*
G37*
%LPD*%
%LPC*%
G36*
X425199Y476899D02*
X425199Y476899D01*
X425199Y476901D01*
X425201Y476901D01*
X425201Y476899D01*
X425199Y476899D01*
G37*
%LPD*%
%LPC*%
G36*
X218299Y568149D02*
X218299Y568149D01*
X218299Y568151D01*
X218301Y568151D01*
X218301Y568149D01*
X218299Y568149D01*
G37*
%LPD*%
D10*
X441250Y922700D02*
X415750Y922700D01*
X415750Y962300D02*
X441250Y962300D01*
D11*
X364200Y811660D03*
D12*
X364200Y791340D03*
D13*
X277800Y846500D03*
X277800Y821100D03*
D11*
X498000Y761960D03*
D12*
X498000Y741640D03*
D13*
X577700Y912800D03*
X603100Y912800D03*
D14*
X412000Y364640D03*
D12*
X412000Y384960D03*
D13*
X407200Y796900D03*
X407200Y822300D03*
X180100Y421289D03*
X205500Y421111D03*
D10*
X251600Y915750D02*
X251600Y941250D01*
X212000Y941250D02*
X212000Y915750D01*
D15*
X447780Y866900D02*
X463020Y866900D01*
X463020Y841500D02*
X447780Y841500D01*
X447780Y816100D02*
X463020Y816100D01*
D11*
X91000Y836200D03*
X91000Y861600D03*
D10*
X585750Y714100D02*
X611250Y714100D01*
X611250Y753700D02*
X585750Y753700D01*
X550200Y411250D02*
X550200Y385750D01*
X510600Y385750D02*
X510600Y411250D01*
D16*
X12500Y850196D02*
X12500Y863404D01*
X63300Y863404D02*
X63300Y850196D01*
X37900Y850196D02*
X37900Y863404D01*
D14*
X322800Y845900D03*
X322800Y769700D03*
X402800Y742500D03*
X402800Y666300D03*
D11*
X55000Y696200D03*
X55000Y772400D03*
D16*
X345196Y935300D02*
X358404Y935300D01*
X358404Y960700D02*
X345196Y960700D01*
X345196Y909900D02*
X358404Y909900D01*
X307604Y960700D02*
X294396Y960700D01*
X294396Y935300D02*
X307604Y935300D01*
X307604Y909900D02*
X294396Y909900D01*
D17*
X124200Y958412D03*
X124200Y893388D03*
D15*
X417580Y476900D02*
X432820Y476900D01*
X432820Y502300D02*
X417580Y502300D01*
X417580Y527700D02*
X432820Y527700D01*
X432820Y553100D02*
X417580Y553100D01*
X417580Y578500D02*
X432820Y578500D01*
X432820Y603900D02*
X417580Y603900D01*
X417580Y629300D02*
X432820Y629300D01*
X432820Y654700D02*
X417580Y654700D01*
X571680Y654700D02*
X586920Y654700D01*
X586920Y629300D02*
X571680Y629300D01*
X571680Y603900D02*
X586920Y603900D01*
X586920Y578500D02*
X571680Y578500D01*
X571680Y553100D02*
X586920Y553100D01*
X586920Y527700D02*
X571680Y527700D01*
X571680Y502300D02*
X586920Y502300D01*
X586920Y476900D02*
X571680Y476900D01*
D18*
X128810Y638740D02*
X113790Y638740D01*
X113790Y645760D01*
X128810Y645760D01*
X128810Y638740D01*
X128810Y640621D02*
X113790Y640621D01*
X113790Y642502D02*
X128810Y642502D01*
X128810Y644383D02*
X113790Y644383D01*
X113790Y626040D02*
X128810Y626040D01*
X113790Y626040D02*
X113790Y633060D01*
X128810Y633060D01*
X128810Y626040D01*
X128810Y627921D02*
X113790Y627921D01*
X113790Y629802D02*
X128810Y629802D01*
X128810Y631683D02*
X113790Y631683D01*
X113790Y613340D02*
X128810Y613340D01*
X113790Y613340D02*
X113790Y620360D01*
X128810Y620360D01*
X128810Y613340D01*
X128810Y615221D02*
X113790Y615221D01*
X113790Y617102D02*
X128810Y617102D01*
X128810Y618983D02*
X113790Y618983D01*
X113790Y600640D02*
X128810Y600640D01*
X113790Y600640D02*
X113790Y607660D01*
X128810Y607660D01*
X128810Y600640D01*
X128810Y602521D02*
X113790Y602521D01*
X113790Y604402D02*
X128810Y604402D01*
X128810Y606283D02*
X113790Y606283D01*
X113790Y587940D02*
X128810Y587940D01*
X113790Y587940D02*
X113790Y594960D01*
X128810Y594960D01*
X128810Y587940D01*
X128810Y589821D02*
X113790Y589821D01*
X113790Y591702D02*
X128810Y591702D01*
X128810Y593583D02*
X113790Y593583D01*
X113790Y575240D02*
X128810Y575240D01*
X113790Y575240D02*
X113790Y582260D01*
X128810Y582260D01*
X128810Y575240D01*
X128810Y577121D02*
X113790Y577121D01*
X113790Y579002D02*
X128810Y579002D01*
X128810Y580883D02*
X113790Y580883D01*
X113790Y562540D02*
X128810Y562540D01*
X113790Y562540D02*
X113790Y569560D01*
X128810Y569560D01*
X128810Y562540D01*
X128810Y564421D02*
X113790Y564421D01*
X113790Y566302D02*
X128810Y566302D01*
X128810Y568183D02*
X113790Y568183D01*
X113790Y549840D02*
X128810Y549840D01*
X113790Y549840D02*
X113790Y556860D01*
X128810Y556860D01*
X128810Y549840D01*
X128810Y551721D02*
X113790Y551721D01*
X113790Y553602D02*
X128810Y553602D01*
X128810Y555483D02*
X113790Y555483D01*
X113790Y537140D02*
X128810Y537140D01*
X113790Y537140D02*
X113790Y544160D01*
X128810Y544160D01*
X128810Y537140D01*
X128810Y539021D02*
X113790Y539021D01*
X113790Y540902D02*
X128810Y540902D01*
X128810Y542783D02*
X113790Y542783D01*
X113790Y524440D02*
X128810Y524440D01*
X113790Y524440D02*
X113790Y531460D01*
X128810Y531460D01*
X128810Y524440D01*
X128810Y526321D02*
X113790Y526321D01*
X113790Y528202D02*
X128810Y528202D01*
X128810Y530083D02*
X113790Y530083D01*
X113790Y511740D02*
X128810Y511740D01*
X113790Y511740D02*
X113790Y518760D01*
X128810Y518760D01*
X128810Y511740D01*
X128810Y513621D02*
X113790Y513621D01*
X113790Y515502D02*
X128810Y515502D01*
X128810Y517383D02*
X113790Y517383D01*
X113790Y499040D02*
X128810Y499040D01*
X113790Y499040D02*
X113790Y506060D01*
X128810Y506060D01*
X128810Y499040D01*
X128810Y500921D02*
X113790Y500921D01*
X113790Y502802D02*
X128810Y502802D01*
X128810Y504683D02*
X113790Y504683D01*
X113790Y486340D02*
X128810Y486340D01*
X113790Y486340D02*
X113790Y493360D01*
X128810Y493360D01*
X128810Y486340D01*
X128810Y488221D02*
X113790Y488221D01*
X113790Y490102D02*
X128810Y490102D01*
X128810Y491983D02*
X113790Y491983D01*
X113790Y473640D02*
X128810Y473640D01*
X113790Y473640D02*
X113790Y480660D01*
X128810Y480660D01*
X128810Y473640D01*
X128810Y475521D02*
X113790Y475521D01*
X113790Y477402D02*
X128810Y477402D01*
X128810Y479283D02*
X113790Y479283D01*
X157660Y469660D02*
X157660Y454640D01*
X150640Y454640D01*
X150640Y469660D01*
X157660Y469660D01*
X157660Y456521D02*
X150640Y456521D01*
X150640Y458402D02*
X157660Y458402D01*
X157660Y460283D02*
X150640Y460283D01*
X150640Y462164D02*
X157660Y462164D01*
X157660Y464045D02*
X150640Y464045D01*
X150640Y465926D02*
X157660Y465926D01*
X157660Y467807D02*
X150640Y467807D01*
X170360Y469660D02*
X170360Y454640D01*
X163340Y454640D01*
X163340Y469660D01*
X170360Y469660D01*
X170360Y456521D02*
X163340Y456521D01*
X163340Y458402D02*
X170360Y458402D01*
X170360Y460283D02*
X163340Y460283D01*
X163340Y462164D02*
X170360Y462164D01*
X170360Y464045D02*
X163340Y464045D01*
X163340Y465926D02*
X170360Y465926D01*
X170360Y467807D02*
X163340Y467807D01*
X183060Y469660D02*
X183060Y454640D01*
X176040Y454640D01*
X176040Y469660D01*
X183060Y469660D01*
X183060Y456521D02*
X176040Y456521D01*
X176040Y458402D02*
X183060Y458402D01*
X183060Y460283D02*
X176040Y460283D01*
X176040Y462164D02*
X183060Y462164D01*
X183060Y464045D02*
X176040Y464045D01*
X176040Y465926D02*
X183060Y465926D01*
X183060Y467807D02*
X176040Y467807D01*
X195760Y469660D02*
X195760Y454640D01*
X188740Y454640D01*
X188740Y469660D01*
X195760Y469660D01*
X195760Y456521D02*
X188740Y456521D01*
X188740Y458402D02*
X195760Y458402D01*
X195760Y460283D02*
X188740Y460283D01*
X188740Y462164D02*
X195760Y462164D01*
X195760Y464045D02*
X188740Y464045D01*
X188740Y465926D02*
X195760Y465926D01*
X195760Y467807D02*
X188740Y467807D01*
X208460Y469660D02*
X208460Y454640D01*
X201440Y454640D01*
X201440Y469660D01*
X208460Y469660D01*
X208460Y456521D02*
X201440Y456521D01*
X201440Y458402D02*
X208460Y458402D01*
X208460Y460283D02*
X201440Y460283D01*
X201440Y462164D02*
X208460Y462164D01*
X208460Y464045D02*
X201440Y464045D01*
X201440Y465926D02*
X208460Y465926D01*
X208460Y467807D02*
X201440Y467807D01*
X221160Y469660D02*
X221160Y454640D01*
X214140Y454640D01*
X214140Y469660D01*
X221160Y469660D01*
X221160Y456521D02*
X214140Y456521D01*
X214140Y458402D02*
X221160Y458402D01*
X221160Y460283D02*
X214140Y460283D01*
X214140Y462164D02*
X221160Y462164D01*
X221160Y464045D02*
X214140Y464045D01*
X214140Y465926D02*
X221160Y465926D01*
X221160Y467807D02*
X214140Y467807D01*
X233860Y469660D02*
X233860Y454640D01*
X226840Y454640D01*
X226840Y469660D01*
X233860Y469660D01*
X233860Y456521D02*
X226840Y456521D01*
X226840Y458402D02*
X233860Y458402D01*
X233860Y460283D02*
X226840Y460283D01*
X226840Y462164D02*
X233860Y462164D01*
X233860Y464045D02*
X226840Y464045D01*
X226840Y465926D02*
X233860Y465926D01*
X233860Y467807D02*
X226840Y467807D01*
X246560Y469660D02*
X246560Y454640D01*
X239540Y454640D01*
X239540Y469660D01*
X246560Y469660D01*
X246560Y456521D02*
X239540Y456521D01*
X239540Y458402D02*
X246560Y458402D01*
X246560Y460283D02*
X239540Y460283D01*
X239540Y462164D02*
X246560Y462164D01*
X246560Y464045D02*
X239540Y464045D01*
X239540Y465926D02*
X246560Y465926D01*
X246560Y467807D02*
X239540Y467807D01*
X259260Y469660D02*
X259260Y454640D01*
X252240Y454640D01*
X252240Y469660D01*
X259260Y469660D01*
X259260Y456521D02*
X252240Y456521D01*
X252240Y458402D02*
X259260Y458402D01*
X259260Y460283D02*
X252240Y460283D01*
X252240Y462164D02*
X259260Y462164D01*
X259260Y464045D02*
X252240Y464045D01*
X252240Y465926D02*
X259260Y465926D01*
X259260Y467807D02*
X252240Y467807D01*
X271960Y469660D02*
X271960Y454640D01*
X264940Y454640D01*
X264940Y469660D01*
X271960Y469660D01*
X271960Y456521D02*
X264940Y456521D01*
X264940Y458402D02*
X271960Y458402D01*
X271960Y460283D02*
X264940Y460283D01*
X264940Y462164D02*
X271960Y462164D01*
X271960Y464045D02*
X264940Y464045D01*
X264940Y465926D02*
X271960Y465926D01*
X271960Y467807D02*
X264940Y467807D01*
X293790Y480660D02*
X308810Y480660D01*
X308810Y473640D01*
X293790Y473640D01*
X293790Y480660D01*
X293790Y475521D02*
X308810Y475521D01*
X308810Y477402D02*
X293790Y477402D01*
X293790Y479283D02*
X308810Y479283D01*
X308810Y493360D02*
X293790Y493360D01*
X308810Y493360D02*
X308810Y486340D01*
X293790Y486340D01*
X293790Y493360D01*
X293790Y488221D02*
X308810Y488221D01*
X308810Y490102D02*
X293790Y490102D01*
X293790Y491983D02*
X308810Y491983D01*
X308810Y506060D02*
X293790Y506060D01*
X308810Y506060D02*
X308810Y499040D01*
X293790Y499040D01*
X293790Y506060D01*
X293790Y500921D02*
X308810Y500921D01*
X308810Y502802D02*
X293790Y502802D01*
X293790Y504683D02*
X308810Y504683D01*
X308810Y518760D02*
X293790Y518760D01*
X308810Y518760D02*
X308810Y511740D01*
X293790Y511740D01*
X293790Y518760D01*
X293790Y513621D02*
X308810Y513621D01*
X308810Y515502D02*
X293790Y515502D01*
X293790Y517383D02*
X308810Y517383D01*
X308810Y531460D02*
X293790Y531460D01*
X308810Y531460D02*
X308810Y524440D01*
X293790Y524440D01*
X293790Y531460D01*
X293790Y526321D02*
X308810Y526321D01*
X308810Y528202D02*
X293790Y528202D01*
X293790Y530083D02*
X308810Y530083D01*
X308810Y544160D02*
X293790Y544160D01*
X308810Y544160D02*
X308810Y537140D01*
X293790Y537140D01*
X293790Y544160D01*
X293790Y539021D02*
X308810Y539021D01*
X308810Y540902D02*
X293790Y540902D01*
X293790Y542783D02*
X308810Y542783D01*
X308810Y556860D02*
X293790Y556860D01*
X308810Y556860D02*
X308810Y549840D01*
X293790Y549840D01*
X293790Y556860D01*
X293790Y551721D02*
X308810Y551721D01*
X308810Y553602D02*
X293790Y553602D01*
X293790Y555483D02*
X308810Y555483D01*
X308810Y569560D02*
X293790Y569560D01*
X308810Y569560D02*
X308810Y562540D01*
X293790Y562540D01*
X293790Y569560D01*
X293790Y564421D02*
X308810Y564421D01*
X308810Y566302D02*
X293790Y566302D01*
X293790Y568183D02*
X308810Y568183D01*
X308810Y582260D02*
X293790Y582260D01*
X308810Y582260D02*
X308810Y575240D01*
X293790Y575240D01*
X293790Y582260D01*
X293790Y577121D02*
X308810Y577121D01*
X308810Y579002D02*
X293790Y579002D01*
X293790Y580883D02*
X308810Y580883D01*
X308810Y594960D02*
X293790Y594960D01*
X308810Y594960D02*
X308810Y587940D01*
X293790Y587940D01*
X293790Y594960D01*
X293790Y589821D02*
X308810Y589821D01*
X308810Y591702D02*
X293790Y591702D01*
X293790Y593583D02*
X308810Y593583D01*
X308810Y607660D02*
X293790Y607660D01*
X308810Y607660D02*
X308810Y600640D01*
X293790Y600640D01*
X293790Y607660D01*
X293790Y602521D02*
X308810Y602521D01*
X308810Y604402D02*
X293790Y604402D01*
X293790Y606283D02*
X308810Y606283D01*
X308810Y620360D02*
X293790Y620360D01*
X308810Y620360D02*
X308810Y613340D01*
X293790Y613340D01*
X293790Y620360D01*
X293790Y615221D02*
X308810Y615221D01*
X308810Y617102D02*
X293790Y617102D01*
X293790Y618983D02*
X308810Y618983D01*
X308810Y633060D02*
X293790Y633060D01*
X308810Y633060D02*
X308810Y626040D01*
X293790Y626040D01*
X293790Y633060D01*
X293790Y627921D02*
X308810Y627921D01*
X308810Y629802D02*
X293790Y629802D01*
X293790Y631683D02*
X308810Y631683D01*
X308810Y645760D02*
X293790Y645760D01*
X308810Y645760D02*
X308810Y638740D01*
X293790Y638740D01*
X293790Y645760D01*
X293790Y640621D02*
X308810Y640621D01*
X308810Y642502D02*
X293790Y642502D01*
X293790Y644383D02*
X308810Y644383D01*
D19*
X218300Y568150D03*
D20*
X361647Y688803D02*
X369553Y688803D01*
X369553Y677097D01*
X361647Y677097D01*
X361647Y688803D01*
X361647Y678422D02*
X369553Y678422D01*
X369553Y679747D02*
X361647Y679747D01*
X361647Y681072D02*
X369553Y681072D01*
X369553Y682397D02*
X361647Y682397D01*
X361647Y683722D02*
X369553Y683722D01*
X369553Y685047D02*
X361647Y685047D01*
X361647Y686372D02*
X369553Y686372D01*
X369553Y687697D02*
X361647Y687697D01*
X346653Y688803D02*
X338747Y688803D01*
X346653Y688803D02*
X346653Y677097D01*
X338747Y677097D01*
X338747Y688803D01*
X338747Y678422D02*
X346653Y678422D01*
X346653Y679747D02*
X338747Y679747D01*
X338747Y681072D02*
X346653Y681072D01*
X346653Y682397D02*
X338747Y682397D01*
X338747Y683722D02*
X346653Y683722D01*
X346653Y685047D02*
X338747Y685047D01*
X338747Y686372D02*
X346653Y686372D01*
X346653Y687697D02*
X338747Y687697D01*
X323753Y688803D02*
X315847Y688803D01*
X323753Y688803D02*
X323753Y677097D01*
X315847Y677097D01*
X315847Y688803D01*
X315847Y678422D02*
X323753Y678422D01*
X323753Y679747D02*
X315847Y679747D01*
X315847Y681072D02*
X323753Y681072D01*
X323753Y682397D02*
X315847Y682397D01*
X315847Y683722D02*
X323753Y683722D01*
X323753Y685047D02*
X315847Y685047D01*
X315847Y686372D02*
X323753Y686372D01*
X323753Y687697D02*
X315847Y687697D01*
D21*
X327482Y755418D02*
X357918Y755418D01*
X357918Y744282D01*
X327482Y744282D01*
X327482Y755418D01*
X327482Y746149D02*
X357918Y746149D01*
X357918Y748016D02*
X327482Y748016D01*
X327482Y749883D02*
X357918Y749883D01*
X357918Y751750D02*
X327482Y751750D01*
X327482Y753617D02*
X357918Y753617D01*
D22*
X43290Y465000D02*
X25510Y465000D01*
X25510Y439600D02*
X43290Y439600D01*
X43290Y490400D02*
X25510Y490400D01*
X25510Y515800D02*
X43290Y515800D01*
X43290Y541200D02*
X25510Y541200D01*
X25510Y414200D02*
X43290Y414200D01*
X43290Y388800D02*
X25510Y388800D01*
X25510Y363400D02*
X43290Y363400D01*
D15*
X49620Y596900D02*
X34380Y596900D01*
X34380Y622300D02*
X49620Y622300D01*
X49620Y647700D02*
X34380Y647700D01*
X34380Y673100D02*
X49620Y673100D01*
D11*
X455000Y691900D03*
X455000Y768100D03*
D23*
X270040Y732500D02*
X254960Y732500D01*
X205040Y732500D02*
X189960Y732500D01*
X254960Y777500D02*
X270040Y777500D01*
X205040Y777500D02*
X189960Y777500D01*
D15*
X348380Y384700D02*
X363620Y384700D01*
X363620Y359300D02*
X348380Y359300D01*
D14*
X413000Y855840D03*
D12*
X413000Y876160D03*
D14*
X31000Y812100D03*
X31000Y735900D03*
D16*
X292296Y874000D02*
X305504Y874000D01*
X368496Y874000D02*
X381704Y874000D01*
D24*
X108165Y759331D02*
X90919Y744912D01*
X207835Y842669D02*
X225081Y857088D01*
D25*
X58000Y575000D03*
X363515Y665244D03*
D26*
X210000Y748000D02*
X210000Y760000D01*
D25*
X210000Y760000D03*
D26*
X413000Y855840D02*
X420000Y840000D01*
X455400Y840000D01*
X455400Y841500D01*
X420000Y840000D02*
X420000Y835100D01*
X407200Y822300D01*
D25*
X299000Y812000D03*
D27*
X374840Y822300D02*
X407200Y822300D01*
X374840Y822300D02*
X364200Y811660D01*
X289900Y821100D02*
X277800Y821100D01*
X289900Y821100D02*
X299000Y812000D01*
X299340Y811660D01*
X364200Y811660D01*
D26*
X365600Y682950D02*
X365600Y667329D01*
X363515Y665244D01*
X58000Y575000D02*
X42000Y591000D01*
X42000Y596900D01*
X251600Y928500D02*
X251600Y957000D01*
X251000Y957000D01*
X251600Y928500D02*
X251600Y897000D01*
X251000Y897000D01*
X251600Y928500D02*
X269000Y928500D01*
X269000Y929000D01*
X251600Y928500D02*
X235000Y928500D01*
X235000Y928000D01*
X428500Y922700D02*
X428500Y939000D01*
X429000Y939000D01*
X428500Y922700D02*
X428500Y904000D01*
X427000Y904000D01*
X428500Y922700D02*
X461000Y922700D01*
X461000Y923000D01*
X603100Y912800D02*
X617000Y912800D01*
X617000Y913000D01*
X603100Y912800D02*
X603000Y912800D01*
X603000Y925000D01*
X603100Y912800D02*
X603100Y899000D01*
X603000Y899000D01*
X476000Y841500D02*
X455400Y841500D01*
X476000Y841500D02*
X476000Y841000D01*
X498000Y773000D02*
X498000Y761960D01*
X510000Y761960D01*
X510000Y762000D01*
X498000Y761960D02*
X488000Y761960D01*
X488000Y762000D01*
X579300Y603900D02*
X601000Y603900D01*
X601000Y604000D01*
X579300Y603900D02*
X562970Y603900D01*
X558435Y608435D01*
X579300Y476900D02*
X579300Y464000D01*
X579000Y464000D01*
X579300Y476900D02*
X579300Y477000D01*
X561000Y477000D01*
X356000Y398000D02*
X356000Y384700D01*
X375000Y384700D01*
X375000Y384000D01*
X356000Y384700D02*
X335000Y384700D01*
X335000Y387000D01*
X412000Y364640D02*
X424000Y364640D01*
X424000Y365000D01*
X412000Y364640D02*
X412000Y352000D01*
X411000Y352000D01*
X412000Y364640D02*
X399000Y364640D01*
X399000Y365000D01*
X205500Y421111D02*
X205500Y434000D01*
X204000Y434000D01*
X205500Y421111D02*
X205500Y420000D01*
X220000Y420000D01*
X205500Y421111D02*
X205500Y406000D01*
X204000Y406000D01*
X425200Y476900D02*
X446000Y476900D01*
X446000Y476000D01*
X425200Y476900D02*
X405000Y476900D01*
X405000Y476000D01*
X425200Y476900D02*
X425200Y460000D01*
X426000Y460000D01*
X42000Y596900D02*
X20000Y596900D01*
X20000Y600000D01*
X42000Y596900D02*
X63100Y596900D01*
X70000Y590000D01*
D25*
X306000Y747500D03*
D26*
X301300Y604150D02*
X354150Y604150D01*
X358000Y608000D01*
X358000Y621500D01*
X402800Y666300D01*
X322800Y769700D02*
X319700Y769700D01*
X306000Y756000D01*
X306000Y747500D01*
D28*
X301000Y909900D02*
X351800Y909900D01*
D27*
X322800Y845900D02*
X314100Y845900D01*
D29*
X240978Y849878D02*
X216458Y849878D01*
X240978Y849878D02*
X285550Y894450D01*
X300400Y909300D01*
X301000Y909300D01*
D30*
X314100Y845900D03*
D31*
X285550Y887350D02*
X285550Y894450D01*
D27*
X298900Y861100D02*
X314100Y845900D01*
X298900Y861100D02*
X298900Y874000D01*
D31*
X285550Y887350D02*
X285550Y894450D01*
X285550Y887350D02*
X298900Y874000D01*
D26*
X301750Y630000D02*
X301300Y629550D01*
X301750Y630000D02*
X320000Y630000D01*
D32*
X470000Y670000D03*
D26*
X498000Y714870D02*
X498000Y741640D01*
X498000Y714870D02*
X481000Y697870D01*
X481000Y681000D02*
X470000Y670000D01*
X481000Y681000D02*
X481000Y697870D01*
X426700Y580000D02*
X425200Y578500D01*
X426700Y580000D02*
X460000Y580000D01*
X470000Y590000D01*
X470000Y670000D01*
X579300Y629300D02*
X580000Y630000D01*
X600000Y630000D01*
X610000Y640000D01*
X610000Y670000D02*
X600000Y680000D01*
X530000Y680000D01*
D25*
X530000Y680000D03*
D26*
X610000Y670000D02*
X610000Y640000D01*
X425200Y578500D02*
X410368Y578500D01*
X402934Y571066D01*
X370000Y700000D02*
X359131Y700000D01*
X370000Y700000D02*
X380000Y710000D01*
X380000Y741767D02*
X406333Y768100D01*
X380000Y741767D02*
X380000Y710000D01*
X406333Y768100D02*
X455000Y768100D01*
X342700Y682950D02*
X342700Y652700D01*
X320000Y630000D01*
D25*
X342700Y652700D03*
D33*
X359131Y700000D03*
D26*
X350000Y700000D01*
X342700Y692700D02*
X342700Y682950D01*
X342700Y692700D02*
X350000Y700000D01*
D25*
X402934Y571066D03*
D32*
X170000Y870000D03*
X15000Y562249D03*
D31*
X364200Y791340D02*
X401640Y791340D01*
X407200Y796900D01*
X410300Y800000D01*
X439300Y800000D02*
X455400Y816100D01*
X439300Y800000D02*
X410300Y800000D01*
D26*
X42000Y622300D02*
X29732Y622300D01*
X22032Y630000D01*
D25*
X22032Y630000D03*
D26*
X388000Y768000D02*
X389000Y768000D01*
X389000Y778700D01*
X407200Y796900D01*
X388000Y768000D02*
X368000Y748000D01*
X368000Y714971D02*
X366515Y713485D01*
X330000Y713485D01*
X320000Y703485D01*
X320000Y683150D02*
X319800Y682950D01*
X368000Y714971D02*
X368000Y748000D01*
X320000Y703485D02*
X320000Y683150D01*
X34400Y541200D02*
X15000Y560600D01*
X15000Y562249D01*
X351660Y791340D02*
X364200Y791340D01*
X351660Y791340D02*
X346000Y797000D01*
X305259Y797000D01*
X305227Y796968D01*
X205032Y796968D01*
X201000Y801000D01*
X198000Y804000D01*
X201000Y801000D02*
X170000Y832000D01*
X170000Y870000D01*
X146612Y893388D01*
X124200Y893388D01*
X50400Y490400D02*
X34400Y490400D01*
X50400Y490400D02*
X87950Y527950D01*
X121300Y527950D01*
D29*
X554700Y654700D02*
X579300Y654700D01*
X554700Y654700D02*
X540000Y640000D01*
D34*
X540000Y640000D03*
D29*
X412000Y409000D02*
X412000Y384960D01*
D32*
X412000Y409000D03*
D28*
X561500Y578500D02*
X579300Y578500D01*
X528500Y611500D02*
X528195Y611500D01*
X511500Y628195D01*
X511500Y628500D01*
X500000Y640000D01*
X528500Y611500D02*
X561500Y578500D01*
X500000Y640000D02*
X500000Y690000D01*
X563700Y753700D01*
X598500Y753700D01*
X613100Y553100D02*
X579300Y553100D01*
X630000Y570000D02*
X630000Y690000D01*
X605900Y714100D02*
X598500Y714100D01*
X630000Y570000D02*
X613100Y553100D01*
X630000Y690000D02*
X605900Y714100D01*
X564276Y528300D02*
X510600Y474624D01*
X564276Y528300D02*
X579300Y528300D01*
X510600Y474624D02*
X510600Y398500D01*
D26*
X579300Y527700D02*
X580000Y530000D01*
X579300Y528300D01*
D28*
X581700Y430000D02*
X550200Y398500D01*
X581700Y430000D02*
X610000Y430000D01*
X630000Y450000D01*
X630000Y467224D01*
X596704Y500520D01*
X581080Y500520D02*
X579300Y502300D01*
X581080Y500520D02*
X596704Y500520D01*
D26*
X325250Y515250D02*
X301300Y515250D01*
X400000Y590000D02*
X400000Y600000D01*
X403900Y603900D01*
X425200Y603900D01*
X400000Y590000D02*
X325250Y515250D01*
X301300Y502550D02*
X362550Y502550D01*
X413100Y553100D02*
X425200Y553100D01*
X413100Y553100D02*
X362550Y502550D01*
X370850Y489850D02*
X301300Y489850D01*
X408700Y527700D02*
X425200Y527700D01*
X408700Y527700D02*
X370850Y489850D01*
X55000Y772400D02*
X55000Y815000D01*
X76200Y836200D02*
X91000Y836200D01*
X76200Y836200D02*
X55000Y815000D01*
X103150Y616850D02*
X121300Y616850D01*
X103150Y616850D02*
X90000Y630000D01*
X61200Y690000D02*
X55000Y696200D01*
X61200Y690000D02*
X80000Y690000D01*
X90000Y680000D01*
X90000Y630000D01*
X110000Y502550D02*
X121300Y502550D01*
X110000Y502550D02*
X108852Y502550D01*
X100550Y502550D01*
X55000Y465000D02*
X34400Y465000D01*
X55000Y465000D02*
X60000Y470000D01*
X60000Y480000D01*
X82550Y502550D01*
X108852Y502550D01*
D29*
X212000Y928500D02*
X212000Y962000D01*
X230000Y980000D01*
X280000Y980000D01*
D26*
X300000Y962500D02*
X301000Y960700D01*
X290000Y972500D02*
X280000Y980000D01*
D35*
X301000Y960700D02*
X351800Y960700D01*
D29*
X301000Y960700D02*
X280000Y980000D01*
D26*
X340000Y935000D02*
X350121Y935257D01*
X351800Y935300D01*
D29*
X380000Y935300D01*
X386000Y941300D01*
X386000Y956300D02*
X392000Y962300D01*
X386000Y956300D02*
X386000Y941300D01*
X392000Y962300D02*
X428500Y962300D01*
D35*
X350078Y935300D02*
X301000Y935300D01*
X350078Y935300D02*
X350121Y935257D01*
D26*
X121300Y604150D02*
X95850Y604150D01*
X78000Y622000D01*
X78000Y660000D01*
X64900Y673100D01*
X42000Y673100D01*
X121300Y591450D02*
X119850Y590000D01*
X121300Y591450D02*
X88550Y591450D01*
X66000Y614000D01*
X66000Y640000D01*
X58300Y647700D01*
X42000Y647700D01*
X121300Y553350D02*
X120199Y552249D01*
X6000Y710900D02*
X31000Y735900D01*
X6000Y584000D02*
X12719Y577281D01*
X20000Y577281D01*
X24760Y577281D01*
X6000Y584000D02*
X6000Y710900D01*
X20000Y577281D02*
X32719Y577281D01*
X56650Y553350D02*
X121300Y553350D01*
X56650Y553350D02*
X32719Y577281D01*
X416420Y645920D02*
X425200Y654700D01*
X416420Y645920D02*
X408949Y645920D01*
X393029Y630000D01*
X383471Y630000D01*
X376000Y622529D01*
X376000Y600014D01*
X329986Y554000D01*
X315000Y554000D01*
X301300Y553350D01*
X278800Y845500D02*
X277800Y846500D01*
X402300Y502300D02*
X425200Y502300D01*
X402300Y502300D02*
X377150Y477150D01*
X301300Y477150D01*
X425200Y629300D02*
X424500Y630000D01*
X410000Y630000D01*
X388000Y608000D01*
X388000Y594971D01*
X319579Y527950D02*
X301300Y527950D01*
X319579Y527950D02*
X388000Y594971D01*
X121300Y476350D02*
X116350Y476350D01*
X347300Y359300D02*
X356000Y359300D01*
X347300Y359300D02*
X335000Y347000D01*
X210000Y347000D01*
X203000Y347000D01*
X121300Y477150D02*
X107150Y477150D01*
X100000Y470000D01*
X100000Y410000D01*
X163000Y347000D01*
X210000Y347000D01*
D31*
X455400Y866900D02*
X466900Y866900D01*
X490000Y890000D01*
X560000Y890000D01*
X577700Y907700D01*
X577700Y912800D01*
D27*
X410840Y874000D02*
X375100Y874000D01*
X410840Y874000D02*
X413000Y876160D01*
X446140Y876160D01*
X455400Y866900D01*
D26*
X53400Y363400D02*
X34400Y363400D01*
X53400Y363400D02*
X62000Y372000D01*
X62000Y442000D01*
X121150Y490000D02*
X121300Y489850D01*
X121150Y490000D02*
X90000Y490000D01*
X80000Y480000D01*
X80000Y460000D01*
X62000Y442000D01*
X301300Y616850D02*
X342850Y616850D01*
X401900Y691900D02*
X455000Y691900D01*
X401900Y691900D02*
X387196Y677196D01*
X387196Y667667D01*
X346000Y626471D02*
X346000Y620000D01*
X346000Y626471D02*
X387196Y667667D01*
X346000Y620000D02*
X342850Y616850D01*
X455000Y691900D02*
X455000Y705000D01*
X450000Y710000D01*
X430000Y710000D01*
D25*
X430000Y710000D03*
D26*
X124200Y958412D02*
X98412Y958412D01*
X12500Y872500D02*
X12500Y856800D01*
X12500Y872500D02*
X98412Y958412D01*
X31000Y838629D02*
X31000Y812100D01*
X31000Y838629D02*
X37900Y845529D01*
X37900Y856800D01*
M02*
