M48
;GenerationSoftware,Autodesk,EAGLE,9.1.2*%
;CreationDate,2018-08-31T13:28:58Z*%
FMAT,2
ICI,OFF
METRIC,TZ,000.000
T12C0.350
T11C0.700
T10C0.800
T9C0.813
T8C0.914
T7C1.000
T6C1.016
T5C1.100
T4C1.700
T3C3.000
T2C3.302
%
G90
M71
T2
X60526Y84150
T3
X61000Y38000
X61000Y96000
X3600Y96400
T4
X51060Y39850
X42850Y92270
X42850Y96230
X25160Y92850
X21200Y92850
X59850Y71410
X59850Y75370
X55020Y39850
T5
X31700Y87000
X42300Y87000
T6
X57930Y65470
X43520Y65470
X57930Y62930
X57930Y50230
X57930Y60390
X43520Y62930
X43520Y60390
X43520Y57850
X43520Y55310
X43520Y52770
X43520Y50230
X45540Y86690
X45540Y84150
X45540Y81610
X43520Y47690
X57930Y55310
X2000Y35730
X2000Y38270
X4200Y67310
X4200Y64770
X4200Y62230
X4200Y59690
X57930Y47690
X57930Y57850
X57930Y52770
T7
X23550Y80350
X23550Y73850
X19050Y80350
X19050Y73850
X25000Y86000
T8
X12420Y95841
X12420Y89339
T9
X35180Y96070
X3070Y70550
X35180Y93530
X35180Y90990
X29720Y84550
X29720Y76930
X3070Y80710
X40280Y66630
X30100Y96070
X30100Y93530
X30100Y90990
X43000Y69190
X43000Y76810
X40404Y83401
X42396Y83799
X5990Y82030
X36420Y81166
X36420Y79134
X49800Y76196
X49800Y74164
X41200Y36464
X41200Y38496
X9510Y79770
X9510Y77230
X1950Y85580
X4490Y85580
X7030Y85580
X13610Y82030
X45280Y70290
X45280Y77910
X40280Y74250
X32280Y76970
X32280Y84590
T10
X31000Y81000
X6540Y37740
X21100Y56000
X6540Y52980
X22600Y57700
X41200Y40900
X54000Y64000
X2203Y63000
X30600Y74750
X1500Y56225
X17000Y87000
X36351Y66524
X41000Y56813
X53000Y68000
X47000Y67000
X21000Y77000
X6540Y42820
X2000Y42000
X40000Y71000
X6540Y47900
X6540Y45360
X6540Y50440
X6540Y55520
X6540Y40280
T11
X27780Y84650
X27780Y82110
X57770Y91280
X60310Y91280
X40720Y79690
X40720Y82230
X21129Y42990
X21111Y40450
T12
X34500Y65250
X7000Y59000
M30