M48
;GenerationSoftware,Autodesk,EAGLE,9.1.2*%
;CreationDate,2018-09-19T13:29:07Z*%
FMAT,2
ICI,OFF
METRIC,TZ,000.000
T11C0.700
T10C0.800
T9C0.813
T8C0.914
T7C1.000
T6C1.016
T5C1.499
T4C1.700
T3C3.000
T2C3.302
%
G90
M71
T2
X60526Y84150
T3
X3600Y96400
X61000Y96000
X61000Y38000
T4
X25160Y92850
X21200Y92850
X42850Y96230
X42850Y92270
X59850Y71410
X51060Y39850
X55020Y39850
X59850Y75370
T5
X21646Y84988
X9954Y75212
T6
X45540Y81610
X57930Y55310
X57930Y57850
X57930Y60390
X57930Y62930
X57930Y50230
X45540Y86690
X45540Y84150
X42520Y62930
X57930Y65470
X42520Y47690
X42520Y50230
X42520Y52770
X42520Y55310
X42520Y57850
X42520Y60390
X42520Y65470
X57930Y52770
X57930Y47690
X4200Y59690
X4200Y62230
X4200Y64770
X4200Y67310
X35600Y35930
X35600Y38470
T7
X19750Y73250
X19750Y77750
X54000Y64000
X26250Y77750
X26250Y73250
T8
X12420Y95841
X12420Y89339
T9
X30100Y96070
X30100Y90990
X30100Y93530
X37510Y87400
X29890Y87400
X3100Y73590
X3100Y81210
X41300Y87616
X41300Y85584
X45500Y76810
X45500Y69190
X5500Y69620
X35180Y96070
X49800Y76196
X49800Y74164
X36420Y79134
X36420Y81166
X41200Y36464
X41200Y38496
X9100Y83620
X9100Y86160
X1250Y85680
X3790Y85680
X32280Y84590
X32280Y76970
X6330Y85680
X35180Y93530
X5500Y77240
X35180Y90990
X40280Y74250
X40280Y66630
T10
X36351Y66524
X43000Y71000
X41200Y40900
X2203Y63000
X1500Y56225
X17000Y87000
X40293Y57107
X34270Y65270
X53000Y68000
X47000Y67000
X30600Y74750
X29900Y81200
X21000Y76000
X3440Y49040
X5800Y57500
X3440Y46500
X3440Y43960
X3440Y51580
X3440Y54120
X3440Y41420
X3440Y38880
X3440Y36340
T11
X27780Y82110
X57770Y91280
X60310Y91280
X40720Y79690
X40720Y82230
X18010Y42129
X20550Y42111
X27780Y84650
M30