G04 EAGLE Gerber X2 export*
%TF.Part,Single*%
%TF.FileFunction,Profile,NP*%
%TF.FilePolarity,Positive*%
%TF.GenerationSoftware,Autodesk,EAGLE,9.1.2*%
%TF.CreationDate,2018-09-19T13:29:08Z*%
G75*
%MOMM*%
%FSLAX34Y34*%
%LPD*%
%AMOC8*
5,1,8,0,0,1.08239X$1,22.5*%
G01*
%ADD10C,0.254000*%


D10*
X0Y340000D02*
X650000Y340000D01*
X650000Y1000000D01*
X0Y1000000D01*
X0Y340000D01*
X490000Y910000D02*
X560000Y910000D01*
X560000Y980000D01*
X490000Y980000D01*
X490000Y910000D01*
X230000Y360000D02*
X320000Y360000D01*
X320000Y430000D01*
X230000Y430000D01*
X230000Y360000D01*
X120000Y650000D02*
X300000Y650000D01*
X300000Y720000D01*
X120000Y720000D01*
X120000Y650000D01*
X604720Y824990D02*
X603641Y825061D01*
X602569Y825202D01*
X601509Y825413D01*
X600465Y825692D01*
X599441Y826040D01*
X598443Y826454D01*
X597473Y826932D01*
X596537Y827472D01*
X595638Y828073D01*
X594781Y828731D01*
X593968Y829444D01*
X593204Y830208D01*
X592491Y831021D01*
X591833Y831878D01*
X591232Y832777D01*
X590692Y833713D01*
X590214Y834683D01*
X589800Y835681D01*
X589452Y836705D01*
X589173Y837749D01*
X588962Y838809D01*
X588821Y839881D01*
X588750Y840960D01*
X588750Y842040D01*
X588821Y843119D01*
X588962Y844191D01*
X589173Y845251D01*
X589452Y846295D01*
X589800Y847319D01*
X590214Y848317D01*
X590692Y849287D01*
X591232Y850223D01*
X591833Y851122D01*
X592491Y851979D01*
X593204Y852792D01*
X593968Y853557D01*
X594781Y854269D01*
X595638Y854927D01*
X596537Y855528D01*
X597473Y856068D01*
X598443Y856546D01*
X599441Y856960D01*
X600465Y857308D01*
X601509Y857587D01*
X602569Y857798D01*
X603641Y857939D01*
X604720Y858010D01*
X605800Y858010D01*
X606879Y857939D01*
X607951Y857798D01*
X609011Y857587D01*
X610055Y857308D01*
X611079Y856960D01*
X612077Y856546D01*
X613047Y856068D01*
X613983Y855528D01*
X614882Y854927D01*
X615739Y854269D01*
X616552Y853557D01*
X617317Y852792D01*
X618029Y851979D01*
X618687Y851122D01*
X619288Y850223D01*
X619828Y849287D01*
X620306Y848317D01*
X620720Y847319D01*
X621068Y846295D01*
X621347Y845251D01*
X621558Y844191D01*
X621699Y843119D01*
X621770Y842040D01*
X621770Y840960D01*
X621699Y839881D01*
X621558Y838809D01*
X621347Y837749D01*
X621068Y836705D01*
X620720Y835681D01*
X620306Y834683D01*
X619828Y833713D01*
X619288Y832777D01*
X618687Y831878D01*
X618029Y831021D01*
X617317Y830208D01*
X616552Y829444D01*
X615739Y828731D01*
X614882Y828073D01*
X613983Y827472D01*
X613047Y826932D01*
X612077Y826454D01*
X611079Y826040D01*
X610055Y825692D01*
X609011Y825413D01*
X607951Y825202D01*
X606879Y825061D01*
X605800Y824990D01*
X604720Y824990D01*
X625000Y379464D02*
X624924Y378396D01*
X624771Y377335D01*
X624543Y376288D01*
X624241Y375260D01*
X623867Y374256D01*
X623422Y373281D01*
X622908Y372341D01*
X622329Y371440D01*
X621687Y370582D01*
X620985Y369772D01*
X620228Y369015D01*
X619418Y368313D01*
X618560Y367671D01*
X617659Y367092D01*
X616719Y366578D01*
X615744Y366133D01*
X614740Y365759D01*
X613712Y365457D01*
X612665Y365229D01*
X611604Y365076D01*
X610536Y365000D01*
X609464Y365000D01*
X608396Y365076D01*
X607335Y365229D01*
X606288Y365457D01*
X605260Y365759D01*
X604256Y366133D01*
X603281Y366578D01*
X602341Y367092D01*
X601440Y367671D01*
X600582Y368313D01*
X599772Y369015D01*
X599015Y369772D01*
X598313Y370582D01*
X597671Y371440D01*
X597092Y372341D01*
X596578Y373281D01*
X596133Y374256D01*
X595759Y375260D01*
X595457Y376288D01*
X595229Y377335D01*
X595076Y378396D01*
X595000Y379464D01*
X595000Y380536D01*
X595076Y381604D01*
X595229Y382665D01*
X595457Y383712D01*
X595759Y384740D01*
X596133Y385744D01*
X596578Y386719D01*
X597092Y387659D01*
X597671Y388560D01*
X598313Y389418D01*
X599015Y390228D01*
X599772Y390985D01*
X600582Y391687D01*
X601440Y392329D01*
X602341Y392908D01*
X603281Y393422D01*
X604256Y393867D01*
X605260Y394241D01*
X606288Y394543D01*
X607335Y394771D01*
X608396Y394924D01*
X609464Y395000D01*
X610536Y395000D01*
X611604Y394924D01*
X612665Y394771D01*
X613712Y394543D01*
X614740Y394241D01*
X615744Y393867D01*
X616719Y393422D01*
X617659Y392908D01*
X618560Y392329D01*
X619418Y391687D01*
X620228Y390985D01*
X620985Y390228D01*
X621687Y389418D01*
X622329Y388560D01*
X622908Y387659D01*
X623422Y386719D01*
X623867Y385744D01*
X624241Y384740D01*
X624543Y383712D01*
X624771Y382665D01*
X624924Y381604D01*
X625000Y380536D01*
X625000Y379464D01*
X625000Y959464D02*
X624924Y958396D01*
X624771Y957335D01*
X624543Y956288D01*
X624241Y955260D01*
X623867Y954256D01*
X623422Y953281D01*
X622908Y952341D01*
X622329Y951440D01*
X621687Y950582D01*
X620985Y949772D01*
X620228Y949015D01*
X619418Y948313D01*
X618560Y947671D01*
X617659Y947092D01*
X616719Y946578D01*
X615744Y946133D01*
X614740Y945759D01*
X613712Y945457D01*
X612665Y945229D01*
X611604Y945076D01*
X610536Y945000D01*
X609464Y945000D01*
X608396Y945076D01*
X607335Y945229D01*
X606288Y945457D01*
X605260Y945759D01*
X604256Y946133D01*
X603281Y946578D01*
X602341Y947092D01*
X601440Y947671D01*
X600582Y948313D01*
X599772Y949015D01*
X599015Y949772D01*
X598313Y950582D01*
X597671Y951440D01*
X597092Y952341D01*
X596578Y953281D01*
X596133Y954256D01*
X595759Y955260D01*
X595457Y956288D01*
X595229Y957335D01*
X595076Y958396D01*
X595000Y959464D01*
X595000Y960536D01*
X595076Y961604D01*
X595229Y962665D01*
X595457Y963712D01*
X595759Y964740D01*
X596133Y965744D01*
X596578Y966719D01*
X597092Y967659D01*
X597671Y968560D01*
X598313Y969418D01*
X599015Y970228D01*
X599772Y970985D01*
X600582Y971687D01*
X601440Y972329D01*
X602341Y972908D01*
X603281Y973422D01*
X604256Y973867D01*
X605260Y974241D01*
X606288Y974543D01*
X607335Y974771D01*
X608396Y974924D01*
X609464Y975000D01*
X610536Y975000D01*
X611604Y974924D01*
X612665Y974771D01*
X613712Y974543D01*
X614740Y974241D01*
X615744Y973867D01*
X616719Y973422D01*
X617659Y972908D01*
X618560Y972329D01*
X619418Y971687D01*
X620228Y970985D01*
X620985Y970228D01*
X621687Y969418D01*
X622329Y968560D01*
X622908Y967659D01*
X623422Y966719D01*
X623867Y965744D01*
X624241Y964740D01*
X624543Y963712D01*
X624771Y962665D01*
X624924Y961604D01*
X625000Y960536D01*
X625000Y959464D01*
X51000Y963464D02*
X50924Y962396D01*
X50771Y961335D01*
X50543Y960288D01*
X50241Y959260D01*
X49867Y958256D01*
X49422Y957281D01*
X48908Y956341D01*
X48329Y955440D01*
X47687Y954582D01*
X46985Y953772D01*
X46228Y953015D01*
X45418Y952313D01*
X44560Y951671D01*
X43659Y951092D01*
X42719Y950578D01*
X41744Y950133D01*
X40740Y949759D01*
X39712Y949457D01*
X38665Y949229D01*
X37604Y949076D01*
X36536Y949000D01*
X35464Y949000D01*
X34396Y949076D01*
X33335Y949229D01*
X32288Y949457D01*
X31260Y949759D01*
X30256Y950133D01*
X29281Y950578D01*
X28341Y951092D01*
X27440Y951671D01*
X26582Y952313D01*
X25772Y953015D01*
X25015Y953772D01*
X24313Y954582D01*
X23671Y955440D01*
X23092Y956341D01*
X22578Y957281D01*
X22133Y958256D01*
X21759Y959260D01*
X21457Y960288D01*
X21229Y961335D01*
X21076Y962396D01*
X21000Y963464D01*
X21000Y964536D01*
X21076Y965604D01*
X21229Y966665D01*
X21457Y967712D01*
X21759Y968740D01*
X22133Y969744D01*
X22578Y970719D01*
X23092Y971659D01*
X23671Y972560D01*
X24313Y973418D01*
X25015Y974228D01*
X25772Y974985D01*
X26582Y975687D01*
X27440Y976329D01*
X28341Y976908D01*
X29281Y977422D01*
X30256Y977867D01*
X31260Y978241D01*
X32288Y978543D01*
X33335Y978771D01*
X34396Y978924D01*
X35464Y979000D01*
X36536Y979000D01*
X37604Y978924D01*
X38665Y978771D01*
X39712Y978543D01*
X40740Y978241D01*
X41744Y977867D01*
X42719Y977422D01*
X43659Y976908D01*
X44560Y976329D01*
X45418Y975687D01*
X46228Y974985D01*
X46985Y974228D01*
X47687Y973418D01*
X48329Y972560D01*
X48908Y971659D01*
X49422Y970719D01*
X49867Y969744D01*
X50241Y968740D01*
X50543Y967712D01*
X50771Y966665D01*
X50924Y965604D01*
X51000Y964536D01*
X51000Y963464D01*
M02*
